<svg xmlns="http://www.w3.org/2000/svg" xmlns:xlink="http://www.w3.org/1999/xlink" width="974" height="897" version="1.1">
<style type="text/css">
.l0{
  fill: #ffffff;
  stroke: #ffffff;
  stroke-linecap:round;
  stroke-linejoin:round;
  stroke-width: 9.39697;
}
.l1{
  fill: #000000;
  stroke: #000000;
  stroke-linecap:round;
  stroke-linejoin:round;
  stroke-width: 9.39697;
}
.l2{
  fill: #000000; fill-opacity: 0.2;
  stroke: #000000;
  stroke-linecap:round;
  stroke-linejoin:round;
  stroke-width: 9.39697;
}
.l3{
  fill: #000000; fill-opacity: 0.5;
  stroke: #000000;
  stroke-linecap:round;
  stroke-linejoin:round;
  stroke-width: 9.39697;
}
.l4{
  fill: #000000;
  stroke: #000000;
  stroke-linecap:round;
  stroke-linejoin:round;
  stroke-width: 9.39697;
}
.l5{
  fill: #000000;
  stroke: #000000;
  stroke-linecap:round;
  stroke-linejoin:round;
  stroke-width: 9.39697;
}
.l6{
  fill: #000000; fill-opacity: 0.5;
  stroke: #000000;
  stroke-linecap:round;
  stroke-linejoin:round;
  stroke-width: 9.39697;
}
.l7{
  fill: #000000; fill-opacity: 0.5;
  stroke: #000000;
  stroke-linecap:round;
  stroke-linejoin:round;
  stroke-width: 9.39697;
}
.l8{
  fill: #000000; fill-opacity: 0.5;
  stroke: #000000;
  stroke-linecap:round;
  stroke-linejoin:round;
  stroke-width: 9.39697;
}
.l9{
  fill: #000000; fill-opacity: 0.5;
  stroke: #000000;
  stroke-linecap:round;
  stroke-linejoin:round;
  stroke-width: 9.39697;
}
.l10{
  fill: #000000;
  stroke: #000000;
  stroke-linecap:round;
  stroke-linejoin:round;
  stroke-width: 9.39697;
}
.l11{
  fill: #000000; fill-opacity: 0.5;
  stroke: #000000;
  stroke-linecap:round;
  stroke-linejoin:round;
  stroke-width: 9.39697;
}
.l12{
  fill: #000000; fill-opacity: 0.5;
  stroke: #000000;
  stroke-linecap:round;
  stroke-linejoin:round;
  stroke-width: 9.39697;
}
.l13{
  fill: #000000; fill-opacity: 0.5;
  stroke: #000000;
  stroke-linecap:round;
  stroke-linejoin:round;
  stroke-width: 9.39697;
}
.l14{
  fill: #000000; fill-opacity: 0.2;
  stroke: #000000;
  stroke-linecap:round;
  stroke-linejoin:round;
  stroke-width: 9.39697;
}
.l15{
  fill: #000000; fill-opacity: 0.5;
  stroke: #000000;
  stroke-linecap:round;
  stroke-linejoin:round;
  stroke-width: 9.39697;
}
.l16{
  fill: #000000; fill-opacity: 0.5;
  stroke: #000000;
  stroke-linecap:round;
  stroke-linejoin:round;
  stroke-width: 9.39697;
}
.l17{
  fill: #000000; fill-opacity: 0.2;
  stroke: #000000;
  stroke-linecap:round;
  stroke-linejoin:round;
  stroke-width: 9.39697;
}
.l18{
  fill: #000000; fill-opacity: 0.5;
  stroke: #000000;
  stroke-linecap:round;
  stroke-linejoin:round;
  stroke-width: 9.39697;
}
.l19{
  fill: #000000; fill-opacity: 0.2;
  stroke: #000000;
  stroke-linecap:round;
  stroke-linejoin:round;
  stroke-width: 9.39697;
}
.l20{
  fill: #000000; fill-opacity: 0.2;
  stroke: #000000;
  stroke-linecap:round;
  stroke-linejoin:round;
  stroke-width: 9.39697;
}
.l21{
  fill: #000000; fill-opacity: 0.2;
  stroke: #000000;
  stroke-linecap:round;
  stroke-linejoin:round;
  stroke-width: 9.39697;
}
text {font-family: Sans-Serif;}
</style>
<rect class="l0" x="0" y="0" width="974" height="897"/>
<path class="l4" d="M140.361 312.23L209.968 312.23"/>
<path class="l4" d="M140.361 590.659L209.968 590.659"/>
<path class="l4" d="M488.397 33.8012L488.397 103.408"/>
<path class="l4" d="M697.218 312.23L766.826 312.23"/>
<path class="l4" d="M697.218 590.659L766.826 590.659"/>
<path class="l4" d="M558.004 729.873L558.004 799.48"/>
<path class="l4" d="M418.79 729.873L418.79 799.48"/>
<path class="l4" d="M349.182 729.873L418.79 729.873"/>
<path class="l4" d="M279.575 312.23L279.575 590.659"/>
<path class="l4" d="M349.182 173.016L627.611 173.016"/>
<path class="l4" d="M697.218 312.23L697.218 590.659"/>
<path class="l4" d="M418.79 729.873L627.611 729.873"/>
<path class="l4" d="M383.986 729.873L418.79 677.668"/>
<path class="l4" d="M418.79 677.668L453.593 729.873"/>
<path class="l4" d="M279.575 173.016L279.575 312.23"/>
<path class="l4" d="M279.575 173.016L349.182 173.016"/>
<path class="l4" d="M627.611 173.016L697.218 173.016"/>
<path class="l4" d="M697.218 173.016L697.218 312.23"/>
<path class="l4" d="M627.611 729.873L697.218 729.873"/>
<path class="l4" d="M697.218 590.659L697.218 729.873"/>
<path class="l4" d="M279.575 729.873L349.182 729.873"/>
<path class="l4" d="M279.575 590.659L279.575 729.873"/>
<path class="l4" d="M488.397 103.408L488.397 173.016"/>
<path class="l4" d="M766.826 312.23L836.433 312.23"/>
<path class="l4" d="M766.826 590.659L836.433 590.659"/>
<path class="l4" d="M558.004 799.48L558.004 869.088"/>
<path class="l4" d="M418.79 799.48L418.79 869.088"/>
<path class="l4" d="M209.968 590.659L279.575 590.659"/>
<path class="l4" d="M209.968 312.23L279.575 312.23"/>
<path class="l5" d="M122.959 294.828L157.763 294.828L157.763 329.632L122.959 329.632L122.959 294.828z"/>
<path class="l5" d="M122.959 573.257L157.763 573.257L157.763 608.061L122.959 608.061L122.959 573.257z"/>
<path class="l5" d="M819.031 573.257L853.835 573.257L853.835 608.061L819.031 608.061L819.031 573.257z"/>
<path class="l5" d="M819.031 294.828L853.835 294.828L853.835 329.632L819.031 329.632L819.031 294.828z"/>
<path class="l5" d="M540.602 851.686L575.406 851.686L575.406 886.489L540.602 886.489L540.602 851.686z"/>
<path class="l5" d="M401.388 851.686L436.191 851.686L436.191 886.489L401.388 886.489L401.388 851.686z"/>
<path class="l5" d="M470.995 16.3994L505.799 16.3994L505.799 51.203L470.995 51.203L470.995 16.3994z"/>
<text fill="#000000"  xml:space="preserve" font-size="90.4894" transform="translate(314.379, 342.189)" >D</text>
<text fill="#000000"  xml:space="preserve" font-size="90.4894" transform="translate(314.379, 620.618)" >Dn</text>
<text fill="#000000"  xml:space="preserve" font-size="90.4894" transform="translate(523.2, 620.618)" >Qn</text>
<text fill="#000000"  xml:space="preserve" font-size="90.4894" transform="translate(592.808, 342.189)" >Q</text>
</svg>
