<svg xmlns="http://www.w3.org/2000/svg" xmlns:xlink="http://www.w3.org/1999/xlink" width="1029" height="867" version="1.1">
<style type="text/css">
.l0{
  fill: #ffffff;
  stroke: #ffffff;
  stroke-linecap:round;
  stroke-linejoin:round;
  stroke-width: 1.85161;
}
.l1{
  fill: #000000;
  stroke: #000000;
  stroke-linecap:round;
  stroke-linejoin:round;
  stroke-width: 1.85161;
}
.l2{
  fill: #000000; fill-opacity: 0.2;
  stroke: #000000;
  stroke-linecap:round;
  stroke-linejoin:round;
  stroke-width: 1.85161;
}
.l3{
  fill: #000000; fill-opacity: 0.5;
  stroke: #000000;
  stroke-linecap:round;
  stroke-linejoin:round;
  stroke-width: 1.85161;
}
.l4{
  fill: #000000;
  stroke: #000000;
  stroke-linecap:round;
  stroke-linejoin:round;
  stroke-width: 1.85161;
}
.l5{
  fill: #000000;
  stroke: #000000;
  stroke-linecap:round;
  stroke-linejoin:round;
  stroke-width: 1.85161;
}
.l6{
  fill: #000000; fill-opacity: 0.5;
  stroke: #000000;
  stroke-linecap:round;
  stroke-linejoin:round;
  stroke-width: 1.85161;
}
.l7{
  fill: #000000; fill-opacity: 0.5;
  stroke: #000000;
  stroke-linecap:round;
  stroke-linejoin:round;
  stroke-width: 1.85161;
}
.l8{
  fill: #000000; fill-opacity: 0.5;
  stroke: #000000;
  stroke-linecap:round;
  stroke-linejoin:round;
  stroke-width: 1.85161;
}
.l9{
  fill: #000000; fill-opacity: 0.5;
  stroke: #000000;
  stroke-linecap:round;
  stroke-linejoin:round;
  stroke-width: 1.85161;
}
.l10{
  fill: #000000;
  stroke: #000000;
  stroke-linecap:round;
  stroke-linejoin:round;
  stroke-width: 1.85161;
}
.l11{
  fill: #000000; fill-opacity: 0.5;
  stroke: #000000;
  stroke-linecap:round;
  stroke-linejoin:round;
  stroke-width: 1.85161;
}
.l12{
  fill: #000000; fill-opacity: 0.5;
  stroke: #000000;
  stroke-linecap:round;
  stroke-linejoin:round;
  stroke-width: 1.85161;
}
.l13{
  fill: #000000; fill-opacity: 0.5;
  stroke: #000000;
  stroke-linecap:round;
  stroke-linejoin:round;
  stroke-width: 1.85161;
}
.l14{
  fill: #000000; fill-opacity: 0.2;
  stroke: #000000;
  stroke-linecap:round;
  stroke-linejoin:round;
  stroke-width: 1.85161;
}
.l15{
  fill: #000000; fill-opacity: 0.5;
  stroke: #000000;
  stroke-linecap:round;
  stroke-linejoin:round;
  stroke-width: 1.85161;
}
.l16{
  fill: #000000; fill-opacity: 0.5;
  stroke: #000000;
  stroke-linecap:round;
  stroke-linejoin:round;
  stroke-width: 1.85161;
}
.l17{
  fill: #000000; fill-opacity: 0.2;
  stroke: #000000;
  stroke-linecap:round;
  stroke-linejoin:round;
  stroke-width: 1.85161;
}
.l18{
  fill: #000000; fill-opacity: 0.5;
  stroke: #000000;
  stroke-linecap:round;
  stroke-linejoin:round;
  stroke-width: 1.85161;
}
.l19{
  fill: #000000; fill-opacity: 0.2;
  stroke: #000000;
  stroke-linecap:round;
  stroke-linejoin:round;
  stroke-width: 1.85161;
}
.l20{
  fill: #000000; fill-opacity: 0.2;
  stroke: #000000;
  stroke-linecap:round;
  stroke-linejoin:round;
  stroke-width: 1.85161;
}
.l21{
  fill: #000000; fill-opacity: 0.2;
  stroke: #000000;
  stroke-linecap:round;
  stroke-linejoin:round;
  stroke-width: 1.85161;
}
text {font-family: Sans-Serif;}
</style>
<rect class="l0" x="0" y="0" width="1029" height="867"/>
<path class="l4" d="M228.156 348.847L255.587 348.847"/>
<path class="l4" d="M228.156 458.572L255.587 458.572"/>
<path class="l4" d="M365.312 239.122L365.312 266.554"/>
<path class="l4" d="M447.606 348.847L475.037 348.847"/>
<path class="l4" d="M447.606 458.572L475.037 458.572"/>
<path class="l4" d="M392.743 513.435L392.743 540.866"/>
<path class="l4" d="M337.881 513.435L337.881 540.866"/>
<path class="l4" d="M310.449 513.435L337.881 513.435"/>
<path class="l4" d="M283.018 348.847L283.018 458.572"/>
<path class="l4" d="M310.449 293.985L420.174 293.985"/>
<path class="l4" d="M447.606 348.847L447.606 458.572"/>
<path class="l4" d="M337.881 513.435L420.174 513.435"/>
<path class="l4" d="M324.165 513.435L337.881 492.861"/>
<path class="l4" d="M337.881 492.861L351.596 513.435"/>
<path class="l4" d="M283.018 293.985L283.018 348.847"/>
<path class="l4" d="M283.018 293.985L310.449 293.985"/>
<path class="l4" d="M420.174 293.985L447.606 293.985"/>
<path class="l4" d="M447.606 293.985L447.606 348.847"/>
<path class="l4" d="M420.174 513.435L447.606 513.435"/>
<path class="l4" d="M447.606 458.572L447.606 513.435"/>
<path class="l4" d="M283.018 513.435L310.449 513.435"/>
<path class="l4" d="M283.018 458.572L283.018 513.435"/>
<path class="l4" d="M365.312 266.554L365.312 293.985"/>
<path class="l4" d="M475.037 348.847L502.468 348.847"/>
<path class="l4" d="M475.037 458.572L502.468 458.572"/>
<path class="l4" d="M392.743 540.866L392.743 568.297"/>
<path class="l4" d="M337.881 540.866L337.881 568.297"/>
<path class="l4" d="M255.587 458.572L283.018 458.572"/>
<path class="l4" d="M255.587 348.847L283.018 348.847"/>
<path class="l4" d="M502.468 348.847L529.899 348.847"/>
<path class="l4" d="M502.468 458.572L529.899 458.572"/>
<path class="l4" d="M639.624 239.122L639.624 266.554"/>
<path class="l4" d="M721.918 348.847L749.349 348.847"/>
<path class="l4" d="M721.918 458.572L749.349 458.572"/>
<path class="l4" d="M667.055 513.435L667.055 540.866"/>
<path class="l4" d="M612.193 513.435L612.193 540.866"/>
<path class="l4" d="M584.762 513.435L612.193 513.435"/>
<path class="l4" d="M557.331 348.847L557.331 458.572"/>
<path class="l4" d="M584.762 293.985L694.487 293.985"/>
<path class="l4" d="M721.918 348.847L721.918 458.572"/>
<path class="l4" d="M612.193 513.435L694.487 513.435"/>
<path class="l4" d="M598.477 513.435L612.193 492.861"/>
<path class="l4" d="M612.193 492.861L625.909 513.435"/>
<path class="l4" d="M557.331 293.985L557.331 348.847"/>
<path class="l4" d="M557.331 293.985L584.762 293.985"/>
<path class="l4" d="M694.487 293.985L721.918 293.985"/>
<path class="l4" d="M721.918 293.985L721.918 348.847"/>
<path class="l4" d="M694.487 513.435L721.918 513.435"/>
<path class="l4" d="M721.918 458.572L721.918 513.435"/>
<path class="l4" d="M557.331 513.435L584.762 513.435"/>
<path class="l4" d="M557.331 458.572L557.331 513.435"/>
<path class="l4" d="M639.624 266.554L639.624 293.985"/>
<path class="l4" d="M749.349 348.847L776.78 348.847"/>
<path class="l4" d="M749.349 458.572L776.78 458.572"/>
<path class="l4" d="M667.055 540.866L667.055 568.297"/>
<path class="l4" d="M612.193 540.866L612.193 568.297"/>
<path class="l4" d="M529.899 458.572L557.331 458.572"/>
<path class="l4" d="M529.899 348.847L557.331 348.847"/>
<path class="l5" d="M495.61 726.027L509.326 726.027L509.326 739.742L495.61 739.742L495.61 726.027z"/>
<path class="l5" d="M221.298 341.99L235.014 341.99L235.014 355.705L221.298 355.705L221.298 341.99z"/>
<path class="l5" d="M221.298 451.714L235.014 451.714L235.014 465.43L221.298 465.43L221.298 451.714z"/>
<path class="l5" d="M495.61 451.714L509.326 451.714L509.326 465.43L495.61 465.43L495.61 451.714z"/>
<path class="l5" d="M495.61 341.99L509.326 341.99L509.326 355.705L495.61 355.705L495.61 341.99z"/>
<path class="l5" d="M385.885 561.439L399.601 561.439L399.601 575.155L385.885 575.155L385.885 561.439z"/>
<path class="l5" d="M331.023 561.439L344.738 561.439L344.738 575.155L331.023 575.155L331.023 561.439z"/>
<path class="l5" d="M358.454 232.265L372.17 232.265L372.17 245.98L358.454 245.98L358.454 232.265z"/>
<path class="l5" d="M159.578 623.16L173.293 623.16"/>
<path class="l5" d="M159.578 623.16L149.291 609.444L125.289 609.444L135.575 623.16L125.289 636.875L149.291 636.875L159.578 623.16"/>
<path class="l5" d="M169.864 619.731L176.722 619.731L176.722 626.589L169.864 626.589L169.864 619.731z"/>
<path class="l5" d="M164.721 348.847L173.293 348.847"/>
<path class="l5" d="M135.575 335.132L125.289 348.847L135.575 362.563L154.434 362.563L164.721 348.847L154.434 335.132L135.575 335.132"/>
<path class="l5" d="M169.864 345.418L176.722 345.418L176.722 352.276L169.864 352.276L169.864 345.418z"/>
<path class="l5" d="M164.721 458.572L173.293 458.572"/>
<path class="l5" d="M135.575 444.857L125.289 458.572L135.575 472.288L154.434 472.288L164.721 458.572L154.434 444.857L135.575 444.857"/>
<path class="l5" d="M169.864 455.143L176.722 455.143L176.722 462.001L169.864 462.001L169.864 455.143z"/>
<path class="l5" d="M831.643 348.847L840.215 348.847"/>
<path class="l5" d="M869.361 362.563L879.647 348.847L869.361 335.132L850.502 335.132L840.215 348.847L850.502 362.563L869.361 362.563"/>
<path class="l5" d="M828.214 345.418L835.072 345.418L835.072 352.276L828.214 352.276L828.214 345.418z"/>
<path class="l5" d="M831.643 458.572L840.215 458.572"/>
<path class="l5" d="M869.361 472.288L879.647 458.572L869.361 444.857L850.502 444.857L840.215 458.572L850.502 472.288L869.361 472.288"/>
<path class="l5" d="M828.214 455.143L835.072 455.143L835.072 462.001L828.214 462.001L828.214 455.143z"/>
<path class="l5" d="M495.61 341.99L509.326 341.99L509.326 355.705L495.61 355.705L495.61 341.99z"/>
<path class="l5" d="M495.61 451.714L509.326 451.714L509.326 465.43L495.61 465.43L495.61 451.714z"/>
<path class="l5" d="M769.923 451.714L783.638 451.714L783.638 465.43L769.923 465.43L769.923 451.714z"/>
<path class="l5" d="M769.923 341.99L783.638 341.99L783.638 355.705L769.923 355.705L769.923 341.99z"/>
<path class="l5" d="M660.198 561.439L673.913 561.439L673.913 575.155L660.198 575.155L660.198 561.439z"/>
<path class="l5" d="M605.335 561.439L619.051 561.439L619.051 575.155L605.335 575.155L605.335 561.439z"/>
<path class="l5" d="M632.766 232.265L646.482 232.265L646.482 245.98L632.766 245.98L632.766 232.265z"/>
<path class="l5" d="M502.468 120.825L502.468 129.397"/>
<path class="l5" d="M516.184 91.6795L502.468 81.3928L488.752 91.6795L488.752 110.538L502.468 120.825L516.184 110.538L516.184 91.6795"/>
<path class="l5" d="M499.039 125.969L505.897 125.969L505.897 132.826L499.039 132.826L499.039 125.969z"/>
<path class="l5" d="M502.468 732.885L502.468 741.457"/>
<path class="l5" d="M488.752 770.602L502.468 780.889L516.184 770.602L516.184 751.744L502.468 741.457L488.752 751.744L488.752 770.602"/>
<path class="l5" d="M499.039 729.456L505.897 729.456L505.897 736.313L499.039 736.313L499.039 729.456z"/>
<text fill="#000000"  xml:space="preserve" font-size="35.6606" transform="translate(296.734, 360.654)" >D</text>
<text fill="#000000"  xml:space="preserve" font-size="35.6606" transform="translate(296.734, 470.379)" >Dn</text>
<text fill="#000000"  xml:space="preserve" font-size="35.6606" transform="translate(379.028, 470.379)" >Qn</text>
<text fill="#000000"  xml:space="preserve" font-size="35.6606" transform="translate(406.459, 360.654)" >Q</text>
<text fill="#000000"  xml:space="preserve" font-size="35.6606" transform="translate(351.596, 415.516)" >Φ</text>
<text fill="#000000"  xml:space="preserve" font-size="47.072" transform="translate(55.8597, 641.899)" >clk</text>
<text fill="#000000"  xml:space="preserve" font-size="47.072" transform="translate(82.8593, 363.314)" >D</text>
<text fill="#000000"  xml:space="preserve" font-size="47.072" transform="translate(52.8593, 473.039)" >Dn</text>
<text fill="#000000"  xml:space="preserve" font-size="47.072" transform="translate(886.077, 365.872)" >Q</text>
<text fill="#000000"  xml:space="preserve" font-size="47.072" transform="translate(886.077, 475.597)" >Qn</text>
<text fill="#000000"  xml:space="preserve" font-size="35.6606" transform="translate(571.046, 360.654)" >D</text>
<text fill="#000000"  xml:space="preserve" font-size="35.6606" transform="translate(571.046, 470.379)" >Dn</text>
<text fill="#000000"  xml:space="preserve" font-size="35.6606" transform="translate(653.34, 470.379)" >Qn</text>
<text fill="#000000"  xml:space="preserve" font-size="35.6606" transform="translate(680.771, 360.654)" >Q</text>
<text fill="#000000"  xml:space="preserve" font-size="35.6606" transform="translate(612.193, 415.516)" >Φn</text>
<text fill="#000000"  xml:space="preserve" font-size="47.072" transform="translate(519.493, 74.9635) rotate(270)" >VP</text>
<text fill="#000000"  xml:space="preserve" font-size="47.072" transform="translate(516.935, 854.319) rotate(270)" >VN</text>
<path class="l1" d="M639.624 184.26L639.624 239.122"/>
<path class="l1" d="M365.312 184.26L639.624 184.26"/>
<path class="l1" d="M365.312 184.26L365.312 239.122"/>
<path class="l1" d="M502.468 129.397L502.468 184.26"/>
<path class="l1" d="M667.055 623.16L667.055 678.022"/>
<path class="l1" d="M667.055 568.297L667.055 623.16"/>
<path class="l1" d="M612.193 568.297L612.193 623.16"/>
<path class="l1" d="M337.881 623.16L612.193 623.16"/>
<path class="l1" d="M337.881 568.297L337.881 623.16"/>
<path class="l1" d="M173.293 623.16L337.881 623.16"/>
<path class="l1" d="M392.743 568.297L392.743 678.022"/>
<path class="l1" d="M776.78 458.572L831.643 458.572"/>
<path class="l1" d="M776.78 348.847L831.643 348.847"/>
<path class="l1" d="M173.293 348.847L228.156 348.847"/>
<path class="l1" d="M173.293 458.572L228.156 458.572"/>
<path class="l1" d="M392.743 678.022L667.055 678.022"/>
<path class="l1" d="M502.468 678.022L502.468 732.885"/>
<circle class="l1" cx="502.468" cy="678.022" r="5.07478"/>
<circle class="l1" cx="337.881" cy="623.16" r="5.07478"/>
<circle class="l1" cx="337.881" cy="623.16" r="5.07478"/>
<circle class="l1" cx="337.881" cy="623.16" r="5.07478"/>
<circle class="l1" cx="502.468" cy="184.26" r="5.07478"/>
</svg>
