<svg xmlns="http://www.w3.org/2000/svg" xmlns:xlink="http://www.w3.org/1999/xlink" width="778" height="867" version="1.1">
<style type="text/css">
.l0{
  fill: #ffffff;
  stroke: #ffffff;
  stroke-linecap:round;
  stroke-linejoin:round;
  stroke-width: 8.26556;
}
.l1{
  fill: #000000;
  stroke: #000000;
  stroke-linecap:round;
  stroke-linejoin:round;
  stroke-width: 8.26556;
}
.l2{
  fill: #000000; fill-opacity: 0.2;
  stroke: #000000;
  stroke-linecap:round;
  stroke-linejoin:round;
  stroke-width: 8.26556;
}
.l3{
  fill: #000000; fill-opacity: 0.5;
  stroke: #000000;
  stroke-linecap:round;
  stroke-linejoin:round;
  stroke-width: 8.26556;
}
.l4{
  fill: #000000;
  stroke: #000000;
  stroke-linecap:round;
  stroke-linejoin:round;
  stroke-width: 8.26556;
}
.l5{
  fill: #000000;
  stroke: #000000;
  stroke-linecap:round;
  stroke-linejoin:round;
  stroke-width: 8.26556;
}
.l6{
  fill: #000000; fill-opacity: 0.5;
  stroke: #000000;
  stroke-linecap:round;
  stroke-linejoin:round;
  stroke-width: 8.26556;
}
.l7{
  fill: #000000; fill-opacity: 0.5;
  stroke: #000000;
  stroke-linecap:round;
  stroke-linejoin:round;
  stroke-width: 8.26556;
}
.l8{
  fill: #000000; fill-opacity: 0.5;
  stroke: #000000;
  stroke-linecap:round;
  stroke-linejoin:round;
  stroke-width: 8.26556;
}
.l9{
  fill: #000000; fill-opacity: 0.5;
  stroke: #000000;
  stroke-linecap:round;
  stroke-linejoin:round;
  stroke-width: 8.26556;
}
.l10{
  fill: #000000;
  stroke: #000000;
  stroke-linecap:round;
  stroke-linejoin:round;
  stroke-width: 8.26556;
}
.l11{
  fill: #000000; fill-opacity: 0.5;
  stroke: #000000;
  stroke-linecap:round;
  stroke-linejoin:round;
  stroke-width: 8.26556;
}
.l12{
  fill: #000000; fill-opacity: 0.5;
  stroke: #000000;
  stroke-linecap:round;
  stroke-linejoin:round;
  stroke-width: 8.26556;
}
.l13{
  fill: #000000; fill-opacity: 0.5;
  stroke: #000000;
  stroke-linecap:round;
  stroke-linejoin:round;
  stroke-width: 8.26556;
}
.l14{
  fill: #000000; fill-opacity: 0.2;
  stroke: #000000;
  stroke-linecap:round;
  stroke-linejoin:round;
  stroke-width: 8.26556;
}
.l15{
  fill: #000000; fill-opacity: 0.5;
  stroke: #000000;
  stroke-linecap:round;
  stroke-linejoin:round;
  stroke-width: 8.26556;
}
.l16{
  fill: #000000; fill-opacity: 0.5;
  stroke: #000000;
  stroke-linecap:round;
  stroke-linejoin:round;
  stroke-width: 8.26556;
}
.l17{
  fill: #000000; fill-opacity: 0.2;
  stroke: #000000;
  stroke-linecap:round;
  stroke-linejoin:round;
  stroke-width: 8.26556;
}
.l18{
  fill: #000000; fill-opacity: 0.5;
  stroke: #000000;
  stroke-linecap:round;
  stroke-linejoin:round;
  stroke-width: 8.26556;
}
.l19{
  fill: #000000; fill-opacity: 0.2;
  stroke: #000000;
  stroke-linecap:round;
  stroke-linejoin:round;
  stroke-width: 8.26556;
}
.l20{
  fill: #000000; fill-opacity: 0.2;
  stroke: #000000;
  stroke-linecap:round;
  stroke-linejoin:round;
  stroke-width: 8.26556;
}
.l21{
  fill: #000000; fill-opacity: 0.2;
  stroke: #000000;
  stroke-linecap:round;
  stroke-linejoin:round;
  stroke-width: 8.26556;
}
text {font-family: Sans-Serif;}
</style>
<rect class="l0" x="0" y="0" width="778" height="867"/>
<path class="l4" d="M88.868 302.047L150.094 302.047"/>
<path class="l4" d="M88.868 546.953L150.094 546.953"/>
<path class="l4" d="M395 57.1416L395 118.368"/>
<path class="l4" d="M578.679 302.047L639.906 302.047"/>
<path class="l4" d="M578.679 546.953L639.906 546.953"/>
<path class="l4" d="M456.226 669.406L456.226 730.632"/>
<path class="l4" d="M333.774 669.406L333.774 730.632"/>
<path class="l4" d="M272.547 669.406L333.774 669.406"/>
<path class="l4" d="M211.321 302.047L211.321 546.953"/>
<path class="l4" d="M272.547 179.594L517.453 179.594"/>
<path class="l4" d="M578.679 302.047L578.679 546.953"/>
<path class="l4" d="M333.774 669.406L517.453 669.406"/>
<path class="l4" d="M303.16 669.406L333.774 623.486"/>
<path class="l4" d="M333.774 623.486L364.387 669.406"/>
<path class="l4" d="M211.321 179.594L211.321 302.047"/>
<path class="l4" d="M211.321 179.594L272.547 179.594"/>
<path class="l4" d="M517.453 179.594L578.679 179.594"/>
<path class="l4" d="M578.679 179.594L578.679 302.047"/>
<path class="l4" d="M517.453 669.406L578.679 669.406"/>
<path class="l4" d="M578.679 546.953L578.679 669.406"/>
<path class="l4" d="M211.321 669.406L272.547 669.406"/>
<path class="l4" d="M211.321 546.953L211.321 669.406"/>
<path class="l4" d="M395 118.368L395 179.594"/>
<path class="l4" d="M639.906 302.047L701.132 302.047"/>
<path class="l4" d="M639.906 546.953L701.132 546.953"/>
<path class="l4" d="M456.226 730.632L456.226 791.858"/>
<path class="l4" d="M333.774 730.632L333.774 791.858"/>
<path class="l4" d="M150.094 546.953L211.321 546.953"/>
<path class="l4" d="M150.094 302.047L211.321 302.047"/>
<path class="l5" d="M73.5614 286.741L104.175 286.741L104.175 317.354L73.5614 317.354L73.5614 286.741z"/>
<path class="l5" d="M73.5614 531.646L104.175 531.646L104.175 562.259L73.5614 562.259L73.5614 531.646z"/>
<path class="l5" d="M685.825 531.646L716.439 531.646L716.439 562.259L685.825 562.259L685.825 531.646z"/>
<path class="l5" d="M685.825 286.741L716.439 286.741L716.439 317.354L685.825 317.354L685.825 286.741z"/>
<path class="l5" d="M440.92 776.552L471.533 776.552L471.533 807.165L440.92 807.165L440.92 776.552z"/>
<path class="l5" d="M318.467 776.552L349.08 776.552L349.08 807.165L318.467 807.165L318.467 776.552z"/>
<path class="l5" d="M379.693 41.835L410.307 41.835L410.307 72.4482L379.693 72.4482L379.693 41.835z"/>
<text fill="#000000"  xml:space="preserve" font-size="79.5943" transform="translate(241.934, 328.399)" >D</text>
<text fill="#000000"  xml:space="preserve" font-size="79.5943" transform="translate(241.934, 573.305)" >Dn</text>
<text fill="#000000"  xml:space="preserve" font-size="79.5943" transform="translate(425.613, 573.305)" >Qn</text>
<text fill="#000000"  xml:space="preserve" font-size="79.5943" transform="translate(486.84, 328.399)" >Q</text>
<text fill="#000000"  xml:space="preserve" font-size="79.5943" transform="translate(333.774, 450.852)" >Φn</text>
</svg>
