<svg xmlns="http://www.w3.org/2000/svg" xmlns:xlink="http://www.w3.org/1999/xlink" width="642" height="567" version="1.1">
<style type="text/css">
.l0{
  fill: #ffffff;
  stroke: #ffffff;
  stroke-linecap:round;
  stroke-linejoin:round;
  stroke-width: 4.95116;
}
.l1{
  fill: #000000;
  stroke: #000000;
  stroke-linecap:round;
  stroke-linejoin:round;
  stroke-width: 4.95116;
}
.l2{
  fill: #000000; fill-opacity: 0.2;
  stroke: #000000;
  stroke-linecap:round;
  stroke-linejoin:round;
  stroke-width: 4.95116;
}
.l3{
  fill: #000000; fill-opacity: 0.5;
  stroke: #000000;
  stroke-linecap:round;
  stroke-linejoin:round;
  stroke-width: 4.95116;
}
.l4{
  fill: #000000;
  stroke: #000000;
  stroke-linecap:round;
  stroke-linejoin:round;
  stroke-width: 4.95116;
}
.l5{
  fill: #000000;
  stroke: #000000;
  stroke-linecap:round;
  stroke-linejoin:round;
  stroke-width: 4.95116;
}
.l6{
  fill: #000000; fill-opacity: 0.5;
  stroke: #000000;
  stroke-linecap:round;
  stroke-linejoin:round;
  stroke-width: 4.95116;
}
.l7{
  fill: #000000; fill-opacity: 0.5;
  stroke: #000000;
  stroke-linecap:round;
  stroke-linejoin:round;
  stroke-width: 4.95116;
}
.l8{
  fill: #000000; fill-opacity: 0.5;
  stroke: #000000;
  stroke-linecap:round;
  stroke-linejoin:round;
  stroke-width: 4.95116;
}
.l9{
  fill: #000000; fill-opacity: 0.5;
  stroke: #000000;
  stroke-linecap:round;
  stroke-linejoin:round;
  stroke-width: 4.95116;
}
.l10{
  fill: #000000;
  stroke: #000000;
  stroke-linecap:round;
  stroke-linejoin:round;
  stroke-width: 4.95116;
}
.l11{
  fill: #000000; fill-opacity: 0.5;
  stroke: #000000;
  stroke-linecap:round;
  stroke-linejoin:round;
  stroke-width: 4.95116;
}
.l12{
  fill: #000000; fill-opacity: 0.5;
  stroke: #000000;
  stroke-linecap:round;
  stroke-linejoin:round;
  stroke-width: 4.95116;
}
.l13{
  fill: #000000; fill-opacity: 0.5;
  stroke: #000000;
  stroke-linecap:round;
  stroke-linejoin:round;
  stroke-width: 4.95116;
}
.l14{
  fill: #000000; fill-opacity: 0.2;
  stroke: #000000;
  stroke-linecap:round;
  stroke-linejoin:round;
  stroke-width: 4.95116;
}
.l15{
  fill: #000000; fill-opacity: 0.5;
  stroke: #000000;
  stroke-linecap:round;
  stroke-linejoin:round;
  stroke-width: 4.95116;
}
.l16{
  fill: #000000; fill-opacity: 0.5;
  stroke: #000000;
  stroke-linecap:round;
  stroke-linejoin:round;
  stroke-width: 4.95116;
}
.l17{
  fill: #000000; fill-opacity: 0.2;
  stroke: #000000;
  stroke-linecap:round;
  stroke-linejoin:round;
  stroke-width: 4.95116;
}
.l18{
  fill: #000000; fill-opacity: 0.5;
  stroke: #000000;
  stroke-linecap:round;
  stroke-linejoin:round;
  stroke-width: 4.95116;
}
.l19{
  fill: #000000; fill-opacity: 0.2;
  stroke: #000000;
  stroke-linecap:round;
  stroke-linejoin:round;
  stroke-width: 4.95116;
}
.l20{
  fill: #000000; fill-opacity: 0.2;
  stroke: #000000;
  stroke-linecap:round;
  stroke-linejoin:round;
  stroke-width: 4.95116;
}
.l21{
  fill: #000000; fill-opacity: 0.2;
  stroke: #000000;
  stroke-linecap:round;
  stroke-linejoin:round;
  stroke-width: 4.95116;
}
text {font-family: Sans-Serif;}
</style>
<rect class="l0" x="0" y="0" width="642" height="567"/>
<path class="l4" d="M135.124 207.15L171.799 207.15"/>
<path class="l4" d="M135.124 353.85L171.799 353.85"/>
<path class="l4" d="M318.5 60.4486L318.5 97.1238"/>
<path class="l4" d="M428.526 207.15L465.201 207.15"/>
<path class="l4" d="M428.526 353.85L465.201 353.85"/>
<path class="l4" d="M355.175 427.201L355.175 463.876"/>
<path class="l4" d="M281.825 427.201L281.825 463.876"/>
<path class="l4" d="M245.15 427.201L281.825 427.201"/>
<path class="l4" d="M208.474 207.15L208.474 353.85"/>
<path class="l4" d="M245.15 133.799L391.85 133.799"/>
<path class="l4" d="M428.526 207.15L428.526 353.85"/>
<path class="l4" d="M281.825 427.201L391.85 427.201"/>
<path class="l4" d="M263.487 427.201L281.825 399.695"/>
<path class="l4" d="M281.825 399.695L300.162 427.201"/>
<path class="l4" d="M208.474 133.799L208.474 207.15"/>
<path class="l4" d="M208.474 133.799L245.15 133.799"/>
<path class="l4" d="M391.85 133.799L428.526 133.799"/>
<path class="l4" d="M428.526 133.799L428.526 207.15"/>
<path class="l4" d="M391.85 427.201L428.526 427.201"/>
<path class="l4" d="M428.526 353.85L428.526 427.201"/>
<path class="l4" d="M208.474 427.201L245.15 427.201"/>
<path class="l4" d="M208.474 353.85L208.474 427.201"/>
<path class="l4" d="M318.5 97.1238L318.5 133.799"/>
<path class="l4" d="M465.201 207.15L501.876 207.15"/>
<path class="l4" d="M465.201 353.85L501.876 353.85"/>
<path class="l4" d="M355.175 463.876L355.175 500.551"/>
<path class="l4" d="M281.825 463.876L281.825 500.551"/>
<path class="l4" d="M171.799 353.85L208.474 353.85"/>
<path class="l4" d="M171.799 207.15L208.474 207.15"/>
<path class="l4" d="M318.5 262.162L318.5 298.838"/>
<path class="l4" d="M318.5 262.162L336.838 262.162"/>
<path class="l4" d="M300.162 298.838L318.5 298.838"/>
<path class="l5" d="M125.955 197.981L144.293 197.981L144.293 216.318L125.955 216.318L125.955 197.981z"/>
<path class="l5" d="M125.955 344.682L144.293 344.682L144.293 363.019L125.955 363.019L125.955 344.682z"/>
<path class="l5" d="M492.707 344.682L511.045 344.682L511.045 363.019L492.707 363.019L492.707 344.682z"/>
<path class="l5" d="M492.707 197.981L511.045 197.981L511.045 216.318L492.707 216.318L492.707 197.981z"/>
<path class="l5" d="M346.006 491.383L364.344 491.383L364.344 509.72L346.006 509.72L346.006 491.383z"/>
<path class="l5" d="M272.656 491.383L290.994 491.383L290.994 509.72L272.656 509.72L272.656 491.383z"/>
<path class="l5" d="M309.331 51.2798L327.669 51.2798L327.669 69.6174L309.331 69.6174L309.331 51.2798z"/>
<text fill="#000000"  xml:space="preserve" font-size="47.6778" transform="translate(226.812, 222.935)" >D</text>
<text fill="#000000"  xml:space="preserve" font-size="47.6778" transform="translate(226.812, 369.635)" >Dn</text>
<text fill="#000000"  xml:space="preserve" font-size="47.6778" transform="translate(336.838, 369.635)" >Qn</text>
<text fill="#000000"  xml:space="preserve" font-size="47.6778" transform="translate(373.513, 222.935)" >Q</text>
</svg>
