<svg xmlns="http://www.w3.org/2000/svg" xmlns:xlink="http://www.w3.org/1999/xlink" width="772" height="867" version="1.1">
<style type="text/css">
.l0{
  fill: #ffffff;
  stroke: #ffffff;
  stroke-linecap:round;
  stroke-linejoin:round;
  stroke-width: 2.11321;
}
.l1{
  fill: #000000;
  stroke: #000000;
  stroke-linecap:round;
  stroke-linejoin:round;
  stroke-width: 2.11321;
}
.l2{
  fill: #000000; fill-opacity: 0.2;
  stroke: #000000;
  stroke-linecap:round;
  stroke-linejoin:round;
  stroke-width: 2.11321;
}
.l3{
  fill: #000000; fill-opacity: 0.5;
  stroke: #000000;
  stroke-linecap:round;
  stroke-linejoin:round;
  stroke-width: 2.11321;
}
.l4{
  fill: #000000;
  stroke: #000000;
  stroke-linecap:round;
  stroke-linejoin:round;
  stroke-width: 2.11321;
}
.l5{
  fill: #000000;
  stroke: #000000;
  stroke-linecap:round;
  stroke-linejoin:round;
  stroke-width: 2.11321;
}
.l6{
  fill: #000000; fill-opacity: 0.5;
  stroke: #000000;
  stroke-linecap:round;
  stroke-linejoin:round;
  stroke-width: 2.11321;
}
.l7{
  fill: #000000; fill-opacity: 0.5;
  stroke: #000000;
  stroke-linecap:round;
  stroke-linejoin:round;
  stroke-width: 2.11321;
}
.l8{
  fill: #000000; fill-opacity: 0.5;
  stroke: #000000;
  stroke-linecap:round;
  stroke-linejoin:round;
  stroke-width: 2.11321;
}
.l9{
  fill: #000000; fill-opacity: 0.5;
  stroke: #000000;
  stroke-linecap:round;
  stroke-linejoin:round;
  stroke-width: 2.11321;
}
.l10{
  fill: #000000;
  stroke: #000000;
  stroke-linecap:round;
  stroke-linejoin:round;
  stroke-width: 2.11321;
}
.l11{
  fill: #000000; fill-opacity: 0.5;
  stroke: #000000;
  stroke-linecap:round;
  stroke-linejoin:round;
  stroke-width: 2.11321;
}
.l12{
  fill: #000000; fill-opacity: 0.5;
  stroke: #000000;
  stroke-linecap:round;
  stroke-linejoin:round;
  stroke-width: 2.11321;
}
.l13{
  fill: #000000; fill-opacity: 0.5;
  stroke: #000000;
  stroke-linecap:round;
  stroke-linejoin:round;
  stroke-width: 2.11321;
}
.l14{
  fill: #000000; fill-opacity: 0.2;
  stroke: #000000;
  stroke-linecap:round;
  stroke-linejoin:round;
  stroke-width: 2.11321;
}
.l15{
  fill: #000000; fill-opacity: 0.5;
  stroke: #000000;
  stroke-linecap:round;
  stroke-linejoin:round;
  stroke-width: 2.11321;
}
.l16{
  fill: #000000; fill-opacity: 0.5;
  stroke: #000000;
  stroke-linecap:round;
  stroke-linejoin:round;
  stroke-width: 2.11321;
}
.l17{
  fill: #000000; fill-opacity: 0.2;
  stroke: #000000;
  stroke-linecap:round;
  stroke-linejoin:round;
  stroke-width: 2.11321;
}
.l18{
  fill: #000000; fill-opacity: 0.5;
  stroke: #000000;
  stroke-linecap:round;
  stroke-linejoin:round;
  stroke-width: 2.11321;
}
.l19{
  fill: #000000; fill-opacity: 0.2;
  stroke: #000000;
  stroke-linecap:round;
  stroke-linejoin:round;
  stroke-width: 2.11321;
}
.l20{
  fill: #000000; fill-opacity: 0.2;
  stroke: #000000;
  stroke-linecap:round;
  stroke-linejoin:round;
  stroke-width: 2.11321;
}
.l21{
  fill: #000000; fill-opacity: 0.2;
  stroke: #000000;
  stroke-linecap:round;
  stroke-linejoin:round;
  stroke-width: 2.11321;
}
text {font-family: Sans-Serif;}
</style>
<rect class="l0" x="0" y="0" width="772" height="867"/>
<path class="l4" d="M513.346 254.748L513.346 278.228"/>
<path class="l4" d="M513.346 254.748L536.826 254.748"/>
<path class="l4" d="M536.826 198.982L536.826 263.553"/>
<path class="l4" d="M513.346 207.787L536.826 207.787"/>
<path class="l4" d="M513.346 184.307L513.346 207.787"/>
<path class="l4" d="M513.346 231.267L536.826 231.267"/>
<path class="l4" d="M542.696 207.787L542.696 254.748"/>
<path class="l4" d="M551.501 231.267L560.306 231.267"/>
<circle class="l4" cx="547.099" cy="231.267" r="4.40251" style="fill:none;" />
<path class="l4" d="M419.426 254.748L419.426 278.228"/>
<path class="l4" d="M395.946 254.748L419.426 254.748"/>
<path class="l4" d="M395.946 198.982L395.946 263.553"/>
<path class="l4" d="M395.946 207.787L419.426 207.787"/>
<path class="l4" d="M419.426 184.307L419.426 207.787"/>
<path class="l4" d="M395.946 231.267L419.426 231.267"/>
<path class="l4" d="M390.076 207.787L390.076 254.748"/>
<path class="l4" d="M372.466 231.267L381.271 231.267"/>
<circle class="l4" cx="385.673" cy="231.267" r="4.40251" style="fill:none;" />
<path class="l4" d="M270.719 325.188L294.199 325.188"/>
<path class="l4" d="M270.719 325.188L270.719 348.668"/>
<path class="l4" d="M214.953 348.668L279.524 348.668"/>
<path class="l4" d="M223.758 325.188L223.758 348.668"/>
<path class="l4" d="M200.278 325.188L223.758 325.188"/>
<path class="l4" d="M247.238 325.188L247.238 348.668"/>
<path class="l4" d="M223.758 354.538L270.719 354.538"/>
<path class="l4" d="M247.238 363.343L247.238 372.148"/>
<circle class="l4" cx="247.238" cy="358.94" r="4.40251" style="fill:none;" />
<path class="l4" d="M270.719 419.108L294.199 419.108"/>
<path class="l4" d="M270.719 419.108L270.719 442.588"/>
<path class="l4" d="M214.953 442.588L279.524 442.588"/>
<path class="l4" d="M223.758 419.108L223.758 442.588"/>
<path class="l4" d="M200.278 419.108L223.758 419.108"/>
<path class="l4" d="M247.238 419.108L247.238 442.588"/>
<path class="l4" d="M223.758 448.458L270.719 448.458"/>
<path class="l4" d="M247.238 457.263L247.238 466.068"/>
<circle class="l4" cx="247.238" cy="452.861" r="4.40251" style="fill:none;" />
<path class="l4" d="M419.426 466.068L419.426 489.548"/>
<path class="l4" d="M395.946 489.548L419.426 489.548"/>
<path class="l4" d="M395.946 480.743L395.946 545.313"/>
<path class="l4" d="M395.946 536.508L419.426 536.508"/>
<path class="l4" d="M419.426 536.508L419.426 559.989"/>
<path class="l4" d="M395.946 513.028L419.426 513.028"/>
<path class="l4" d="M390.076 489.548L390.076 536.508"/>
<path class="l4" d="M372.466 513.028L390.076 513.028"/>
<path class="l4" d="M513.346 466.068L513.346 489.548"/>
<path class="l4" d="M513.346 489.548L536.826 489.548"/>
<path class="l4" d="M536.826 480.743L536.826 545.313"/>
<path class="l4" d="M513.346 536.508L536.826 536.508"/>
<path class="l4" d="M513.346 536.508L513.346 559.989"/>
<path class="l4" d="M513.346 513.028L536.826 513.028"/>
<path class="l4" d="M542.696 489.548L542.696 536.508"/>
<path class="l4" d="M542.696 513.028L560.306 513.028"/>
<path class="l4" d="M466.386 653.909L466.386 677.389"/>
<path class="l4" d="M442.906 677.389L466.386 677.389"/>
<path class="l4" d="M442.906 668.584L442.906 733.154"/>
<path class="l4" d="M442.906 724.349L466.386 724.349"/>
<path class="l4" d="M466.386 724.349L466.386 747.829"/>
<path class="l4" d="M442.906 700.869L466.386 700.869"/>
<path class="l4" d="M437.036 677.389L437.036 724.349"/>
<path class="l4" d="M419.426 700.869L437.036 700.869"/>
<path class="l5" d="M512.563 183.525L514.129 183.525L514.129 185.09L512.563 185.09L512.563 183.525z"/>
<path class="l5" d="M559.523 230.485L561.089 230.485L561.089 232.05L559.523 232.05L559.523 230.485z"/>
<path class="l5" d="M512.563 277.445L514.129 277.445L514.129 279.01L512.563 279.01L512.563 277.445z"/>
<path class="l5" d="M512.563 230.485L514.129 230.485L514.129 232.05L512.563 232.05L512.563 230.485z"/>
<path class="l5" d="M418.643 183.525L420.208 183.525L420.208 185.09L418.643 185.09L418.643 183.525z"/>
<path class="l5" d="M371.683 230.485L373.248 230.485L373.248 232.05L371.683 232.05L371.683 230.485z"/>
<path class="l5" d="M418.643 277.445L420.208 277.445L420.208 279.01L418.643 279.01L418.643 277.445z"/>
<path class="l5" d="M418.643 230.485L420.208 230.485L420.208 232.05L418.643 232.05L418.643 230.485z"/>
<path class="l5" d="M199.496 324.405L201.061 324.405L201.061 325.97L199.496 325.97L199.496 324.405z"/>
<path class="l5" d="M246.456 371.365L248.021 371.365L248.021 372.931L246.456 372.931L246.456 371.365z"/>
<path class="l5" d="M293.416 324.405L294.981 324.405L294.981 325.97L293.416 325.97L293.416 324.405z"/>
<path class="l5" d="M246.456 324.405L248.021 324.405L248.021 325.97L246.456 325.97L246.456 324.405z"/>
<path class="l5" d="M199.496 418.325L201.061 418.325L201.061 419.891L199.496 419.891L199.496 418.325z"/>
<path class="l5" d="M246.456 465.286L248.021 465.286L248.021 466.851L246.456 466.851L246.456 465.286z"/>
<path class="l5" d="M293.416 418.325L294.981 418.325L294.981 419.891L293.416 419.891L293.416 418.325z"/>
<path class="l5" d="M246.456 418.325L248.021 418.325L248.021 419.891L246.456 419.891L246.456 418.325z"/>
<path class="l5" d="M418.643 465.286L420.208 465.286L420.208 466.851L418.643 466.851L418.643 465.286z"/>
<path class="l5" d="M371.683 512.246L373.248 512.246L373.248 513.811L371.683 513.811L371.683 512.246z"/>
<path class="l5" d="M418.643 559.206L420.208 559.206L420.208 560.771L418.643 560.771L418.643 559.206z"/>
<path class="l5" d="M418.643 512.246L420.208 512.246L420.208 513.811L418.643 513.811L418.643 512.246z"/>
<path class="l5" d="M512.563 465.286L514.129 465.286L514.129 466.851L512.563 466.851L512.563 465.286z"/>
<path class="l5" d="M559.523 512.246L561.089 512.246L561.089 513.811L559.523 513.811L559.523 512.246z"/>
<path class="l5" d="M512.563 559.206L514.129 559.206L514.129 560.771L512.563 560.771L512.563 559.206z"/>
<path class="l5" d="M512.563 512.246L514.129 512.246L514.129 513.811L512.563 513.811L512.563 512.246z"/>
<path class="l5" d="M465.603 653.126L467.168 653.126L467.168 654.691L465.603 654.691L465.603 653.126z"/>
<path class="l5" d="M418.643 700.086L420.208 700.086L420.208 701.652L418.643 701.652L418.643 700.086z"/>
<path class="l5" d="M465.603 747.046L467.168 747.046L467.168 748.612L465.603 748.612L465.603 747.046z"/>
<path class="l5" d="M465.603 700.086L467.168 700.086L467.168 701.652L465.603 701.652L465.603 700.086z"/>
<path class="l5" d="M164.08 74.7336L168.972 74.7336"/>
<path class="l5" d="M147.448 66.9069L141.578 74.7336L147.448 82.5603L158.21 82.5603L164.08 74.7336L158.21 66.9069L147.448 66.9069"/>
<path class="l5" d="M167.015 72.7769L170.928 72.7769L170.928 76.6903L167.015 76.6903L167.015 72.7769z"/>
<path class="l5" d="M129.838 700.869L137.665 700.869"/>
<path class="l5" d="M129.838 700.869L123.968 693.042L110.271 693.042L116.141 700.869L110.271 708.696L123.968 708.696L129.838 700.869"/>
<path class="l5" d="M135.708 698.912L139.621 698.912L139.621 702.826L135.708 702.826L135.708 698.912z"/>
<path class="l5" d="M167.015 72.7769L170.928 72.7769L170.928 76.6903L167.015 76.6903L167.015 72.7769z"/>
<path class="l5" d="M164.08 121.694L168.972 121.694"/>
<path class="l5" d="M147.448 113.867L141.578 121.694L147.448 129.52L158.21 129.52L164.08 121.694L158.21 113.867L147.448 113.867"/>
<path class="l5" d="M167.015 119.737L170.928 119.737L170.928 123.65L167.015 123.65L167.015 119.737z"/>
<path class="l5" d="M167.015 119.737L170.928 119.737L170.928 123.65L167.015 123.65L167.015 119.737z"/>
<path class="l5" d="M464.429 761.526L468.342 761.526L468.342 765.439L464.429 765.439L464.429 761.526z"/>
<path class="l5" d="M464.429 526.725L468.342 526.725L468.342 530.638L464.429 530.638L464.429 526.725z"/>
<path class="l5" d="M464.429 151.044L468.342 151.044L468.342 154.957L464.429 154.957L464.429 151.044z"/>
<path class="l5" d="M245.282 244.964L249.195 244.964L249.195 248.877L245.282 248.877L245.282 244.964z"/>
<path class="l5" d="M638.573 325.188L643.465 325.188"/>
<path class="l5" d="M660.096 333.014L665.966 325.188L660.096 317.361L649.335 317.361L643.465 325.188L649.335 333.014L660.096 333.014"/>
<path class="l5" d="M636.616 323.231L640.53 323.231L640.53 327.144L636.616 327.144L636.616 323.231z"/>
<path class="l5" d="M638.573 419.108L643.465 419.108"/>
<path class="l5" d="M660.096 426.935L665.966 419.108L660.096 411.281L649.335 411.281L643.465 419.108L649.335 426.935L660.096 426.935"/>
<path class="l5" d="M636.616 417.151L640.53 417.151L640.53 421.065L636.616 421.065L636.616 417.151z"/>
<path class="l5" d="M132.773 325.188L137.665 325.188"/>
<path class="l5" d="M116.141 317.361L110.271 325.188L116.141 333.014L126.903 333.014L132.773 325.188L126.903 317.361L116.141 317.361"/>
<path class="l5" d="M135.708 323.231L139.621 323.231L139.621 327.144L135.708 327.144L135.708 323.231z"/>
<path class="l5" d="M132.773 419.108L137.665 419.108"/>
<path class="l5" d="M116.141 411.281L110.271 419.108L116.141 426.935L126.903 426.935L132.773 419.108L126.903 411.281L116.141 411.281"/>
<path class="l5" d="M135.708 417.151L139.621 417.151L139.621 421.065L135.708 421.065L135.708 417.151z"/>
<text fill="#000000"  xml:space="preserve" font-size="16.2795" transform="translate(568.133, 131.216)" >M8</text>
<text fill="#000000"  xml:space="preserve" font-size="16.2795" transform="translate(568.133, 154.696)" >pfet_01v8</text>
<text fill="#000000"  xml:space="preserve" font-size="16.2795" transform="translate(568.133, 178.176)" >1 x 0.5 / 0.15</text>
<text fill="#000000"  xml:space="preserve" font-size="16.2795" transform="translate(340.639, 131.216)" >M9</text>
<text fill="#000000"  xml:space="preserve" font-size="16.2795" transform="translate(284.639, 154.696)" >pfet_01v8</text>
<text fill="#000000"  xml:space="preserve" font-size="16.2795" transform="translate(259.639, 178.176)" >1 x 0.5 / 0.15</text>
<text fill="#000000"  xml:space="preserve" font-size="16.2795" transform="translate(189.758, 248.289)" >M10</text>
<text fill="#000000"  xml:space="preserve" font-size="16.2795" transform="translate(143.758, 271.769)" >pfet_01v8</text>
<text fill="#000000"  xml:space="preserve" font-size="16.2795" transform="translate(118.758, 295.249)" >1 x 0.5 / 0.15</text>
<text fill="#000000"  xml:space="preserve" font-size="16.2795" transform="translate(189.758, 483.09)" >M11</text>
<text fill="#000000"  xml:space="preserve" font-size="16.2795" transform="translate(143.758, 506.57)" >pfet_01v8</text>
<text fill="#000000"  xml:space="preserve" font-size="16.2795" transform="translate(118.758, 530.05)" >1 x 0.5 / 0.15</text>
<text fill="#000000"  xml:space="preserve" font-size="16.2795" transform="translate(346.292, 624.298)" >M12</text>
<text fill="#000000"  xml:space="preserve" font-size="16.2795" transform="translate(300.292, 600.818)" >nfet_01v8</text>
<text fill="#000000"  xml:space="preserve" font-size="16.2795" transform="translate(275.292, 577.338)" >1 x 0.5 / 0.15</text>
<text fill="#000000"  xml:space="preserve" font-size="16.2795" transform="translate(552.479, 624.298)" >M13</text>
<text fill="#000000"  xml:space="preserve" font-size="16.2795" transform="translate(552.479, 600.818)" >nfet_01v8</text>
<text fill="#000000"  xml:space="preserve" font-size="16.2795" transform="translate(552.479, 577.338)" >1 x 0.5 / 0.15</text>
<text fill="#000000"  xml:space="preserve" font-size="16.2795" transform="translate(393.252, 812.139)" >M14</text>
<text fill="#000000"  xml:space="preserve" font-size="16.2795" transform="translate(347.252, 788.658)" >nfet_01v8</text>
<text fill="#000000"  xml:space="preserve" font-size="16.2795" transform="translate(337.252, 765.178)" >1 x 2 / 0.15</text>
<text fill="#000000"  xml:space="preserve" font-size="26.8612" transform="translate(103.909, 82.9888)" >VP</text>
<text fill="#000000"  xml:space="preserve" font-size="26.8612" transform="translate(70.3146, 711.562)" >clk</text>
<text fill="#000000"  xml:space="preserve" font-size="26.8612" transform="translate(180.712, 81.0321)" >VP</text>
<text fill="#000000"  xml:space="preserve" font-size="26.8612" transform="translate(99.9093, 129.949)" >VN</text>
<text fill="#000000"  xml:space="preserve" font-size="26.8612" transform="translate(180.712, 127.992)" >VN</text>
<text fill="#000000"  xml:space="preserve" font-size="26.8612" transform="translate(478.057, 813.223) rotate(270)" >VN</text>
<text fill="#000000"  xml:space="preserve" font-size="26.8612" transform="translate(478.057, 578.422) rotate(270)" >VN</text>
<text fill="#000000"  xml:space="preserve" font-size="26.8612" transform="translate(472.684, 141.26) rotate(270)" >VP</text>
<text fill="#000000"  xml:space="preserve" font-size="26.8612" transform="translate(253.537, 235.181) rotate(270)" >VP</text>
<text fill="#000000"  xml:space="preserve" font-size="26.8612" transform="translate(669.635, 334.903)" >Q</text>
<text fill="#000000"  xml:space="preserve" font-size="26.8612" transform="translate(669.635, 428.823)" >Qn</text>
<text fill="#000000"  xml:space="preserve" font-size="26.8612" transform="translate(85.6025, 333.443)" >D</text>
<text fill="#000000"  xml:space="preserve" font-size="26.8612" transform="translate(68.6025, 427.363)" >Dn</text>
<path class="l1" d="M466.386 153.001L466.386 168.654"/>
<path class="l1" d="M419.426 184.307L419.426 231.267"/>
<path class="l1" d="M513.346 184.307L513.346 231.267"/>
<path class="l1" d="M247.238 387.801L262.892 387.801"/>
<path class="l1" d="M262.892 387.801L262.892 481.722"/>
<path class="l1" d="M247.238 481.722L262.892 481.722"/>
<path class="l1" d="M247.238 466.068L247.238 481.722"/>
<path class="l1" d="M247.238 372.148L247.238 387.801"/>
<path class="l1" d="M341.159 231.267L372.466 231.267"/>
<path class="l1" d="M294.199 325.188L325.505 325.188"/>
<path class="l1" d="M372.466 325.188L513.346 325.188"/>
<path class="l1" d="M325.505 231.267L325.505 309.534"/>
<path class="l1" d="M513.346 278.228L513.346 309.534"/>
<path class="l1" d="M419.426 168.654L466.386 168.654"/>
<path class="l1" d="M466.386 168.654L513.346 168.654"/>
<path class="l1" d="M419.426 168.654L419.426 184.307"/>
<path class="l1" d="M513.346 168.654L513.346 184.307"/>
<path class="l1" d="M341.159 325.188L372.466 325.188"/>
<path class="l1" d="M419.426 278.228L419.426 403.455"/>
<path class="l1" d="M309.852 419.108L419.426 419.108"/>
<path class="l1" d="M560.306 231.267L591.613 231.267"/>
<path class="l1" d="M591.613 231.267L591.613 403.455"/>
<path class="l1" d="M419.426 419.108L591.613 419.108"/>
<path class="l1" d="M513.346 325.188L513.346 466.068"/>
<path class="l1" d="M325.505 309.534L325.505 325.188"/>
<path class="l1" d="M513.346 309.534L513.346 325.188"/>
<path class="l1" d="M419.426 403.455L419.426 419.108"/>
<path class="l1" d="M591.613 403.455L591.613 419.108"/>
<path class="l1" d="M419.426 419.108L419.426 466.068"/>
<path class="l1" d="M419.426 559.989L419.426 606.949"/>
<path class="l1" d="M419.426 606.949L513.346 606.949"/>
<path class="l1" d="M513.346 559.989L513.346 606.949"/>
<path class="l1" d="M466.386 606.949L466.386 653.909"/>
<path class="l1" d="M247.238 481.722L247.238 700.869"/>
<path class="l1" d="M262.892 700.869L419.426 700.869"/>
<path class="l1" d="M137.665 700.869L247.238 700.869"/>
<path class="l1" d="M137.665 419.108L200.278 419.108"/>
<path class="l1" d="M137.665 325.188L200.278 325.188"/>
<path class="l1" d="M341.159 513.028L372.466 513.028"/>
<path class="l1" d="M325.505 325.188L325.505 513.028"/>
<path class="l1" d="M325.505 231.267L341.159 231.267"/>
<path class="l1" d="M325.505 325.188L341.159 325.188"/>
<path class="l1" d="M294.199 419.108L309.852 419.108"/>
<path class="l1" d="M325.505 513.028L341.159 513.028"/>
<path class="l1" d="M466.386 747.829L466.386 763.483"/>
<path class="l1" d="M419.426 513.028L513.346 513.028"/>
<path class="l1" d="M466.386 700.869L466.386 747.829"/>
<path class="l1" d="M247.238 246.921L247.238 325.188"/>
<path class="l1" d="M247.238 700.869L262.892 700.869"/>
<path class="l1" d="M513.346 325.188L638.573 325.188"/>
<path class="l1" d="M591.613 419.108L638.573 419.108"/>
<path class="l1" d="M560.306 513.028L591.613 513.028"/>
<path class="l1" d="M591.613 419.108L591.613 513.028"/>
<path class="l1" d="M466.386 513.028L466.386 528.682"/>
<path class="l1" d="M247.238 403.455L247.238 419.108"/>
<path class="l1" d="M231.585 403.455L247.238 403.455"/>
<path class="l1" d="M231.585 309.534L231.585 403.455"/>
<path class="l1" d="M231.585 309.534L247.238 309.534"/>
<circle class="l1" cx="466.386" cy="168.654" r="5.79175"/>
<circle class="l1" cx="466.386" cy="168.654" r="5.79175"/>
<circle class="l1" cx="466.386" cy="168.654" r="5.79175"/>
<circle class="l1" cx="247.238" cy="309.534" r="5.79175"/>
<circle class="l1" cx="466.386" cy="513.028" r="5.79175"/>
<circle class="l1" cx="591.613" cy="419.108" r="5.79175"/>
<circle class="l1" cx="591.613" cy="419.108" r="5.79175"/>
<circle class="l1" cx="513.346" cy="325.188" r="5.79175"/>
<circle class="l1" cx="247.238" cy="700.869" r="5.79175"/>
<circle class="l1" cx="325.505" cy="325.188" r="5.79175"/>
<circle class="l1" cx="325.505" cy="325.188" r="5.79175"/>
<circle class="l1" cx="247.238" cy="700.869" r="5.79175"/>
<circle class="l1" cx="247.238" cy="481.722" r="5.79175"/>
<circle class="l1" cx="247.238" cy="700.869" r="5.79175"/>
<circle class="l1" cx="466.386" cy="606.949" r="5.79175"/>
<circle class="l1" cx="419.426" cy="419.108" r="5.79175"/>
<circle class="l1" cx="591.613" cy="419.108" r="5.79175"/>
<circle class="l1" cx="419.426" cy="419.108" r="5.79175"/>
<circle class="l1" cx="513.346" cy="325.188" r="5.79175"/>
<circle class="l1" cx="325.505" cy="325.188" r="5.79175"/>
<circle class="l1" cx="513.346" cy="325.188" r="5.79175"/>
<circle class="l1" cx="419.426" cy="419.108" r="5.79175"/>
<circle class="l1" cx="591.613" cy="419.108" r="5.79175"/>
<circle class="l1" cx="419.426" cy="419.108" r="5.79175"/>
<circle class="l1" cx="513.346" cy="325.188" r="5.79175"/>
<circle class="l1" cx="325.505" cy="325.188" r="5.79175"/>
<circle class="l1" cx="247.238" cy="481.722" r="5.79175"/>
<circle class="l1" cx="247.238" cy="481.722" r="5.79175"/>
</svg>
