<svg xmlns="http://www.w3.org/2000/svg" xmlns:xlink="http://www.w3.org/1999/xlink" width="799" height="726" version="1.1">
<style type="text/css">
.l0{
  fill: #ffffff;
  stroke: #ffffff;
  stroke-linecap:round;
  stroke-linejoin:round;
  stroke-width: 3.60058;
}
.l1{
  fill: #000000;
  stroke: #000000;
  stroke-linecap:round;
  stroke-linejoin:round;
  stroke-width: 3.60058;
}
.l2{
  fill: #000000; fill-opacity: 0.2;
  stroke: #000000;
  stroke-linecap:round;
  stroke-linejoin:round;
  stroke-width: 3.60058;
}
.l3{
  fill: #000000; fill-opacity: 0.5;
  stroke: #000000;
  stroke-linecap:round;
  stroke-linejoin:round;
  stroke-width: 3.60058;
}
.l4{
  fill: #000000;
  stroke: #000000;
  stroke-linecap:round;
  stroke-linejoin:round;
  stroke-width: 3.60058;
}
.l5{
  fill: #000000;
  stroke: #000000;
  stroke-linecap:round;
  stroke-linejoin:round;
  stroke-width: 3.60058;
}
.l6{
  fill: #000000; fill-opacity: 0.5;
  stroke: #000000;
  stroke-linecap:round;
  stroke-linejoin:round;
  stroke-width: 3.60058;
}
.l7{
  fill: #000000; fill-opacity: 0.5;
  stroke: #000000;
  stroke-linecap:round;
  stroke-linejoin:round;
  stroke-width: 3.60058;
}
.l8{
  fill: #000000; fill-opacity: 0.5;
  stroke: #000000;
  stroke-linecap:round;
  stroke-linejoin:round;
  stroke-width: 3.60058;
}
.l9{
  fill: #000000; fill-opacity: 0.5;
  stroke: #000000;
  stroke-linecap:round;
  stroke-linejoin:round;
  stroke-width: 3.60058;
}
.l10{
  fill: #000000;
  stroke: #000000;
  stroke-linecap:round;
  stroke-linejoin:round;
  stroke-width: 3.60058;
}
.l11{
  fill: #000000; fill-opacity: 0.5;
  stroke: #000000;
  stroke-linecap:round;
  stroke-linejoin:round;
  stroke-width: 3.60058;
}
.l12{
  fill: #000000; fill-opacity: 0.5;
  stroke: #000000;
  stroke-linecap:round;
  stroke-linejoin:round;
  stroke-width: 3.60058;
}
.l13{
  fill: #000000; fill-opacity: 0.5;
  stroke: #000000;
  stroke-linecap:round;
  stroke-linejoin:round;
  stroke-width: 3.60058;
}
.l14{
  fill: #000000; fill-opacity: 0.2;
  stroke: #000000;
  stroke-linecap:round;
  stroke-linejoin:round;
  stroke-width: 3.60058;
}
.l15{
  fill: #000000; fill-opacity: 0.5;
  stroke: #000000;
  stroke-linecap:round;
  stroke-linejoin:round;
  stroke-width: 3.60058;
}
.l16{
  fill: #000000; fill-opacity: 0.5;
  stroke: #000000;
  stroke-linecap:round;
  stroke-linejoin:round;
  stroke-width: 3.60058;
}
.l17{
  fill: #000000; fill-opacity: 0.2;
  stroke: #000000;
  stroke-linecap:round;
  stroke-linejoin:round;
  stroke-width: 3.60058;
}
.l18{
  fill: #000000; fill-opacity: 0.5;
  stroke: #000000;
  stroke-linecap:round;
  stroke-linejoin:round;
  stroke-width: 3.60058;
}
.l19{
  fill: #000000; fill-opacity: 0.2;
  stroke: #000000;
  stroke-linecap:round;
  stroke-linejoin:round;
  stroke-width: 3.60058;
}
.l20{
  fill: #000000; fill-opacity: 0.2;
  stroke: #000000;
  stroke-linecap:round;
  stroke-linejoin:round;
  stroke-width: 3.60058;
}
.l21{
  fill: #000000; fill-opacity: 0.2;
  stroke: #000000;
  stroke-linecap:round;
  stroke-linejoin:round;
  stroke-width: 3.60058;
}
text {font-family: Sans-Serif;}
</style>
<rect class="l0" x="0" y="0" width="799" height="726"/>
<path class="l4" d="M391.539 292.626L413.765 292.626"/>
<path class="l4" d="M391.539 381.529L413.765 381.529"/>
<path class="l4" d="M502.668 203.723L502.668 225.948"/>
<path class="l4" d="M569.346 292.626L591.572 292.626"/>
<path class="l4" d="M569.346 381.529L591.572 381.529"/>
<path class="l4" d="M524.894 425.981L524.894 448.207"/>
<path class="l4" d="M480.442 425.981L480.442 448.207"/>
<path class="l4" d="M458.217 425.981L480.442 425.981"/>
<path class="l4" d="M435.991 292.626L435.991 381.529"/>
<path class="l4" d="M458.217 248.174L547.12 248.174"/>
<path class="l4" d="M569.346 292.626L569.346 381.529"/>
<path class="l4" d="M480.442 425.981L547.12 425.981"/>
<path class="l4" d="M469.329 425.981L480.442 409.311"/>
<path class="l4" d="M480.442 409.311L491.555 425.981"/>
<path class="l4" d="M435.991 248.174L435.991 292.626"/>
<path class="l4" d="M435.991 248.174L458.217 248.174"/>
<path class="l4" d="M547.12 248.174L569.346 248.174"/>
<path class="l4" d="M569.346 248.174L569.346 292.626"/>
<path class="l4" d="M547.12 425.981L569.346 425.981"/>
<path class="l4" d="M569.346 381.529L569.346 425.981"/>
<path class="l4" d="M435.991 425.981L458.217 425.981"/>
<path class="l4" d="M435.991 381.529L435.991 425.981"/>
<path class="l4" d="M502.668 225.948L502.668 248.174"/>
<path class="l4" d="M591.572 292.626L613.797 292.626"/>
<path class="l4" d="M591.572 381.529L613.797 381.529"/>
<path class="l4" d="M524.894 448.207L524.894 470.432"/>
<path class="l4" d="M480.442 448.207L480.442 470.432"/>
<path class="l4" d="M413.765 381.529L435.991 381.529"/>
<path class="l4" d="M413.765 292.626L435.991 292.626"/>
<path class="l4" d="M169.281 292.626L191.507 292.626"/>
<path class="l4" d="M169.281 381.529L191.507 381.529"/>
<path class="l4" d="M280.41 203.723L280.41 225.948"/>
<path class="l4" d="M347.087 292.626L369.313 292.626"/>
<path class="l4" d="M347.087 381.529L369.313 381.529"/>
<path class="l4" d="M302.636 425.981L302.636 448.207"/>
<path class="l4" d="M258.184 425.981L258.184 448.207"/>
<path class="l4" d="M235.958 425.981L258.184 425.981"/>
<path class="l4" d="M213.733 292.626L213.733 381.529"/>
<path class="l4" d="M235.958 248.174L324.862 248.174"/>
<path class="l4" d="M347.087 292.626L347.087 381.529"/>
<path class="l4" d="M258.184 425.981L324.862 425.981"/>
<path class="l4" d="M247.071 425.981L258.184 409.311"/>
<path class="l4" d="M258.184 409.311L269.297 425.981"/>
<path class="l4" d="M213.733 248.174L213.733 292.626"/>
<path class="l4" d="M213.733 248.174L235.958 248.174"/>
<path class="l4" d="M324.862 248.174L347.087 248.174"/>
<path class="l4" d="M347.087 248.174L347.087 292.626"/>
<path class="l4" d="M324.862 425.981L347.087 425.981"/>
<path class="l4" d="M347.087 381.529L347.087 425.981"/>
<path class="l4" d="M213.733 425.981L235.958 425.981"/>
<path class="l4" d="M213.733 381.529L213.733 425.981"/>
<path class="l4" d="M280.41 225.948L280.41 248.174"/>
<path class="l4" d="M369.313 292.626L391.539 292.626"/>
<path class="l4" d="M369.313 381.529L391.539 381.529"/>
<path class="l4" d="M302.636 448.207L302.636 470.432"/>
<path class="l4" d="M258.184 448.207L258.184 470.432"/>
<path class="l4" d="M191.507 381.529L213.733 381.529"/>
<path class="l4" d="M191.507 292.626L213.733 292.626"/>
<path class="l5" d="M385.983 598.231L397.096 598.231L397.096 609.344L385.983 609.344L385.983 598.231z"/>
<path class="l5" d="M385.983 287.069L397.096 287.069L397.096 298.182L385.983 298.182L385.983 287.069z"/>
<path class="l5" d="M385.983 375.973L397.096 375.973L397.096 387.086L385.983 387.086L385.983 375.973z"/>
<path class="l5" d="M608.241 375.973L619.354 375.973L619.354 387.086L608.241 387.086L608.241 375.973z"/>
<path class="l5" d="M608.241 287.069L619.354 287.069L619.354 298.182L608.241 298.182L608.241 287.069z"/>
<path class="l5" d="M519.338 464.876L530.451 464.876L530.451 475.989L519.338 475.989L519.338 464.876z"/>
<path class="l5" d="M474.886 464.876L485.999 464.876L485.999 475.989L474.886 475.989L474.886 464.876z"/>
<path class="l5" d="M497.112 198.166L508.225 198.166L508.225 209.279L497.112 209.279L497.112 198.166z"/>
<path class="l5" d="M113.716 514.884L124.829 514.884"/>
<path class="l5" d="M113.716 514.884L105.382 503.771L85.9341 503.771L94.2687 514.884L85.9341 525.997L105.382 525.997L113.716 514.884"/>
<path class="l5" d="M122.051 512.106L127.607 512.106L127.607 517.662L122.051 517.662L122.051 512.106z"/>
<path class="l5" d="M117.884 292.626L124.829 292.626"/>
<path class="l5" d="M94.2687 281.513L85.9341 292.626L94.2687 303.739L109.549 303.739L117.884 292.626L109.549 281.513L94.2687 281.513"/>
<path class="l5" d="M122.051 289.848L127.607 289.848L127.607 295.404L122.051 295.404L122.051 289.848z"/>
<path class="l5" d="M117.884 381.529L124.829 381.529"/>
<path class="l5" d="M94.2687 370.416L85.9341 381.529L94.2687 392.642L109.549 392.642L117.884 381.529L109.549 370.416L94.2687 370.416"/>
<path class="l5" d="M122.051 378.751L127.607 378.751L127.607 384.307L122.051 384.307L122.051 378.751z"/>
<path class="l5" d="M658.249 292.626L665.195 292.626"/>
<path class="l5" d="M688.809 303.739L697.144 292.626L688.809 281.513L673.529 281.513L665.195 292.626L673.529 303.739L688.809 303.739"/>
<path class="l5" d="M655.471 289.848L661.027 289.848L661.027 295.404L655.471 295.404L655.471 289.848z"/>
<path class="l5" d="M658.249 381.529L665.195 381.529"/>
<path class="l5" d="M688.809 392.642L697.144 381.529L688.809 370.416L673.529 370.416L665.195 381.529L673.529 392.642L688.809 392.642"/>
<path class="l5" d="M655.471 378.751L661.027 378.751L661.027 384.307L655.471 384.307L655.471 378.751z"/>
<path class="l5" d="M163.724 287.069L174.837 287.069L174.837 298.182L163.724 298.182L163.724 287.069z"/>
<path class="l5" d="M163.724 375.973L174.837 375.973L174.837 387.086L163.724 387.086L163.724 375.973z"/>
<path class="l5" d="M385.983 375.973L397.096 375.973L397.096 387.086L385.983 387.086L385.983 375.973z"/>
<path class="l5" d="M385.983 287.069L397.096 287.069L397.096 298.182L385.983 298.182L385.983 287.069z"/>
<path class="l5" d="M297.079 464.876L308.192 464.876L308.192 475.989L297.079 475.989L297.079 464.876z"/>
<path class="l5" d="M252.628 464.876L263.741 464.876L263.741 475.989L252.628 475.989L252.628 464.876z"/>
<path class="l5" d="M274.854 198.166L285.966 198.166L285.966 209.279L274.854 209.279L274.854 198.166z"/>
<path class="l5" d="M391.539 107.874L391.539 114.819"/>
<path class="l5" d="M402.652 84.2587L391.539 75.924L380.426 84.2587L380.426 99.539L391.539 107.874L402.652 99.539L402.652 84.2587"/>
<path class="l5" d="M388.761 112.041L394.317 112.041L394.317 117.597L388.761 117.597L388.761 112.041z"/>
<path class="l5" d="M391.539 603.787L391.539 610.733"/>
<path class="l5" d="M380.426 634.348L391.539 642.682L402.652 634.348L402.652 619.068L391.539 610.733L380.426 619.068L380.426 634.348"/>
<path class="l5" d="M388.761 601.009L394.317 601.009L394.317 606.566L388.761 606.566L388.761 601.009z"/>
<text fill="#000000"  xml:space="preserve" font-size="28.8936" transform="translate(447.104, 302.192)" >D</text>
<text fill="#000000"  xml:space="preserve" font-size="28.8936" transform="translate(447.104, 391.095)" >Dn</text>
<text fill="#000000"  xml:space="preserve" font-size="28.8936" transform="translate(513.781, 391.095)" >Qn</text>
<text fill="#000000"  xml:space="preserve" font-size="28.8936" transform="translate(536.007, 302.192)" >Q</text>
<text fill="#000000"  xml:space="preserve" font-size="28.8936" transform="translate(491.555, 346.643)" >Φ</text>
<text fill="#000000"  xml:space="preserve" font-size="38.1395" transform="translate(29.1558, 530.067)" >clk</text>
<text fill="#000000"  xml:space="preserve" font-size="38.1395" transform="translate(51.7248, 304.347)" >D</text>
<text fill="#000000"  xml:space="preserve" font-size="38.1395" transform="translate(27.7248, 393.25)" >Dn</text>
<text fill="#000000"  xml:space="preserve" font-size="38.1395" transform="translate(702.353, 306.42)" >Q</text>
<text fill="#000000"  xml:space="preserve" font-size="38.1395" transform="translate(702.353, 395.323)" >Qn</text>
<text fill="#000000"  xml:space="preserve" font-size="28.8936" transform="translate(224.845, 302.192)" >D</text>
<text fill="#000000"  xml:space="preserve" font-size="28.8936" transform="translate(224.845, 391.095)" >Dn</text>
<text fill="#000000"  xml:space="preserve" font-size="28.8936" transform="translate(291.523, 391.095)" >Qn</text>
<text fill="#000000"  xml:space="preserve" font-size="28.8936" transform="translate(313.749, 302.192)" >Q</text>
<text fill="#000000"  xml:space="preserve" font-size="28.8936" transform="translate(258.184, 346.643)" >Φn</text>
<text fill="#000000"  xml:space="preserve" font-size="38.1395" transform="translate(405.333, 70.7147) rotate(270)" >VP</text>
<text fill="#000000"  xml:space="preserve" font-size="38.1395" transform="translate(403.26, 702.892) rotate(270)" >VN</text>
<path class="l1" d="M502.668 159.271L502.668 203.723"/>
<path class="l1" d="M280.41 159.271L502.668 159.271"/>
<path class="l1" d="M280.41 159.271L280.41 203.723"/>
<path class="l1" d="M391.539 114.819L391.539 159.271"/>
<path class="l1" d="M524.894 514.884L524.894 559.336"/>
<path class="l1" d="M524.894 470.432L524.894 514.884"/>
<path class="l1" d="M480.442 470.432L480.442 514.884"/>
<path class="l1" d="M258.184 514.884L480.442 514.884"/>
<path class="l1" d="M258.184 470.432L258.184 514.884"/>
<path class="l1" d="M124.829 514.884L258.184 514.884"/>
<path class="l1" d="M302.636 470.432L302.636 559.336"/>
<path class="l1" d="M613.797 381.529L658.249 381.529"/>
<path class="l1" d="M613.797 292.626L658.249 292.626"/>
<path class="l1" d="M124.829 292.626L169.281 292.626"/>
<path class="l1" d="M124.829 381.529L169.281 381.529"/>
<path class="l1" d="M302.636 559.336L524.894 559.336"/>
<path class="l1" d="M391.539 559.336L391.539 603.787"/>
<circle class="l1" cx="391.539" cy="559.336" r="8.22355"/>
<circle class="l1" cx="258.184" cy="514.884" r="8.22355"/>
<circle class="l1" cx="258.184" cy="514.884" r="8.22355"/>
<circle class="l1" cx="258.184" cy="514.884" r="8.22355"/>
<circle class="l1" cx="391.539" cy="159.271" r="8.22355"/>
</svg>
