<svg xmlns="http://www.w3.org/2000/svg" xmlns:xlink="http://www.w3.org/1999/xlink" width="770" height="867" version="1.1">
<style type="text/css">
.l0{
  fill: #ffffff;
  stroke: #ffffff;
  stroke-linecap:round;
  stroke-linejoin:round;
  stroke-width: 2.33775;
}
.l1{
  fill: #000000;
  stroke: #000000;
  stroke-linecap:round;
  stroke-linejoin:round;
  stroke-width: 2.33775;
}
.l2{
  fill: #000000; fill-opacity: 0.2;
  stroke: #000000;
  stroke-linecap:round;
  stroke-linejoin:round;
  stroke-width: 2.33775;
}
.l3{
  fill: #000000; fill-opacity: 0.5;
  stroke: #000000;
  stroke-linecap:round;
  stroke-linejoin:round;
  stroke-width: 2.33775;
}
.l4{
  fill: #000000;
  stroke: #000000;
  stroke-linecap:round;
  stroke-linejoin:round;
  stroke-width: 2.33775;
}
.l5{
  fill: #000000;
  stroke: #000000;
  stroke-linecap:round;
  stroke-linejoin:round;
  stroke-width: 2.33775;
}
.l6{
  fill: #000000; fill-opacity: 0.5;
  stroke: #000000;
  stroke-linecap:round;
  stroke-linejoin:round;
  stroke-width: 2.33775;
}
.l7{
  fill: #000000; fill-opacity: 0.5;
  stroke: #000000;
  stroke-linecap:round;
  stroke-linejoin:round;
  stroke-width: 2.33775;
}
.l8{
  fill: #000000; fill-opacity: 0.5;
  stroke: #000000;
  stroke-linecap:round;
  stroke-linejoin:round;
  stroke-width: 2.33775;
}
.l9{
  fill: #000000; fill-opacity: 0.5;
  stroke: #000000;
  stroke-linecap:round;
  stroke-linejoin:round;
  stroke-width: 2.33775;
}
.l10{
  fill: #000000;
  stroke: #000000;
  stroke-linecap:round;
  stroke-linejoin:round;
  stroke-width: 2.33775;
}
.l11{
  fill: #000000; fill-opacity: 0.5;
  stroke: #000000;
  stroke-linecap:round;
  stroke-linejoin:round;
  stroke-width: 2.33775;
}
.l12{
  fill: #000000; fill-opacity: 0.5;
  stroke: #000000;
  stroke-linecap:round;
  stroke-linejoin:round;
  stroke-width: 2.33775;
}
.l13{
  fill: #000000; fill-opacity: 0.5;
  stroke: #000000;
  stroke-linecap:round;
  stroke-linejoin:round;
  stroke-width: 2.33775;
}
.l14{
  fill: #000000; fill-opacity: 0.2;
  stroke: #000000;
  stroke-linecap:round;
  stroke-linejoin:round;
  stroke-width: 2.33775;
}
.l15{
  fill: #000000; fill-opacity: 0.5;
  stroke: #000000;
  stroke-linecap:round;
  stroke-linejoin:round;
  stroke-width: 2.33775;
}
.l16{
  fill: #000000; fill-opacity: 0.5;
  stroke: #000000;
  stroke-linecap:round;
  stroke-linejoin:round;
  stroke-width: 2.33775;
}
.l17{
  fill: #000000; fill-opacity: 0.2;
  stroke: #000000;
  stroke-linecap:round;
  stroke-linejoin:round;
  stroke-width: 2.33775;
}
.l18{
  fill: #000000; fill-opacity: 0.5;
  stroke: #000000;
  stroke-linecap:round;
  stroke-linejoin:round;
  stroke-width: 2.33775;
}
.l19{
  fill: #000000; fill-opacity: 0.2;
  stroke: #000000;
  stroke-linecap:round;
  stroke-linejoin:round;
  stroke-width: 2.33775;
}
.l20{
  fill: #000000; fill-opacity: 0.2;
  stroke: #000000;
  stroke-linecap:round;
  stroke-linejoin:round;
  stroke-width: 2.33775;
}
.l21{
  fill: #000000; fill-opacity: 0.2;
  stroke: #000000;
  stroke-linecap:round;
  stroke-linejoin:round;
  stroke-width: 2.33775;
}
text {font-family: Sans-Serif;}
</style>
<rect class="l0" x="0" y="0" width="770" height="867"/>
<path class="l4" d="M254.462 565.573L280.437 565.573"/>
<path class="l4" d="M254.462 539.598L254.462 565.573"/>
<path class="l4" d="M192.771 539.598L264.202 539.598"/>
<path class="l4" d="M202.511 539.598L202.511 565.573"/>
<path class="l4" d="M176.536 565.573L202.511 565.573"/>
<path class="l4" d="M228.487 539.598L228.487 565.573"/>
<path class="l4" d="M202.511 533.104L254.462 533.104"/>
<path class="l4" d="M228.487 513.623L228.487 533.104"/>
<path class="l4" d="M254.462 461.672L280.437 461.672"/>
<path class="l4" d="M254.462 435.697L254.462 461.672"/>
<path class="l4" d="M192.771 435.697L264.202 435.697"/>
<path class="l4" d="M202.511 435.697L202.511 461.672"/>
<path class="l4" d="M176.536 461.672L202.511 461.672"/>
<path class="l4" d="M228.487 435.697L228.487 461.672"/>
<path class="l4" d="M202.511 429.204L254.462 429.204"/>
<path class="l4" d="M228.487 409.722L228.487 429.204"/>
<path class="l4" d="M522.87 383.747L522.87 409.722"/>
<path class="l4" d="M522.87 383.747L548.845 383.747"/>
<path class="l4" d="M548.845 322.057L548.845 393.488"/>
<path class="l4" d="M522.87 331.797L548.845 331.797"/>
<path class="l4" d="M522.87 305.822L522.87 331.797"/>
<path class="l4" d="M522.87 357.772L548.845 357.772"/>
<path class="l4" d="M555.339 331.797L555.339 383.747"/>
<path class="l4" d="M565.08 357.772L574.82 357.772"/>
<circle class="l4" cx="560.21" cy="357.772" r="4.87032" style="fill:none;" />
<path class="l4" d="M418.97 383.747L418.97 409.722"/>
<path class="l4" d="M392.995 383.747L418.97 383.747"/>
<path class="l4" d="M392.995 322.057L392.995 393.488"/>
<path class="l4" d="M392.995 331.797L418.97 331.797"/>
<path class="l4" d="M418.97 305.822L418.97 331.797"/>
<path class="l4" d="M392.995 357.772L418.97 357.772"/>
<path class="l4" d="M386.501 331.797L386.501 383.747"/>
<path class="l4" d="M367.02 357.772L376.761 357.772"/>
<circle class="l4" cx="381.631" cy="357.772" r="4.87032" style="fill:none;" />
<path class="l4" d="M418.97 617.523L418.97 643.498"/>
<path class="l4" d="M392.995 643.498L418.97 643.498"/>
<path class="l4" d="M392.995 633.757L392.995 705.189"/>
<path class="l4" d="M392.995 695.448L418.97 695.448"/>
<path class="l4" d="M418.97 695.448L418.97 721.423"/>
<path class="l4" d="M392.995 669.473L418.97 669.473"/>
<path class="l4" d="M386.501 643.498L386.501 695.448"/>
<path class="l4" d="M367.02 669.473L386.501 669.473"/>
<path class="l4" d="M522.87 617.523L522.87 643.498"/>
<path class="l4" d="M522.87 643.498L548.845 643.498"/>
<path class="l4" d="M548.845 633.757L548.845 705.189"/>
<path class="l4" d="M522.87 695.448L548.845 695.448"/>
<path class="l4" d="M522.87 695.448L522.87 721.423"/>
<path class="l4" d="M522.87 669.473L548.845 669.473"/>
<path class="l4" d="M555.339 643.498L555.339 695.448"/>
<path class="l4" d="M555.339 669.473L574.82 669.473"/>
<path class="l4" d="M470.92 175.947L470.92 201.922"/>
<path class="l4" d="M444.945 175.947L470.92 175.947"/>
<path class="l4" d="M444.945 114.256L444.945 185.688"/>
<path class="l4" d="M444.945 123.997L470.92 123.997"/>
<path class="l4" d="M470.92 98.0218L470.92 123.997"/>
<path class="l4" d="M444.945 149.972L470.92 149.972"/>
<path class="l4" d="M438.451 123.997L438.451 175.947"/>
<path class="l4" d="M418.97 149.972L428.711 149.972"/>
<circle class="l4" cx="433.581" cy="149.972" r="4.87032" style="fill:none;" />
<path class="l5" d="M188.442 46.0717L193.853 46.0717"/>
<path class="l5" d="M170.043 37.4133L163.549 46.0717L170.043 54.73L181.948 54.73L188.442 46.0717L181.948 37.4133L170.043 37.4133"/>
<path class="l5" d="M191.689 43.9071L196.018 43.9071L196.018 48.2363L191.689 48.2363L191.689 43.9071z"/>
<path class="l5" d="M191.689 43.9071L196.018 43.9071L196.018 48.2363L191.689 48.2363L191.689 43.9071z"/>
<path class="l5" d="M188.442 98.0218L193.853 98.0218"/>
<path class="l5" d="M170.043 89.3634L163.549 98.0218L170.043 106.68L181.948 106.68L188.442 98.0218L181.948 89.3634L170.043 89.3634"/>
<path class="l5" d="M191.689 95.8572L196.018 95.8572L196.018 100.186L191.689 100.186L191.689 95.8572z"/>
<path class="l5" d="M191.689 95.8572L196.018 95.8572L196.018 100.186L191.689 100.186L191.689 95.8572z"/>
<path class="l5" d="M279.571 564.707L281.302 564.707L281.302 566.438L279.571 566.438L279.571 564.707z"/>
<path class="l5" d="M227.621 512.757L229.352 512.757L229.352 514.488L227.621 514.488L227.621 512.757z"/>
<path class="l5" d="M175.671 564.707L177.402 564.707L177.402 566.438L175.671 566.438L175.671 564.707z"/>
<path class="l5" d="M227.621 564.707L229.352 564.707L229.352 566.438L227.621 566.438L227.621 564.707z"/>
<path class="l5" d="M279.571 460.807L281.302 460.807L281.302 462.538L279.571 462.538L279.571 460.807z"/>
<path class="l5" d="M227.621 408.857L229.352 408.857L229.352 410.588L227.621 410.588L227.621 408.857z"/>
<path class="l5" d="M175.671 460.807L177.402 460.807L177.402 462.538L175.671 462.538L175.671 460.807z"/>
<path class="l5" d="M227.621 460.807L229.352 460.807L229.352 462.538L227.621 462.538L227.621 460.807z"/>
<path class="l5" d="M522.005 304.956L523.736 304.956L523.736 306.688L522.005 306.688L522.005 304.956z"/>
<path class="l5" d="M573.955 356.906L575.686 356.906L575.686 358.638L573.955 358.638L573.955 356.906z"/>
<path class="l5" d="M522.005 408.857L523.736 408.857L523.736 410.588L522.005 410.588L522.005 408.857z"/>
<path class="l5" d="M522.005 356.906L523.736 356.906L523.736 358.638L522.005 358.638L522.005 356.906z"/>
<path class="l5" d="M418.104 304.956L419.836 304.956L419.836 306.688L418.104 306.688L418.104 304.956z"/>
<path class="l5" d="M366.154 356.906L367.886 356.906L367.886 358.638L366.154 358.638L366.154 356.906z"/>
<path class="l5" d="M418.104 408.857L419.836 408.857L419.836 410.588L418.104 410.588L418.104 408.857z"/>
<path class="l5" d="M418.104 356.906L419.836 356.906L419.836 358.638L418.104 358.638L418.104 356.906z"/>
<path class="l5" d="M418.104 616.657L419.836 616.657L419.836 618.389L418.104 618.389L418.104 616.657z"/>
<path class="l5" d="M366.154 668.607L367.886 668.607L367.886 670.339L366.154 670.339L366.154 668.607z"/>
<path class="l5" d="M418.104 720.557L419.836 720.557L419.836 722.289L418.104 722.289L418.104 720.557z"/>
<path class="l5" d="M418.104 668.607L419.836 668.607L419.836 670.339L418.104 670.339L418.104 668.607z"/>
<path class="l5" d="M522.005 616.657L523.736 616.657L523.736 618.389L522.005 618.389L522.005 616.657z"/>
<path class="l5" d="M573.955 668.607L575.686 668.607L575.686 670.339L573.955 670.339L573.955 668.607z"/>
<path class="l5" d="M522.005 720.557L523.736 720.557L523.736 722.289L522.005 722.289L522.005 720.557z"/>
<path class="l5" d="M522.005 668.607L523.736 668.607L523.736 670.339L522.005 670.339L522.005 668.607z"/>
<path class="l5" d="M468.756 788.525L473.085 788.525L473.085 792.854L468.756 792.854L468.756 788.525z"/>
<path class="l5" d="M470.054 97.156L471.786 97.156L471.786 98.8876L470.054 98.8876L470.054 97.156z"/>
<path class="l5" d="M418.104 149.106L419.836 149.106L419.836 150.838L418.104 150.838L418.104 149.106z"/>
<path class="l5" d="M470.054 201.056L471.786 201.056L471.786 202.788L470.054 202.788L470.054 201.056z"/>
<path class="l5" d="M470.054 149.106L471.786 149.106L471.786 150.838L470.054 150.838L470.054 149.106z"/>
<path class="l5" d="M468.756 338.291L473.085 338.291L473.085 342.62L468.756 342.62L468.756 338.291z"/>
<path class="l5" d="M468.756 78.5405L473.085 78.5405L473.085 82.8697L468.756 82.8697L468.756 78.5405z"/>
<path class="l5" d="M98.6113 149.972L107.27 149.972"/>
<path class="l5" d="M98.6113 149.972L92.1175 141.314L76.9654 141.314L83.4592 149.972L76.9654 158.63L92.1175 158.63L98.6113 149.972"/>
<path class="l5" d="M105.105 147.807L109.434 147.807L109.434 152.136L105.105 152.136L105.105 147.807z"/>
<path class="l5" d="M226.322 667.308L230.651 667.308L230.651 671.637L226.322 671.637L226.322 667.308z"/>
<path class="l5" d="M101.858 461.672L107.27 461.672"/>
<path class="l5" d="M83.4592 453.014L76.9654 461.672L83.4592 470.331L95.3644 470.331L101.858 461.672L95.3644 453.014L83.4592 453.014"/>
<path class="l5" d="M105.105 459.508L109.434 459.508L109.434 463.837L105.105 463.837L105.105 459.508z"/>
<path class="l5" d="M101.858 565.573L107.27 565.573"/>
<path class="l5" d="M83.4592 556.914L76.9654 565.573L83.4592 574.231L95.3644 574.231L101.858 565.573L95.3644 556.914L83.4592 556.914"/>
<path class="l5" d="M105.105 563.408L109.434 563.408L109.434 567.737L105.105 567.737L105.105 563.408z"/>
<path class="l5" d="M661.404 461.672L666.815 461.672"/>
<path class="l5" d="M685.214 470.331L691.708 461.672L685.214 453.014L673.309 453.014L666.815 461.672L673.309 470.331L685.214 470.331"/>
<path class="l5" d="M659.239 459.508L663.569 459.508L663.569 463.837L659.239 463.837L659.239 459.508z"/>
<path class="l5" d="M661.404 565.573L666.815 565.573"/>
<path class="l5" d="M685.214 574.231L691.708 565.573L685.214 556.914L673.309 556.914L666.815 565.573L673.309 574.231L685.214 574.231"/>
<path class="l5" d="M659.239 563.408L663.569 563.408L663.569 567.737L659.239 567.737L659.239 563.408z"/>
<text fill="#000000"  xml:space="preserve" font-size="29.7155" transform="translate(121.49, 55.2041)" >VP</text>
<text fill="#000000"  xml:space="preserve" font-size="29.7155" transform="translate(206.841, 53.0395)" >VP</text>
<text fill="#000000"  xml:space="preserve" font-size="29.7155" transform="translate(117.49, 107.154)" >VN</text>
<text fill="#000000"  xml:space="preserve" font-size="29.7155" transform="translate(206.841, 104.99)" >VN</text>
<text fill="#000000"  xml:space="preserve" font-size="18.0094" transform="translate(140.878, 671.339)" >M1</text>
<text fill="#000000"  xml:space="preserve" font-size="18.0094" transform="translate(79.8781, 645.364)" >nfet_01v8</text>
<text fill="#000000"  xml:space="preserve" font-size="18.0094" transform="translate(48.8781, 619.389)" >1 x 0.5 / 0.15</text>
<text fill="#000000"  xml:space="preserve" font-size="18.0094" transform="translate(140.878, 411.589)" >M2</text>
<text fill="#000000"  xml:space="preserve" font-size="18.0094" transform="translate(79.8781, 385.614)" >nfet_01v8</text>
<text fill="#000000"  xml:space="preserve" font-size="18.0094" transform="translate(48.8781, 359.639)" >1 x 0.5 / 0.15</text>
<text fill="#000000"  xml:space="preserve" font-size="18.0094" transform="translate(583.479, 247.08)" >M3</text>
<text fill="#000000"  xml:space="preserve" font-size="18.0094" transform="translate(583.479, 273.055)" >pfet_01v8</text>
<text fill="#000000"  xml:space="preserve" font-size="18.0094" transform="translate(583.479, 299.03)" >1 x 0.5 / 0.15</text>
<text fill="#000000"  xml:space="preserve" font-size="18.0094" transform="translate(331.362, 247.08)" >M4</text>
<text fill="#000000"  xml:space="preserve" font-size="18.0094" transform="translate(270.362, 273.055)" >pfet_01v8</text>
<text fill="#000000"  xml:space="preserve" font-size="18.0094" transform="translate(239.362, 299.03)" >1 x 0.5 / 0.15</text>
<text fill="#000000"  xml:space="preserve" font-size="18.0094" transform="translate(348.678, 792.556)" >M5</text>
<text fill="#000000"  xml:space="preserve" font-size="18.0094" transform="translate(287.678, 766.581)" >nfet_01v8</text>
<text fill="#000000"  xml:space="preserve" font-size="18.0094" transform="translate(256.678, 740.606)" >1 x 0.5 / 0.15</text>
<text fill="#000000"  xml:space="preserve" font-size="18.0094" transform="translate(566.162, 792.556)" >M6</text>
<text fill="#000000"  xml:space="preserve" font-size="18.0094" transform="translate(566.162, 766.581)" >nfet_01v8</text>
<text fill="#000000"  xml:space="preserve" font-size="18.0094" transform="translate(566.162, 740.606)" >1 x 0.5 / 0.15</text>
<text fill="#000000"  xml:space="preserve" font-size="29.7155" transform="translate(483.832, 845.677) rotate(270)" >VN</text>
<text fill="#000000"  xml:space="preserve" font-size="18.0094" transform="translate(383.312, 39.2799)" >M7</text>
<text fill="#000000"  xml:space="preserve" font-size="18.0094" transform="translate(322.312, 65.255)" >pfet_01v8</text>
<text fill="#000000"  xml:space="preserve" font-size="18.0094" transform="translate(308.312, 91.23)" >1 x 2 / 0.15</text>
<text fill="#000000"  xml:space="preserve" font-size="29.7155" transform="translate(477.888, 327.468) rotate(270)" >VP</text>
<text fill="#000000"  xml:space="preserve" font-size="29.7155" transform="translate(477.888, 67.7176) rotate(270)" >VP</text>
<text fill="#000000"  xml:space="preserve" font-size="29.7155" transform="translate(33.8008, 161.801)" >clk</text>
<text fill="#000000"  xml:space="preserve" font-size="29.7155" transform="translate(241.398, 724.46) rotate(270)" >VN</text>
<text fill="#000000"  xml:space="preserve" font-size="29.7155" transform="translate(49.9067, 470.805)" >D</text>
<text fill="#000000"  xml:space="preserve" font-size="29.7155" transform="translate(30.9067, 574.705)" >Dn</text>
<text fill="#000000"  xml:space="preserve" font-size="29.7155" transform="translate(695.767, 472.42)" >Q</text>
<text fill="#000000"  xml:space="preserve" font-size="29.7155" transform="translate(695.767, 576.32)" >Qn</text>
<path class="l1" d="M107.27 565.573L176.536 565.573"/>
<path class="l1" d="M107.27 461.672L176.536 461.672"/>
<path class="l1" d="M332.387 357.772L367.02 357.772"/>
<path class="l1" d="M280.437 461.672L315.07 461.672"/>
<path class="l1" d="M367.02 461.672L522.87 461.672"/>
<path class="l1" d="M315.07 357.772L315.07 444.356"/>
<path class="l1" d="M522.87 409.722L522.87 444.356"/>
<path class="l1" d="M332.387 461.672L367.02 461.672"/>
<path class="l1" d="M418.97 409.722L418.97 548.256"/>
<path class="l1" d="M297.753 565.573L418.97 565.573"/>
<path class="l1" d="M574.82 357.772L609.454 357.772"/>
<path class="l1" d="M609.454 357.772L609.454 548.256"/>
<path class="l1" d="M418.97 565.573L609.454 565.573"/>
<path class="l1" d="M522.87 461.672L522.87 617.523"/>
<path class="l1" d="M315.07 444.356L315.07 461.672"/>
<path class="l1" d="M522.87 444.356L522.87 461.672"/>
<path class="l1" d="M418.97 548.256L418.97 565.573"/>
<path class="l1" d="M609.454 548.256L609.454 565.573"/>
<path class="l1" d="M418.97 565.573L418.97 617.523"/>
<path class="l1" d="M332.387 669.473L367.02 669.473"/>
<path class="l1" d="M315.07 461.672L315.07 669.473"/>
<path class="l1" d="M315.07 357.772L332.387 357.772"/>
<path class="l1" d="M315.07 461.672L332.387 461.672"/>
<path class="l1" d="M280.437 565.573L297.753 565.573"/>
<path class="l1" d="M315.07 669.473L332.387 669.473"/>
<path class="l1" d="M522.87 461.672L661.404 461.672"/>
<path class="l1" d="M609.454 565.573L661.404 565.573"/>
<path class="l1" d="M574.82 669.473L609.454 669.473"/>
<path class="l1" d="M609.454 565.573L609.454 669.473"/>
<path class="l1" d="M418.97 721.423L418.97 773.373"/>
<path class="l1" d="M418.97 773.373L522.87 773.373"/>
<path class="l1" d="M522.87 721.423L522.87 773.373"/>
<path class="l1" d="M470.92 773.373L470.92 790.69"/>
<path class="l1" d="M418.97 669.473L418.97 721.423"/>
<path class="l1" d="M522.87 669.473L522.87 721.423"/>
<path class="l1" d="M418.97 357.772L522.87 357.772"/>
<path class="l1" d="M470.92 340.456L470.92 357.772"/>
<path class="l1" d="M418.97 253.872L418.97 305.822"/>
<path class="l1" d="M418.97 253.872L522.87 253.872"/>
<path class="l1" d="M522.87 253.872L522.87 305.822"/>
<path class="l1" d="M470.92 201.922L470.92 253.872"/>
<path class="l1" d="M470.92 80.7051L470.92 98.0218"/>
<path class="l1" d="M470.92 98.0218L470.92 149.972"/>
<path class="l1" d="M228.487 149.972L228.487 409.722"/>
<path class="l1" d="M228.487 149.972L418.97 149.972"/>
<path class="l1" d="M228.487 392.406L245.803 392.406"/>
<path class="l1" d="M228.487 496.306L228.487 513.623"/>
<path class="l1" d="M228.487 496.306L245.803 496.306"/>
<path class="l1" d="M245.803 392.406L245.803 496.306"/>
<path class="l1" d="M107.27 149.972L228.487 149.972"/>
<path class="l1" d="M228.487 461.672L228.487 478.989"/>
<path class="l1" d="M211.17 478.989L228.487 478.989"/>
<path class="l1" d="M211.17 478.989L211.17 565.573"/>
<path class="l1" d="M228.487 565.573L228.487 652.156"/>
<path class="l1" d="M211.17 565.573L211.17 582.889"/>
<path class="l1" d="M211.17 582.889L228.487 582.889"/>
<path class="l1" d="M228.487 652.156L228.487 669.473"/>
<circle class="l1" cx="228.487" cy="149.972" r="6.40718"/>
<circle class="l1" cx="228.487" cy="149.972" r="6.40718"/>
<circle class="l1" cx="228.487" cy="149.972" r="6.40718"/>
<circle class="l1" cx="228.487" cy="582.889" r="6.40718"/>
<circle class="l1" cx="228.487" cy="392.406" r="6.40718"/>
<circle class="l1" cx="470.92" cy="253.872" r="6.40718"/>
<circle class="l1" cx="470.92" cy="357.772" r="6.40718"/>
<circle class="l1" cx="470.92" cy="773.373" r="6.40718"/>
<circle class="l1" cx="609.454" cy="565.573" r="6.40718"/>
<circle class="l1" cx="609.454" cy="565.573" r="6.40718"/>
<circle class="l1" cx="522.87" cy="461.672" r="6.40718"/>
<circle class="l1" cx="315.07" cy="461.672" r="6.40718"/>
<circle class="l1" cx="315.07" cy="461.672" r="6.40718"/>
<circle class="l1" cx="418.97" cy="565.573" r="6.40718"/>
<circle class="l1" cx="609.454" cy="565.573" r="6.40718"/>
<circle class="l1" cx="418.97" cy="565.573" r="6.40718"/>
<circle class="l1" cx="522.87" cy="461.672" r="6.40718"/>
<circle class="l1" cx="315.07" cy="461.672" r="6.40718"/>
<circle class="l1" cx="522.87" cy="461.672" r="6.40718"/>
<circle class="l1" cx="418.97" cy="565.573" r="6.40718"/>
<circle class="l1" cx="609.454" cy="565.573" r="6.40718"/>
<circle class="l1" cx="418.97" cy="565.573" r="6.40718"/>
<circle class="l1" cx="522.87" cy="461.672" r="6.40718"/>
<circle class="l1" cx="315.07" cy="461.672" r="6.40718"/>
</svg>
