<svg xmlns="http://www.w3.org/2000/svg" xmlns:xlink="http://www.w3.org/1999/xlink" width="1197" height="478" version="1.1">
<style type="text/css">
.l0{
  fill: #ffffff;
  stroke: #ffffff;
  stroke-linecap:round;
  stroke-linejoin:round;
  stroke-width: 0.935682;
}
.l1{
  fill: #000000;
  stroke: #000000;
  stroke-linecap:round;
  stroke-linejoin:round;
  stroke-width: 0.935682;
}
.l2{
  fill: #000000; fill-opacity: 0.2;
  stroke: #000000;
  stroke-linecap:round;
  stroke-linejoin:round;
  stroke-width: 0.935682;
}
.l3{
  fill: #000000; fill-opacity: 0.5;
  stroke: #000000;
  stroke-linecap:round;
  stroke-linejoin:round;
  stroke-width: 0.935682;
}
.l4{
  fill: #000000;
  stroke: #000000;
  stroke-linecap:round;
  stroke-linejoin:round;
  stroke-width: 0.935682;
}
.l5{
  fill: #000000;
  stroke: #000000;
  stroke-linecap:round;
  stroke-linejoin:round;
  stroke-width: 0.935682;
}
.l6{
  fill: #000000; fill-opacity: 0.5;
  stroke: #000000;
  stroke-linecap:round;
  stroke-linejoin:round;
  stroke-width: 0.935682;
}
.l7{
  fill: #000000; fill-opacity: 0.5;
  stroke: #000000;
  stroke-linecap:round;
  stroke-linejoin:round;
  stroke-width: 0.935682;
}
.l8{
  fill: #000000; fill-opacity: 0.5;
  stroke: #000000;
  stroke-linecap:round;
  stroke-linejoin:round;
  stroke-width: 0.935682;
}
.l9{
  fill: #000000; fill-opacity: 0.5;
  stroke: #000000;
  stroke-linecap:round;
  stroke-linejoin:round;
  stroke-width: 0.935682;
}
.l10{
  fill: #000000;
  stroke: #000000;
  stroke-linecap:round;
  stroke-linejoin:round;
  stroke-width: 0.935682;
}
.l11{
  fill: #000000; fill-opacity: 0.5;
  stroke: #000000;
  stroke-linecap:round;
  stroke-linejoin:round;
  stroke-width: 0.935682;
}
.l12{
  fill: #000000; fill-opacity: 0.5;
  stroke: #000000;
  stroke-linecap:round;
  stroke-linejoin:round;
  stroke-width: 0.935682;
}
.l13{
  fill: #000000; fill-opacity: 0.5;
  stroke: #000000;
  stroke-linecap:round;
  stroke-linejoin:round;
  stroke-width: 0.935682;
}
.l14{
  fill: #000000; fill-opacity: 0.2;
  stroke: #000000;
  stroke-linecap:round;
  stroke-linejoin:round;
  stroke-width: 0.935682;
}
.l15{
  fill: #000000; fill-opacity: 0.5;
  stroke: #000000;
  stroke-linecap:round;
  stroke-linejoin:round;
  stroke-width: 0.935682;
}
.l16{
  fill: #000000; fill-opacity: 0.5;
  stroke: #000000;
  stroke-linecap:round;
  stroke-linejoin:round;
  stroke-width: 0.935682;
}
.l17{
  fill: #000000; fill-opacity: 0.2;
  stroke: #000000;
  stroke-linecap:round;
  stroke-linejoin:round;
  stroke-width: 0.935682;
}
.l18{
  fill: #000000; fill-opacity: 0.5;
  stroke: #000000;
  stroke-linecap:round;
  stroke-linejoin:round;
  stroke-width: 0.935682;
}
.l19{
  fill: #000000; fill-opacity: 0.2;
  stroke: #000000;
  stroke-linecap:round;
  stroke-linejoin:round;
  stroke-width: 0.935682;
}
.l20{
  fill: #000000; fill-opacity: 0.2;
  stroke: #000000;
  stroke-linecap:round;
  stroke-linejoin:round;
  stroke-width: 0.935682;
}
.l21{
  fill: #000000; fill-opacity: 0.2;
  stroke: #000000;
  stroke-linecap:round;
  stroke-linejoin:round;
  stroke-width: 0.935682;
}
text {font-family: Sans-Serif;}
</style>
<rect class="l0" x="0" y="0" width="1197" height="478"/>
<path class="l4" d="M248.38 353.637L296.897 353.637"/>
<path class="l4" d="M248.38 353.637L248.38 367.499"/>
<path class="l4" d="M255.311 270.466L283.035 270.466"/>
<path class="l4" d="M255.311 277.396L269.173 277.396"/>
<path class="l4" d="M255.311 284.327L283.035 284.327"/>
<path class="l4" d="M255.311 291.258L276.104 291.258"/>
<path class="l4" d="M255.311 298.189L276.104 298.189"/>
<path class="l4" d="M255.311 305.12L303.828 305.12"/>
<path class="l4" d="M255.311 312.051L269.173 312.051"/>
<path class="l4" d="M255.311 263.535L289.966 263.535"/>
<path class="l4" d="M255.311 256.604L269.173 256.604"/>
<path class="l4" d="M310.759 256.604L317.69 256.604"/>
<path class="l4" d="M317.69 256.604L317.69 325.913"/>
<path class="l4" d="M255.311 325.913L317.69 325.913"/>
<path class="l4" d="M255.311 318.982L255.311 325.913"/>
<path class="l4" d="M310.759 249.673L310.759 318.982"/>
<path class="l4" d="M248.38 318.982L310.759 318.982"/>
<path class="l4" d="M248.38 249.673L248.38 318.982"/>
<path class="l4" d="M248.38 249.673L310.759 249.673"/>
<path class="l4" d="M199.863 124.915L199.863 135.311"/>
<path class="l4" d="M199.863 156.104L199.863 166.501"/>
<path class="l4" d="M197.264 140.51L202.462 140.51"/>
<path class="l4" d="M199.863 137.911L199.863 143.109"/>
<path class="l4" d="M197.264 150.906L202.462 150.906"/>
<circle class="l4" cx="199.863" cy="145.708" r="10.3965" style="fill:none;" />
<path class="l4" d="M199.863 166.501L199.863 169.966"/>
<path class="l4" d="M193.365 169.966L206.361 169.966"/>
<path class="l4" d="M199.863 179.063L206.361 169.966"/>
<path class="l4" d="M193.365 169.966L199.863 179.063"/>
<path class="l4" d="M199.863 117.984L199.863 124.915"/>
<path class="l4" d="M193.365 117.984L206.361 117.984"/>
<circle class="l4" cx="199.863" cy="117.984" r="2.42584" />
<path class="l4" d="M199.863 215.018L199.863 225.414"/>
<path class="l4" d="M199.863 246.207L199.863 256.604"/>
<path class="l4" d="M197.264 230.612L202.462 230.612"/>
<path class="l4" d="M199.863 228.013L199.863 233.212"/>
<path class="l4" d="M197.264 241.009L202.462 241.009"/>
<circle class="l4" cx="199.863" cy="235.811" r="10.3965" style="fill:none;" />
<path class="l4" d="M199.863 256.604L199.863 260.069"/>
<path class="l4" d="M193.365 260.069L206.361 260.069"/>
<path class="l4" d="M199.863 269.166L206.361 260.069"/>
<path class="l4" d="M193.365 260.069L199.863 269.166"/>
<path class="l4" d="M199.863 298.189L199.863 308.586"/>
<path class="l4" d="M199.863 329.379L199.863 339.775"/>
<path class="l4" d="M197.264 313.784L202.462 313.784"/>
<path class="l4" d="M199.863 311.185L199.863 316.383"/>
<path class="l4" d="M197.264 324.181L202.462 324.181"/>
<circle class="l4" cx="199.863" cy="318.982" r="10.3965" style="fill:none;" />
<path class="l4" d="M199.863 339.775L199.863 343.241"/>
<path class="l4" d="M193.365 343.241L206.361 343.241"/>
<path class="l4" d="M199.863 352.338L206.361 343.241"/>
<path class="l4" d="M193.365 343.241L199.863 352.338"/>
<path class="l4" d="M317.69 48.6742L317.69 55.6052"/>
<path class="l4" d="M311.192 48.6742L324.188 48.6742"/>
<circle class="l4" cx="317.69" cy="48.6742" r="2.42584" />
<path class="l4" d="M324.621 201.156L324.621 204.621"/>
<path class="l4" d="M318.123 204.621L331.118 204.621"/>
<path class="l4" d="M324.621 213.718L331.118 204.621"/>
<path class="l4" d="M318.123 204.621L324.621 213.718"/>
<path class="l4" d="M283.035 104.122L289.966 104.122"/>
<path class="l4" d="M283.035 131.846L289.966 131.846"/>
<path class="l4" d="M317.69 76.3982L317.69 83.3291"/>
<path class="l4" d="M338.483 104.122L345.414 104.122"/>
<path class="l4" d="M338.483 131.846L345.414 131.846"/>
<path class="l4" d="M324.621 145.708L324.621 152.639"/>
<path class="l4" d="M310.759 145.708L310.759 152.639"/>
<path class="l4" d="M303.828 145.708L310.759 145.708"/>
<path class="l4" d="M296.897 104.122L296.897 131.846"/>
<path class="l4" d="M303.828 90.2601L331.552 90.2601"/>
<path class="l4" d="M338.483 104.122L338.483 131.846"/>
<path class="l4" d="M310.759 145.708L331.552 145.708"/>
<path class="l4" d="M307.293 145.708L310.759 140.51"/>
<path class="l4" d="M310.759 140.51L314.224 145.708"/>
<path class="l4" d="M296.897 90.2601L296.897 104.122"/>
<path class="l4" d="M296.897 90.2601L303.828 90.2601"/>
<path class="l4" d="M331.552 90.2601L338.483 90.2601"/>
<path class="l4" d="M338.483 90.2601L338.483 104.122"/>
<path class="l4" d="M331.552 145.708L338.483 145.708"/>
<path class="l4" d="M338.483 131.846L338.483 145.708"/>
<path class="l4" d="M296.897 145.708L303.828 145.708"/>
<path class="l4" d="M296.897 131.846L296.897 145.708"/>
<path class="l4" d="M317.69 83.3291L317.69 90.2601"/>
<path class="l4" d="M345.414 104.122L352.345 104.122"/>
<path class="l4" d="M345.414 131.846L352.345 131.846"/>
<path class="l4" d="M324.621 152.639L324.621 159.57"/>
<path class="l4" d="M310.759 152.639L310.759 159.57"/>
<path class="l4" d="M289.966 131.846L296.897 131.846"/>
<path class="l4" d="M289.966 104.122L296.897 104.122"/>
<path class="l4" d="M352.345 104.122L359.276 104.122"/>
<path class="l4" d="M352.345 131.846L359.276 131.846"/>
<path class="l4" d="M386.999 76.3982L386.999 83.3291"/>
<path class="l4" d="M407.792 104.122L414.723 104.122"/>
<path class="l4" d="M407.792 131.846L414.723 131.846"/>
<path class="l4" d="M393.93 145.708L393.93 152.639"/>
<path class="l4" d="M380.069 145.708L380.069 152.639"/>
<path class="l4" d="M373.138 145.708L380.069 145.708"/>
<path class="l4" d="M366.207 104.122L366.207 131.846"/>
<path class="l4" d="M373.138 90.2601L400.861 90.2601"/>
<path class="l4" d="M407.792 104.122L407.792 131.846"/>
<path class="l4" d="M380.069 145.708L400.861 145.708"/>
<path class="l4" d="M376.603 145.708L380.069 140.51"/>
<path class="l4" d="M380.069 140.51L383.534 145.708"/>
<path class="l4" d="M366.207 90.2601L366.207 104.122"/>
<path class="l4" d="M366.207 90.2601L373.138 90.2601"/>
<path class="l4" d="M400.861 90.2601L407.792 90.2601"/>
<path class="l4" d="M407.792 90.2601L407.792 104.122"/>
<path class="l4" d="M400.861 145.708L407.792 145.708"/>
<path class="l4" d="M407.792 131.846L407.792 145.708"/>
<path class="l4" d="M366.207 145.708L373.138 145.708"/>
<path class="l4" d="M366.207 131.846L366.207 145.708"/>
<path class="l4" d="M386.999 83.3291L386.999 90.2601"/>
<path class="l4" d="M414.723 104.122L421.654 104.122"/>
<path class="l4" d="M414.723 131.846L421.654 131.846"/>
<path class="l4" d="M393.93 152.639L393.93 159.57"/>
<path class="l4" d="M380.069 152.639L380.069 159.57"/>
<path class="l4" d="M359.276 131.846L366.207 131.846"/>
<path class="l4" d="M359.276 104.122L366.207 104.122"/>
<path class="l4" d="M421.654 104.122L428.585 104.122"/>
<path class="l4" d="M421.654 131.846L428.585 131.846"/>
<path class="l4" d="M456.309 76.3982L456.309 83.3291"/>
<path class="l4" d="M477.102 104.122L484.033 104.122"/>
<path class="l4" d="M477.102 131.846L484.033 131.846"/>
<path class="l4" d="M463.24 145.708L463.24 152.639"/>
<path class="l4" d="M449.378 145.708L449.378 152.639"/>
<path class="l4" d="M442.447 145.708L449.378 145.708"/>
<path class="l4" d="M435.516 104.122L435.516 131.846"/>
<path class="l4" d="M442.447 90.2601L470.171 90.2601"/>
<path class="l4" d="M477.102 104.122L477.102 131.846"/>
<path class="l4" d="M449.378 145.708L470.171 145.708"/>
<path class="l4" d="M445.913 145.708L449.378 140.51"/>
<path class="l4" d="M449.378 140.51L452.844 145.708"/>
<path class="l4" d="M435.516 90.2601L435.516 104.122"/>
<path class="l4" d="M435.516 90.2601L442.447 90.2601"/>
<path class="l4" d="M470.171 90.2601L477.102 90.2601"/>
<path class="l4" d="M477.102 90.2601L477.102 104.122"/>
<path class="l4" d="M470.171 145.708L477.102 145.708"/>
<path class="l4" d="M477.102 131.846L477.102 145.708"/>
<path class="l4" d="M435.516 145.708L442.447 145.708"/>
<path class="l4" d="M435.516 131.846L435.516 145.708"/>
<path class="l4" d="M456.309 83.3291L456.309 90.2601"/>
<path class="l4" d="M484.033 104.122L490.964 104.122"/>
<path class="l4" d="M484.033 131.846L490.964 131.846"/>
<path class="l4" d="M463.24 152.639L463.24 159.57"/>
<path class="l4" d="M449.378 152.639L449.378 159.57"/>
<path class="l4" d="M428.585 131.846L435.516 131.846"/>
<path class="l4" d="M428.585 104.122L435.516 104.122"/>
<path class="l4" d="M490.964 104.122L497.895 104.122"/>
<path class="l4" d="M490.964 131.846L497.895 131.846"/>
<path class="l4" d="M525.619 76.3982L525.619 83.3291"/>
<path class="l4" d="M546.412 104.122L553.343 104.122"/>
<path class="l4" d="M546.412 131.846L553.343 131.846"/>
<path class="l4" d="M532.55 145.708L532.55 152.639"/>
<path class="l4" d="M518.688 145.708L518.688 152.639"/>
<path class="l4" d="M511.757 145.708L518.688 145.708"/>
<path class="l4" d="M504.826 104.122L504.826 131.846"/>
<path class="l4" d="M511.757 90.2601L539.481 90.2601"/>
<path class="l4" d="M546.412 104.122L546.412 131.846"/>
<path class="l4" d="M518.688 145.708L539.481 145.708"/>
<path class="l4" d="M515.223 145.708L518.688 140.51"/>
<path class="l4" d="M518.688 140.51L522.154 145.708"/>
<path class="l4" d="M504.826 90.2601L504.826 104.122"/>
<path class="l4" d="M504.826 90.2601L511.757 90.2601"/>
<path class="l4" d="M539.481 90.2601L546.412 90.2601"/>
<path class="l4" d="M546.412 90.2601L546.412 104.122"/>
<path class="l4" d="M539.481 145.708L546.412 145.708"/>
<path class="l4" d="M546.412 131.846L546.412 145.708"/>
<path class="l4" d="M504.826 145.708L511.757 145.708"/>
<path class="l4" d="M504.826 131.846L504.826 145.708"/>
<path class="l4" d="M525.619 83.3291L525.619 90.2601"/>
<path class="l4" d="M553.343 104.122L560.274 104.122"/>
<path class="l4" d="M553.343 131.846L560.274 131.846"/>
<path class="l4" d="M532.55 152.639L532.55 159.57"/>
<path class="l4" d="M518.688 152.639L518.688 159.57"/>
<path class="l4" d="M497.895 131.846L504.826 131.846"/>
<path class="l4" d="M497.895 104.122L504.826 104.122"/>
<path class="l4" d="M199.863 381.361L199.863 391.758"/>
<path class="l4" d="M199.863 412.551L199.863 422.947"/>
<path class="l4" d="M197.264 396.956L202.462 396.956"/>
<path class="l4" d="M199.863 394.357L199.863 399.555"/>
<path class="l4" d="M197.264 407.352L202.462 407.352"/>
<circle class="l4" cx="199.863" cy="402.154" r="10.3965" style="fill:none;" />
<path class="l4" d="M199.863 422.947L199.863 426.413"/>
<path class="l4" d="M193.365 426.413L206.361 426.413"/>
<path class="l4" d="M199.863 435.509L206.361 426.413"/>
<path class="l4" d="M193.365 426.413L199.863 435.509"/>
<path class="l5" d="M199.517 124.568L200.21 124.568L200.21 125.262L199.517 125.262L199.517 124.568z"/>
<path class="l5" d="M199.517 166.154L200.21 166.154L200.21 166.847L199.517 166.847L199.517 166.154z"/>
<path class="l5" d="M199.517 166.154L200.21 166.154L200.21 166.847L199.517 166.847L199.517 166.154z"/>
<path class="l5" d="M199.517 124.568L200.21 124.568L200.21 125.262L199.517 125.262L199.517 124.568z"/>
<path class="l5" d="M199.517 214.671L200.21 214.671L200.21 215.364L199.517 215.364L199.517 214.671z"/>
<path class="l5" d="M199.517 256.257L200.21 256.257L200.21 256.95L199.517 256.95L199.517 256.257z"/>
<path class="l5" d="M199.517 256.257L200.21 256.257L200.21 256.95L199.517 256.95L199.517 256.257z"/>
<path class="l5" d="M198.997 214.151L200.729 214.151L200.729 215.884L198.997 215.884L198.997 214.151z"/>
<path class="l5" d="M199.517 297.843L200.21 297.843L200.21 298.536L199.517 298.536L199.517 297.843z"/>
<path class="l5" d="M199.517 339.429L200.21 339.429L200.21 340.122L199.517 340.122L199.517 339.429z"/>
<path class="l5" d="M199.517 339.429L200.21 339.429L200.21 340.122L199.517 340.122L199.517 339.429z"/>
<path class="l5" d="M198.997 297.323L200.729 297.323L200.729 299.056L198.997 299.056L198.997 297.323z"/>
<path class="l5" d="M317.343 55.2587L318.036 55.2587L318.036 55.9518L317.343 55.9518L317.343 55.2587z"/>
<path class="l5" d="M324.274 200.809L324.967 200.809L324.967 201.502L324.274 201.502L324.274 200.809z"/>
<path class="l5" d="M275.237 172.565L276.97 172.565L276.97 174.298L275.237 174.298L275.237 172.565z"/>
<path class="l5" d="M268.307 103.256L270.039 103.256L270.039 104.988L268.307 104.988L268.307 103.256z"/>
<path class="l7" d="M573.269 130.98L575.002 130.98L575.002 132.712L573.269 132.712L573.269 130.98z"/>
<path class="l8" d="M573.269 103.256L575.002 103.256L575.002 104.988L573.269 104.988L573.269 103.256z"/>
<path class="l5" d="M281.302 102.389L284.768 102.389L284.768 105.855L281.302 105.855L281.302 102.389z"/>
<path class="l5" d="M281.302 130.113L284.768 130.113L284.768 133.579L281.302 133.579L281.302 130.113z"/>
<path class="l5" d="M350.612 130.113L354.077 130.113L354.077 133.579L350.612 133.579L350.612 130.113z"/>
<path class="l5" d="M350.612 102.389L354.077 102.389L354.077 105.855L350.612 105.855L350.612 102.389z"/>
<path class="l5" d="M322.888 157.837L326.353 157.837L326.353 161.303L322.888 161.303L322.888 157.837z"/>
<path class="l5" d="M309.026 157.837L312.491 157.837L312.491 161.303L309.026 161.303L309.026 157.837z"/>
<path class="l5" d="M315.957 74.6654L319.422 74.6654L319.422 78.1309L315.957 78.1309L315.957 74.6654z"/>
<path class="l5" d="M350.612 102.389L354.077 102.389L354.077 105.855L350.612 105.855L350.612 102.389z"/>
<path class="l5" d="M350.612 130.113L354.077 130.113L354.077 133.579L350.612 133.579L350.612 130.113z"/>
<path class="l5" d="M419.922 130.113L423.387 130.113L423.387 133.579L419.922 133.579L419.922 130.113z"/>
<path class="l5" d="M419.922 102.389L423.387 102.389L423.387 105.855L419.922 105.855L419.922 102.389z"/>
<path class="l5" d="M392.198 157.837L395.663 157.837L395.663 161.303L392.198 161.303L392.198 157.837z"/>
<path class="l5" d="M378.336 157.837L381.801 157.837L381.801 161.303L378.336 161.303L378.336 157.837z"/>
<path class="l5" d="M385.267 74.6654L388.732 74.6654L388.732 78.1309L385.267 78.1309L385.267 74.6654z"/>
<path class="l5" d="M419.922 102.389L423.387 102.389L423.387 105.855L419.922 105.855L419.922 102.389z"/>
<path class="l5" d="M419.922 130.113L423.387 130.113L423.387 133.579L419.922 133.579L419.922 130.113z"/>
<path class="l5" d="M489.231 130.113L492.697 130.113L492.697 133.579L489.231 133.579L489.231 130.113z"/>
<path class="l5" d="M489.231 102.389L492.697 102.389L492.697 105.855L489.231 105.855L489.231 102.389z"/>
<path class="l5" d="M461.507 157.837L464.973 157.837L464.973 161.303L461.507 161.303L461.507 157.837z"/>
<path class="l5" d="M447.646 157.837L451.111 157.837L451.111 161.303L447.646 161.303L447.646 157.837z"/>
<path class="l5" d="M454.577 74.6654L458.042 74.6654L458.042 78.1309L454.577 78.1309L454.577 74.6654z"/>
<path class="l5" d="M489.231 102.389L492.697 102.389L492.697 105.855L489.231 105.855L489.231 102.389z"/>
<path class="l5" d="M489.231 130.113L492.697 130.113L492.697 133.579L489.231 133.579L489.231 130.113z"/>
<path class="l5" d="M558.541 130.113L562.007 130.113L562.007 133.579L558.541 133.579L558.541 130.113z"/>
<path class="l5" d="M558.541 102.389L562.007 102.389L562.007 105.855L558.541 105.855L558.541 102.389z"/>
<path class="l5" d="M530.817 157.837L534.283 157.837L534.283 161.303L530.817 161.303L530.817 157.837z"/>
<path class="l5" d="M516.955 157.837L520.421 157.837L520.421 161.303L516.955 161.303L516.955 157.837z"/>
<path class="l5" d="M523.886 74.6654L527.352 74.6654L527.352 78.1309L523.886 78.1309L523.886 74.6654z"/>
<path class="l5" d="M268.307 130.98L270.039 130.98L270.039 132.712L268.307 132.712L268.307 130.98z"/>
<path class="l5" d="M351.478 137.911L353.211 137.911L353.211 139.643L351.478 139.643L351.478 137.911z"/>
<path class="l5" d="M420.788 137.911L422.521 137.911L422.521 139.643L420.788 139.643L420.788 137.911z"/>
<path class="l5" d="M490.098 137.911L491.831 137.911L491.831 139.643L490.098 139.643L490.098 137.911z"/>
<path class="l5" d="M490.098 96.3247L491.831 96.3247L491.831 98.0575L490.098 98.0575L490.098 96.3247z"/>
<path class="l5" d="M420.788 96.3247L422.521 96.3247L422.521 98.0575L420.788 98.0575L420.788 96.3247z"/>
<path class="l5" d="M351.478 96.3247L353.211 96.3247L353.211 98.0575L351.478 98.0575L351.478 96.3247z"/>
<path class="l5" d="M199.517 381.015L200.21 381.015L200.21 381.708L199.517 381.708L199.517 381.015z"/>
<path class="l5" d="M199.517 422.6L200.21 422.6L200.21 423.294L199.517 423.294L199.517 422.6z"/>
<path class="l5" d="M199.517 422.6L200.21 422.6L200.21 423.294L199.517 423.294L199.517 422.6z"/>
<path class="l5" d="M198.997 380.495L200.729 380.495L200.729 382.228L198.997 382.228L198.997 380.495z"/>
<text fill="#000000"  xml:space="preserve" font-size="10.8123" transform="translate(251.845, 349.593)" >SPICE</text>
<text fill="#000000"  xml:space="preserve" font-size="10.8123" style="font-family:Monospace;" transform="translate(258.776, 366.92)" >.control</text>
<text fill="#000000"  xml:space="preserve" font-size="10.8123" style="font-family:Monospace;" transform="translate(258.776, 379.322)" >  set wr_vecnames</text>
<text fill="#000000"  xml:space="preserve" font-size="10.8123" style="font-family:Monospace;" transform="translate(258.776, 391.724)" >  set wr_singlescale</text>
<text fill="#000000"  xml:space="preserve" font-size="10.8123" style="font-family:Monospace;" transform="translate(258.776, 404.126)" >  ic v(Q0)=0 v(Q1)=0 v(Q2)=0 v(Q3)=0</text>
<text fill="#000000"  xml:space="preserve" font-size="10.8123" style="font-family:Monospace;" transform="translate(258.776, 416.527)" >  ic v(x1.Q)=0 v(x2.Q)=0 v(x4.Q)=0 v(x5.Q)=0</text>
<text fill="#000000"  xml:space="preserve" font-size="10.8123" style="font-family:Monospace;" transform="translate(258.776, 428.929)" >  tran 0.01n 200n</text>
<text fill="#000000"  xml:space="preserve" font-size="10.8123" style="font-family:Monospace;" transform="translate(258.776, 441.331)" >  wrdata ~/documents/git/madvlsi/csrl/schematic/csrl_tran.txt v(clk) v(D) v(Dn) v(Q0) v(Qn0) v(Q1) v(Qn1) v(Q2) v(Qn2) v(Q3) v(Qn3)</text>
<text fill="#000000"  xml:space="preserve" font-size="10.8123" style="font-family:Monospace;" transform="translate(258.776, 453.732)" >.endc</text>
<text fill="#000000"  xml:space="preserve" font-size="10.8123" transform="translate(244.914, 242.163)" >Corner: tt</text>
<text fill="#000000"  xml:space="preserve" font-size="7.20822" transform="translate(213.725, 143.055)" >Vdd</text>
<text fill="#000000"  xml:space="preserve" font-size="7.20822" transform="translate(213.725, 153.451)" >1.8</text>
<text fill="#000000"  xml:space="preserve" font-size="7.20822" transform="translate(191.363, 189.074)" >GND</text>
<text fill="#000000"  xml:space="preserve" font-size="7.20822" transform="translate(191.363, 110.667)" >VDD</text>
<text fill="#000000"  xml:space="preserve" font-size="7.20822" transform="translate(171.001, 233.157)" >vclk</text>
<text fill="#000000"  xml:space="preserve" font-size="7.20822" transform="translate(56.0011, 243.554)" >pulse(0 1.8 5ns 1ns 1ns 9ns 20ns)</text>
<text fill="#000000"  xml:space="preserve" font-size="7.20822" transform="translate(191.363, 279.177)" >GND</text>
<text fill="#000000"  xml:space="preserve" font-size="11.8936" transform="translate(205.061, 217.807)" >clk</text>
<text fill="#000000"  xml:space="preserve" font-size="7.20822" transform="translate(176.001, 316.329)" >vD</text>
<text fill="#000000"  xml:space="preserve" font-size="7.20822" transform="translate(33.0011, 326.726)" >pwl(0 0 15ns 0 16ns 1.8 30ns 1.8 31n 0)</text>
<text fill="#000000"  xml:space="preserve" font-size="7.20822" transform="translate(191.363, 362.348)" >GND</text>
<text fill="#000000"  xml:space="preserve" font-size="11.8936" transform="translate(205.061, 300.978)" >D</text>
<text fill="#000000"  xml:space="preserve" font-size="7.20822" transform="translate(309.19, 41.3574)" >VDD</text>
<text fill="#000000"  xml:space="preserve" font-size="7.20822" transform="translate(316.121, 223.729)" >GND</text>
<text fill="#000000"  xml:space="preserve" font-size="11.8936" transform="translate(253.906, 178.6)" >clk</text>
<text fill="#000000"  xml:space="preserve" font-size="11.8936" transform="translate(254.975, 109.29)" >D</text>
<text fill="#000000"  xml:space="preserve" font-size="11.8936" transform="translate(579.334, 134.635)" >Qn3</text>
<text fill="#000000"  xml:space="preserve" font-size="11.8936" transform="translate(579.334, 106.911)" >Q3</text>
<text fill="#000000"  xml:space="preserve" font-size="9.01027" transform="translate(300.362, 107.105)" >D</text>
<text fill="#000000"  xml:space="preserve" font-size="9.01027" transform="translate(300.362, 134.829)" >Dn</text>
<text fill="#000000"  xml:space="preserve" font-size="9.01027" transform="translate(321.155, 134.829)" >Qn</text>
<text fill="#000000"  xml:space="preserve" font-size="9.01027" transform="translate(328.086, 107.105)" >Q</text>
<text fill="#000000"  xml:space="preserve" font-size="9.01027" transform="translate(369.672, 107.105)" >D</text>
<text fill="#000000"  xml:space="preserve" font-size="9.01027" transform="translate(369.672, 134.829)" >Dn</text>
<text fill="#000000"  xml:space="preserve" font-size="9.01027" transform="translate(390.465, 134.829)" >Qn</text>
<text fill="#000000"  xml:space="preserve" font-size="9.01027" transform="translate(397.396, 107.105)" >Q</text>
<text fill="#000000"  xml:space="preserve" font-size="9.01027" transform="translate(438.982, 107.105)" >D</text>
<text fill="#000000"  xml:space="preserve" font-size="9.01027" transform="translate(438.982, 134.829)" >Dn</text>
<text fill="#000000"  xml:space="preserve" font-size="9.01027" transform="translate(459.775, 134.829)" >Qn</text>
<text fill="#000000"  xml:space="preserve" font-size="9.01027" transform="translate(466.706, 107.105)" >Q</text>
<text fill="#000000"  xml:space="preserve" font-size="9.01027" transform="translate(508.292, 107.105)" >D</text>
<text fill="#000000"  xml:space="preserve" font-size="9.01027" transform="translate(508.292, 134.829)" >Dn</text>
<text fill="#000000"  xml:space="preserve" font-size="9.01027" transform="translate(529.085, 134.829)" >Qn</text>
<text fill="#000000"  xml:space="preserve" font-size="9.01027" transform="translate(536.015, 107.105)" >Q</text>
<text fill="#000000"  xml:space="preserve" font-size="11.8936" transform="translate(246.975, 137.014)" >Dn</text>
<text fill="#000000"  xml:space="preserve" font-size="11.8936" transform="translate(357.513, 168.975) rotate(270)" >Qn0</text>
<text fill="#000000"  xml:space="preserve" font-size="11.8936" transform="translate(426.822, 168.975) rotate(270)" >Qn1</text>
<text fill="#000000"  xml:space="preserve" font-size="11.8936" transform="translate(496.132, 168.975) rotate(270)" >Qn2</text>
<text fill="#000000"  xml:space="preserve" font-size="11.8936" transform="translate(493.753, 91.9929) rotate(270)" >Q2</text>
<text fill="#000000"  xml:space="preserve" font-size="11.8936" transform="translate(424.443, 91.9929) rotate(270)" >Q1</text>
<text fill="#000000"  xml:space="preserve" font-size="11.8936" transform="translate(355.133, 91.9929) rotate(270)" >Q0</text>
<text fill="#000000"  xml:space="preserve" font-size="7.20822" transform="translate(171.001, 399.501)" >vDn</text>
<text fill="#000000"  xml:space="preserve" font-size="7.20822" transform="translate(22.0011, 409.897)" >pwl(0 1.8 15ns 1.8 16ns 0 30ns 0 31ns 1.8)</text>
<text fill="#000000"  xml:space="preserve" font-size="7.20822" transform="translate(191.363, 445.52)" >GND</text>
<text fill="#000000"  xml:space="preserve" font-size="11.8936" transform="translate(205.061, 384.15)" >Dn</text>
<path class="l1" d="M317.69 55.6052L317.69 62.5362"/>
<path class="l1" d="M276.104 173.432L310.759 173.432"/>
<path class="l1" d="M310.759 159.57L310.759 173.432"/>
<path class="l1" d="M269.173 104.122L283.035 104.122"/>
<path class="l7" d="M560.274 131.846L574.136 131.846"/>
<path class="l8" d="M560.274 104.122L574.136 104.122"/>
<path class="l1" d="M310.759 173.432L518.688 173.432"/>
<path class="l1" d="M518.688 159.57L518.688 173.432"/>
<path class="l1" d="M449.378 159.57L449.378 173.432"/>
<path class="l1" d="M380.069 159.57L380.069 173.432"/>
<path class="l1" d="M324.621 159.57L324.621 201.156"/>
<path class="l1" d="M393.93 159.57L393.93 187.294"/>
<path class="l1" d="M324.621 187.294L393.93 187.294"/>
<path class="l1" d="M393.93 187.294L463.24 187.294"/>
<path class="l1" d="M463.24 159.57L463.24 187.294"/>
<path class="l1" d="M463.24 187.294L532.55 187.294"/>
<path class="l1" d="M532.55 159.57L532.55 187.294"/>
<path class="l1" d="M317.69 62.5362L317.69 76.3982"/>
<path class="l1" d="M317.69 62.5362L525.619 62.5362"/>
<path class="l1" d="M525.619 62.5362L525.619 76.3982"/>
<path class="l1" d="M456.309 62.5362L456.309 76.3982"/>
<path class="l1" d="M386.999 62.5362L386.999 76.3982"/>
<path class="l1" d="M352.345 131.846L352.345 138.777"/>
<path class="l1" d="M421.654 131.846L421.654 138.777"/>
<path class="l1" d="M490.964 131.846L490.964 138.777"/>
<path class="l1" d="M352.345 97.1911L352.345 104.122"/>
<path class="l1" d="M421.654 97.1911L421.654 104.122"/>
<path class="l1" d="M490.964 97.1911L490.964 104.122"/>
<path class="l1" d="M269.173 131.846L283.035 131.846"/>
<circle class="l1" cx="386.999" cy="62.5362" r="2.56446"/>
<circle class="l1" cx="456.309" cy="62.5362" r="2.56446"/>
<circle class="l1" cx="317.69" cy="62.5362" r="2.56446"/>
<circle class="l1" cx="317.69" cy="62.5362" r="2.56446"/>
<circle class="l1" cx="463.24" cy="187.294" r="2.56446"/>
<circle class="l1" cx="393.93" cy="187.294" r="2.56446"/>
<circle class="l1" cx="380.069" cy="173.432" r="2.56446"/>
<circle class="l1" cx="449.378" cy="173.432" r="2.56446"/>
<circle class="l1" cx="310.759" cy="173.432" r="2.56446"/>
<circle class="l1" cx="317.69" cy="62.5362" r="2.56446"/>
<circle class="l1" cx="463.24" cy="187.294" r="2.56446"/>
<circle class="l1" cx="393.93" cy="187.294" r="2.56446"/>
<circle class="l1" cx="463.24" cy="187.294" r="2.56446"/>
<circle class="l1" cx="324.621" cy="187.294" r="2.56446"/>
<circle class="l1" cx="393.93" cy="187.294" r="2.56446"/>
<circle class="l1" cx="310.759" cy="173.432" r="2.56446"/>
<circle class="l1" cx="310.759" cy="173.432" r="2.56446"/>
</svg>
