<svg xmlns="http://www.w3.org/2000/svg" xmlns:xlink="http://www.w3.org/1999/xlink" width="772" height="837" version="1.1">
<style type="text/css">
.l0{
  fill: #ffffff;
  stroke: #ffffff;
  stroke-linecap:round;
  stroke-linejoin:round;
  stroke-width: 7.58263;
}
.l1{
  fill: #000000;
  stroke: #000000;
  stroke-linecap:round;
  stroke-linejoin:round;
  stroke-width: 7.58263;
}
.l2{
  fill: #000000; fill-opacity: 0.2;
  stroke: #000000;
  stroke-linecap:round;
  stroke-linejoin:round;
  stroke-width: 7.58263;
}
.l3{
  fill: #000000; fill-opacity: 0.5;
  stroke: #000000;
  stroke-linecap:round;
  stroke-linejoin:round;
  stroke-width: 7.58263;
}
.l4{
  fill: #000000;
  stroke: #000000;
  stroke-linecap:round;
  stroke-linejoin:round;
  stroke-width: 7.58263;
}
.l5{
  fill: #000000;
  stroke: #000000;
  stroke-linecap:round;
  stroke-linejoin:round;
  stroke-width: 7.58263;
}
.l6{
  fill: #000000; fill-opacity: 0.5;
  stroke: #000000;
  stroke-linecap:round;
  stroke-linejoin:round;
  stroke-width: 7.58263;
}
.l7{
  fill: #000000; fill-opacity: 0.5;
  stroke: #000000;
  stroke-linecap:round;
  stroke-linejoin:round;
  stroke-width: 7.58263;
}
.l8{
  fill: #000000; fill-opacity: 0.5;
  stroke: #000000;
  stroke-linecap:round;
  stroke-linejoin:round;
  stroke-width: 7.58263;
}
.l9{
  fill: #000000; fill-opacity: 0.5;
  stroke: #000000;
  stroke-linecap:round;
  stroke-linejoin:round;
  stroke-width: 7.58263;
}
.l10{
  fill: #000000;
  stroke: #000000;
  stroke-linecap:round;
  stroke-linejoin:round;
  stroke-width: 7.58263;
}
.l11{
  fill: #000000; fill-opacity: 0.5;
  stroke: #000000;
  stroke-linecap:round;
  stroke-linejoin:round;
  stroke-width: 7.58263;
}
.l12{
  fill: #000000; fill-opacity: 0.5;
  stroke: #000000;
  stroke-linecap:round;
  stroke-linejoin:round;
  stroke-width: 7.58263;
}
.l13{
  fill: #000000; fill-opacity: 0.5;
  stroke: #000000;
  stroke-linecap:round;
  stroke-linejoin:round;
  stroke-width: 7.58263;
}
.l14{
  fill: #000000; fill-opacity: 0.2;
  stroke: #000000;
  stroke-linecap:round;
  stroke-linejoin:round;
  stroke-width: 7.58263;
}
.l15{
  fill: #000000; fill-opacity: 0.5;
  stroke: #000000;
  stroke-linecap:round;
  stroke-linejoin:round;
  stroke-width: 7.58263;
}
.l16{
  fill: #000000; fill-opacity: 0.5;
  stroke: #000000;
  stroke-linecap:round;
  stroke-linejoin:round;
  stroke-width: 7.58263;
}
.l17{
  fill: #000000; fill-opacity: 0.2;
  stroke: #000000;
  stroke-linecap:round;
  stroke-linejoin:round;
  stroke-width: 7.58263;
}
.l18{
  fill: #000000; fill-opacity: 0.5;
  stroke: #000000;
  stroke-linecap:round;
  stroke-linejoin:round;
  stroke-width: 7.58263;
}
.l19{
  fill: #000000; fill-opacity: 0.2;
  stroke: #000000;
  stroke-linecap:round;
  stroke-linejoin:round;
  stroke-width: 7.58263;
}
.l20{
  fill: #000000; fill-opacity: 0.2;
  stroke: #000000;
  stroke-linecap:round;
  stroke-linejoin:round;
  stroke-width: 7.58263;
}
.l21{
  fill: #000000; fill-opacity: 0.2;
  stroke: #000000;
  stroke-linecap:round;
  stroke-linejoin:round;
  stroke-width: 7.58263;
}
text {font-family: Sans-Serif;}
</style>
<rect class="l0" x="0" y="0" width="772" height="837"/>
<path class="l4" d="M101.05 318.165L157.218 318.165"/>
<path class="l4" d="M101.05 542.835L157.218 542.835"/>
<path class="l4" d="M381.888 93.4943L381.888 149.662"/>
<path class="l4" d="M550.391 318.165L606.559 318.165"/>
<path class="l4" d="M550.391 542.835L606.559 542.835"/>
<path class="l4" d="M438.056 655.17L438.056 711.338"/>
<path class="l4" d="M325.721 655.17L325.721 711.338"/>
<path class="l4" d="M269.553 655.17L325.721 655.17"/>
<path class="l4" d="M213.385 318.165L213.385 542.835"/>
<path class="l4" d="M269.553 205.83L494.223 205.83"/>
<path class="l4" d="M550.391 318.165L550.391 542.835"/>
<path class="l4" d="M325.721 655.17L494.223 655.17"/>
<path class="l4" d="M297.637 655.17L325.721 613.045"/>
<path class="l4" d="M325.721 613.045L353.804 655.17"/>
<path class="l4" d="M213.385 205.83L213.385 318.165"/>
<path class="l4" d="M213.385 205.83L269.553 205.83"/>
<path class="l4" d="M494.223 205.83L550.391 205.83"/>
<path class="l4" d="M550.391 205.83L550.391 318.165"/>
<path class="l4" d="M494.223 655.17L550.391 655.17"/>
<path class="l4" d="M550.391 542.835L550.391 655.17"/>
<path class="l4" d="M213.385 655.17L269.553 655.17"/>
<path class="l4" d="M213.385 542.835L213.385 655.17"/>
<path class="l4" d="M381.888 149.662L381.888 205.83"/>
<path class="l4" d="M606.559 318.165L662.726 318.165"/>
<path class="l4" d="M606.559 542.835L662.726 542.835"/>
<path class="l4" d="M438.056 711.338L438.056 767.506"/>
<path class="l4" d="M325.721 711.338L325.721 767.506"/>
<path class="l4" d="M157.218 542.835L213.385 542.835"/>
<path class="l4" d="M157.218 318.165L213.385 318.165"/>
<path class="l5" d="M87.0083 304.123L115.092 304.123L115.092 332.207L87.0083 332.207L87.0083 304.123z"/>
<path class="l5" d="M87.0083 528.793L115.092 528.793L115.092 556.877L87.0083 556.877L87.0083 528.793z"/>
<path class="l5" d="M648.684 528.793L676.768 528.793L676.768 556.877L648.684 556.877L648.684 528.793z"/>
<path class="l5" d="M648.684 304.123L676.768 304.123L676.768 332.207L648.684 332.207L648.684 304.123z"/>
<path class="l5" d="M424.014 753.464L452.098 753.464L452.098 781.548L424.014 781.548L424.014 753.464z"/>
<path class="l5" d="M311.679 753.464L339.763 753.464L339.763 781.548L311.679 781.548L311.679 753.464z"/>
<path class="l5" d="M367.846 79.4524L395.93 79.4524L395.93 107.536L367.846 107.536L367.846 79.4524z"/>
<text fill="#000000"  xml:space="preserve" font-size="73.0179" transform="translate(241.469, 342.339)" >D</text>
<text fill="#000000"  xml:space="preserve" font-size="73.0179" transform="translate(241.469, 567.01)" >Dn</text>
<text fill="#000000"  xml:space="preserve" font-size="73.0179" transform="translate(409.972, 567.01)" >Qn</text>
<text fill="#000000"  xml:space="preserve" font-size="73.0179" transform="translate(466.14, 342.339)" >Q</text>
<text fill="#000000"  xml:space="preserve" font-size="73.0179" transform="translate(353.804, 454.675)" >Φ</text>
</svg>
