<svg xmlns="http://www.w3.org/2000/svg" xmlns:xlink="http://www.w3.org/1999/xlink" width="1000" height="700" version="1.1">
<style type="text/css">
.l0{
  fill: #ffffff;
  stroke: #ffffff;
  stroke-linecap:round;
  stroke-linejoin:round;
  stroke-width: 0.533891;
}
.l1{
  fill: #000000;
  stroke: #000000;
  stroke-linecap:round;
  stroke-linejoin:round;
  stroke-width: 0.533891;
}
.l2{
  fill: #000000; fill-opacity: 0.2;
  stroke: #000000;
  stroke-linecap:round;
  stroke-linejoin:round;
  stroke-width: 0.533891;
}
.l3{
  fill: #000000; fill-opacity: 0.5;
  stroke: #000000;
  stroke-linecap:round;
  stroke-linejoin:round;
  stroke-width: 0.533891;
}
.l4{
  fill: #000000;
  stroke: #000000;
  stroke-linecap:round;
  stroke-linejoin:round;
  stroke-width: 0.533891;
}
.l5{
  fill: #000000;
  stroke: #000000;
  stroke-linecap:round;
  stroke-linejoin:round;
  stroke-width: 0.533891;
}
.l6{
  fill: #000000; fill-opacity: 0.5;
  stroke: #000000;
  stroke-linecap:round;
  stroke-linejoin:round;
  stroke-width: 0.533891;
}
.l7{
  fill: #000000; fill-opacity: 0.5;
  stroke: #000000;
  stroke-linecap:round;
  stroke-linejoin:round;
  stroke-width: 0.533891;
}
.l8{
  fill: #000000; fill-opacity: 0.5;
  stroke: #000000;
  stroke-linecap:round;
  stroke-linejoin:round;
  stroke-width: 0.533891;
}
.l9{
  fill: #000000; fill-opacity: 0.5;
  stroke: #000000;
  stroke-linecap:round;
  stroke-linejoin:round;
  stroke-width: 0.533891;
}
.l10{
  fill: #000000;
  stroke: #000000;
  stroke-linecap:round;
  stroke-linejoin:round;
  stroke-width: 0.533891;
}
.l11{
  fill: #000000; fill-opacity: 0.5;
  stroke: #000000;
  stroke-linecap:round;
  stroke-linejoin:round;
  stroke-width: 0.533891;
}
.l12{
  fill: #000000; fill-opacity: 0.5;
  stroke: #000000;
  stroke-linecap:round;
  stroke-linejoin:round;
  stroke-width: 0.533891;
}
.l13{
  fill: #000000; fill-opacity: 0.5;
  stroke: #000000;
  stroke-linecap:round;
  stroke-linejoin:round;
  stroke-width: 0.533891;
}
.l14{
  fill: #000000; fill-opacity: 0.2;
  stroke: #000000;
  stroke-linecap:round;
  stroke-linejoin:round;
  stroke-width: 0.533891;
}
.l15{
  fill: #000000; fill-opacity: 0.5;
  stroke: #000000;
  stroke-linecap:round;
  stroke-linejoin:round;
  stroke-width: 0.533891;
}
.l16{
  fill: #000000; fill-opacity: 0.5;
  stroke: #000000;
  stroke-linecap:round;
  stroke-linejoin:round;
  stroke-width: 0.533891;
}
.l17{
  fill: #000000; fill-opacity: 0.2;
  stroke: #000000;
  stroke-linecap:round;
  stroke-linejoin:round;
  stroke-width: 0.533891;
}
.l18{
  fill: #000000; fill-opacity: 0.5;
  stroke: #000000;
  stroke-linecap:round;
  stroke-linejoin:round;
  stroke-width: 0.533891;
}
.l19{
  fill: #000000; fill-opacity: 0.2;
  stroke: #000000;
  stroke-linecap:round;
  stroke-linejoin:round;
  stroke-width: 0.533891;
}
.l20{
  fill: #000000; fill-opacity: 0.2;
  stroke: #000000;
  stroke-linecap:round;
  stroke-linejoin:round;
  stroke-width: 0.533891;
}
.l21{
  fill: #000000; fill-opacity: 0.2;
  stroke: #000000;
  stroke-linecap:round;
  stroke-linejoin:round;
  stroke-width: 0.533891;
}
text {font-family: Sans-Serif;}
</style>
<rect class="l0" x="0" y="0" width="1000" height="700"/>
<path class="l4" d="M33.4884 407.968L57.2169 407.968"/>
<path class="l4" d="M33.4884 407.968L45.3527 384.239"/>
<path class="l4" d="M45.3527 384.239L57.2169 407.968"/>
<path class="l4" d="M45.3527 407.968L45.3527 415.877"/>
<path class="l4" d="M45.3527 372.375L45.3527 380.285"/>
<path class="l4" d="M29.5337 396.104L39.4205 396.104"/>
<path class="l4" d="M51.2848 396.104L61.1716 396.104"/>
<circle class="l4" cx="45.3527" cy="382.262" r="1.97737" style="fill:none;"/>
<path class="l4" d="M112.583 289.326L118.515 289.326"/>
<path class="l4" d="M118.515 289.326L118.515 295.258"/>
<path class="l4" d="M116.291 295.258L132.604 295.258"/>
<path class="l4" d="M130.38 289.326L130.38 295.258"/>
<path class="l4" d="M130.38 289.326L136.312 289.326"/>
<path class="l4" d="M118.515 296.741L130.38 296.741"/>
<path class="l4" d="M124.448 298.965L124.448 301.19"/>
<circle class="l4" cx="124.448" cy="297.853" r="1.11227" style="fill:none;"/>
<path class="l4" d="M65.1264 297.235L65.1264 303.167"/>
<path class="l4" d="M59.1943 303.167L65.1264 303.167"/>
<path class="l4" d="M59.1943 300.943L59.1943 317.256"/>
<path class="l4" d="M59.1943 315.031L65.1264 315.031"/>
<path class="l4" d="M65.1264 315.031L65.1264 320.964"/>
<path class="l4" d="M57.7112 303.167L57.7112 315.031"/>
<path class="l4" d="M53.2622 309.099L55.4867 309.099"/>
<circle class="l4" cx="56.599" cy="309.099" r="1.11227" style="fill:none;"/>
<path class="l4" d="M65.1264 336.783L65.1264 342.715"/>
<path class="l4" d="M59.1943 342.715L65.1264 342.715"/>
<path class="l4" d="M59.1943 340.49L59.1943 356.803"/>
<path class="l4" d="M59.1943 354.579L65.1264 354.579"/>
<path class="l4" d="M65.1264 354.579L65.1264 360.511"/>
<path class="l4" d="M57.7112 342.715L57.7112 354.579"/>
<path class="l4" d="M53.2622 348.647L55.4867 348.647"/>
<circle class="l4" cx="56.599" cy="348.647" r="1.11227" style="fill:none;"/>
<path class="l4" d="M136.312 336.783L136.312 342.715"/>
<path class="l4" d="M130.38 342.715L136.312 342.715"/>
<path class="l4" d="M130.38 340.49L130.38 356.803"/>
<path class="l4" d="M130.38 354.579L136.312 354.579"/>
<path class="l4" d="M136.312 354.579L136.312 360.511"/>
<path class="l4" d="M128.897 342.715L128.897 354.579"/>
<path class="l4" d="M124.448 348.647L126.672 348.647"/>
<circle class="l4" cx="127.784" cy="348.647" r="1.11227" style="fill:none;"/>
<path class="l4" d="M239.135 289.326L245.067 289.326"/>
<path class="l4" d="M245.067 289.326L245.067 295.258"/>
<path class="l4" d="M242.843 295.258L259.156 295.258"/>
<path class="l4" d="M256.932 289.326L256.932 295.258"/>
<path class="l4" d="M256.932 289.326L262.864 289.326"/>
<path class="l4" d="M245.067 296.741L256.932 296.741"/>
<path class="l4" d="M250.999 298.965L250.999 301.19"/>
<circle class="l4" cx="250.999" cy="297.853" r="1.11227" style="fill:none;"/>
<path class="l4" d="M191.678 297.235L191.678 303.167"/>
<path class="l4" d="M185.746 303.167L191.678 303.167"/>
<path class="l4" d="M185.746 300.943L185.746 317.256"/>
<path class="l4" d="M185.746 315.031L191.678 315.031"/>
<path class="l4" d="M191.678 315.031L191.678 320.964"/>
<path class="l4" d="M184.263 303.167L184.263 315.031"/>
<path class="l4" d="M179.814 309.099L182.039 309.099"/>
<circle class="l4" cx="183.151" cy="309.099" r="1.11227" style="fill:none;"/>
<path class="l4" d="M191.678 336.783L191.678 342.715"/>
<path class="l4" d="M185.746 342.715L191.678 342.715"/>
<path class="l4" d="M185.746 340.49L185.746 356.803"/>
<path class="l4" d="M185.746 354.579L191.678 354.579"/>
<path class="l4" d="M191.678 354.579L191.678 360.511"/>
<path class="l4" d="M184.263 342.715L184.263 354.579"/>
<path class="l4" d="M179.814 348.647L182.039 348.647"/>
<circle class="l4" cx="183.151" cy="348.647" r="1.11227" style="fill:none;"/>
<path class="l4" d="M262.864 336.783L262.864 342.715"/>
<path class="l4" d="M256.932 342.715L262.864 342.715"/>
<path class="l4" d="M256.932 340.49L256.932 356.803"/>
<path class="l4" d="M256.932 354.579L262.864 354.579"/>
<path class="l4" d="M262.864 354.579L262.864 360.511"/>
<path class="l4" d="M255.448 342.715L255.448 354.579"/>
<path class="l4" d="M250.999 348.647L253.224 348.647"/>
<circle class="l4" cx="254.336" cy="348.647" r="1.11227" style="fill:none;"/>
<path class="l4" d="M365.687 289.326L371.619 289.326"/>
<path class="l4" d="M371.619 289.326L371.619 295.258"/>
<path class="l4" d="M369.395 295.258L385.708 295.258"/>
<path class="l4" d="M383.483 289.326L383.483 295.258"/>
<path class="l4" d="M383.483 289.326L389.415 289.326"/>
<path class="l4" d="M371.619 296.741L383.483 296.741"/>
<path class="l4" d="M377.551 298.965L377.551 301.19"/>
<circle class="l4" cx="377.551" cy="297.853" r="1.11227" style="fill:none;"/>
<path class="l4" d="M318.23 297.235L318.23 303.167"/>
<path class="l4" d="M312.298 303.167L318.23 303.167"/>
<path class="l4" d="M312.298 300.943L312.298 317.256"/>
<path class="l4" d="M312.298 315.031L318.23 315.031"/>
<path class="l4" d="M318.23 315.031L318.23 320.964"/>
<path class="l4" d="M310.815 303.167L310.815 315.031"/>
<path class="l4" d="M306.366 309.099L308.59 309.099"/>
<circle class="l4" cx="309.703" cy="309.099" r="1.11227" style="fill:none;"/>
<path class="l4" d="M318.23 336.783L318.23 342.715"/>
<path class="l4" d="M312.298 342.715L318.23 342.715"/>
<path class="l4" d="M312.298 340.49L312.298 356.803"/>
<path class="l4" d="M312.298 354.579L318.23 354.579"/>
<path class="l4" d="M318.23 354.579L318.23 360.511"/>
<path class="l4" d="M310.815 342.715L310.815 354.579"/>
<path class="l4" d="M306.366 348.647L308.59 348.647"/>
<circle class="l4" cx="309.703" cy="348.647" r="1.11227" style="fill:none;"/>
<path class="l4" d="M389.415 336.783L389.415 342.715"/>
<path class="l4" d="M383.483 342.715L389.415 342.715"/>
<path class="l4" d="M383.483 340.49L383.483 356.803"/>
<path class="l4" d="M383.483 354.579L389.415 354.579"/>
<path class="l4" d="M389.415 354.579L389.415 360.511"/>
<path class="l4" d="M382 342.715L382 354.579"/>
<path class="l4" d="M377.551 348.647L379.776 348.647"/>
<circle class="l4" cx="380.888" cy="348.647" r="1.11227" style="fill:none;"/>
<path class="l4" d="M492.239 289.326L498.171 289.326"/>
<path class="l4" d="M498.171 289.326L498.171 295.258"/>
<path class="l4" d="M495.946 295.258L512.26 295.258"/>
<path class="l4" d="M510.035 289.326L510.035 295.258"/>
<path class="l4" d="M510.035 289.326L515.967 289.326"/>
<path class="l4" d="M498.171 296.741L510.035 296.741"/>
<path class="l4" d="M504.103 298.965L504.103 301.19"/>
<circle class="l4" cx="504.103" cy="297.853" r="1.11227" style="fill:none;"/>
<path class="l4" d="M444.782 297.235L444.782 303.167"/>
<path class="l4" d="M438.85 303.167L444.782 303.167"/>
<path class="l4" d="M438.85 300.943L438.85 317.256"/>
<path class="l4" d="M438.85 315.031L444.782 315.031"/>
<path class="l4" d="M444.782 315.031L444.782 320.964"/>
<path class="l4" d="M437.367 303.167L437.367 315.031"/>
<path class="l4" d="M432.918 309.099L435.142 309.099"/>
<circle class="l4" cx="436.254" cy="309.099" r="1.11227" style="fill:none;"/>
<path class="l4" d="M444.782 336.783L444.782 342.715"/>
<path class="l4" d="M438.85 342.715L444.782 342.715"/>
<path class="l4" d="M438.85 340.49L438.85 356.803"/>
<path class="l4" d="M438.85 354.579L444.782 354.579"/>
<path class="l4" d="M444.782 354.579L444.782 360.511"/>
<path class="l4" d="M437.367 342.715L437.367 354.579"/>
<path class="l4" d="M432.918 348.647L435.142 348.647"/>
<circle class="l4" cx="436.254" cy="348.647" r="1.11227" style="fill:none;"/>
<path class="l4" d="M515.967 336.783L515.967 342.715"/>
<path class="l4" d="M510.035 342.715L515.967 342.715"/>
<path class="l4" d="M510.035 340.49L510.035 356.803"/>
<path class="l4" d="M510.035 354.579L515.967 354.579"/>
<path class="l4" d="M515.967 354.579L515.967 360.511"/>
<path class="l4" d="M508.552 342.715L508.552 354.579"/>
<path class="l4" d="M504.103 348.647L506.328 348.647"/>
<circle class="l4" cx="507.44" cy="348.647" r="1.11227" style="fill:none;"/>
<path class="l4" d="M618.791 289.326L624.723 289.326"/>
<path class="l4" d="M624.723 289.326L624.723 295.258"/>
<path class="l4" d="M622.498 295.258L638.812 295.258"/>
<path class="l4" d="M636.587 289.326L636.587 295.258"/>
<path class="l4" d="M636.587 289.326L642.519 289.326"/>
<path class="l4" d="M624.723 296.741L636.587 296.741"/>
<path class="l4" d="M630.655 298.965L630.655 301.19"/>
<circle class="l4" cx="630.655" cy="297.853" r="1.11227" style="fill:none;"/>
<path class="l4" d="M571.334 297.235L571.334 303.167"/>
<path class="l4" d="M565.402 303.167L571.334 303.167"/>
<path class="l4" d="M565.402 300.943L565.402 317.256"/>
<path class="l4" d="M565.402 315.031L571.334 315.031"/>
<path class="l4" d="M571.334 315.031L571.334 320.964"/>
<path class="l4" d="M563.919 303.167L563.919 315.031"/>
<path class="l4" d="M559.469 309.099L561.694 309.099"/>
<circle class="l4" cx="562.806" cy="309.099" r="1.11227" style="fill:none;"/>
<path class="l4" d="M571.334 336.783L571.334 342.715"/>
<path class="l4" d="M565.402 342.715L571.334 342.715"/>
<path class="l4" d="M565.402 340.49L565.402 356.803"/>
<path class="l4" d="M565.402 354.579L571.334 354.579"/>
<path class="l4" d="M571.334 354.579L571.334 360.511"/>
<path class="l4" d="M563.919 342.715L563.919 354.579"/>
<path class="l4" d="M559.469 348.647L561.694 348.647"/>
<circle class="l4" cx="562.806" cy="348.647" r="1.11227" style="fill:none;"/>
<path class="l4" d="M642.519 336.783L642.519 342.715"/>
<path class="l4" d="M636.587 342.715L642.519 342.715"/>
<path class="l4" d="M636.587 340.49L636.587 356.803"/>
<path class="l4" d="M636.587 354.579L642.519 354.579"/>
<path class="l4" d="M642.519 354.579L642.519 360.511"/>
<path class="l4" d="M635.104 342.715L635.104 354.579"/>
<path class="l4" d="M630.655 348.647L632.879 348.647"/>
<circle class="l4" cx="633.992" cy="348.647" r="1.11227" style="fill:none;"/>
<path class="l4" d="M745.342 289.326L751.275 289.326"/>
<path class="l4" d="M751.275 289.326L751.275 295.258"/>
<path class="l4" d="M749.05 295.258L765.363 295.258"/>
<path class="l4" d="M763.139 289.326L763.139 295.258"/>
<path class="l4" d="M763.139 289.326L769.071 289.326"/>
<path class="l4" d="M751.275 296.741L763.139 296.741"/>
<path class="l4" d="M757.207 298.965L757.207 301.19"/>
<circle class="l4" cx="757.207" cy="297.853" r="1.11227" style="fill:none;"/>
<path class="l4" d="M697.886 297.235L697.886 303.167"/>
<path class="l4" d="M691.953 303.167L697.886 303.167"/>
<path class="l4" d="M691.953 300.943L691.953 317.256"/>
<path class="l4" d="M691.953 315.031L697.886 315.031"/>
<path class="l4" d="M697.886 315.031L697.886 320.964"/>
<path class="l4" d="M690.47 303.167L690.47 315.031"/>
<path class="l4" d="M686.021 309.099L688.246 309.099"/>
<circle class="l4" cx="689.358" cy="309.099" r="1.11227" style="fill:none;"/>
<path class="l4" d="M697.886 336.783L697.886 342.715"/>
<path class="l4" d="M691.953 342.715L697.886 342.715"/>
<path class="l4" d="M691.953 340.49L691.953 356.803"/>
<path class="l4" d="M691.953 354.579L697.886 354.579"/>
<path class="l4" d="M697.886 354.579L697.886 360.511"/>
<path class="l4" d="M690.47 342.715L690.47 354.579"/>
<path class="l4" d="M686.021 348.647L688.246 348.647"/>
<circle class="l4" cx="689.358" cy="348.647" r="1.11227" style="fill:none;"/>
<path class="l4" d="M769.071 336.783L769.071 342.715"/>
<path class="l4" d="M763.139 342.715L769.071 342.715"/>
<path class="l4" d="M763.139 340.49L763.139 356.803"/>
<path class="l4" d="M763.139 354.579L769.071 354.579"/>
<path class="l4" d="M769.071 354.579L769.071 360.511"/>
<path class="l4" d="M761.656 342.715L761.656 354.579"/>
<path class="l4" d="M757.207 348.647L759.431 348.647"/>
<circle class="l4" cx="760.544" cy="348.647" r="1.11227" style="fill:none;"/>
<path class="l4" d="M871.894 289.326L877.826 289.326"/>
<path class="l4" d="M877.826 289.326L877.826 295.258"/>
<path class="l4" d="M875.602 295.258L891.915 295.258"/>
<path class="l4" d="M889.691 289.326L889.691 295.258"/>
<path class="l4" d="M889.691 289.326L895.623 289.326"/>
<path class="l4" d="M877.826 296.741L889.691 296.741"/>
<path class="l4" d="M883.759 298.965L883.759 301.19"/>
<circle class="l4" cx="883.759" cy="297.853" r="1.11227" style="fill:none;"/>
<path class="l4" d="M824.437 297.235L824.437 303.167"/>
<path class="l4" d="M818.505 303.167L824.437 303.167"/>
<path class="l4" d="M818.505 300.943L818.505 317.256"/>
<path class="l4" d="M818.505 315.031L824.437 315.031"/>
<path class="l4" d="M824.437 315.031L824.437 320.964"/>
<path class="l4" d="M817.022 303.167L817.022 315.031"/>
<path class="l4" d="M812.573 309.099L814.798 309.099"/>
<circle class="l4" cx="815.91" cy="309.099" r="1.11227" style="fill:none;"/>
<path class="l4" d="M824.437 336.783L824.437 342.715"/>
<path class="l4" d="M818.505 342.715L824.437 342.715"/>
<path class="l4" d="M818.505 340.49L818.505 356.803"/>
<path class="l4" d="M818.505 354.579L824.437 354.579"/>
<path class="l4" d="M824.437 354.579L824.437 360.511"/>
<path class="l4" d="M817.022 342.715L817.022 354.579"/>
<path class="l4" d="M812.573 348.647L814.798 348.647"/>
<circle class="l4" cx="815.91" cy="348.647" r="1.11227" style="fill:none;"/>
<path class="l4" d="M895.623 336.783L895.623 342.715"/>
<path class="l4" d="M889.691 342.715L895.623 342.715"/>
<path class="l4" d="M889.691 340.49L889.691 356.803"/>
<path class="l4" d="M889.691 354.579L895.623 354.579"/>
<path class="l4" d="M895.623 354.579L895.623 360.511"/>
<path class="l4" d="M888.208 342.715L888.208 354.579"/>
<path class="l4" d="M883.759 348.647L885.983 348.647"/>
<circle class="l4" cx="887.095" cy="348.647" r="1.11227" style="fill:none;"/>
<path class="l4" d="M160.04 407.968L183.769 407.968"/>
<path class="l4" d="M160.04 407.968L171.904 384.239"/>
<path class="l4" d="M171.904 384.239L183.769 407.968"/>
<path class="l4" d="M171.904 407.968L171.904 415.877"/>
<path class="l4" d="M171.904 372.375L171.904 380.285"/>
<path class="l4" d="M156.086 396.104L165.972 396.104"/>
<path class="l4" d="M177.837 396.104L187.723 396.104"/>
<circle class="l4" cx="171.904" cy="382.262" r="1.97737" style="fill:none;"/>
<path class="l4" d="M286.592 407.968L310.321 407.968"/>
<path class="l4" d="M286.592 407.968L298.456 384.239"/>
<path class="l4" d="M298.456 384.239L310.321 407.968"/>
<path class="l4" d="M298.456 407.968L298.456 415.877"/>
<path class="l4" d="M298.456 372.375L298.456 380.285"/>
<path class="l4" d="M282.637 396.104L292.524 396.104"/>
<path class="l4" d="M304.388 396.104L314.275 396.104"/>
<circle class="l4" cx="298.456" cy="382.262" r="1.97737" style="fill:none;"/>
<path class="l4" d="M413.144 407.968L436.872 407.968"/>
<path class="l4" d="M413.144 407.968L425.008 384.239"/>
<path class="l4" d="M425.008 384.239L436.872 407.968"/>
<path class="l4" d="M425.008 407.968L425.008 415.877"/>
<path class="l4" d="M425.008 372.375L425.008 380.285"/>
<path class="l4" d="M409.189 396.104L419.076 396.104"/>
<path class="l4" d="M430.94 396.104L440.827 396.104"/>
<circle class="l4" cx="425.008" cy="382.262" r="1.97737" style="fill:none;"/>
<path class="l4" d="M539.696 407.968L563.424 407.968"/>
<path class="l4" d="M539.696 407.968L551.56 384.239"/>
<path class="l4" d="M551.56 384.239L563.424 407.968"/>
<path class="l4" d="M551.56 407.968L551.56 415.877"/>
<path class="l4" d="M551.56 372.375L551.56 380.285"/>
<path class="l4" d="M535.741 396.104L545.628 396.104"/>
<path class="l4" d="M557.492 396.104L567.379 396.104"/>
<circle class="l4" cx="551.56" cy="382.262" r="1.97737" style="fill:none;"/>
<path class="l4" d="M666.248 407.968L689.976 407.968"/>
<path class="l4" d="M666.248 407.968L678.112 384.239"/>
<path class="l4" d="M678.112 384.239L689.976 407.968"/>
<path class="l4" d="M678.112 407.968L678.112 415.877"/>
<path class="l4" d="M678.112 372.375L678.112 380.285"/>
<path class="l4" d="M662.293 396.104L672.18 396.104"/>
<path class="l4" d="M684.044 396.104L693.931 396.104"/>
<circle class="l4" cx="678.112" cy="382.262" r="1.97737" style="fill:none;"/>
<path class="l4" d="M792.799 407.968L816.528 407.968"/>
<path class="l4" d="M792.799 407.968L804.664 384.239"/>
<path class="l4" d="M804.664 384.239L816.528 407.968"/>
<path class="l4" d="M804.664 407.968L804.664 415.877"/>
<path class="l4" d="M804.664 372.375L804.664 380.285"/>
<path class="l4" d="M788.845 396.104L798.732 396.104"/>
<path class="l4" d="M810.596 396.104L820.483 396.104"/>
<circle class="l4" cx="804.664" cy="382.262" r="1.97737" style="fill:none;"/>
<path class="l4" d="M943.08 297.235L943.08 303.167"/>
<path class="l4" d="M937.148 303.167L943.08 303.167"/>
<path class="l4" d="M937.148 300.943L937.148 317.256"/>
<path class="l4" d="M937.148 315.031L943.08 315.031"/>
<path class="l4" d="M943.08 315.031L943.08 320.964"/>
<path class="l4" d="M935.665 303.167L935.665 315.031"/>
<path class="l4" d="M931.215 309.099L933.44 309.099"/>
<circle class="l4" cx="934.552" cy="309.099" r="1.11227" style="fill:none;"/>
<path class="l5" d="M44.364 414.889L46.3414 414.889L46.3414 416.866L44.364 416.866L44.364 414.889z"/>
<path class="l5" d="M44.364 371.387L46.3414 371.387L46.3414 373.364L44.364 373.364L44.364 371.387z"/>
<path class="l5" d="M28.545 395.115L30.5224 395.115L30.5224 397.092L28.545 397.092L28.545 395.115z"/>
<path class="l5" d="M60.183 395.115L62.1603 395.115L62.1603 397.092L60.183 397.092L60.183 395.115z"/>
<path class="l5" d="M44.1168 265.597L45.3527 265.597"/>
<path class="l5" d="M39.9149 263.62L38.4319 265.597L39.9149 267.574L42.6338 267.574L44.1168 265.597L42.6338 263.62L39.9149 263.62"/>
<path class="l5" d="M44.8583 265.103L45.847 265.103L45.847 266.091L44.8583 266.091L44.8583 265.103z"/>
<path class="l5" d="M44.1168 253.733L45.3527 253.733"/>
<path class="l5" d="M39.9149 251.755L38.4319 253.733L39.9149 255.71L42.6338 255.71L44.1168 253.733L42.6338 251.755L39.9149 251.755"/>
<path class="l5" d="M44.8583 253.239L45.847 253.239L45.847 254.227L44.8583 254.227L44.8583 253.239z"/>
<path class="l5" d="M44.8583 253.239L45.847 253.239L45.847 254.227L44.8583 254.227L44.8583 253.239z"/>
<path class="l5" d="M44.8583 265.103L45.847 265.103L45.847 266.091L44.8583 266.091L44.8583 265.103z"/>
<path class="l5" d="M60.6773 395.609L61.666 395.609L61.666 396.598L60.6773 396.598L60.6773 395.609z"/>
<path class="l5" d="M29.0393 395.609L30.028 395.609L30.028 396.598L29.0393 396.598L29.0393 395.609z"/>
<path class="l5" d="M43.3753 289.326L45.3527 289.326"/>
<path class="l5" d="M43.3753 289.326L41.8923 287.348L38.4319 287.348L39.9149 289.326L38.4319 291.303L41.8923 291.303L43.3753 289.326"/>
<path class="l5" d="M44.8583 288.831L45.847 288.831L45.847 289.82L44.8583 289.82L44.8583 288.831z"/>
<path class="l5" d="M43.3753 309.099L45.3527 309.099"/>
<path class="l5" d="M43.3753 309.099L41.8923 307.122L38.4319 307.122L39.9149 309.099L38.4319 311.077L41.8923 311.077L43.3753 309.099"/>
<path class="l5" d="M44.8583 308.605L45.847 308.605L45.847 309.594L44.8583 309.594L44.8583 308.605z"/>
<path class="l5" d="M45.3527 435.651L45.3527 437.628"/>
<path class="l5" d="M45.3527 437.628L43.3753 439.112L43.3753 442.572L45.3527 441.089L47.33 442.572L47.33 439.112L45.3527 437.628"/>
<path class="l5" d="M44.8583 435.157L45.847 435.157L45.847 436.145L44.8583 436.145L44.8583 435.157z"/>
<path class="l5" d="M171.904 435.651L171.904 437.628"/>
<path class="l5" d="M171.904 437.628L169.927 439.112L169.927 442.572L171.904 441.089L173.882 442.572L173.882 439.112L171.904 437.628"/>
<path class="l5" d="M171.41 435.157L172.399 435.157L172.399 436.145L171.41 436.145L171.41 435.157z"/>
<path class="l5" d="M298.456 435.651L298.456 437.628"/>
<path class="l5" d="M298.456 437.628L296.479 439.112L296.479 442.572L298.456 441.089L300.434 442.572L300.434 439.112L298.456 437.628"/>
<path class="l5" d="M297.962 435.157L298.951 435.157L298.951 436.145L297.962 436.145L297.962 435.157z"/>
<path class="l5" d="M425.008 435.651L425.008 437.628"/>
<path class="l5" d="M425.008 437.628L423.031 439.112L423.031 442.572L425.008 441.089L426.986 442.572L426.986 439.112L425.008 437.628"/>
<path class="l5" d="M424.514 435.157L425.502 435.157L425.502 436.145L424.514 436.145L424.514 435.157z"/>
<path class="l5" d="M551.56 435.651L551.56 437.628"/>
<path class="l5" d="M551.56 437.628L549.583 439.112L549.583 442.572L551.56 441.089L553.537 442.572L553.537 439.112L551.56 437.628"/>
<path class="l5" d="M551.066 435.157L552.054 435.157L552.054 436.145L551.066 436.145L551.066 435.157z"/>
<path class="l5" d="M678.112 435.651L678.112 437.628"/>
<path class="l5" d="M678.112 437.628L676.134 439.112L676.134 442.572L678.112 441.089L680.089 442.572L680.089 439.112L678.112 437.628"/>
<path class="l5" d="M677.617 435.157L678.606 435.157L678.606 436.145L677.617 436.145L677.617 435.157z"/>
<path class="l5" d="M804.664 435.651L804.664 437.628"/>
<path class="l5" d="M804.664 437.628L802.686 439.112L802.686 442.572L804.664 441.089L806.641 442.572L806.641 439.112L804.664 437.628"/>
<path class="l5" d="M804.169 435.157L805.158 435.157L805.158 436.145L804.169 436.145L804.169 435.157z"/>
<path class="l5" d="M954.944 368.42L958.404 368.42"/>
<path class="l5" d="M961.865 368.42L960.382 366.443L956.921 366.443L958.404 368.42L956.921 370.398L960.382 370.398L961.865 368.42"/>
<path class="l5" d="M954.45 367.926L955.438 367.926L955.438 368.915L954.45 368.915L954.45 367.926z"/>
<path class="l5" d="M954.944 376.33L958.404 376.33"/>
<path class="l5" d="M961.865 376.33L960.382 374.353L956.921 374.353L958.404 376.33L956.921 378.307L960.382 378.307L961.865 376.33"/>
<path class="l5" d="M954.45 375.836L955.438 375.836L955.438 376.824L954.45 376.824L954.45 375.836z"/>
<path class="l5" d="M136.114 289.128L136.51 289.128L136.51 289.523L136.114 289.523L136.114 289.128z"/>
<path class="l5" d="M124.25 300.992L124.645 300.992L124.645 301.388L124.25 301.388L124.25 300.992z"/>
<path class="l5" d="M112.386 289.128L112.781 289.128L112.781 289.523L112.386 289.523L112.386 289.128z"/>
<path class="l5" d="M64.9287 320.766L65.3241 320.766L65.3241 321.161L64.9287 321.161L64.9287 320.766z"/>
<path class="l5" d="M53.0644 308.902L53.4599 308.902L53.4599 309.297L53.0644 309.297L53.0644 308.902z"/>
<path class="l5" d="M64.9287 297.037L65.3241 297.037L65.3241 297.433L64.9287 297.433L64.9287 297.037z"/>
<path class="l5" d="M64.9287 360.313L65.3241 360.313L65.3241 360.709L64.9287 360.709L64.9287 360.313z"/>
<path class="l5" d="M53.0644 348.449L53.4599 348.449L53.4599 348.844L53.0644 348.844L53.0644 348.449z"/>
<path class="l5" d="M64.9287 336.585L65.3241 336.585L65.3241 336.98L64.9287 336.98L64.9287 336.585z"/>
<path class="l5" d="M136.114 360.313L136.51 360.313L136.51 360.709L136.114 360.709L136.114 360.313z"/>
<path class="l5" d="M124.25 348.449L124.645 348.449L124.645 348.844L124.25 348.844L124.25 348.449z"/>
<path class="l5" d="M136.114 336.585L136.51 336.585L136.51 336.98L136.114 336.98L136.114 336.585z"/>
<path class="l5" d="M262.666 289.128L263.061 289.128L263.061 289.523L262.666 289.523L262.666 289.128z"/>
<path class="l5" d="M250.802 300.992L251.197 300.992L251.197 301.388L250.802 301.388L250.802 300.992z"/>
<path class="l5" d="M238.937 289.128L239.333 289.128L239.333 289.523L238.937 289.523L238.937 289.128z"/>
<path class="l5" d="M191.48 320.766L191.876 320.766L191.876 321.161L191.48 321.161L191.48 320.766z"/>
<path class="l5" d="M179.616 308.902L180.012 308.902L180.012 309.297L179.616 309.297L179.616 308.902z"/>
<path class="l5" d="M191.48 297.037L191.876 297.037L191.876 297.433L191.48 297.433L191.48 297.037z"/>
<path class="l5" d="M191.48 360.313L191.876 360.313L191.876 360.709L191.48 360.709L191.48 360.313z"/>
<path class="l5" d="M179.616 348.449L180.012 348.449L180.012 348.844L179.616 348.844L179.616 348.449z"/>
<path class="l5" d="M191.48 336.585L191.876 336.585L191.876 336.98L191.48 336.98L191.48 336.585z"/>
<path class="l5" d="M262.666 360.313L263.061 360.313L263.061 360.709L262.666 360.709L262.666 360.313z"/>
<path class="l5" d="M250.802 348.449L251.197 348.449L251.197 348.844L250.802 348.844L250.802 348.449z"/>
<path class="l5" d="M262.666 336.585L263.061 336.585L263.061 336.98L262.666 336.98L262.666 336.585z"/>
<path class="l5" d="M389.218 289.128L389.613 289.128L389.613 289.523L389.218 289.523L389.218 289.128z"/>
<path class="l5" d="M377.353 300.992L377.749 300.992L377.749 301.388L377.353 301.388L377.353 300.992z"/>
<path class="l5" d="M365.489 289.128L365.885 289.128L365.885 289.523L365.489 289.523L365.489 289.128z"/>
<path class="l5" d="M318.032 320.766L318.428 320.766L318.428 321.161L318.032 321.161L318.032 320.766z"/>
<path class="l5" d="M306.168 308.902L306.564 308.902L306.564 309.297L306.168 309.297L306.168 308.902z"/>
<path class="l5" d="M318.032 297.037L318.428 297.037L318.428 297.433L318.032 297.433L318.032 297.037z"/>
<path class="l5" d="M318.032 360.313L318.428 360.313L318.428 360.709L318.032 360.709L318.032 360.313z"/>
<path class="l5" d="M306.168 348.449L306.564 348.449L306.564 348.844L306.168 348.844L306.168 348.449z"/>
<path class="l5" d="M318.032 336.585L318.428 336.585L318.428 336.98L318.032 336.98L318.032 336.585z"/>
<path class="l5" d="M389.218 360.313L389.613 360.313L389.613 360.709L389.218 360.709L389.218 360.313z"/>
<path class="l5" d="M377.353 348.449L377.749 348.449L377.749 348.844L377.353 348.844L377.353 348.449z"/>
<path class="l5" d="M389.218 336.585L389.613 336.585L389.613 336.98L389.218 336.98L389.218 336.585z"/>
<path class="l5" d="M515.77 289.128L516.165 289.128L516.165 289.523L515.77 289.523L515.77 289.128z"/>
<path class="l5" d="M503.905 300.992L504.301 300.992L504.301 301.388L503.905 301.388L503.905 300.992z"/>
<path class="l5" d="M492.041 289.128L492.437 289.128L492.437 289.523L492.041 289.523L492.041 289.128z"/>
<path class="l5" d="M444.584 320.766L444.98 320.766L444.98 321.161L444.584 321.161L444.584 320.766z"/>
<path class="l5" d="M432.72 308.902L433.115 308.902L433.115 309.297L432.72 309.297L432.72 308.902z"/>
<path class="l5" d="M444.584 297.037L444.98 297.037L444.98 297.433L444.584 297.433L444.584 297.037z"/>
<path class="l5" d="M444.584 360.313L444.98 360.313L444.98 360.709L444.584 360.709L444.584 360.313z"/>
<path class="l5" d="M432.72 348.449L433.115 348.449L433.115 348.844L432.72 348.844L432.72 348.449z"/>
<path class="l5" d="M444.584 336.585L444.98 336.585L444.98 336.98L444.584 336.98L444.584 336.585z"/>
<path class="l5" d="M515.77 360.313L516.165 360.313L516.165 360.709L515.77 360.709L515.77 360.313z"/>
<path class="l5" d="M503.905 348.449L504.301 348.449L504.301 348.844L503.905 348.844L503.905 348.449z"/>
<path class="l5" d="M515.77 336.585L516.165 336.585L516.165 336.98L515.77 336.98L515.77 336.585z"/>
<path class="l5" d="M642.321 289.128L642.717 289.128L642.717 289.523L642.321 289.523L642.321 289.128z"/>
<path class="l5" d="M630.457 300.992L630.853 300.992L630.853 301.388L630.457 301.388L630.457 300.992z"/>
<path class="l5" d="M618.593 289.128L618.988 289.128L618.988 289.523L618.593 289.523L618.593 289.128z"/>
<path class="l5" d="M571.136 320.766L571.531 320.766L571.531 321.161L571.136 321.161L571.136 320.766z"/>
<path class="l5" d="M559.272 308.902L559.667 308.902L559.667 309.297L559.272 309.297L559.272 308.902z"/>
<path class="l5" d="M571.136 297.037L571.531 297.037L571.531 297.433L571.136 297.433L571.136 297.037z"/>
<path class="l5" d="M571.136 360.313L571.531 360.313L571.531 360.709L571.136 360.709L571.136 360.313z"/>
<path class="l5" d="M559.272 348.449L559.667 348.449L559.667 348.844L559.272 348.844L559.272 348.449z"/>
<path class="l5" d="M571.136 336.585L571.531 336.585L571.531 336.98L571.136 336.98L571.136 336.585z"/>
<path class="l5" d="M642.321 360.313L642.717 360.313L642.717 360.709L642.321 360.709L642.321 360.313z"/>
<path class="l5" d="M630.457 348.449L630.853 348.449L630.853 348.844L630.457 348.844L630.457 348.449z"/>
<path class="l5" d="M642.321 336.585L642.717 336.585L642.717 336.98L642.321 336.98L642.321 336.585z"/>
<path class="l5" d="M768.873 289.128L769.269 289.128L769.269 289.523L768.873 289.523L768.873 289.128z"/>
<path class="l5" d="M757.009 300.992L757.404 300.992L757.404 301.388L757.009 301.388L757.009 300.992z"/>
<path class="l5" d="M745.145 289.128L745.54 289.128L745.54 289.523L745.145 289.523L745.145 289.128z"/>
<path class="l5" d="M697.688 320.766L698.083 320.766L698.083 321.161L697.688 321.161L697.688 320.766z"/>
<path class="l5" d="M685.824 308.902L686.219 308.902L686.219 309.297L685.824 309.297L685.824 308.902z"/>
<path class="l5" d="M697.688 297.037L698.083 297.037L698.083 297.433L697.688 297.433L697.688 297.037z"/>
<path class="l5" d="M697.688 360.313L698.083 360.313L698.083 360.709L697.688 360.709L697.688 360.313z"/>
<path class="l5" d="M685.824 348.449L686.219 348.449L686.219 348.844L685.824 348.844L685.824 348.449z"/>
<path class="l5" d="M697.688 336.585L698.083 336.585L698.083 336.98L697.688 336.98L697.688 336.585z"/>
<path class="l5" d="M768.873 360.313L769.269 360.313L769.269 360.709L768.873 360.709L768.873 360.313z"/>
<path class="l5" d="M757.009 348.449L757.404 348.449L757.404 348.844L757.009 348.844L757.009 348.449z"/>
<path class="l5" d="M768.873 336.585L769.269 336.585L769.269 336.98L768.873 336.98L768.873 336.585z"/>
<path class="l5" d="M895.425 289.128L895.821 289.128L895.821 289.523L895.425 289.523L895.425 289.128z"/>
<path class="l5" d="M883.561 300.992L883.956 300.992L883.956 301.388L883.561 301.388L883.561 300.992z"/>
<path class="l5" d="M871.697 289.128L872.092 289.128L872.092 289.523L871.697 289.523L871.697 289.128z"/>
<path class="l5" d="M824.24 320.766L824.635 320.766L824.635 321.161L824.24 321.161L824.24 320.766z"/>
<path class="l5" d="M812.375 308.902L812.771 308.902L812.771 309.297L812.375 309.297L812.375 308.902z"/>
<path class="l5" d="M824.24 297.037L824.635 297.037L824.635 297.433L824.24 297.433L824.24 297.037z"/>
<path class="l5" d="M824.24 360.313L824.635 360.313L824.635 360.709L824.24 360.709L824.24 360.313z"/>
<path class="l5" d="M812.375 348.449L812.771 348.449L812.771 348.844L812.375 348.844L812.375 348.449z"/>
<path class="l5" d="M824.24 336.585L824.635 336.585L824.635 336.98L824.24 336.98L824.24 336.585z"/>
<path class="l5" d="M895.425 360.313L895.821 360.313L895.821 360.709L895.425 360.709L895.425 360.313z"/>
<path class="l5" d="M883.561 348.449L883.956 348.449L883.956 348.844L883.561 348.844L883.561 348.449z"/>
<path class="l5" d="M895.425 336.585L895.821 336.585L895.821 336.98L895.425 336.98L895.425 336.585z"/>
<path class="l5" d="M170.916 414.889L172.893 414.889L172.893 416.866L170.916 416.866L170.916 414.889z"/>
<path class="l5" d="M170.916 371.387L172.893 371.387L172.893 373.364L170.916 373.364L170.916 371.387z"/>
<path class="l5" d="M155.097 395.115L157.074 395.115L157.074 397.092L155.097 397.092L155.097 395.115z"/>
<path class="l5" d="M186.735 395.115L188.712 395.115L188.712 397.092L186.735 397.092L186.735 395.115z"/>
<path class="l5" d="M187.229 395.609L188.218 395.609L188.218 396.598L187.229 396.598L187.229 395.609z"/>
<path class="l5" d="M155.591 395.609L156.58 395.609L156.58 396.598L155.591 396.598L155.591 395.609z"/>
<path class="l5" d="M297.468 414.889L299.445 414.889L299.445 416.866L297.468 416.866L297.468 414.889z"/>
<path class="l5" d="M297.468 371.387L299.445 371.387L299.445 373.364L297.468 373.364L297.468 371.387z"/>
<path class="l5" d="M281.649 395.115L283.626 395.115L283.626 397.092L281.649 397.092L281.649 395.115z"/>
<path class="l5" d="M313.287 395.115L315.264 395.115L315.264 397.092L313.287 397.092L313.287 395.115z"/>
<path class="l5" d="M313.781 395.609L314.77 395.609L314.77 396.598L313.781 396.598L313.781 395.609z"/>
<path class="l5" d="M282.143 395.609L283.132 395.609L283.132 396.598L282.143 396.598L282.143 395.609z"/>
<path class="l5" d="M424.019 414.889L425.997 414.889L425.997 416.866L424.019 416.866L424.019 414.889z"/>
<path class="l5" d="M424.019 371.387L425.997 371.387L425.997 373.364L424.019 373.364L424.019 371.387z"/>
<path class="l5" d="M408.2 395.115L410.178 395.115L410.178 397.092L408.2 397.092L408.2 395.115z"/>
<path class="l5" d="M439.838 395.115L441.816 395.115L441.816 397.092L439.838 397.092L439.838 395.115z"/>
<path class="l5" d="M440.333 395.609L441.321 395.609L441.321 396.598L440.333 396.598L440.333 395.609z"/>
<path class="l5" d="M408.695 395.609L409.684 395.609L409.684 396.598L408.695 396.598L408.695 395.609z"/>
<path class="l5" d="M550.571 414.889L552.549 414.889L552.549 416.866L550.571 416.866L550.571 414.889z"/>
<path class="l5" d="M550.571 371.387L552.549 371.387L552.549 373.364L550.571 373.364L550.571 371.387z"/>
<path class="l5" d="M534.752 395.115L536.73 395.115L536.73 397.092L534.752 397.092L534.752 395.115z"/>
<path class="l5" d="M566.39 395.115L568.368 395.115L568.368 397.092L566.39 397.092L566.39 395.115z"/>
<path class="l5" d="M566.885 395.609L567.873 395.609L567.873 396.598L566.885 396.598L566.885 395.609z"/>
<path class="l5" d="M535.247 395.609L536.235 395.609L536.235 396.598L535.247 396.598L535.247 395.609z"/>
<path class="l5" d="M677.123 414.889L679.1 414.889L679.1 416.866L677.123 416.866L677.123 414.889z"/>
<path class="l5" d="M677.123 371.387L679.1 371.387L679.1 373.364L677.123 373.364L677.123 371.387z"/>
<path class="l5" d="M661.304 395.115L663.282 395.115L663.282 397.092L661.304 397.092L661.304 395.115z"/>
<path class="l5" d="M692.942 395.115L694.919 395.115L694.919 397.092L692.942 397.092L692.942 395.115z"/>
<path class="l5" d="M693.436 395.609L694.425 395.609L694.425 396.598L693.436 396.598L693.436 395.609z"/>
<path class="l5" d="M661.798 395.609L662.787 395.609L662.787 396.598L661.798 396.598L661.798 395.609z"/>
<path class="l5" d="M803.675 414.889L805.652 414.889L805.652 416.866L803.675 416.866L803.675 414.889z"/>
<path class="l5" d="M803.675 371.387L805.652 371.387L805.652 373.364L803.675 373.364L803.675 371.387z"/>
<path class="l5" d="M787.856 395.115L789.833 395.115L789.833 397.092L787.856 397.092L787.856 395.115z"/>
<path class="l5" d="M819.494 395.115L821.471 395.115L821.471 397.092L819.494 397.092L819.494 395.115z"/>
<path class="l5" d="M819.988 395.609L820.977 395.609L820.977 396.598L819.988 396.598L819.988 395.609z"/>
<path class="l5" d="M788.35 395.609L789.339 395.609L789.339 396.598L788.35 396.598L788.35 395.609z"/>
<path class="l5" d="M942.882 320.766L943.277 320.766L943.277 321.161L942.882 321.161L942.882 320.766z"/>
<path class="l5" d="M931.018 308.902L931.413 308.902L931.413 309.297L931.018 309.297L931.018 308.902z"/>
<path class="l5" d="M942.882 297.037L943.277 297.037L943.277 297.433L942.882 297.433L942.882 297.037z"/>
<text fill="#000000" xml:space="preserve" font-size="4.11293" transform="translate(55.0193, 392.149) rotate(270)">X8</text>
<text fill="#000000" xml:space="preserve" font-size="6.78634" transform="translate(27.5049, 267.683)">VN</text>
<text fill="#000000" xml:space="preserve" font-size="6.78634" transform="translate(28.5049, 255.819)">VP</text>
<text fill="#000000" xml:space="preserve" font-size="6.78634" transform="translate(48.3187, 255.324)">VP</text>
<text fill="#000000" xml:space="preserve" font-size="6.78634" transform="translate(48.3187, 267.188)">VN</text>
<text fill="#000000" xml:space="preserve" font-size="6.78634" transform="translate(64.1377, 397.695)">VN</text>
<text fill="#000000" xml:space="preserve" font-size="6.78634" transform="translate(17.5676, 399.052)">VP</text>
<text fill="#000000" xml:space="preserve" font-size="6.78634" transform="translate(28.9375, 292.027)">IIN</text>
<text fill="#000000" xml:space="preserve" font-size="6.78634" transform="translate(14.9375, 311.801)">VGATE</text>
<text fill="#000000" xml:space="preserve" font-size="6.78634" transform="translate(48.0543, 452.066) rotate(270)">D6</text>
<text fill="#000000" xml:space="preserve" font-size="6.78634" transform="translate(174.606, 452.066) rotate(270)">D5</text>
<text fill="#000000" xml:space="preserve" font-size="6.78634" transform="translate(301.158, 452.066) rotate(270)">D4</text>
<text fill="#000000" xml:space="preserve" font-size="6.78634" transform="translate(427.71, 452.066) rotate(270)">D3</text>
<text fill="#000000" xml:space="preserve" font-size="6.78634" transform="translate(554.262, 452.066) rotate(270)">D2</text>
<text fill="#000000" xml:space="preserve" font-size="6.78634" transform="translate(680.813, 452.066) rotate(270)">D1</text>
<text fill="#000000" xml:space="preserve" font-size="6.78634" transform="translate(807.365, 452.066) rotate(270)">D0</text>
<text fill="#000000" xml:space="preserve" font-size="6.78634" transform="translate(962.853, 371.122)">IOUT</text>
<text fill="#000000" xml:space="preserve" font-size="6.78634" transform="translate(962.853, 379.032)">IDUMP</text>
<text fill="#000000" xml:space="preserve" font-size="4.11293" transform="translate(116.784, 287.348) rotate(270)">M30</text>
<text fill="#000000" xml:space="preserve" font-size="4.11293" transform="translate(122.716, 287.348) rotate(270)">pfet_01v8</text>
<text fill="#000000" xml:space="preserve" font-size="4.11293" transform="translate(128.648, 287.348) rotate(270)">2 x 4 / 12</text>
<text fill="#000000" xml:space="preserve" font-size="4.11293" transform="translate(67.1038, 301.436)">M1</text>
<text fill="#000000" xml:space="preserve" font-size="4.11293" transform="translate(67.1038, 307.368)">pfet_01v8</text>
<text fill="#000000" xml:space="preserve" font-size="4.11293" transform="translate(67.1038, 313.3)">1 x 4 / 12</text>
<text fill="#000000" xml:space="preserve" font-size="4.11293" transform="translate(67.1038, 340.983)">M9</text>
<text fill="#000000" xml:space="preserve" font-size="4.11293" transform="translate(67.1038, 346.915)">pfet_01v8</text>
<text fill="#000000" xml:space="preserve" font-size="4.11293" transform="translate(67.1038, 352.847)">1 x 4 / 12</text>
<text fill="#000000" xml:space="preserve" font-size="4.11293" transform="translate(138.289, 340.983)">M16</text>
<text fill="#000000" xml:space="preserve" font-size="4.11293" transform="translate(138.289, 346.915)">pfet_01v8</text>
<text fill="#000000" xml:space="preserve" font-size="4.11293" transform="translate(138.289, 352.847)">1 x 4 / 12</text>
<text fill="#000000" xml:space="preserve" font-size="4.11293" transform="translate(243.336, 287.348) rotate(270)">M2</text>
<text fill="#000000" xml:space="preserve" font-size="4.11293" transform="translate(249.268, 287.348) rotate(270)">pfet_01v8</text>
<text fill="#000000" xml:space="preserve" font-size="4.11293" transform="translate(255.2, 287.348) rotate(270)">2 x 4 / 12</text>
<text fill="#000000" xml:space="preserve" font-size="4.11293" transform="translate(193.656, 301.436)">M3</text>
<text fill="#000000" xml:space="preserve" font-size="4.11293" transform="translate(193.656, 307.368)">pfet_01v8</text>
<text fill="#000000" xml:space="preserve" font-size="4.11293" transform="translate(193.656, 313.3)">1 x 4 / 12</text>
<text fill="#000000" xml:space="preserve" font-size="4.11293" transform="translate(193.656, 340.983)">M4</text>
<text fill="#000000" xml:space="preserve" font-size="4.11293" transform="translate(193.656, 346.915)">pfet_01v8</text>
<text fill="#000000" xml:space="preserve" font-size="4.11293" transform="translate(193.656, 352.847)">1 x 4 / 12</text>
<text fill="#000000" xml:space="preserve" font-size="4.11293" transform="translate(264.841, 340.983)">M5</text>
<text fill="#000000" xml:space="preserve" font-size="4.11293" transform="translate(264.841, 346.915)">pfet_01v8</text>
<text fill="#000000" xml:space="preserve" font-size="4.11293" transform="translate(264.841, 352.847)">1 x 4 / 12</text>
<text fill="#000000" xml:space="preserve" font-size="4.11293" transform="translate(369.888, 287.348) rotate(270)">M6</text>
<text fill="#000000" xml:space="preserve" font-size="4.11293" transform="translate(375.82, 287.348) rotate(270)">pfet_01v8</text>
<text fill="#000000" xml:space="preserve" font-size="4.11293" transform="translate(381.752, 287.348) rotate(270)">2 x 4 / 12</text>
<text fill="#000000" xml:space="preserve" font-size="4.11293" transform="translate(320.207, 301.436)">M7</text>
<text fill="#000000" xml:space="preserve" font-size="4.11293" transform="translate(320.207, 307.368)">pfet_01v8</text>
<text fill="#000000" xml:space="preserve" font-size="4.11293" transform="translate(320.207, 313.3)">1 x 4 / 12</text>
<text fill="#000000" xml:space="preserve" font-size="4.11293" transform="translate(320.207, 340.983)">M8</text>
<text fill="#000000" xml:space="preserve" font-size="4.11293" transform="translate(320.207, 346.915)">pfet_01v8</text>
<text fill="#000000" xml:space="preserve" font-size="4.11293" transform="translate(320.207, 352.847)">1 x 4 / 12</text>
<text fill="#000000" xml:space="preserve" font-size="4.11293" transform="translate(391.393, 340.983)">M10</text>
<text fill="#000000" xml:space="preserve" font-size="4.11293" transform="translate(391.393, 346.915)">pfet_01v8</text>
<text fill="#000000" xml:space="preserve" font-size="4.11293" transform="translate(391.393, 352.847)">1 x 4 / 12</text>
<text fill="#000000" xml:space="preserve" font-size="4.11293" transform="translate(496.439, 287.348) rotate(270)">M11</text>
<text fill="#000000" xml:space="preserve" font-size="4.11293" transform="translate(502.372, 287.348) rotate(270)">pfet_01v8</text>
<text fill="#000000" xml:space="preserve" font-size="4.11293" transform="translate(508.304, 287.348) rotate(270)">2 x 4 / 12</text>
<text fill="#000000" xml:space="preserve" font-size="4.11293" transform="translate(446.759, 301.436)">M12</text>
<text fill="#000000" xml:space="preserve" font-size="4.11293" transform="translate(446.759, 307.368)">pfet_01v8</text>
<text fill="#000000" xml:space="preserve" font-size="4.11293" transform="translate(446.759, 313.3)">1 x 4 / 12</text>
<text fill="#000000" xml:space="preserve" font-size="4.11293" transform="translate(446.759, 340.983)">M13</text>
<text fill="#000000" xml:space="preserve" font-size="4.11293" transform="translate(446.759, 346.915)">pfet_01v8</text>
<text fill="#000000" xml:space="preserve" font-size="4.11293" transform="translate(446.759, 352.847)">1 x 4 / 12</text>
<text fill="#000000" xml:space="preserve" font-size="4.11293" transform="translate(517.945, 340.983)">M14</text>
<text fill="#000000" xml:space="preserve" font-size="4.11293" transform="translate(517.945, 346.915)">pfet_01v8</text>
<text fill="#000000" xml:space="preserve" font-size="4.11293" transform="translate(517.945, 352.847)">1 x 4 / 12</text>
<text fill="#000000" xml:space="preserve" font-size="4.11293" transform="translate(622.991, 287.348) rotate(270)">M15</text>
<text fill="#000000" xml:space="preserve" font-size="4.11293" transform="translate(628.923, 287.348) rotate(270)">pfet_01v8</text>
<text fill="#000000" xml:space="preserve" font-size="4.11293" transform="translate(634.855, 287.348) rotate(270)">2 x 4 / 12</text>
<text fill="#000000" xml:space="preserve" font-size="4.11293" transform="translate(573.311, 301.436)">M17</text>
<text fill="#000000" xml:space="preserve" font-size="4.11293" transform="translate(573.311, 307.368)">pfet_01v8</text>
<text fill="#000000" xml:space="preserve" font-size="4.11293" transform="translate(573.311, 313.3)">1 x 4 / 12</text>
<text fill="#000000" xml:space="preserve" font-size="4.11293" transform="translate(573.311, 340.983)">M18</text>
<text fill="#000000" xml:space="preserve" font-size="4.11293" transform="translate(573.311, 346.915)">pfet_01v8</text>
<text fill="#000000" xml:space="preserve" font-size="4.11293" transform="translate(573.311, 352.847)">1 x 4 / 12</text>
<text fill="#000000" xml:space="preserve" font-size="4.11293" transform="translate(644.496, 340.983)">M19</text>
<text fill="#000000" xml:space="preserve" font-size="4.11293" transform="translate(644.496, 346.915)">pfet_01v8</text>
<text fill="#000000" xml:space="preserve" font-size="4.11293" transform="translate(644.496, 352.847)">1 x 4 / 12</text>
<text fill="#000000" xml:space="preserve" font-size="4.11293" transform="translate(749.543, 287.348) rotate(270)">M20</text>
<text fill="#000000" xml:space="preserve" font-size="4.11293" transform="translate(755.475, 287.348) rotate(270)">pfet_01v8</text>
<text fill="#000000" xml:space="preserve" font-size="4.11293" transform="translate(761.407, 287.348) rotate(270)">2 x 4 / 12</text>
<text fill="#000000" xml:space="preserve" font-size="4.11293" transform="translate(699.863, 301.436)">M21</text>
<text fill="#000000" xml:space="preserve" font-size="4.11293" transform="translate(699.863, 307.368)">pfet_01v8</text>
<text fill="#000000" xml:space="preserve" font-size="4.11293" transform="translate(699.863, 313.3)">1 x 4 / 12</text>
<text fill="#000000" xml:space="preserve" font-size="4.11293" transform="translate(699.863, 340.983)">M22</text>
<text fill="#000000" xml:space="preserve" font-size="4.11293" transform="translate(699.863, 346.915)">pfet_01v8</text>
<text fill="#000000" xml:space="preserve" font-size="4.11293" transform="translate(699.863, 352.847)">1 x 4 / 12</text>
<text fill="#000000" xml:space="preserve" font-size="4.11293" transform="translate(771.048, 340.983)">M23</text>
<text fill="#000000" xml:space="preserve" font-size="4.11293" transform="translate(771.048, 346.915)">pfet_01v8</text>
<text fill="#000000" xml:space="preserve" font-size="4.11293" transform="translate(771.048, 352.847)">1 x 4 / 12</text>
<text fill="#000000" xml:space="preserve" font-size="4.11293" transform="translate(876.095, 287.348) rotate(270)">M24</text>
<text fill="#000000" xml:space="preserve" font-size="4.11293" transform="translate(882.027, 287.348) rotate(270)">pfet_01v8</text>
<text fill="#000000" xml:space="preserve" font-size="4.11293" transform="translate(887.959, 287.348) rotate(270)">2 x 4 / 12</text>
<text fill="#000000" xml:space="preserve" font-size="4.11293" transform="translate(826.415, 301.436)">M25</text>
<text fill="#000000" xml:space="preserve" font-size="4.11293" transform="translate(826.415, 307.368)">pfet_01v8</text>
<text fill="#000000" xml:space="preserve" font-size="4.11293" transform="translate(826.415, 313.3)">1 x 4 / 12</text>
<text fill="#000000" xml:space="preserve" font-size="4.11293" transform="translate(826.415, 340.983)">M26</text>
<text fill="#000000" xml:space="preserve" font-size="4.11293" transform="translate(826.415, 346.915)">pfet_01v8</text>
<text fill="#000000" xml:space="preserve" font-size="4.11293" transform="translate(826.415, 352.847)">1 x 4 / 12</text>
<text fill="#000000" xml:space="preserve" font-size="4.11293" transform="translate(897.6, 340.983)">M27</text>
<text fill="#000000" xml:space="preserve" font-size="4.11293" transform="translate(897.6, 346.915)">pfet_01v8</text>
<text fill="#000000" xml:space="preserve" font-size="4.11293" transform="translate(897.6, 352.847)">1 x 4 / 12</text>
<text fill="#000000" xml:space="preserve" font-size="4.11293" transform="translate(181.571, 392.149) rotate(270)">X1</text>
<text fill="#000000" xml:space="preserve" font-size="6.78634" transform="translate(190.69, 397.695)">VN</text>
<text fill="#000000" xml:space="preserve" font-size="6.78634" transform="translate(144.119, 399.052)">VP</text>
<text fill="#000000" xml:space="preserve" font-size="4.11293" transform="translate(308.123, 392.149) rotate(270)">X2</text>
<text fill="#000000" xml:space="preserve" font-size="6.78634" transform="translate(317.241, 397.695)">VN</text>
<text fill="#000000" xml:space="preserve" font-size="6.78634" transform="translate(270.671, 399.052)">VP</text>
<text fill="#000000" xml:space="preserve" font-size="4.11293" transform="translate(434.675, 392.149) rotate(270)">X3</text>
<text fill="#000000" xml:space="preserve" font-size="6.78634" transform="translate(443.793, 397.695)">VN</text>
<text fill="#000000" xml:space="preserve" font-size="6.78634" transform="translate(397.223, 399.052)">VP</text>
<text fill="#000000" xml:space="preserve" font-size="4.11293" transform="translate(561.227, 392.149) rotate(270)">X4</text>
<text fill="#000000" xml:space="preserve" font-size="6.78634" transform="translate(570.345, 397.695)">VN</text>
<text fill="#000000" xml:space="preserve" font-size="6.78634" transform="translate(523.775, 399.052)">VP</text>
<text fill="#000000" xml:space="preserve" font-size="4.11293" transform="translate(687.778, 392.149) rotate(270)">X5</text>
<text fill="#000000" xml:space="preserve" font-size="6.78634" transform="translate(696.897, 397.695)">VN</text>
<text fill="#000000" xml:space="preserve" font-size="6.78634" transform="translate(650.327, 399.052)">VP</text>
<text fill="#000000" xml:space="preserve" font-size="4.11293" transform="translate(814.33, 392.149) rotate(270)">X6</text>
<text fill="#000000" xml:space="preserve" font-size="6.78634" transform="translate(823.449, 397.695)">VN</text>
<text fill="#000000" xml:space="preserve" font-size="6.78634" transform="translate(776.879, 399.052)">VP</text>
<text fill="#000000" xml:space="preserve" font-size="4.11293" transform="translate(945.057, 301.436)">M28</text>
<text fill="#000000" xml:space="preserve" font-size="4.11293" transform="translate(945.057, 307.368)">pfet_01v8</text>
<text fill="#000000" xml:space="preserve" font-size="4.11293" transform="translate(945.057, 313.3)">2 x 4 / 12</text>
<path class="l1" d="M45.3527 348.647L53.2622 348.647"/>
<path class="l1" d="M45.3527 423.787L100.719 423.787"/>
<path class="l1" d="M100.719 415.877L100.719 423.787"/>
<path class="l1" d="M65.1264 328.873L65.1264 336.783"/>
<path class="l1" d="M65.1264 328.873L120.493 328.873"/>
<path class="l1" d="M65.1264 320.964L65.1264 328.873"/>
<path class="l1" d="M53.2622 309.099L108.629 309.099"/>
<path class="l1" d="M45.3527 423.787L45.3527 435.651"/>
<path class="l1" d="M120.493 328.873L136.312 328.873"/>
<path class="l1" d="M136.312 328.873L136.312 336.783"/>
<path class="l1" d="M100.719 348.647L124.448 348.647"/>
<path class="l1" d="M100.719 348.647L100.719 372.375"/>
<path class="l1" d="M65.1264 360.511L65.1264 368.42"/>
<path class="l1" d="M136.312 360.511L136.312 376.33"/>
<path class="l1" d="M45.3527 309.099L53.2622 309.099"/>
<path class="l1" d="M136.312 289.326L144.221 289.326"/>
<path class="l1" d="M136.312 376.33L144.221 376.33"/>
<path class="l1" d="M65.1264 368.42L144.221 368.42"/>
<path class="l1" d="M108.629 309.099L124.448 309.099"/>
<path class="l1" d="M124.448 301.19L124.448 309.099"/>
<path class="l1" d="M65.1264 289.326L112.583 289.326"/>
<path class="l1" d="M65.1264 289.326L65.1264 297.235"/>
<path class="l1" d="M45.3527 289.326L65.1264 289.326"/>
<path class="l1" d="M171.904 309.099L179.814 309.099"/>
<path class="l1" d="M171.904 289.326L191.678 289.326"/>
<path class="l1" d="M144.221 289.326L171.904 289.326"/>
<path class="l1" d="M124.448 309.099L171.904 309.099"/>
<path class="l1" d="M144.221 368.42L191.678 368.42"/>
<path class="l1" d="M144.221 376.33L262.864 376.33"/>
<path class="l1" d="M171.904 348.647L179.814 348.647"/>
<path class="l1" d="M171.904 423.787L227.271 423.787"/>
<path class="l1" d="M191.678 328.873L191.678 336.783"/>
<path class="l1" d="M191.678 328.873L247.045 328.873"/>
<path class="l1" d="M191.678 320.964L191.678 328.873"/>
<path class="l1" d="M179.814 309.099L235.18 309.099"/>
<path class="l1" d="M171.904 423.787L171.904 435.651"/>
<path class="l1" d="M247.045 328.873L262.864 328.873"/>
<path class="l1" d="M262.864 328.873L262.864 336.783"/>
<path class="l1" d="M227.271 348.647L250.999 348.647"/>
<path class="l1" d="M191.678 360.511L191.678 368.42"/>
<path class="l1" d="M262.864 360.511L262.864 376.33"/>
<path class="l1" d="M262.864 289.326L270.773 289.326"/>
<path class="l1" d="M262.864 376.33L270.773 376.33"/>
<path class="l1" d="M191.678 368.42L270.773 368.42"/>
<path class="l1" d="M235.18 309.099L250.999 309.099"/>
<path class="l1" d="M250.999 301.19L250.999 309.099"/>
<path class="l1" d="M191.678 289.326L239.135 289.326"/>
<path class="l1" d="M191.678 289.326L191.678 297.235"/>
<path class="l1" d="M298.456 309.099L306.366 309.099"/>
<path class="l1" d="M298.456 289.326L318.23 289.326"/>
<path class="l1" d="M270.773 289.326L298.456 289.326"/>
<path class="l1" d="M250.999 309.099L298.456 309.099"/>
<path class="l1" d="M270.773 368.42L318.23 368.42"/>
<path class="l1" d="M270.773 376.33L389.415 376.33"/>
<path class="l1" d="M298.456 348.647L306.366 348.647"/>
<path class="l1" d="M298.456 423.787L353.823 423.787"/>
<path class="l1" d="M318.23 328.873L318.23 336.783"/>
<path class="l1" d="M318.23 328.873L373.596 328.873"/>
<path class="l1" d="M318.23 320.964L318.23 328.873"/>
<path class="l1" d="M306.366 309.099L361.732 309.099"/>
<path class="l1" d="M298.456 423.787L298.456 435.651"/>
<path class="l1" d="M373.596 328.873L389.415 328.873"/>
<path class="l1" d="M389.415 328.873L389.415 336.783"/>
<path class="l1" d="M353.823 348.647L377.551 348.647"/>
<path class="l1" d="M318.23 360.511L318.23 368.42"/>
<path class="l1" d="M389.415 360.511L389.415 376.33"/>
<path class="l1" d="M389.415 289.326L397.325 289.326"/>
<path class="l1" d="M389.415 376.33L397.325 376.33"/>
<path class="l1" d="M318.23 368.42L397.325 368.42"/>
<path class="l1" d="M361.732 309.099L377.551 309.099"/>
<path class="l1" d="M377.551 301.19L377.551 309.099"/>
<path class="l1" d="M318.23 289.326L365.687 289.326"/>
<path class="l1" d="M318.23 289.326L318.23 297.235"/>
<path class="l1" d="M425.008 309.099L432.918 309.099"/>
<path class="l1" d="M425.008 289.326L444.782 289.326"/>
<path class="l1" d="M397.325 289.326L425.008 289.326"/>
<path class="l1" d="M377.551 309.099L425.008 309.099"/>
<path class="l1" d="M397.325 368.42L444.782 368.42"/>
<path class="l1" d="M397.325 376.33L515.967 376.33"/>
<path class="l1" d="M425.008 348.647L432.918 348.647"/>
<path class="l1" d="M425.008 423.787L480.375 423.787"/>
<path class="l1" d="M444.782 328.873L444.782 336.783"/>
<path class="l1" d="M444.782 328.873L500.148 328.873"/>
<path class="l1" d="M444.782 320.964L444.782 328.873"/>
<path class="l1" d="M432.918 309.099L488.284 309.099"/>
<path class="l1" d="M425.008 423.787L425.008 435.651"/>
<path class="l1" d="M500.148 328.873L515.967 328.873"/>
<path class="l1" d="M515.967 328.873L515.967 336.783"/>
<path class="l1" d="M480.375 348.647L504.103 348.647"/>
<path class="l1" d="M444.782 360.511L444.782 368.42"/>
<path class="l1" d="M515.967 360.511L515.967 376.33"/>
<path class="l1" d="M515.967 289.326L523.877 289.326"/>
<path class="l1" d="M515.967 376.33L523.877 376.33"/>
<path class="l1" d="M444.782 368.42L523.877 368.42"/>
<path class="l1" d="M488.284 309.099L504.103 309.099"/>
<path class="l1" d="M504.103 301.19L504.103 309.099"/>
<path class="l1" d="M444.782 289.326L492.239 289.326"/>
<path class="l1" d="M444.782 289.326L444.782 297.235"/>
<path class="l1" d="M551.56 309.099L559.469 309.099"/>
<path class="l1" d="M551.56 289.326L571.334 289.326"/>
<path class="l1" d="M523.877 289.326L551.56 289.326"/>
<path class="l1" d="M504.103 309.099L551.56 309.099"/>
<path class="l1" d="M523.877 368.42L571.334 368.42"/>
<path class="l1" d="M523.877 376.33L642.519 376.33"/>
<path class="l1" d="M551.56 348.647L559.469 348.647"/>
<path class="l1" d="M551.56 423.787L606.926 423.787"/>
<path class="l1" d="M571.334 328.873L571.334 336.783"/>
<path class="l1" d="M571.334 328.873L626.7 328.873"/>
<path class="l1" d="M571.334 320.964L571.334 328.873"/>
<path class="l1" d="M559.469 309.099L614.836 309.099"/>
<path class="l1" d="M551.56 423.787L551.56 435.651"/>
<path class="l1" d="M626.7 328.873L642.519 328.873"/>
<path class="l1" d="M642.519 328.873L642.519 336.783"/>
<path class="l1" d="M606.926 348.647L630.655 348.647"/>
<path class="l1" d="M571.334 360.511L571.334 368.42"/>
<path class="l1" d="M642.519 360.511L642.519 376.33"/>
<path class="l1" d="M642.519 289.326L650.429 289.326"/>
<path class="l1" d="M642.519 376.33L650.429 376.33"/>
<path class="l1" d="M571.334 368.42L650.429 368.42"/>
<path class="l1" d="M614.836 309.099L630.655 309.099"/>
<path class="l1" d="M630.655 301.19L630.655 309.099"/>
<path class="l1" d="M571.334 289.326L618.791 289.326"/>
<path class="l1" d="M571.334 289.326L571.334 297.235"/>
<path class="l1" d="M678.112 309.099L686.021 309.099"/>
<path class="l1" d="M678.112 289.326L697.886 289.326"/>
<path class="l1" d="M650.429 289.326L678.112 289.326"/>
<path class="l1" d="M630.655 309.099L678.112 309.099"/>
<path class="l1" d="M650.429 368.42L697.886 368.42"/>
<path class="l1" d="M650.429 376.33L769.071 376.33"/>
<path class="l1" d="M678.112 348.647L686.021 348.647"/>
<path class="l1" d="M678.112 423.787L733.478 423.787"/>
<path class="l1" d="M697.886 328.873L697.886 336.783"/>
<path class="l1" d="M697.886 328.873L753.252 328.873"/>
<path class="l1" d="M697.886 320.964L697.886 328.873"/>
<path class="l1" d="M686.021 309.099L741.388 309.099"/>
<path class="l1" d="M678.112 423.787L678.112 435.651"/>
<path class="l1" d="M753.252 328.873L769.071 328.873"/>
<path class="l1" d="M769.071 328.873L769.071 336.783"/>
<path class="l1" d="M733.478 348.647L757.207 348.647"/>
<path class="l1" d="M697.886 360.511L697.886 368.42"/>
<path class="l1" d="M769.071 360.511L769.071 376.33"/>
<path class="l1" d="M769.071 289.326L776.98 289.326"/>
<path class="l1" d="M769.071 376.33L776.98 376.33"/>
<path class="l1" d="M697.886 368.42L776.98 368.42"/>
<path class="l1" d="M741.388 309.099L757.207 309.099"/>
<path class="l1" d="M757.207 301.19L757.207 309.099"/>
<path class="l1" d="M697.886 289.326L745.342 289.326"/>
<path class="l1" d="M697.886 289.326L697.886 297.235"/>
<path class="l1" d="M804.664 309.099L812.573 309.099"/>
<path class="l1" d="M804.664 289.326L824.437 289.326"/>
<path class="l1" d="M776.98 289.326L804.664 289.326"/>
<path class="l1" d="M757.207 309.099L804.664 309.099"/>
<path class="l1" d="M776.98 368.42L824.437 368.42"/>
<path class="l1" d="M776.98 376.33L895.623 376.33"/>
<path class="l1" d="M804.664 348.647L812.573 348.647"/>
<path class="l1" d="M804.664 423.787L860.03 423.787"/>
<path class="l1" d="M824.437 328.873L824.437 336.783"/>
<path class="l1" d="M824.437 328.873L879.804 328.873"/>
<path class="l1" d="M824.437 320.964L824.437 328.873"/>
<path class="l1" d="M812.573 309.099L867.94 309.099"/>
<path class="l1" d="M804.664 423.787L804.664 435.651"/>
<path class="l1" d="M879.804 328.873L895.623 328.873"/>
<path class="l1" d="M895.623 328.873L895.623 336.783"/>
<path class="l1" d="M860.03 348.647L883.759 348.647"/>
<path class="l1" d="M824.437 360.511L824.437 368.42"/>
<path class="l1" d="M895.623 360.511L895.623 376.33"/>
<path class="l1" d="M895.623 289.326L903.532 289.326"/>
<path class="l1" d="M895.623 376.33L903.532 376.33"/>
<path class="l1" d="M824.437 368.42L903.532 368.42"/>
<path class="l1" d="M867.94 309.099L883.759 309.099"/>
<path class="l1" d="M883.759 301.19L883.759 309.099"/>
<path class="l1" d="M824.437 289.326L871.894 289.326"/>
<path class="l1" d="M824.437 289.326L824.437 297.235"/>
<path class="l1" d="M943.08 289.326L943.08 297.235"/>
<path class="l1" d="M903.532 289.326L943.08 289.326"/>
<path class="l1" d="M883.759 309.099L931.215 309.099"/>
<path class="l1" d="M943.08 320.964L943.08 376.33"/>
<path class="l1" d="M903.532 376.33L943.08 376.33"/>
<path class="l1" d="M943.08 376.33L954.944 376.33"/>
<path class="l1" d="M903.532 368.42L954.944 368.42"/>
<path class="l1" d="M100.719 372.375L100.719 415.877"/>
<path class="l1" d="M45.3527 415.877L45.3527 423.787"/>
<path class="l1" d="M45.3527 348.647L45.3527 372.375"/>
<path class="l1" d="M227.271 415.877L227.271 423.787"/>
<path class="l1" d="M227.271 348.647L227.271 372.375"/>
<path class="l1" d="M227.271 372.375L227.271 415.877"/>
<path class="l1" d="M171.904 415.877L171.904 423.787"/>
<path class="l1" d="M171.904 348.647L171.904 372.375"/>
<path class="l1" d="M353.823 415.877L353.823 423.787"/>
<path class="l1" d="M353.823 348.647L353.823 372.375"/>
<path class="l1" d="M353.823 372.375L353.823 415.877"/>
<path class="l1" d="M298.456 415.877L298.456 423.787"/>
<path class="l1" d="M298.456 348.647L298.456 372.375"/>
<path class="l1" d="M480.375 415.877L480.375 423.787"/>
<path class="l1" d="M480.375 348.647L480.375 372.375"/>
<path class="l1" d="M480.375 372.375L480.375 415.877"/>
<path class="l1" d="M425.008 415.877L425.008 423.787"/>
<path class="l1" d="M425.008 348.647L425.008 372.375"/>
<path class="l1" d="M606.926 415.877L606.926 423.787"/>
<path class="l1" d="M606.926 348.647L606.926 372.375"/>
<path class="l1" d="M606.926 372.375L606.926 415.877"/>
<path class="l1" d="M551.56 415.877L551.56 423.787"/>
<path class="l1" d="M551.56 348.647L551.56 372.375"/>
<path class="l1" d="M733.478 415.877L733.478 423.787"/>
<path class="l1" d="M733.478 348.647L733.478 372.375"/>
<path class="l1" d="M733.478 372.375L733.478 415.877"/>
<path class="l1" d="M678.112 415.877L678.112 423.787"/>
<path class="l1" d="M678.112 348.647L678.112 372.375"/>
<path class="l1" d="M860.03 415.877L860.03 423.787"/>
<path class="l1" d="M860.03 348.647L860.03 372.375"/>
<path class="l1" d="M860.03 372.375L860.03 415.877"/>
<path class="l1" d="M804.664 415.877L804.664 423.787"/>
<path class="l1" d="M804.664 348.647L804.664 372.375"/>
<circle class="l1" cx="65.1264" cy="289.326" r="1.46326"/>
<circle class="l1" cx="65.1264" cy="289.326" r="1.46326"/>
<circle class="l1" cx="65.1264" cy="289.326" r="1.46326"/>
<circle class="l1" cx="45.3527" cy="423.787" r="1.46326"/>
<circle class="l1" cx="262.864" cy="376.33" r="1.46326"/>
<circle class="l1" cx="191.678" cy="368.42" r="1.46326"/>
<circle class="l1" cx="124.448" cy="309.099" r="1.46326"/>
<circle class="l1" cx="124.448" cy="309.099" r="1.46326"/>
<circle class="l1" cx="124.448" cy="309.099" r="1.46326"/>
<circle class="l1" cx="45.3527" cy="423.787" r="1.46326"/>
<circle class="l1" cx="65.1264" cy="328.873" r="1.46326"/>
<circle class="l1" cx="65.1264" cy="328.873" r="1.46326"/>
<circle class="l1" cx="65.1264" cy="328.873" r="1.46326"/>
<circle class="l1" cx="45.3527" cy="423.787" r="1.46326"/>
<circle class="l1" cx="318.23" cy="289.326" r="1.46326"/>
<circle class="l1" cx="318.23" cy="289.326" r="1.46326"/>
<circle class="l1" cx="318.23" cy="289.326" r="1.46326"/>
<circle class="l1" cx="191.678" cy="289.326" r="1.46326"/>
<circle class="l1" cx="191.678" cy="289.326" r="1.46326"/>
<circle class="l1" cx="191.678" cy="289.326" r="1.46326"/>
<circle class="l1" cx="298.456" cy="423.787" r="1.46326"/>
<circle class="l1" cx="171.904" cy="423.787" r="1.46326"/>
<circle class="l1" cx="318.23" cy="368.42" r="1.46326"/>
<circle class="l1" cx="318.23" cy="368.42" r="1.46326"/>
<circle class="l1" cx="298.456" cy="423.787" r="1.46326"/>
<circle class="l1" cx="318.23" cy="328.873" r="1.46326"/>
<circle class="l1" cx="318.23" cy="328.873" r="1.46326"/>
<circle class="l1" cx="318.23" cy="328.873" r="1.46326"/>
<circle class="l1" cx="298.456" cy="423.787" r="1.46326"/>
<circle class="l1" cx="389.415" cy="376.33" r="1.46326"/>
<circle class="l1" cx="318.23" cy="368.42" r="1.46326"/>
<circle class="l1" cx="250.999" cy="309.099" r="1.46326"/>
<circle class="l1" cx="250.999" cy="309.099" r="1.46326"/>
<circle class="l1" cx="250.999" cy="309.099" r="1.46326"/>
<circle class="l1" cx="191.678" cy="368.42" r="1.46326"/>
<circle class="l1" cx="262.864" cy="376.33" r="1.46326"/>
<circle class="l1" cx="262.864" cy="376.33" r="1.46326"/>
<circle class="l1" cx="191.678" cy="368.42" r="1.46326"/>
<circle class="l1" cx="171.904" cy="423.787" r="1.46326"/>
<circle class="l1" cx="191.678" cy="328.873" r="1.46326"/>
<circle class="l1" cx="191.678" cy="328.873" r="1.46326"/>
<circle class="l1" cx="191.678" cy="328.873" r="1.46326"/>
<circle class="l1" cx="171.904" cy="423.787" r="1.46326"/>
<circle class="l1" cx="444.782" cy="289.326" r="1.46326"/>
<circle class="l1" cx="444.782" cy="289.326" r="1.46326"/>
<circle class="l1" cx="444.782" cy="289.326" r="1.46326"/>
<circle class="l1" cx="425.008" cy="423.787" r="1.46326"/>
<circle class="l1" cx="444.782" cy="368.42" r="1.46326"/>
<circle class="l1" cx="444.782" cy="368.42" r="1.46326"/>
<circle class="l1" cx="425.008" cy="423.787" r="1.46326"/>
<circle class="l1" cx="444.782" cy="328.873" r="1.46326"/>
<circle class="l1" cx="444.782" cy="328.873" r="1.46326"/>
<circle class="l1" cx="444.782" cy="328.873" r="1.46326"/>
<circle class="l1" cx="425.008" cy="423.787" r="1.46326"/>
<circle class="l1" cx="515.967" cy="376.33" r="1.46326"/>
<circle class="l1" cx="444.782" cy="368.42" r="1.46326"/>
<circle class="l1" cx="377.551" cy="309.099" r="1.46326"/>
<circle class="l1" cx="377.551" cy="309.099" r="1.46326"/>
<circle class="l1" cx="377.551" cy="309.099" r="1.46326"/>
<circle class="l1" cx="389.415" cy="376.33" r="1.46326"/>
<circle class="l1" cx="389.415" cy="376.33" r="1.46326"/>
<circle class="l1" cx="571.334" cy="289.326" r="1.46326"/>
<circle class="l1" cx="571.334" cy="289.326" r="1.46326"/>
<circle class="l1" cx="571.334" cy="289.326" r="1.46326"/>
<circle class="l1" cx="551.56" cy="423.787" r="1.46326"/>
<circle class="l1" cx="630.655" cy="309.099" r="1.46326"/>
<circle class="l1" cx="630.655" cy="309.099" r="1.46326"/>
<circle class="l1" cx="630.655" cy="309.099" r="1.46326"/>
<circle class="l1" cx="571.334" cy="368.42" r="1.46326"/>
<circle class="l1" cx="571.334" cy="368.42" r="1.46326"/>
<circle class="l1" cx="551.56" cy="423.787" r="1.46326"/>
<circle class="l1" cx="571.334" cy="328.873" r="1.46326"/>
<circle class="l1" cx="571.334" cy="328.873" r="1.46326"/>
<circle class="l1" cx="571.334" cy="328.873" r="1.46326"/>
<circle class="l1" cx="551.56" cy="423.787" r="1.46326"/>
<circle class="l1" cx="642.519" cy="376.33" r="1.46326"/>
<circle class="l1" cx="571.334" cy="368.42" r="1.46326"/>
<circle class="l1" cx="504.103" cy="309.099" r="1.46326"/>
<circle class="l1" cx="504.103" cy="309.099" r="1.46326"/>
<circle class="l1" cx="504.103" cy="309.099" r="1.46326"/>
<circle class="l1" cx="515.967" cy="376.33" r="1.46326"/>
<circle class="l1" cx="515.967" cy="376.33" r="1.46326"/>
<circle class="l1" cx="697.886" cy="289.326" r="1.46326"/>
<circle class="l1" cx="697.886" cy="289.326" r="1.46326"/>
<circle class="l1" cx="697.886" cy="289.326" r="1.46326"/>
<circle class="l1" cx="678.112" cy="423.787" r="1.46326"/>
<circle class="l1" cx="895.623" cy="376.33" r="1.46326"/>
<circle class="l1" cx="824.437" cy="368.42" r="1.46326"/>
<circle class="l1" cx="757.207" cy="309.099" r="1.46326"/>
<circle class="l1" cx="757.207" cy="309.099" r="1.46326"/>
<circle class="l1" cx="757.207" cy="309.099" r="1.46326"/>
<circle class="l1" cx="697.886" cy="368.42" r="1.46326"/>
<circle class="l1" cx="769.071" cy="376.33" r="1.46326"/>
<circle class="l1" cx="769.071" cy="376.33" r="1.46326"/>
<circle class="l1" cx="697.886" cy="368.42" r="1.46326"/>
<circle class="l1" cx="678.112" cy="423.787" r="1.46326"/>
<circle class="l1" cx="697.886" cy="328.873" r="1.46326"/>
<circle class="l1" cx="697.886" cy="328.873" r="1.46326"/>
<circle class="l1" cx="697.886" cy="328.873" r="1.46326"/>
<circle class="l1" cx="678.112" cy="423.787" r="1.46326"/>
<circle class="l1" cx="769.071" cy="376.33" r="1.46326"/>
<circle class="l1" cx="697.886" cy="368.42" r="1.46326"/>
<circle class="l1" cx="642.519" cy="376.33" r="1.46326"/>
<circle class="l1" cx="642.519" cy="376.33" r="1.46326"/>
<circle class="l1" cx="824.437" cy="289.326" r="1.46326"/>
<circle class="l1" cx="824.437" cy="289.326" r="1.46326"/>
<circle class="l1" cx="824.437" cy="289.326" r="1.46326"/>
<circle class="l1" cx="804.664" cy="423.787" r="1.46326"/>
<circle class="l1" cx="943.08" cy="376.33" r="1.46326"/>
<circle class="l1" cx="943.08" cy="376.33" r="1.46326"/>
<circle class="l1" cx="943.08" cy="376.33" r="1.46326"/>
<circle class="l1" cx="883.759" cy="309.099" r="1.46326"/>
<circle class="l1" cx="883.759" cy="309.099" r="1.46326"/>
<circle class="l1" cx="883.759" cy="309.099" r="1.46326"/>
<circle class="l1" cx="824.437" cy="368.42" r="1.46326"/>
<circle class="l1" cx="895.623" cy="376.33" r="1.46326"/>
<circle class="l1" cx="895.623" cy="376.33" r="1.46326"/>
<circle class="l1" cx="824.437" cy="368.42" r="1.46326"/>
<circle class="l1" cx="804.664" cy="423.787" r="1.46326"/>
<circle class="l1" cx="824.437" cy="328.873" r="1.46326"/>
<circle class="l1" cx="824.437" cy="328.873" r="1.46326"/>
<circle class="l1" cx="824.437" cy="328.873" r="1.46326"/>
<circle class="l1" cx="804.664" cy="423.787" r="1.46326"/>
</svg>