<svg xmlns="http://www.w3.org/2000/svg" xmlns:xlink="http://www.w3.org/1999/xlink" width="1000" height="700" version="1.1">
<style type="text/css">
.l0{
  fill: #ffffff;
  stroke: #ffffff;
  stroke-linecap:round;
  stroke-linejoin:round;
  stroke-width: 1.06745;
}
.l1{
  fill: #000000;
  stroke: #000000;
  stroke-linecap:round;
  stroke-linejoin:round;
  stroke-width: 1.06745;
}
.l2{
  fill: #000000; fill-opacity: 0.2;
  stroke: #000000;
  stroke-linecap:round;
  stroke-linejoin:round;
  stroke-width: 1.06745;
}
.l3{
  fill: #000000; fill-opacity: 0.5;
  stroke: #000000;
  stroke-linecap:round;
  stroke-linejoin:round;
  stroke-width: 1.06745;
}
.l4{
  fill: #000000;
  stroke: #000000;
  stroke-linecap:round;
  stroke-linejoin:round;
  stroke-width: 1.06745;
}
.l5{
  fill: #000000;
  stroke: #000000;
  stroke-linecap:round;
  stroke-linejoin:round;
  stroke-width: 1.06745;
}
.l6{
  fill: #000000; fill-opacity: 0.5;
  stroke: #000000;
  stroke-linecap:round;
  stroke-linejoin:round;
  stroke-width: 1.06745;
}
.l7{
  fill: #000000; fill-opacity: 0.5;
  stroke: #000000;
  stroke-linecap:round;
  stroke-linejoin:round;
  stroke-width: 1.06745;
}
.l8{
  fill: #000000; fill-opacity: 0.5;
  stroke: #000000;
  stroke-linecap:round;
  stroke-linejoin:round;
  stroke-width: 1.06745;
}
.l9{
  fill: #000000; fill-opacity: 0.5;
  stroke: #000000;
  stroke-linecap:round;
  stroke-linejoin:round;
  stroke-width: 1.06745;
}
.l10{
  fill: #000000;
  stroke: #000000;
  stroke-linecap:round;
  stroke-linejoin:round;
  stroke-width: 1.06745;
}
.l11{
  fill: #000000; fill-opacity: 0.5;
  stroke: #000000;
  stroke-linecap:round;
  stroke-linejoin:round;
  stroke-width: 1.06745;
}
.l12{
  fill: #000000; fill-opacity: 0.5;
  stroke: #000000;
  stroke-linecap:round;
  stroke-linejoin:round;
  stroke-width: 1.06745;
}
.l13{
  fill: #000000; fill-opacity: 0.5;
  stroke: #000000;
  stroke-linecap:round;
  stroke-linejoin:round;
  stroke-width: 1.06745;
}
.l14{
  fill: #000000; fill-opacity: 0.2;
  stroke: #000000;
  stroke-linecap:round;
  stroke-linejoin:round;
  stroke-width: 1.06745;
}
.l15{
  fill: #000000; fill-opacity: 0.5;
  stroke: #000000;
  stroke-linecap:round;
  stroke-linejoin:round;
  stroke-width: 1.06745;
}
.l16{
  fill: #000000; fill-opacity: 0.5;
  stroke: #000000;
  stroke-linecap:round;
  stroke-linejoin:round;
  stroke-width: 1.06745;
}
.l17{
  fill: #000000; fill-opacity: 0.2;
  stroke: #000000;
  stroke-linecap:round;
  stroke-linejoin:round;
  stroke-width: 1.06745;
}
.l18{
  fill: #000000; fill-opacity: 0.5;
  stroke: #000000;
  stroke-linecap:round;
  stroke-linejoin:round;
  stroke-width: 1.06745;
}
.l19{
  fill: #000000; fill-opacity: 0.2;
  stroke: #000000;
  stroke-linecap:round;
  stroke-linejoin:round;
  stroke-width: 1.06745;
}
.l20{
  fill: #000000; fill-opacity: 0.2;
  stroke: #000000;
  stroke-linecap:round;
  stroke-linejoin:round;
  stroke-width: 1.06745;
}
.l21{
  fill: #000000; fill-opacity: 0.2;
  stroke: #000000;
  stroke-linecap:round;
  stroke-linejoin:round;
  stroke-width: 1.06745;
}
text {font-family: Sans-Serif;}
</style>
<rect class="l0" x="0" y="0" width="1000" height="700"/>
<path class="l4" d="M99.408 345.219L111.269 345.219"/>
<path class="l4" d="M111.269 345.219L111.269 357.079"/>
<path class="l4" d="M106.821 357.079L139.438 357.079"/>
<path class="l4" d="M134.99 345.219L134.99 357.079"/>
<path class="l4" d="M134.99 345.219L146.85 345.219"/>
<path class="l4" d="M111.269 360.044L134.99 360.044"/>
<path class="l4" d="M123.129 364.492L123.129 368.94"/>
<circle class="l4" cx="123.129" cy="362.268" r="2.22386" style="fill:none;" />
<path class="l4" d="M134.99 416.382L146.85 416.382"/>
<path class="l4" d="M134.99 404.522L134.99 416.382"/>
<path class="l4" d="M106.821 404.522L139.438 404.522"/>
<path class="l4" d="M111.269 404.522L111.269 416.382"/>
<path class="l4" d="M99.408 416.382L111.269 416.382"/>
<path class="l4" d="M111.269 401.557L134.99 401.557"/>
<path class="l4" d="M123.129 392.661L123.129 397.109"/>
<circle class="l4" cx="123.129" cy="399.333" r="2.22386" style="fill:none;" />
<path class="l4" d="M162.665 345.219L174.525 345.219"/>
<path class="l4" d="M174.525 345.219L174.525 357.079"/>
<path class="l4" d="M170.077 357.079L202.694 357.079"/>
<path class="l4" d="M198.246 345.219L198.246 357.079"/>
<path class="l4" d="M198.246 345.219L210.107 345.219"/>
<path class="l4" d="M174.525 360.044L198.246 360.044"/>
<path class="l4" d="M186.386 364.492L186.386 368.94"/>
<circle class="l4" cx="186.386" cy="362.268" r="2.22386" style="fill:none;" />
<path class="l4" d="M198.246 416.382L210.107 416.382"/>
<path class="l4" d="M198.246 404.522L198.246 416.382"/>
<path class="l4" d="M170.077 404.522L202.694 404.522"/>
<path class="l4" d="M174.525 404.522L174.525 416.382"/>
<path class="l4" d="M162.665 416.382L174.525 416.382"/>
<path class="l4" d="M174.525 401.557L198.246 401.557"/>
<path class="l4" d="M186.386 392.661L186.386 397.109"/>
<circle class="l4" cx="186.386" cy="399.333" r="2.22386" style="fill:none;" />
<path class="l4" d="M225.921 345.219L237.782 345.219"/>
<path class="l4" d="M237.782 345.219L237.782 357.079"/>
<path class="l4" d="M233.334 357.079L265.951 357.079"/>
<path class="l4" d="M261.503 345.219L261.503 357.079"/>
<path class="l4" d="M261.503 345.219L273.364 345.219"/>
<path class="l4" d="M237.782 360.044L261.503 360.044"/>
<path class="l4" d="M249.642 364.492L249.642 368.94"/>
<circle class="l4" cx="249.642" cy="362.268" r="2.22386" style="fill:none;" />
<path class="l4" d="M261.503 416.382L273.364 416.382"/>
<path class="l4" d="M261.503 404.522L261.503 416.382"/>
<path class="l4" d="M233.334 404.522L265.951 404.522"/>
<path class="l4" d="M237.782 404.522L237.782 416.382"/>
<path class="l4" d="M225.921 416.382L237.782 416.382"/>
<path class="l4" d="M237.782 401.557L261.503 401.557"/>
<path class="l4" d="M249.642 392.661L249.642 397.109"/>
<circle class="l4" cx="249.642" cy="399.333" r="2.22386" style="fill:none;" />
<path class="l4" d="M289.178 345.219L301.038 345.219"/>
<path class="l4" d="M301.038 345.219L301.038 357.079"/>
<path class="l4" d="M296.591 357.079L329.207 357.079"/>
<path class="l4" d="M324.76 345.219L324.76 357.079"/>
<path class="l4" d="M324.76 345.219L336.62 345.219"/>
<path class="l4" d="M301.038 360.044L324.76 360.044"/>
<path class="l4" d="M312.899 364.492L312.899 368.94"/>
<circle class="l4" cx="312.899" cy="362.268" r="2.22386" style="fill:none;" />
<path class="l4" d="M324.76 416.382L336.62 416.382"/>
<path class="l4" d="M324.76 404.522L324.76 416.382"/>
<path class="l4" d="M296.591 404.522L329.207 404.522"/>
<path class="l4" d="M301.038 404.522L301.038 416.382"/>
<path class="l4" d="M289.178 416.382L301.038 416.382"/>
<path class="l4" d="M301.038 401.557L324.76 401.557"/>
<path class="l4" d="M312.899 392.661L312.899 397.109"/>
<circle class="l4" cx="312.899" cy="399.333" r="2.22386" style="fill:none;" />
<path class="l4" d="M352.434 345.219L364.295 345.219"/>
<path class="l4" d="M364.295 345.219L364.295 357.079"/>
<path class="l4" d="M359.847 357.079L392.464 357.079"/>
<path class="l4" d="M388.016 345.219L388.016 357.079"/>
<path class="l4" d="M388.016 345.219L399.877 345.219"/>
<path class="l4" d="M364.295 360.044L388.016 360.044"/>
<path class="l4" d="M376.155 364.492L376.155 368.94"/>
<circle class="l4" cx="376.155" cy="362.268" r="2.22386" style="fill:none;" />
<path class="l4" d="M388.016 416.382L399.877 416.382"/>
<path class="l4" d="M388.016 404.522L388.016 416.382"/>
<path class="l4" d="M359.847 404.522L392.464 404.522"/>
<path class="l4" d="M364.295 404.522L364.295 416.382"/>
<path class="l4" d="M352.434 416.382L364.295 416.382"/>
<path class="l4" d="M364.295 401.557L388.016 401.557"/>
<path class="l4" d="M376.155 392.661L376.155 397.109"/>
<circle class="l4" cx="376.155" cy="399.333" r="2.22386" style="fill:none;" />
<path class="l4" d="M415.691 345.219L427.551 345.219"/>
<path class="l4" d="M427.551 345.219L427.551 357.079"/>
<path class="l4" d="M423.104 357.079L455.72 357.079"/>
<path class="l4" d="M451.273 345.219L451.273 357.079"/>
<path class="l4" d="M451.273 345.219L463.133 345.219"/>
<path class="l4" d="M427.551 360.044L451.273 360.044"/>
<path class="l4" d="M439.412 364.492L439.412 368.94"/>
<circle class="l4" cx="439.412" cy="362.268" r="2.22386" style="fill:none;" />
<path class="l4" d="M451.273 416.382L463.133 416.382"/>
<path class="l4" d="M451.273 404.522L451.273 416.382"/>
<path class="l4" d="M423.104 404.522L455.72 404.522"/>
<path class="l4" d="M427.551 404.522L427.551 416.382"/>
<path class="l4" d="M415.691 416.382L427.551 416.382"/>
<path class="l4" d="M427.551 401.557L451.273 401.557"/>
<path class="l4" d="M439.412 392.661L439.412 397.109"/>
<circle class="l4" cx="439.412" cy="399.333" r="2.22386" style="fill:none;" />
<path class="l4" d="M478.947 345.219L490.808 345.219"/>
<path class="l4" d="M490.808 345.219L490.808 357.079"/>
<path class="l4" d="M486.36 357.079L518.977 357.079"/>
<path class="l4" d="M514.529 345.219L514.529 357.079"/>
<path class="l4" d="M514.529 345.219L526.39 345.219"/>
<path class="l4" d="M490.808 360.044L514.529 360.044"/>
<path class="l4" d="M502.669 364.492L502.669 368.94"/>
<circle class="l4" cx="502.669" cy="362.268" r="2.22386" style="fill:none;" />
<path class="l4" d="M514.529 416.382L526.39 416.382"/>
<path class="l4" d="M514.529 404.522L514.529 416.382"/>
<path class="l4" d="M486.36 404.522L518.977 404.522"/>
<path class="l4" d="M490.808 404.522L490.808 416.382"/>
<path class="l4" d="M478.947 416.382L490.808 416.382"/>
<path class="l4" d="M490.808 401.557L514.529 401.557"/>
<path class="l4" d="M502.669 392.661L502.669 397.109"/>
<circle class="l4" cx="502.669" cy="399.333" r="2.22386" style="fill:none;" />
<path class="l4" d="M542.204 345.219L554.065 345.219"/>
<path class="l4" d="M554.065 345.219L554.065 357.079"/>
<path class="l4" d="M549.617 357.079L582.234 357.079"/>
<path class="l4" d="M577.786 345.219L577.786 357.079"/>
<path class="l4" d="M577.786 345.219L589.646 345.219"/>
<path class="l4" d="M554.065 360.044L577.786 360.044"/>
<path class="l4" d="M565.925 364.492L565.925 368.94"/>
<circle class="l4" cx="565.925" cy="362.268" r="2.22386" style="fill:none;" />
<path class="l4" d="M577.786 416.382L589.646 416.382"/>
<path class="l4" d="M577.786 404.522L577.786 416.382"/>
<path class="l4" d="M549.617 404.522L582.234 404.522"/>
<path class="l4" d="M554.065 404.522L554.065 416.382"/>
<path class="l4" d="M542.204 416.382L554.065 416.382"/>
<path class="l4" d="M554.065 401.557L577.786 401.557"/>
<path class="l4" d="M565.925 392.661L565.925 397.109"/>
<circle class="l4" cx="565.925" cy="399.333" r="2.22386" style="fill:none;" />
<path class="l4" d="M605.461 345.219L617.321 345.219"/>
<path class="l4" d="M617.321 345.219L617.321 357.079"/>
<path class="l4" d="M612.873 357.079L645.49 357.079"/>
<path class="l4" d="M641.042 345.219L641.042 357.079"/>
<path class="l4" d="M641.042 345.219L652.903 345.219"/>
<path class="l4" d="M617.321 360.044L641.042 360.044"/>
<path class="l4" d="M629.182 364.492L629.182 368.94"/>
<circle class="l4" cx="629.182" cy="362.268" r="2.22386" style="fill:none;" />
<path class="l4" d="M641.042 416.382L652.903 416.382"/>
<path class="l4" d="M641.042 404.522L641.042 416.382"/>
<path class="l4" d="M612.873 404.522L645.49 404.522"/>
<path class="l4" d="M617.321 404.522L617.321 416.382"/>
<path class="l4" d="M605.461 416.382L617.321 416.382"/>
<path class="l4" d="M617.321 401.557L641.042 401.557"/>
<path class="l4" d="M629.182 392.661L629.182 397.109"/>
<circle class="l4" cx="629.182" cy="399.333" r="2.22386" style="fill:none;" />
<path class="l4" d="M668.717 345.219L680.578 345.219"/>
<path class="l4" d="M680.578 345.219L680.578 357.079"/>
<path class="l4" d="M676.13 357.079L708.747 357.079"/>
<path class="l4" d="M704.299 345.219L704.299 357.079"/>
<path class="l4" d="M704.299 345.219L716.16 345.219"/>
<path class="l4" d="M680.578 360.044L704.299 360.044"/>
<path class="l4" d="M692.438 364.492L692.438 368.94"/>
<circle class="l4" cx="692.438" cy="362.268" r="2.22386" style="fill:none;" />
<path class="l4" d="M704.299 416.382L716.16 416.382"/>
<path class="l4" d="M704.299 404.522L704.299 416.382"/>
<path class="l4" d="M676.13 404.522L708.747 404.522"/>
<path class="l4" d="M680.578 404.522L680.578 416.382"/>
<path class="l4" d="M668.717 416.382L680.578 416.382"/>
<path class="l4" d="M680.578 401.557L704.299 401.557"/>
<path class="l4" d="M692.438 392.661L692.438 397.109"/>
<circle class="l4" cx="692.438" cy="399.333" r="2.22386" style="fill:none;" />
<path class="l4" d="M731.974 345.219L743.834 345.219"/>
<path class="l4" d="M743.834 345.219L743.834 357.079"/>
<path class="l4" d="M739.387 357.079L772.003 357.079"/>
<path class="l4" d="M767.556 345.219L767.556 357.079"/>
<path class="l4" d="M767.556 345.219L779.416 345.219"/>
<path class="l4" d="M743.834 360.044L767.556 360.044"/>
<path class="l4" d="M755.695 364.492L755.695 368.94"/>
<circle class="l4" cx="755.695" cy="362.268" r="2.22386" style="fill:none;" />
<path class="l4" d="M767.556 416.382L779.416 416.382"/>
<path class="l4" d="M767.556 404.522L767.556 416.382"/>
<path class="l4" d="M739.387 404.522L772.003 404.522"/>
<path class="l4" d="M743.834 404.522L743.834 416.382"/>
<path class="l4" d="M731.974 416.382L743.834 416.382"/>
<path class="l4" d="M743.834 401.557L767.556 401.557"/>
<path class="l4" d="M755.695 392.661L755.695 397.109"/>
<circle class="l4" cx="755.695" cy="399.333" r="2.22386" style="fill:none;" />
<path class="l4" d="M795.23 345.219L807.091 345.219"/>
<path class="l4" d="M807.091 345.219L807.091 357.079"/>
<path class="l4" d="M802.643 357.079L835.26 357.079"/>
<path class="l4" d="M830.812 345.219L830.812 357.079"/>
<path class="l4" d="M830.812 345.219L842.673 345.219"/>
<path class="l4" d="M807.091 360.044L830.812 360.044"/>
<path class="l4" d="M818.951 364.492L818.951 368.94"/>
<circle class="l4" cx="818.951" cy="362.268" r="2.22386" style="fill:none;" />
<path class="l4" d="M830.812 416.382L842.673 416.382"/>
<path class="l4" d="M830.812 404.522L830.812 416.382"/>
<path class="l4" d="M802.643 404.522L835.26 404.522"/>
<path class="l4" d="M807.091 404.522L807.091 416.382"/>
<path class="l4" d="M795.23 416.382L807.091 416.382"/>
<path class="l4" d="M807.091 401.557L830.812 401.557"/>
<path class="l4" d="M818.951 392.661L818.951 397.109"/>
<circle class="l4" cx="818.951" cy="399.333" r="2.22386" style="fill:none;" />
<path class="l4" d="M858.487 345.219L870.347 345.219"/>
<path class="l4" d="M870.347 345.219L870.347 357.079"/>
<path class="l4" d="M865.9 357.079L898.516 357.079"/>
<path class="l4" d="M894.069 345.219L894.069 357.079"/>
<path class="l4" d="M894.069 345.219L905.929 345.219"/>
<path class="l4" d="M870.347 360.044L894.069 360.044"/>
<path class="l4" d="M882.208 364.492L882.208 368.94"/>
<circle class="l4" cx="882.208" cy="362.268" r="2.22386" style="fill:none;" />
<path class="l4" d="M894.069 416.382L905.929 416.382"/>
<path class="l4" d="M894.069 404.522L894.069 416.382"/>
<path class="l4" d="M865.9 404.522L898.516 404.522"/>
<path class="l4" d="M870.347 404.522L870.347 416.382"/>
<path class="l4" d="M858.487 416.382L870.347 416.382"/>
<path class="l4" d="M870.347 401.557L894.069 401.557"/>
<path class="l4" d="M882.208 392.661L882.208 397.109"/>
<circle class="l4" cx="882.208" cy="399.333" r="2.22386" style="fill:none;" />
<path class="l4" d="M929.65 361.033L929.65 372.893"/>
<path class="l4" d="M917.79 372.893L929.65 372.893"/>
<path class="l4" d="M917.79 368.446L917.79 401.062"/>
<path class="l4" d="M917.79 396.615L929.65 396.615"/>
<path class="l4" d="M929.65 396.615L929.65 408.475"/>
<path class="l4" d="M914.825 372.893L914.825 396.615"/>
<path class="l4" d="M905.929 384.754L910.377 384.754"/>
<circle class="l4" cx="912.601" cy="384.754" r="2.22386" style="fill:none;" />
<path class="l4" d="M99.408 258.241L111.269 258.241"/>
<path class="l4" d="M111.269 258.241L111.269 270.102"/>
<path class="l4" d="M106.821 270.102L139.438 270.102"/>
<path class="l4" d="M134.99 258.241L134.99 270.102"/>
<path class="l4" d="M134.99 258.241L146.85 258.241"/>
<path class="l4" d="M111.269 273.067L134.99 273.067"/>
<path class="l4" d="M123.129 277.514L123.129 281.962"/>
<circle class="l4" cx="123.129" cy="275.291" r="2.22386" style="fill:none;" />
<path class="l4" d="M162.665 258.241L174.525 258.241"/>
<path class="l4" d="M174.525 258.241L174.525 270.102"/>
<path class="l4" d="M170.077 270.102L202.694 270.102"/>
<path class="l4" d="M198.246 258.241L198.246 270.102"/>
<path class="l4" d="M198.246 258.241L210.107 258.241"/>
<path class="l4" d="M174.525 273.067L198.246 273.067"/>
<path class="l4" d="M186.386 277.514L186.386 281.962"/>
<circle class="l4" cx="186.386" cy="275.291" r="2.22386" style="fill:none;" />
<path class="l4" d="M225.921 258.241L237.782 258.241"/>
<path class="l4" d="M237.782 258.241L237.782 270.102"/>
<path class="l4" d="M233.334 270.102L265.951 270.102"/>
<path class="l4" d="M261.503 258.241L261.503 270.102"/>
<path class="l4" d="M261.503 258.241L273.364 258.241"/>
<path class="l4" d="M237.782 273.067L261.503 273.067"/>
<path class="l4" d="M249.642 277.514L249.642 281.962"/>
<circle class="l4" cx="249.642" cy="275.291" r="2.22386" style="fill:none;" />
<path class="l4" d="M289.178 258.241L301.038 258.241"/>
<path class="l4" d="M301.038 258.241L301.038 270.102"/>
<path class="l4" d="M296.591 270.102L329.207 270.102"/>
<path class="l4" d="M324.76 258.241L324.76 270.102"/>
<path class="l4" d="M324.76 258.241L336.62 258.241"/>
<path class="l4" d="M301.038 273.067L324.76 273.067"/>
<path class="l4" d="M312.899 277.514L312.899 281.962"/>
<circle class="l4" cx="312.899" cy="275.291" r="2.22386" style="fill:none;" />
<path class="l4" d="M352.434 258.241L364.295 258.241"/>
<path class="l4" d="M364.295 258.241L364.295 270.102"/>
<path class="l4" d="M359.847 270.102L392.464 270.102"/>
<path class="l4" d="M388.016 258.241L388.016 270.102"/>
<path class="l4" d="M388.016 258.241L399.877 258.241"/>
<path class="l4" d="M364.295 273.067L388.016 273.067"/>
<path class="l4" d="M376.155 277.514L376.155 281.962"/>
<circle class="l4" cx="376.155" cy="275.291" r="2.22386" style="fill:none;" />
<path class="l4" d="M415.691 258.241L427.551 258.241"/>
<path class="l4" d="M427.551 258.241L427.551 270.102"/>
<path class="l4" d="M423.104 270.102L455.72 270.102"/>
<path class="l4" d="M451.273 258.241L451.273 270.102"/>
<path class="l4" d="M451.273 258.241L463.133 258.241"/>
<path class="l4" d="M427.551 273.067L451.273 273.067"/>
<path class="l4" d="M439.412 277.514L439.412 281.962"/>
<circle class="l4" cx="439.412" cy="275.291" r="2.22386" style="fill:none;" />
<path class="l4" d="M478.947 258.241L490.808 258.241"/>
<path class="l4" d="M490.808 258.241L490.808 270.102"/>
<path class="l4" d="M486.36 270.102L518.977 270.102"/>
<path class="l4" d="M514.529 258.241L514.529 270.102"/>
<path class="l4" d="M514.529 258.241L526.39 258.241"/>
<path class="l4" d="M490.808 273.067L514.529 273.067"/>
<path class="l4" d="M502.669 277.514L502.669 281.962"/>
<circle class="l4" cx="502.669" cy="275.291" r="2.22386" style="fill:none;" />
<path class="l4" d="M542.204 258.241L554.065 258.241"/>
<path class="l4" d="M554.065 258.241L554.065 270.102"/>
<path class="l4" d="M549.617 270.102L582.234 270.102"/>
<path class="l4" d="M577.786 258.241L577.786 270.102"/>
<path class="l4" d="M577.786 258.241L589.646 258.241"/>
<path class="l4" d="M554.065 273.067L577.786 273.067"/>
<path class="l4" d="M565.925 277.514L565.925 281.962"/>
<circle class="l4" cx="565.925" cy="275.291" r="2.22386" style="fill:none;" />
<path class="l4" d="M605.461 258.241L617.321 258.241"/>
<path class="l4" d="M617.321 258.241L617.321 270.102"/>
<path class="l4" d="M612.873 270.102L645.49 270.102"/>
<path class="l4" d="M641.042 258.241L641.042 270.102"/>
<path class="l4" d="M641.042 258.241L652.903 258.241"/>
<path class="l4" d="M617.321 273.067L641.042 273.067"/>
<path class="l4" d="M629.182 277.514L629.182 281.962"/>
<circle class="l4" cx="629.182" cy="275.291" r="2.22386" style="fill:none;" />
<path class="l4" d="M668.717 258.241L680.578 258.241"/>
<path class="l4" d="M680.578 258.241L680.578 270.102"/>
<path class="l4" d="M676.13 270.102L708.747 270.102"/>
<path class="l4" d="M704.299 258.241L704.299 270.102"/>
<path class="l4" d="M704.299 258.241L716.16 258.241"/>
<path class="l4" d="M680.578 273.067L704.299 273.067"/>
<path class="l4" d="M692.438 277.514L692.438 281.962"/>
<circle class="l4" cx="692.438" cy="275.291" r="2.22386" style="fill:none;" />
<path class="l4" d="M731.974 258.241L743.834 258.241"/>
<path class="l4" d="M743.834 258.241L743.834 270.102"/>
<path class="l4" d="M739.387 270.102L772.003 270.102"/>
<path class="l4" d="M767.556 258.241L767.556 270.102"/>
<path class="l4" d="M767.556 258.241L779.416 258.241"/>
<path class="l4" d="M743.834 273.067L767.556 273.067"/>
<path class="l4" d="M755.695 277.514L755.695 281.962"/>
<circle class="l4" cx="755.695" cy="275.291" r="2.22386" style="fill:none;" />
<path class="l4" d="M795.23 258.241L807.091 258.241"/>
<path class="l4" d="M807.091 258.241L807.091 270.102"/>
<path class="l4" d="M802.643 270.102L835.26 270.102"/>
<path class="l4" d="M830.812 258.241L830.812 270.102"/>
<path class="l4" d="M830.812 258.241L842.673 258.241"/>
<path class="l4" d="M807.091 273.067L830.812 273.067"/>
<path class="l4" d="M818.951 277.514L818.951 281.962"/>
<circle class="l4" cx="818.951" cy="275.291" r="2.22386" style="fill:none;" />
<path class="l4" d="M858.487 258.241L870.347 258.241"/>
<path class="l4" d="M870.347 258.241L870.347 270.102"/>
<path class="l4" d="M865.9 270.102L898.516 270.102"/>
<path class="l4" d="M894.069 258.241L894.069 270.102"/>
<path class="l4" d="M894.069 258.241L905.929 258.241"/>
<path class="l4" d="M870.347 273.067L894.069 273.067"/>
<path class="l4" d="M882.208 277.514L882.208 281.962"/>
<circle class="l4" cx="882.208" cy="275.291" r="2.22386" style="fill:none;" />
<path class="l4" d="M894.069 503.36L905.929 503.36"/>
<path class="l4" d="M894.069 491.5L894.069 503.36"/>
<path class="l4" d="M865.9 491.5L898.516 491.5"/>
<path class="l4" d="M870.347 491.5L870.347 503.36"/>
<path class="l4" d="M858.487 503.36L870.347 503.36"/>
<path class="l4" d="M870.347 488.534L894.069 488.534"/>
<path class="l4" d="M882.208 479.639L882.208 484.087"/>
<circle class="l4" cx="882.208" cy="486.311" r="2.22386" style="fill:none;" />
<path class="l4" d="M830.812 503.36L842.673 503.36"/>
<path class="l4" d="M830.812 491.5L830.812 503.36"/>
<path class="l4" d="M802.643 491.5L835.26 491.5"/>
<path class="l4" d="M807.091 491.5L807.091 503.36"/>
<path class="l4" d="M795.23 503.36L807.091 503.36"/>
<path class="l4" d="M807.091 488.534L830.812 488.534"/>
<path class="l4" d="M818.951 479.639L818.951 484.087"/>
<circle class="l4" cx="818.951" cy="486.311" r="2.22386" style="fill:none;" />
<path class="l4" d="M767.556 503.36L779.416 503.36"/>
<path class="l4" d="M767.556 491.5L767.556 503.36"/>
<path class="l4" d="M739.387 491.5L772.003 491.5"/>
<path class="l4" d="M743.834 491.5L743.834 503.36"/>
<path class="l4" d="M731.974 503.36L743.834 503.36"/>
<path class="l4" d="M743.834 488.534L767.556 488.534"/>
<path class="l4" d="M755.695 479.639L755.695 484.087"/>
<circle class="l4" cx="755.695" cy="486.311" r="2.22386" style="fill:none;" />
<path class="l4" d="M704.299 503.36L716.16 503.36"/>
<path class="l4" d="M704.299 491.5L704.299 503.36"/>
<path class="l4" d="M676.13 491.5L708.747 491.5"/>
<path class="l4" d="M680.578 491.5L680.578 503.36"/>
<path class="l4" d="M668.717 503.36L680.578 503.36"/>
<path class="l4" d="M680.578 488.534L704.299 488.534"/>
<path class="l4" d="M692.438 479.639L692.438 484.087"/>
<circle class="l4" cx="692.438" cy="486.311" r="2.22386" style="fill:none;" />
<path class="l4" d="M641.042 503.36L652.903 503.36"/>
<path class="l4" d="M641.042 491.5L641.042 503.36"/>
<path class="l4" d="M612.873 491.5L645.49 491.5"/>
<path class="l4" d="M617.321 491.5L617.321 503.36"/>
<path class="l4" d="M605.461 503.36L617.321 503.36"/>
<path class="l4" d="M617.321 488.534L641.042 488.534"/>
<path class="l4" d="M629.182 479.639L629.182 484.087"/>
<circle class="l4" cx="629.182" cy="486.311" r="2.22386" style="fill:none;" />
<path class="l4" d="M577.786 503.36L589.646 503.36"/>
<path class="l4" d="M577.786 491.5L577.786 503.36"/>
<path class="l4" d="M549.617 491.5L582.234 491.5"/>
<path class="l4" d="M554.065 491.5L554.065 503.36"/>
<path class="l4" d="M542.204 503.36L554.065 503.36"/>
<path class="l4" d="M554.065 488.534L577.786 488.534"/>
<path class="l4" d="M565.925 479.639L565.925 484.087"/>
<circle class="l4" cx="565.925" cy="486.311" r="2.22386" style="fill:none;" />
<path class="l4" d="M514.529 503.36L526.39 503.36"/>
<path class="l4" d="M514.529 491.5L514.529 503.36"/>
<path class="l4" d="M486.36 491.5L518.977 491.5"/>
<path class="l4" d="M490.808 491.5L490.808 503.36"/>
<path class="l4" d="M478.947 503.36L490.808 503.36"/>
<path class="l4" d="M490.808 488.534L514.529 488.534"/>
<path class="l4" d="M502.669 479.639L502.669 484.087"/>
<circle class="l4" cx="502.669" cy="486.311" r="2.22386" style="fill:none;" />
<path class="l4" d="M451.273 503.36L463.133 503.36"/>
<path class="l4" d="M451.273 491.5L451.273 503.36"/>
<path class="l4" d="M423.104 491.5L455.72 491.5"/>
<path class="l4" d="M427.551 491.5L427.551 503.36"/>
<path class="l4" d="M415.691 503.36L427.551 503.36"/>
<path class="l4" d="M427.551 488.534L451.273 488.534"/>
<path class="l4" d="M439.412 479.639L439.412 484.087"/>
<circle class="l4" cx="439.412" cy="486.311" r="2.22386" style="fill:none;" />
<path class="l4" d="M388.016 503.36L399.877 503.36"/>
<path class="l4" d="M388.016 491.5L388.016 503.36"/>
<path class="l4" d="M359.847 491.5L392.464 491.5"/>
<path class="l4" d="M364.295 491.5L364.295 503.36"/>
<path class="l4" d="M352.434 503.36L364.295 503.36"/>
<path class="l4" d="M364.295 488.534L388.016 488.534"/>
<path class="l4" d="M376.155 479.639L376.155 484.087"/>
<circle class="l4" cx="376.155" cy="486.311" r="2.22386" style="fill:none;" />
<path class="l4" d="M324.76 503.36L336.62 503.36"/>
<path class="l4" d="M324.76 491.5L324.76 503.36"/>
<path class="l4" d="M296.591 491.5L329.207 491.5"/>
<path class="l4" d="M301.038 491.5L301.038 503.36"/>
<path class="l4" d="M289.178 503.36L301.038 503.36"/>
<path class="l4" d="M301.038 488.534L324.76 488.534"/>
<path class="l4" d="M312.899 479.639L312.899 484.087"/>
<circle class="l4" cx="312.899" cy="486.311" r="2.22386" style="fill:none;" />
<path class="l4" d="M261.503 503.36L273.364 503.36"/>
<path class="l4" d="M261.503 491.5L261.503 503.36"/>
<path class="l4" d="M233.334 491.5L265.951 491.5"/>
<path class="l4" d="M237.782 491.5L237.782 503.36"/>
<path class="l4" d="M225.921 503.36L237.782 503.36"/>
<path class="l4" d="M237.782 488.534L261.503 488.534"/>
<path class="l4" d="M249.642 479.639L249.642 484.087"/>
<circle class="l4" cx="249.642" cy="486.311" r="2.22386" style="fill:none;" />
<path class="l4" d="M198.246 503.36L210.107 503.36"/>
<path class="l4" d="M198.246 491.5L198.246 503.36"/>
<path class="l4" d="M170.077 491.5L202.694 491.5"/>
<path class="l4" d="M174.525 491.5L174.525 503.36"/>
<path class="l4" d="M162.665 503.36L174.525 503.36"/>
<path class="l4" d="M174.525 488.534L198.246 488.534"/>
<path class="l4" d="M186.386 479.639L186.386 484.087"/>
<circle class="l4" cx="186.386" cy="486.311" r="2.22386" style="fill:none;" />
<path class="l4" d="M134.99 503.36L146.85 503.36"/>
<path class="l4" d="M134.99 491.5L134.99 503.36"/>
<path class="l4" d="M106.821 491.5L139.438 491.5"/>
<path class="l4" d="M111.269 491.5L111.269 503.36"/>
<path class="l4" d="M99.408 503.36L111.269 503.36"/>
<path class="l4" d="M111.269 488.534L134.99 488.534"/>
<path class="l4" d="M123.129 479.639L123.129 484.087"/>
<circle class="l4" cx="123.129" cy="486.311" r="2.22386" style="fill:none;" />
<path class="l5" d="M89.03 179.17L91.5009 179.17"/>
<path class="l5" d="M80.6287 175.217L77.6635 179.17L80.6287 183.124L86.0648 183.124L89.03 179.17L86.0648 175.217L80.6287 175.217"/>
<path class="l5" d="M90.5125 178.182L92.4893 178.182L92.4893 180.159L90.5125 180.159L90.5125 178.182z"/>
<path class="l5" d="M90.5125 178.182L92.4893 178.182L92.4893 180.159L90.5125 180.159L90.5125 178.182z"/>
<path class="l5" d="M146.455 344.823L147.246 344.823L147.246 345.614L146.455 345.614L146.455 344.823z"/>
<path class="l5" d="M122.734 368.545L123.525 368.545L123.525 369.335L122.734 369.335L122.734 368.545z"/>
<path class="l5" d="M99.0126 344.823L99.8033 344.823L99.8033 345.614L99.0126 345.614L99.0126 344.823z"/>
<path class="l5" d="M99.0126 415.987L99.8033 415.987L99.8033 416.778L99.0126 416.778L99.0126 415.987z"/>
<path class="l5" d="M122.734 392.266L123.525 392.266L123.525 393.056L122.734 393.056L122.734 392.266z"/>
<path class="l5" d="M146.455 415.987L147.246 415.987L147.246 416.778L146.455 416.778L146.455 415.987z"/>
<path class="l5" d="M209.712 344.823L210.502 344.823L210.502 345.614L209.712 345.614L209.712 344.823z"/>
<path class="l5" d="M185.99 368.545L186.781 368.545L186.781 369.335L185.99 369.335L185.99 368.545z"/>
<path class="l5" d="M162.269 344.823L163.06 344.823L163.06 345.614L162.269 345.614L162.269 344.823z"/>
<path class="l5" d="M162.269 415.987L163.06 415.987L163.06 416.778L162.269 416.778L162.269 415.987z"/>
<path class="l5" d="M185.99 392.266L186.781 392.266L186.781 393.056L185.99 393.056L185.99 392.266z"/>
<path class="l5" d="M209.712 415.987L210.502 415.987L210.502 416.778L209.712 416.778L209.712 415.987z"/>
<path class="l5" d="M153.769 423.301L155.746 423.301L155.746 425.278L153.769 425.278L153.769 423.301z"/>
<path class="l5" d="M272.968 344.823L273.759 344.823L273.759 345.614L272.968 345.614L272.968 344.823z"/>
<path class="l5" d="M249.247 368.545L250.038 368.545L250.038 369.335L249.247 369.335L249.247 368.545z"/>
<path class="l5" d="M225.526 344.823L226.316 344.823L226.316 345.614L225.526 345.614L225.526 344.823z"/>
<path class="l5" d="M225.526 415.987L226.316 415.987L226.316 416.778L225.526 416.778L225.526 415.987z"/>
<path class="l5" d="M249.247 392.266L250.038 392.266L250.038 393.056L249.247 393.056L249.247 392.266z"/>
<path class="l5" d="M272.968 415.987L273.759 415.987L273.759 416.778L272.968 416.778L272.968 415.987z"/>
<path class="l5" d="M217.026 423.301L219.002 423.301L219.002 425.278L217.026 425.278L217.026 423.301z"/>
<path class="l5" d="M336.225 344.823L337.015 344.823L337.015 345.614L336.225 345.614L336.225 344.823z"/>
<path class="l5" d="M312.504 368.545L313.294 368.545L313.294 369.335L312.504 369.335L312.504 368.545z"/>
<path class="l5" d="M288.782 344.823L289.573 344.823L289.573 345.614L288.782 345.614L288.782 344.823z"/>
<path class="l5" d="M288.782 415.987L289.573 415.987L289.573 416.778L288.782 416.778L288.782 415.987z"/>
<path class="l5" d="M312.504 392.266L313.294 392.266L313.294 393.056L312.504 393.056L312.504 392.266z"/>
<path class="l5" d="M336.225 415.987L337.015 415.987L337.015 416.778L336.225 416.778L336.225 415.987z"/>
<path class="l5" d="M280.282 423.301L282.259 423.301L282.259 425.278L280.282 425.278L280.282 423.301z"/>
<path class="l5" d="M399.481 344.823L400.272 344.823L400.272 345.614L399.481 345.614L399.481 344.823z"/>
<path class="l5" d="M375.76 368.545L376.551 368.545L376.551 369.335L375.76 369.335L375.76 368.545z"/>
<path class="l5" d="M352.039 344.823L352.83 344.823L352.83 345.614L352.039 345.614L352.039 344.823z"/>
<path class="l5" d="M352.039 415.987L352.83 415.987L352.83 416.778L352.039 416.778L352.039 415.987z"/>
<path class="l5" d="M375.76 392.266L376.551 392.266L376.551 393.056L375.76 393.056L375.76 392.266z"/>
<path class="l5" d="M399.481 415.987L400.272 415.987L400.272 416.778L399.481 416.778L399.481 415.987z"/>
<path class="l5" d="M343.539 423.301L345.516 423.301L345.516 425.278L343.539 425.278L343.539 423.301z"/>
<path class="l5" d="M462.738 344.823L463.529 344.823L463.529 345.614L462.738 345.614L462.738 344.823z"/>
<path class="l5" d="M439.017 368.545L439.807 368.545L439.807 369.335L439.017 369.335L439.017 368.545z"/>
<path class="l5" d="M415.295 344.823L416.086 344.823L416.086 345.614L415.295 345.614L415.295 344.823z"/>
<path class="l5" d="M415.295 415.987L416.086 415.987L416.086 416.778L415.295 416.778L415.295 415.987z"/>
<path class="l5" d="M439.017 392.266L439.807 392.266L439.807 393.056L439.017 393.056L439.017 392.266z"/>
<path class="l5" d="M462.738 415.987L463.529 415.987L463.529 416.778L462.738 416.778L462.738 415.987z"/>
<path class="l5" d="M406.795 423.301L408.772 423.301L408.772 425.278L406.795 425.278L406.795 423.301z"/>
<path class="l5" d="M525.994 344.823L526.785 344.823L526.785 345.614L525.994 345.614L525.994 344.823z"/>
<path class="l5" d="M502.273 368.545L503.064 368.545L503.064 369.335L502.273 369.335L502.273 368.545z"/>
<path class="l5" d="M478.552 344.823L479.343 344.823L479.343 345.614L478.552 345.614L478.552 344.823z"/>
<path class="l5" d="M478.552 415.987L479.343 415.987L479.343 416.778L478.552 416.778L478.552 415.987z"/>
<path class="l5" d="M502.273 392.266L503.064 392.266L503.064 393.056L502.273 393.056L502.273 392.266z"/>
<path class="l5" d="M525.994 415.987L526.785 415.987L526.785 416.778L525.994 416.778L525.994 415.987z"/>
<path class="l5" d="M470.052 423.301L472.029 423.301L472.029 425.278L470.052 425.278L470.052 423.301z"/>
<path class="l5" d="M589.251 344.823L590.042 344.823L590.042 345.614L589.251 345.614L589.251 344.823z"/>
<path class="l5" d="M565.53 368.545L566.321 368.545L566.321 369.335L565.53 369.335L565.53 368.545z"/>
<path class="l5" d="M541.809 344.823L542.599 344.823L542.599 345.614L541.809 345.614L541.809 344.823z"/>
<path class="l5" d="M541.809 415.987L542.599 415.987L542.599 416.778L541.809 416.778L541.809 415.987z"/>
<path class="l5" d="M565.53 392.266L566.321 392.266L566.321 393.056L565.53 393.056L565.53 392.266z"/>
<path class="l5" d="M589.251 415.987L590.042 415.987L590.042 416.778L589.251 416.778L589.251 415.987z"/>
<path class="l5" d="M533.309 423.301L535.285 423.301L535.285 425.278L533.309 425.278L533.309 423.301z"/>
<path class="l5" d="M652.508 344.823L653.298 344.823L653.298 345.614L652.508 345.614L652.508 344.823z"/>
<path class="l5" d="M628.786 368.545L629.577 368.545L629.577 369.335L628.786 369.335L628.786 368.545z"/>
<path class="l5" d="M605.065 344.823L605.856 344.823L605.856 345.614L605.065 345.614L605.065 344.823z"/>
<path class="l5" d="M605.065 415.987L605.856 415.987L605.856 416.778L605.065 416.778L605.065 415.987z"/>
<path class="l5" d="M628.786 392.266L629.577 392.266L629.577 393.056L628.786 393.056L628.786 392.266z"/>
<path class="l5" d="M652.508 415.987L653.298 415.987L653.298 416.778L652.508 416.778L652.508 415.987z"/>
<path class="l5" d="M596.565 423.301L598.542 423.301L598.542 425.278L596.565 425.278L596.565 423.301z"/>
<path class="l5" d="M715.764 344.823L716.555 344.823L716.555 345.614L715.764 345.614L715.764 344.823z"/>
<path class="l5" d="M692.043 368.545L692.834 368.545L692.834 369.335L692.043 369.335L692.043 368.545z"/>
<path class="l5" d="M668.322 344.823L669.112 344.823L669.112 345.614L668.322 345.614L668.322 344.823z"/>
<path class="l5" d="M668.322 415.987L669.112 415.987L669.112 416.778L668.322 416.778L668.322 415.987z"/>
<path class="l5" d="M692.043 392.266L692.834 392.266L692.834 393.056L692.043 393.056L692.043 392.266z"/>
<path class="l5" d="M715.764 415.987L716.555 415.987L716.555 416.778L715.764 416.778L715.764 415.987z"/>
<path class="l5" d="M659.822 423.301L661.798 423.301L661.798 425.278L659.822 425.278L659.822 423.301z"/>
<path class="l5" d="M779.021 344.823L779.811 344.823L779.811 345.614L779.021 345.614L779.021 344.823z"/>
<path class="l5" d="M755.3 368.545L756.09 368.545L756.09 369.335L755.3 369.335L755.3 368.545z"/>
<path class="l5" d="M731.578 344.823L732.369 344.823L732.369 345.614L731.578 345.614L731.578 344.823z"/>
<path class="l5" d="M731.578 415.987L732.369 415.987L732.369 416.778L731.578 416.778L731.578 415.987z"/>
<path class="l5" d="M755.3 392.266L756.09 392.266L756.09 393.056L755.3 393.056L755.3 392.266z"/>
<path class="l5" d="M779.021 415.987L779.811 415.987L779.811 416.778L779.021 416.778L779.021 415.987z"/>
<path class="l5" d="M723.078 423.301L725.055 423.301L725.055 425.278L723.078 425.278L723.078 423.301z"/>
<path class="l5" d="M842.277 344.823L843.068 344.823L843.068 345.614L842.277 345.614L842.277 344.823z"/>
<path class="l5" d="M818.556 368.545L819.347 368.545L819.347 369.335L818.556 369.335L818.556 368.545z"/>
<path class="l5" d="M794.835 344.823L795.626 344.823L795.626 345.614L794.835 345.614L794.835 344.823z"/>
<path class="l5" d="M794.835 415.987L795.626 415.987L795.626 416.778L794.835 416.778L794.835 415.987z"/>
<path class="l5" d="M818.556 392.266L819.347 392.266L819.347 393.056L818.556 393.056L818.556 392.266z"/>
<path class="l5" d="M842.277 415.987L843.068 415.987L843.068 416.778L842.277 416.778L842.277 415.987z"/>
<path class="l5" d="M786.335 423.301L788.312 423.301L788.312 425.278L786.335 425.278L786.335 423.301z"/>
<path class="l5" d="M905.534 344.823L906.325 344.823L906.325 345.614L905.534 345.614L905.534 344.823z"/>
<path class="l5" d="M881.813 368.545L882.603 368.545L882.603 369.335L881.813 369.335L881.813 368.545z"/>
<path class="l5" d="M858.092 344.823L858.882 344.823L858.882 345.614L858.092 345.614L858.092 344.823z"/>
<path class="l5" d="M858.092 415.987L858.882 415.987L858.882 416.778L858.092 416.778L858.092 415.987z"/>
<path class="l5" d="M881.813 392.266L882.603 392.266L882.603 393.056L881.813 393.056L881.813 392.266z"/>
<path class="l5" d="M905.534 415.987L906.325 415.987L906.325 416.778L905.534 416.778L905.534 415.987z"/>
<path class="l5" d="M849.591 423.301L851.568 423.301L851.568 425.278L849.591 425.278L849.591 423.301z"/>
<path class="l5" d="M929.255 408.08L930.046 408.08L930.046 408.871L929.255 408.871L929.255 408.08z"/>
<path class="l5" d="M905.534 384.359L906.325 384.359L906.325 385.149L905.534 385.149L905.534 384.359z"/>
<path class="l5" d="M929.255 360.637L930.046 360.637L930.046 361.428L929.255 361.428L929.255 360.637z"/>
<path class="l5" d="M912.848 423.301L914.825 423.301L914.825 425.278L912.848 425.278L912.848 423.301z"/>
<path class="l5" d="M929.65 416.382L929.65 423.301"/>
<path class="l5" d="M929.65 430.22L933.604 427.255L933.604 420.336L929.65 423.301L925.697 420.336L925.697 427.255L929.65 430.22"/>
<path class="l5" d="M928.662 415.394L930.639 415.394L930.639 417.371L928.662 417.371L928.662 415.394z"/>
<path class="l5" d="M71.7332 384.754L75.6868 384.754"/>
<path class="l5" d="M71.7332 384.754L68.7681 380.801L61.8494 380.801L64.8146 384.754L61.8494 388.708L68.7681 388.708L71.7332 384.754"/>
<path class="l5" d="M74.6984 383.766L76.6752 383.766L76.6752 385.742L74.6984 385.742L74.6984 383.766z"/>
<path class="l5" d="M89.03 163.356L91.5009 163.356"/>
<path class="l5" d="M80.6287 159.403L77.6635 163.356L80.6287 167.31L86.0648 167.31L89.03 163.356L86.0648 159.403L80.6287 159.403"/>
<path class="l5" d="M90.5125 162.368L92.4893 162.368L92.4893 164.344L90.5125 164.344L90.5125 162.368z"/>
<path class="l5" d="M146.455 257.846L147.246 257.846L147.246 258.636L146.455 258.636L146.455 257.846z"/>
<path class="l5" d="M122.734 281.567L123.525 281.567L123.525 282.357L122.734 282.357L122.734 281.567z"/>
<path class="l5" d="M99.0126 257.846L99.8033 257.846L99.8033 258.636L99.0126 258.636L99.0126 257.846z"/>
<path class="l5" d="M209.712 257.846L210.502 257.846L210.502 258.636L209.712 258.636L209.712 257.846z"/>
<path class="l5" d="M185.99 281.567L186.781 281.567L186.781 282.357L185.99 282.357L185.99 281.567z"/>
<path class="l5" d="M162.269 257.846L163.06 257.846L163.06 258.636L162.269 258.636L162.269 257.846z"/>
<path class="l5" d="M272.968 257.846L273.759 257.846L273.759 258.636L272.968 258.636L272.968 257.846z"/>
<path class="l5" d="M249.247 281.567L250.038 281.567L250.038 282.357L249.247 282.357L249.247 281.567z"/>
<path class="l5" d="M225.526 257.846L226.316 257.846L226.316 258.636L225.526 258.636L225.526 257.846z"/>
<path class="l5" d="M336.225 257.846L337.015 257.846L337.015 258.636L336.225 258.636L336.225 257.846z"/>
<path class="l5" d="M312.504 281.567L313.294 281.567L313.294 282.357L312.504 282.357L312.504 281.567z"/>
<path class="l5" d="M288.782 257.846L289.573 257.846L289.573 258.636L288.782 258.636L288.782 257.846z"/>
<path class="l5" d="M399.481 257.846L400.272 257.846L400.272 258.636L399.481 258.636L399.481 257.846z"/>
<path class="l5" d="M375.76 281.567L376.551 281.567L376.551 282.357L375.76 282.357L375.76 281.567z"/>
<path class="l5" d="M352.039 257.846L352.83 257.846L352.83 258.636L352.039 258.636L352.039 257.846z"/>
<path class="l5" d="M462.738 257.846L463.529 257.846L463.529 258.636L462.738 258.636L462.738 257.846z"/>
<path class="l5" d="M439.017 281.567L439.807 281.567L439.807 282.357L439.017 282.357L439.017 281.567z"/>
<path class="l5" d="M415.295 257.846L416.086 257.846L416.086 258.636L415.295 258.636L415.295 257.846z"/>
<path class="l5" d="M525.994 257.846L526.785 257.846L526.785 258.636L525.994 258.636L525.994 257.846z"/>
<path class="l5" d="M502.273 281.567L503.064 281.567L503.064 282.357L502.273 282.357L502.273 281.567z"/>
<path class="l5" d="M478.552 257.846L479.343 257.846L479.343 258.636L478.552 258.636L478.552 257.846z"/>
<path class="l5" d="M589.251 257.846L590.042 257.846L590.042 258.636L589.251 258.636L589.251 257.846z"/>
<path class="l5" d="M565.53 281.567L566.321 281.567L566.321 282.357L565.53 282.357L565.53 281.567z"/>
<path class="l5" d="M541.809 257.846L542.599 257.846L542.599 258.636L541.809 258.636L541.809 257.846z"/>
<path class="l5" d="M652.508 257.846L653.298 257.846L653.298 258.636L652.508 258.636L652.508 257.846z"/>
<path class="l5" d="M628.786 281.567L629.577 281.567L629.577 282.357L628.786 282.357L628.786 281.567z"/>
<path class="l5" d="M605.065 257.846L605.856 257.846L605.856 258.636L605.065 258.636L605.065 257.846z"/>
<path class="l5" d="M715.764 257.846L716.555 257.846L716.555 258.636L715.764 258.636L715.764 257.846z"/>
<path class="l5" d="M692.043 281.567L692.834 281.567L692.834 282.357L692.043 282.357L692.043 281.567z"/>
<path class="l5" d="M668.322 257.846L669.112 257.846L669.112 258.636L668.322 258.636L668.322 257.846z"/>
<path class="l5" d="M779.021 257.846L779.811 257.846L779.811 258.636L779.021 258.636L779.021 257.846z"/>
<path class="l5" d="M755.3 281.567L756.09 281.567L756.09 282.357L755.3 282.357L755.3 281.567z"/>
<path class="l5" d="M731.578 257.846L732.369 257.846L732.369 258.636L731.578 258.636L731.578 257.846z"/>
<path class="l5" d="M842.277 257.846L843.068 257.846L843.068 258.636L842.277 258.636L842.277 257.846z"/>
<path class="l5" d="M818.556 281.567L819.347 281.567L819.347 282.357L818.556 282.357L818.556 281.567z"/>
<path class="l5" d="M794.835 257.846L795.626 257.846L795.626 258.636L794.835 258.636L794.835 257.846z"/>
<path class="l5" d="M905.534 257.846L906.325 257.846L906.325 258.636L905.534 258.636L905.534 257.846z"/>
<path class="l5" d="M881.813 281.567L882.603 281.567L882.603 282.357L881.813 282.357L881.813 281.567z"/>
<path class="l5" d="M858.092 257.846L858.882 257.846L858.882 258.636L858.092 258.636L858.092 257.846z"/>
<path class="l5" d="M90.5125 162.368L92.4893 162.368L92.4893 164.344L90.5125 164.344L90.5125 162.368z"/>
<path class="l5" d="M90.5125 249.345L92.4893 249.345L92.4893 251.322L90.5125 251.322L90.5125 249.345z"/>
<path class="l5" d="M153.769 249.345L155.746 249.345L155.746 251.322L153.769 251.322L153.769 249.345z"/>
<path class="l5" d="M217.026 249.345L219.002 249.345L219.002 251.322L217.026 251.322L217.026 249.345z"/>
<path class="l5" d="M280.282 249.345L282.259 249.345L282.259 251.322L280.282 251.322L280.282 249.345z"/>
<path class="l5" d="M343.539 249.345L345.516 249.345L345.516 251.322L343.539 251.322L343.539 249.345z"/>
<path class="l5" d="M406.795 249.345L408.772 249.345L408.772 251.322L406.795 251.322L406.795 249.345z"/>
<path class="l5" d="M470.052 249.345L472.029 249.345L472.029 251.322L470.052 251.322L470.052 249.345z"/>
<path class="l5" d="M533.309 249.345L535.285 249.345L535.285 251.322L533.309 251.322L533.309 249.345z"/>
<path class="l5" d="M596.565 249.345L598.542 249.345L598.542 251.322L596.565 251.322L596.565 249.345z"/>
<path class="l5" d="M659.822 249.345L661.798 249.345L661.798 251.322L659.822 251.322L659.822 249.345z"/>
<path class="l5" d="M723.078 249.345L725.055 249.345L725.055 251.322L723.078 251.322L723.078 249.345z"/>
<path class="l5" d="M786.335 249.345L788.312 249.345L788.312 251.322L786.335 251.322L786.335 249.345z"/>
<path class="l5" d="M912.848 249.345L914.825 249.345L914.825 251.322L912.848 251.322L912.848 249.345z"/>
<path class="l5" d="M858.092 502.965L858.882 502.965L858.882 503.755L858.092 503.755L858.092 502.965z"/>
<path class="l5" d="M881.813 479.244L882.603 479.244L882.603 480.034L881.813 480.034L881.813 479.244z"/>
<path class="l5" d="M905.534 502.965L906.325 502.965L906.325 503.755L905.534 503.755L905.534 502.965z"/>
<path class="l5" d="M794.835 502.965L795.626 502.965L795.626 503.755L794.835 503.755L794.835 502.965z"/>
<path class="l5" d="M818.556 479.244L819.347 479.244L819.347 480.034L818.556 480.034L818.556 479.244z"/>
<path class="l5" d="M842.277 502.965L843.068 502.965L843.068 503.755L842.277 503.755L842.277 502.965z"/>
<path class="l5" d="M731.578 502.965L732.369 502.965L732.369 503.755L731.578 503.755L731.578 502.965z"/>
<path class="l5" d="M755.3 479.244L756.09 479.244L756.09 480.034L755.3 480.034L755.3 479.244z"/>
<path class="l5" d="M779.021 502.965L779.811 502.965L779.811 503.755L779.021 503.755L779.021 502.965z"/>
<path class="l5" d="M668.322 502.965L669.112 502.965L669.112 503.755L668.322 503.755L668.322 502.965z"/>
<path class="l5" d="M692.043 479.244L692.834 479.244L692.834 480.034L692.043 480.034L692.043 479.244z"/>
<path class="l5" d="M715.764 502.965L716.555 502.965L716.555 503.755L715.764 503.755L715.764 502.965z"/>
<path class="l5" d="M605.065 502.965L605.856 502.965L605.856 503.755L605.065 503.755L605.065 502.965z"/>
<path class="l5" d="M628.786 479.244L629.577 479.244L629.577 480.034L628.786 480.034L628.786 479.244z"/>
<path class="l5" d="M652.508 502.965L653.298 502.965L653.298 503.755L652.508 503.755L652.508 502.965z"/>
<path class="l5" d="M541.809 502.965L542.599 502.965L542.599 503.755L541.809 503.755L541.809 502.965z"/>
<path class="l5" d="M565.53 479.244L566.321 479.244L566.321 480.034L565.53 480.034L565.53 479.244z"/>
<path class="l5" d="M589.251 502.965L590.042 502.965L590.042 503.755L589.251 503.755L589.251 502.965z"/>
<path class="l5" d="M478.552 502.965L479.343 502.965L479.343 503.755L478.552 503.755L478.552 502.965z"/>
<path class="l5" d="M502.273 479.244L503.064 479.244L503.064 480.034L502.273 480.034L502.273 479.244z"/>
<path class="l5" d="M525.994 502.965L526.785 502.965L526.785 503.755L525.994 503.755L525.994 502.965z"/>
<path class="l5" d="M415.295 502.965L416.086 502.965L416.086 503.755L415.295 503.755L415.295 502.965z"/>
<path class="l5" d="M439.017 479.244L439.807 479.244L439.807 480.034L439.017 480.034L439.017 479.244z"/>
<path class="l5" d="M462.738 502.965L463.529 502.965L463.529 503.755L462.738 503.755L462.738 502.965z"/>
<path class="l5" d="M352.039 502.965L352.83 502.965L352.83 503.755L352.039 503.755L352.039 502.965z"/>
<path class="l5" d="M375.76 479.244L376.551 479.244L376.551 480.034L375.76 480.034L375.76 479.244z"/>
<path class="l5" d="M399.481 502.965L400.272 502.965L400.272 503.755L399.481 503.755L399.481 502.965z"/>
<path class="l5" d="M288.782 502.965L289.573 502.965L289.573 503.755L288.782 503.755L288.782 502.965z"/>
<path class="l5" d="M312.504 479.244L313.294 479.244L313.294 480.034L312.504 480.034L312.504 479.244z"/>
<path class="l5" d="M336.225 502.965L337.015 502.965L337.015 503.755L336.225 503.755L336.225 502.965z"/>
<path class="l5" d="M225.526 502.965L226.316 502.965L226.316 503.755L225.526 503.755L225.526 502.965z"/>
<path class="l5" d="M249.247 479.244L250.038 479.244L250.038 480.034L249.247 480.034L249.247 479.244z"/>
<path class="l5" d="M272.968 502.965L273.759 502.965L273.759 503.755L272.968 503.755L272.968 502.965z"/>
<path class="l5" d="M162.269 502.965L163.06 502.965L163.06 503.755L162.269 503.755L162.269 502.965z"/>
<path class="l5" d="M185.99 479.244L186.781 479.244L186.781 480.034L185.99 480.034L185.99 479.244z"/>
<path class="l5" d="M209.712 502.965L210.502 502.965L210.502 503.755L209.712 503.755L209.712 502.965z"/>
<path class="l5" d="M99.0126 502.965L99.8033 502.965L99.8033 503.755L99.0126 503.755L99.0126 502.965z"/>
<path class="l5" d="M122.734 479.244L123.525 479.244L123.525 480.034L122.734 480.034L122.734 479.244z"/>
<path class="l5" d="M146.455 502.965L147.246 502.965L147.246 503.755L146.455 503.755L146.455 502.965z"/>
<path class="l5" d="M912.848 510.279L914.825 510.279L914.825 512.256L912.848 512.256L912.848 510.279z"/>
<path class="l5" d="M849.591 510.279L851.568 510.279L851.568 512.256L849.591 512.256L849.591 510.279z"/>
<path class="l5" d="M786.335 510.279L788.312 510.279L788.312 512.256L786.335 512.256L786.335 510.279z"/>
<path class="l5" d="M723.078 510.279L725.055 510.279L725.055 512.256L723.078 512.256L723.078 510.279z"/>
<path class="l5" d="M659.822 510.279L661.798 510.279L661.798 512.256L659.822 512.256L659.822 510.279z"/>
<path class="l5" d="M596.565 510.279L598.542 510.279L598.542 512.256L596.565 512.256L596.565 510.279z"/>
<path class="l5" d="M533.309 510.279L535.285 510.279L535.285 512.256L533.309 512.256L533.309 510.279z"/>
<path class="l5" d="M470.052 510.279L472.029 510.279L472.029 512.256L470.052 512.256L470.052 510.279z"/>
<path class="l5" d="M406.795 510.279L408.772 510.279L408.772 512.256L406.795 512.256L406.795 510.279z"/>
<path class="l5" d="M343.539 510.279L345.516 510.279L345.516 512.256L343.539 512.256L343.539 510.279z"/>
<path class="l5" d="M280.282 510.279L282.259 510.279L282.259 512.256L280.282 512.256L280.282 510.279z"/>
<path class="l5" d="M217.026 510.279L219.002 510.279L219.002 512.256L217.026 512.256L217.026 510.279z"/>
<path class="l5" d="M90.5125 510.279L92.4893 510.279L92.4893 512.256L90.5125 512.256L90.5125 510.279z"/>
<path class="l5" d="M153.769 510.279L155.746 510.279L155.746 512.256L153.769 512.256L153.769 510.279z"/>
<path class="l5" d="M849.591 249.345L851.568 249.345L851.568 251.322L849.591 251.322L849.591 249.345z"/>
<text fill="#000000"  xml:space="preserve" font-size="13.5685" transform="translate(56.8103, 183.34)" >VN</text>
<text fill="#000000"  xml:space="preserve" font-size="13.5685" transform="translate(97.4312, 182.352)" >VN</text>
<text fill="#000000"  xml:space="preserve" font-size="8.22335" transform="translate(107.805, 341.265) rotate(270)" >M34</text>
<text fill="#000000"  xml:space="preserve" font-size="8.22335" transform="translate(119.666, 341.265) rotate(270)" >pfet_01v8</text>
<text fill="#000000"  xml:space="preserve" font-size="8.22335" transform="translate(131.526, 341.265) rotate(270)" >2 x 4 / 12</text>
<text fill="#000000"  xml:space="preserve" font-size="8.22335" transform="translate(143.955, 437.336) rotate(270)" >M35</text>
<text fill="#000000"  xml:space="preserve" font-size="8.22335" transform="translate(132.094, 460.336) rotate(270)" >pfet_01v8</text>
<text fill="#000000"  xml:space="preserve" font-size="8.22335" transform="translate(120.234, 460.336) rotate(270)" >1 x 4 / 12</text>
<text fill="#000000"  xml:space="preserve" font-size="8.22335" transform="translate(171.062, 341.265) rotate(270)" >M36</text>
<text fill="#000000"  xml:space="preserve" font-size="8.22335" transform="translate(182.922, 341.265) rotate(270)" >pfet_01v8</text>
<text fill="#000000"  xml:space="preserve" font-size="8.22335" transform="translate(194.783, 341.265) rotate(270)" >2 x 4 / 12</text>
<text fill="#000000"  xml:space="preserve" font-size="8.22335" transform="translate(207.211, 437.336) rotate(270)" >M37</text>
<text fill="#000000"  xml:space="preserve" font-size="8.22335" transform="translate(195.351, 460.336) rotate(270)" >pfet_01v8</text>
<text fill="#000000"  xml:space="preserve" font-size="8.22335" transform="translate(183.49, 460.336) rotate(270)" >1 x 4 / 12</text>
<text fill="#000000"  xml:space="preserve" font-size="13.5685" transform="translate(160.653, 449.22) rotate(270)" >VN</text>
<text fill="#000000"  xml:space="preserve" font-size="8.22335" transform="translate(234.318, 341.265) rotate(270)" >M17</text>
<text fill="#000000"  xml:space="preserve" font-size="8.22335" transform="translate(246.179, 341.265) rotate(270)" >pfet_01v8</text>
<text fill="#000000"  xml:space="preserve" font-size="8.22335" transform="translate(258.039, 341.265) rotate(270)" >2 x 4 / 12</text>
<text fill="#000000"  xml:space="preserve" font-size="8.22335" transform="translate(270.468, 437.336) rotate(270)" >M21</text>
<text fill="#000000"  xml:space="preserve" font-size="8.22335" transform="translate(258.607, 460.336) rotate(270)" >pfet_01v8</text>
<text fill="#000000"  xml:space="preserve" font-size="8.22335" transform="translate(246.747, 460.336) rotate(270)" >1 x 4 / 12</text>
<text fill="#000000"  xml:space="preserve" font-size="13.5685" transform="translate(223.91, 449.22) rotate(270)" >VN</text>
<text fill="#000000"  xml:space="preserve" font-size="8.22335" transform="translate(297.575, 341.265) rotate(270)" >M24</text>
<text fill="#000000"  xml:space="preserve" font-size="8.22335" transform="translate(309.435, 341.265) rotate(270)" >pfet_01v8</text>
<text fill="#000000"  xml:space="preserve" font-size="8.22335" transform="translate(321.296, 341.265) rotate(270)" >2 x 4 / 12</text>
<text fill="#000000"  xml:space="preserve" font-size="8.22335" transform="translate(333.724, 437.336) rotate(270)" >M25</text>
<text fill="#000000"  xml:space="preserve" font-size="8.22335" transform="translate(321.864, 460.336) rotate(270)" >pfet_01v8</text>
<text fill="#000000"  xml:space="preserve" font-size="8.22335" transform="translate(310.003, 460.336) rotate(270)" >1 x 4 / 12</text>
<text fill="#000000"  xml:space="preserve" font-size="13.5685" transform="translate(287.166, 449.22) rotate(270)" >VN</text>
<text fill="#000000"  xml:space="preserve" font-size="8.22335" transform="translate(360.831, 341.265) rotate(270)" >M28</text>
<text fill="#000000"  xml:space="preserve" font-size="8.22335" transform="translate(372.692, 341.265) rotate(270)" >pfet_01v8</text>
<text fill="#000000"  xml:space="preserve" font-size="8.22335" transform="translate(384.553, 341.265) rotate(270)" >2 x 4 / 12</text>
<text fill="#000000"  xml:space="preserve" font-size="8.22335" transform="translate(396.981, 437.336) rotate(270)" >M33</text>
<text fill="#000000"  xml:space="preserve" font-size="8.22335" transform="translate(385.12, 460.336) rotate(270)" >pfet_01v8</text>
<text fill="#000000"  xml:space="preserve" font-size="8.22335" transform="translate(373.26, 460.336) rotate(270)" >1 x 4 / 12</text>
<text fill="#000000"  xml:space="preserve" font-size="13.5685" transform="translate(350.423, 449.22) rotate(270)" >VN</text>
<text fill="#000000"  xml:space="preserve" font-size="8.22335" transform="translate(424.088, 341.265) rotate(270)" >M38</text>
<text fill="#000000"  xml:space="preserve" font-size="8.22335" transform="translate(435.949, 341.265) rotate(270)" >pfet_01v8</text>
<text fill="#000000"  xml:space="preserve" font-size="8.22335" transform="translate(447.809, 341.265) rotate(270)" >2 x 4 / 12</text>
<text fill="#000000"  xml:space="preserve" font-size="8.22335" transform="translate(460.238, 437.336) rotate(270)" >M39</text>
<text fill="#000000"  xml:space="preserve" font-size="8.22335" transform="translate(448.377, 460.336) rotate(270)" >pfet_01v8</text>
<text fill="#000000"  xml:space="preserve" font-size="8.22335" transform="translate(436.516, 460.336) rotate(270)" >1 x 4 / 12</text>
<text fill="#000000"  xml:space="preserve" font-size="13.5685" transform="translate(413.68, 449.22) rotate(270)" >VN</text>
<text fill="#000000"  xml:space="preserve" font-size="8.22335" transform="translate(487.345, 341.265) rotate(270)" >M40</text>
<text fill="#000000"  xml:space="preserve" font-size="8.22335" transform="translate(499.205, 341.265) rotate(270)" >pfet_01v8</text>
<text fill="#000000"  xml:space="preserve" font-size="8.22335" transform="translate(511.066, 341.265) rotate(270)" >2 x 4 / 12</text>
<text fill="#000000"  xml:space="preserve" font-size="8.22335" transform="translate(523.494, 437.336) rotate(270)" >M41</text>
<text fill="#000000"  xml:space="preserve" font-size="8.22335" transform="translate(511.634, 460.336) rotate(270)" >pfet_01v8</text>
<text fill="#000000"  xml:space="preserve" font-size="8.22335" transform="translate(499.773, 460.336) rotate(270)" >1 x 4 / 12</text>
<text fill="#000000"  xml:space="preserve" font-size="13.5685" transform="translate(476.936, 449.22) rotate(270)" >VN</text>
<text fill="#000000"  xml:space="preserve" font-size="8.22335" transform="translate(550.601, 341.265) rotate(270)" >M42</text>
<text fill="#000000"  xml:space="preserve" font-size="8.22335" transform="translate(562.462, 341.265) rotate(270)" >pfet_01v8</text>
<text fill="#000000"  xml:space="preserve" font-size="8.22335" transform="translate(574.322, 341.265) rotate(270)" >2 x 4 / 12</text>
<text fill="#000000"  xml:space="preserve" font-size="8.22335" transform="translate(586.751, 437.336) rotate(270)" >M43</text>
<text fill="#000000"  xml:space="preserve" font-size="8.22335" transform="translate(574.89, 460.336) rotate(270)" >pfet_01v8</text>
<text fill="#000000"  xml:space="preserve" font-size="8.22335" transform="translate(563.03, 460.336) rotate(270)" >1 x 4 / 12</text>
<text fill="#000000"  xml:space="preserve" font-size="13.5685" transform="translate(540.193, 449.22) rotate(270)" >VN</text>
<text fill="#000000"  xml:space="preserve" font-size="8.22335" transform="translate(613.858, 341.265) rotate(270)" >M44</text>
<text fill="#000000"  xml:space="preserve" font-size="8.22335" transform="translate(625.718, 341.265) rotate(270)" >pfet_01v8</text>
<text fill="#000000"  xml:space="preserve" font-size="8.22335" transform="translate(637.579, 341.265) rotate(270)" >2 x 4 / 12</text>
<text fill="#000000"  xml:space="preserve" font-size="8.22335" transform="translate(650.007, 437.336) rotate(270)" >M45</text>
<text fill="#000000"  xml:space="preserve" font-size="8.22335" transform="translate(638.147, 460.336) rotate(270)" >pfet_01v8</text>
<text fill="#000000"  xml:space="preserve" font-size="8.22335" transform="translate(626.286, 460.336) rotate(270)" >1 x 4 / 12</text>
<text fill="#000000"  xml:space="preserve" font-size="13.5685" transform="translate(603.449, 449.22) rotate(270)" >VN</text>
<text fill="#000000"  xml:space="preserve" font-size="8.22335" transform="translate(677.114, 341.265) rotate(270)" >M46</text>
<text fill="#000000"  xml:space="preserve" font-size="8.22335" transform="translate(688.975, 341.265) rotate(270)" >pfet_01v8</text>
<text fill="#000000"  xml:space="preserve" font-size="8.22335" transform="translate(700.835, 341.265) rotate(270)" >2 x 4 / 12</text>
<text fill="#000000"  xml:space="preserve" font-size="8.22335" transform="translate(713.264, 437.336) rotate(270)" >M47</text>
<text fill="#000000"  xml:space="preserve" font-size="8.22335" transform="translate(701.403, 460.336) rotate(270)" >pfet_01v8</text>
<text fill="#000000"  xml:space="preserve" font-size="8.22335" transform="translate(689.543, 460.336) rotate(270)" >1 x 4 / 12</text>
<text fill="#000000"  xml:space="preserve" font-size="13.5685" transform="translate(666.706, 449.22) rotate(270)" >VN</text>
<text fill="#000000"  xml:space="preserve" font-size="8.22335" transform="translate(740.371, 341.265) rotate(270)" >M48</text>
<text fill="#000000"  xml:space="preserve" font-size="8.22335" transform="translate(752.231, 341.265) rotate(270)" >pfet_01v8</text>
<text fill="#000000"  xml:space="preserve" font-size="8.22335" transform="translate(764.092, 341.265) rotate(270)" >2 x 4 / 12</text>
<text fill="#000000"  xml:space="preserve" font-size="8.22335" transform="translate(776.52, 437.336) rotate(270)" >M49</text>
<text fill="#000000"  xml:space="preserve" font-size="8.22335" transform="translate(764.66, 460.336) rotate(270)" >pfet_01v8</text>
<text fill="#000000"  xml:space="preserve" font-size="8.22335" transform="translate(752.799, 460.336) rotate(270)" >1 x 4 / 12</text>
<text fill="#000000"  xml:space="preserve" font-size="13.5685" transform="translate(729.962, 449.22) rotate(270)" >VN</text>
<text fill="#000000"  xml:space="preserve" font-size="8.22335" transform="translate(803.627, 341.265) rotate(270)" >M50</text>
<text fill="#000000"  xml:space="preserve" font-size="8.22335" transform="translate(815.488, 341.265) rotate(270)" >pfet_01v8</text>
<text fill="#000000"  xml:space="preserve" font-size="8.22335" transform="translate(827.349, 341.265) rotate(270)" >2 x 4 / 12</text>
<text fill="#000000"  xml:space="preserve" font-size="8.22335" transform="translate(839.777, 437.336) rotate(270)" >M51</text>
<text fill="#000000"  xml:space="preserve" font-size="8.22335" transform="translate(827.916, 460.336) rotate(270)" >pfet_01v8</text>
<text fill="#000000"  xml:space="preserve" font-size="8.22335" transform="translate(816.056, 460.336) rotate(270)" >1 x 4 / 12</text>
<text fill="#000000"  xml:space="preserve" font-size="13.5685" transform="translate(793.219, 449.22) rotate(270)" >VN</text>
<text fill="#000000"  xml:space="preserve" font-size="8.22335" transform="translate(866.884, 341.265) rotate(270)" >M52</text>
<text fill="#000000"  xml:space="preserve" font-size="8.22335" transform="translate(878.745, 341.265) rotate(270)" >pfet_01v8</text>
<text fill="#000000"  xml:space="preserve" font-size="8.22335" transform="translate(890.605, 341.265) rotate(270)" >2 x 4 / 12</text>
<text fill="#000000"  xml:space="preserve" font-size="8.22335" transform="translate(903.034, 437.336) rotate(270)" >M53</text>
<text fill="#000000"  xml:space="preserve" font-size="8.22335" transform="translate(891.173, 460.336) rotate(270)" >pfet_01v8</text>
<text fill="#000000"  xml:space="preserve" font-size="8.22335" transform="translate(879.312, 460.336) rotate(270)" >1 x 4 / 12</text>
<text fill="#000000"  xml:space="preserve" font-size="13.5685" transform="translate(856.476, 449.22) rotate(270)" >VN</text>
<text fill="#000000"  xml:space="preserve" font-size="8.22335" transform="translate(933.604, 369.43)" >M54</text>
<text fill="#000000"  xml:space="preserve" font-size="8.22335" transform="translate(933.604, 381.291)" >pfet_01v8</text>
<text fill="#000000"  xml:space="preserve" font-size="8.22335" transform="translate(933.604, 393.151)" >2 x u_w / u_l</text>
<text fill="#000000"  xml:space="preserve" font-size="13.5685" transform="translate(919.732, 449.22) rotate(270)" >VN</text>
<text fill="#000000"  xml:space="preserve" font-size="13.5685" transform="translate(933.326, 465.196) rotate(270)" >IOUT</text>
<text fill="#000000"  xml:space="preserve" font-size="13.5685" transform="translate(14.861, 390.156)" >VGATE</text>
<text fill="#000000"  xml:space="preserve" font-size="13.5685" transform="translate(58.8103, 167.526)" >VP</text>
<text fill="#000000"  xml:space="preserve" font-size="8.22335" transform="translate(107.805, 254.287) rotate(270)" >M1</text>
<text fill="#000000"  xml:space="preserve" font-size="8.22335" transform="translate(119.666, 254.287) rotate(270)" >pfet_01v8</text>
<text fill="#000000"  xml:space="preserve" font-size="8.22335" transform="translate(131.526, 254.287) rotate(270)" >1 x 4 / 12</text>
<text fill="#000000"  xml:space="preserve" font-size="8.22335" transform="translate(171.062, 254.287) rotate(270)" >M2</text>
<text fill="#000000"  xml:space="preserve" font-size="8.22335" transform="translate(182.922, 254.287) rotate(270)" >pfet_01v8</text>
<text fill="#000000"  xml:space="preserve" font-size="8.22335" transform="translate(194.783, 254.287) rotate(270)" >1 x 4 / 12</text>
<text fill="#000000"  xml:space="preserve" font-size="8.22335" transform="translate(234.318, 254.287) rotate(270)" >M3</text>
<text fill="#000000"  xml:space="preserve" font-size="8.22335" transform="translate(246.179, 254.287) rotate(270)" >pfet_01v8</text>
<text fill="#000000"  xml:space="preserve" font-size="8.22335" transform="translate(258.039, 254.287) rotate(270)" >1 x 4 / 12</text>
<text fill="#000000"  xml:space="preserve" font-size="8.22335" transform="translate(297.575, 254.287) rotate(270)" >M4</text>
<text fill="#000000"  xml:space="preserve" font-size="8.22335" transform="translate(309.435, 254.287) rotate(270)" >pfet_01v8</text>
<text fill="#000000"  xml:space="preserve" font-size="8.22335" transform="translate(321.296, 254.287) rotate(270)" >1 x 4 / 12</text>
<text fill="#000000"  xml:space="preserve" font-size="8.22335" transform="translate(360.831, 254.287) rotate(270)" >M5</text>
<text fill="#000000"  xml:space="preserve" font-size="8.22335" transform="translate(372.692, 254.287) rotate(270)" >pfet_01v8</text>
<text fill="#000000"  xml:space="preserve" font-size="8.22335" transform="translate(384.553, 254.287) rotate(270)" >1 x 4 / 12</text>
<text fill="#000000"  xml:space="preserve" font-size="8.22335" transform="translate(424.088, 254.287) rotate(270)" >M6</text>
<text fill="#000000"  xml:space="preserve" font-size="8.22335" transform="translate(435.949, 254.287) rotate(270)" >pfet_01v8</text>
<text fill="#000000"  xml:space="preserve" font-size="8.22335" transform="translate(447.809, 254.287) rotate(270)" >1 x 4 / 12</text>
<text fill="#000000"  xml:space="preserve" font-size="8.22335" transform="translate(487.345, 254.287) rotate(270)" >M7</text>
<text fill="#000000"  xml:space="preserve" font-size="8.22335" transform="translate(499.205, 254.287) rotate(270)" >pfet_01v8</text>
<text fill="#000000"  xml:space="preserve" font-size="8.22335" transform="translate(511.066, 254.287) rotate(270)" >1 x 4 / 12</text>
<text fill="#000000"  xml:space="preserve" font-size="8.22335" transform="translate(550.601, 254.287) rotate(270)" >M8</text>
<text fill="#000000"  xml:space="preserve" font-size="8.22335" transform="translate(562.462, 254.287) rotate(270)" >pfet_01v8</text>
<text fill="#000000"  xml:space="preserve" font-size="8.22335" transform="translate(574.322, 254.287) rotate(270)" >1 x 4 / 12</text>
<text fill="#000000"  xml:space="preserve" font-size="8.22335" transform="translate(613.858, 254.287) rotate(270)" >M9</text>
<text fill="#000000"  xml:space="preserve" font-size="8.22335" transform="translate(625.718, 254.287) rotate(270)" >pfet_01v8</text>
<text fill="#000000"  xml:space="preserve" font-size="8.22335" transform="translate(637.579, 254.287) rotate(270)" >1 x 4 / 12</text>
<text fill="#000000"  xml:space="preserve" font-size="8.22335" transform="translate(677.114, 254.287) rotate(270)" >M10</text>
<text fill="#000000"  xml:space="preserve" font-size="8.22335" transform="translate(688.975, 254.287) rotate(270)" >pfet_01v8</text>
<text fill="#000000"  xml:space="preserve" font-size="8.22335" transform="translate(700.835, 254.287) rotate(270)" >1 x 4 / 12</text>
<text fill="#000000"  xml:space="preserve" font-size="8.22335" transform="translate(740.371, 254.287) rotate(270)" >M11</text>
<text fill="#000000"  xml:space="preserve" font-size="8.22335" transform="translate(752.231, 254.287) rotate(270)" >pfet_01v8</text>
<text fill="#000000"  xml:space="preserve" font-size="8.22335" transform="translate(764.092, 254.287) rotate(270)" >1 x 4 / 12</text>
<text fill="#000000"  xml:space="preserve" font-size="8.22335" transform="translate(803.627, 254.287) rotate(270)" >M12</text>
<text fill="#000000"  xml:space="preserve" font-size="8.22335" transform="translate(815.488, 254.287) rotate(270)" >pfet_01v8</text>
<text fill="#000000"  xml:space="preserve" font-size="8.22335" transform="translate(827.349, 254.287) rotate(270)" >1 x 4 / 12</text>
<text fill="#000000"  xml:space="preserve" font-size="8.22335" transform="translate(866.884, 254.287) rotate(270)" >M13</text>
<text fill="#000000"  xml:space="preserve" font-size="8.22335" transform="translate(878.745, 254.287) rotate(270)" >pfet_01v8</text>
<text fill="#000000"  xml:space="preserve" font-size="8.22335" transform="translate(890.605, 254.287) rotate(270)" >1 x 4 / 12</text>
<text fill="#000000"  xml:space="preserve" font-size="13.5685" transform="translate(97.4312, 166.538)" >VP</text>
<text fill="#000000"  xml:space="preserve" font-size="13.5685" transform="translate(94.6825, 244.404) rotate(270)" >VP</text>
<text fill="#000000"  xml:space="preserve" font-size="13.5685" transform="translate(157.939, 244.404) rotate(270)" >VP</text>
<text fill="#000000"  xml:space="preserve" font-size="13.5685" transform="translate(221.196, 244.404) rotate(270)" >VP</text>
<text fill="#000000"  xml:space="preserve" font-size="13.5685" transform="translate(284.452, 244.404) rotate(270)" >VP</text>
<text fill="#000000"  xml:space="preserve" font-size="13.5685" transform="translate(347.709, 244.404) rotate(270)" >VP</text>
<text fill="#000000"  xml:space="preserve" font-size="13.5685" transform="translate(410.965, 244.404) rotate(270)" >VP</text>
<text fill="#000000"  xml:space="preserve" font-size="13.5685" transform="translate(474.222, 244.404) rotate(270)" >VP</text>
<text fill="#000000"  xml:space="preserve" font-size="13.5685" transform="translate(537.479, 244.404) rotate(270)" >VP</text>
<text fill="#000000"  xml:space="preserve" font-size="13.5685" transform="translate(600.735, 244.404) rotate(270)" >VP</text>
<text fill="#000000"  xml:space="preserve" font-size="13.5685" transform="translate(663.992, 244.404) rotate(270)" >VP</text>
<text fill="#000000"  xml:space="preserve" font-size="13.5685" transform="translate(727.248, 244.404) rotate(270)" >VP</text>
<text fill="#000000"  xml:space="preserve" font-size="13.5685" transform="translate(790.505, 244.404) rotate(270)" >VP</text>
<text fill="#000000"  xml:space="preserve" font-size="13.5685" transform="translate(917.018, 244.404) rotate(270)" >VP</text>
<text fill="#000000"  xml:space="preserve" font-size="8.22335" transform="translate(903.034, 524.314) rotate(270)" >M14</text>
<text fill="#000000"  xml:space="preserve" font-size="8.22335" transform="translate(891.173, 547.314) rotate(270)" >pfet_01v8</text>
<text fill="#000000"  xml:space="preserve" font-size="8.22335" transform="translate(879.312, 547.314) rotate(270)" >1 x 4 / 12</text>
<text fill="#000000"  xml:space="preserve" font-size="8.22335" transform="translate(839.777, 524.314) rotate(270)" >M15</text>
<text fill="#000000"  xml:space="preserve" font-size="8.22335" transform="translate(827.916, 547.314) rotate(270)" >pfet_01v8</text>
<text fill="#000000"  xml:space="preserve" font-size="8.22335" transform="translate(816.056, 547.314) rotate(270)" >1 x 4 / 12</text>
<text fill="#000000"  xml:space="preserve" font-size="8.22335" transform="translate(776.52, 524.314) rotate(270)" >M16</text>
<text fill="#000000"  xml:space="preserve" font-size="8.22335" transform="translate(764.66, 547.314) rotate(270)" >pfet_01v8</text>
<text fill="#000000"  xml:space="preserve" font-size="8.22335" transform="translate(752.799, 547.314) rotate(270)" >1 x 4 / 12</text>
<text fill="#000000"  xml:space="preserve" font-size="8.22335" transform="translate(713.264, 524.314) rotate(270)" >M18</text>
<text fill="#000000"  xml:space="preserve" font-size="8.22335" transform="translate(701.403, 547.314) rotate(270)" >pfet_01v8</text>
<text fill="#000000"  xml:space="preserve" font-size="8.22335" transform="translate(689.543, 547.314) rotate(270)" >1 x 4 / 12</text>
<text fill="#000000"  xml:space="preserve" font-size="8.22335" transform="translate(650.007, 524.314) rotate(270)" >M19</text>
<text fill="#000000"  xml:space="preserve" font-size="8.22335" transform="translate(638.147, 547.314) rotate(270)" >pfet_01v8</text>
<text fill="#000000"  xml:space="preserve" font-size="8.22335" transform="translate(626.286, 547.314) rotate(270)" >1 x 4 / 12</text>
<text fill="#000000"  xml:space="preserve" font-size="8.22335" transform="translate(586.751, 524.314) rotate(270)" >M20</text>
<text fill="#000000"  xml:space="preserve" font-size="8.22335" transform="translate(574.89, 547.314) rotate(270)" >pfet_01v8</text>
<text fill="#000000"  xml:space="preserve" font-size="8.22335" transform="translate(563.03, 547.314) rotate(270)" >1 x 4 / 12</text>
<text fill="#000000"  xml:space="preserve" font-size="8.22335" transform="translate(523.494, 524.314) rotate(270)" >M22</text>
<text fill="#000000"  xml:space="preserve" font-size="8.22335" transform="translate(511.634, 547.314) rotate(270)" >pfet_01v8</text>
<text fill="#000000"  xml:space="preserve" font-size="8.22335" transform="translate(499.773, 547.314) rotate(270)" >1 x 4 / 12</text>
<text fill="#000000"  xml:space="preserve" font-size="8.22335" transform="translate(460.238, 524.314) rotate(270)" >M23</text>
<text fill="#000000"  xml:space="preserve" font-size="8.22335" transform="translate(448.377, 547.314) rotate(270)" >pfet_01v8</text>
<text fill="#000000"  xml:space="preserve" font-size="8.22335" transform="translate(436.516, 547.314) rotate(270)" >1 x 4 / 12</text>
<text fill="#000000"  xml:space="preserve" font-size="8.22335" transform="translate(396.981, 524.314) rotate(270)" >M26</text>
<text fill="#000000"  xml:space="preserve" font-size="8.22335" transform="translate(385.12, 547.314) rotate(270)" >pfet_01v8</text>
<text fill="#000000"  xml:space="preserve" font-size="8.22335" transform="translate(373.26, 547.314) rotate(270)" >1 x 4 / 12</text>
<text fill="#000000"  xml:space="preserve" font-size="8.22335" transform="translate(333.724, 524.314) rotate(270)" >M27</text>
<text fill="#000000"  xml:space="preserve" font-size="8.22335" transform="translate(321.864, 547.314) rotate(270)" >pfet_01v8</text>
<text fill="#000000"  xml:space="preserve" font-size="8.22335" transform="translate(310.003, 547.314) rotate(270)" >1 x 4 / 12</text>
<text fill="#000000"  xml:space="preserve" font-size="8.22335" transform="translate(270.468, 524.314) rotate(270)" >M29</text>
<text fill="#000000"  xml:space="preserve" font-size="8.22335" transform="translate(258.607, 547.314) rotate(270)" >pfet_01v8</text>
<text fill="#000000"  xml:space="preserve" font-size="8.22335" transform="translate(246.747, 547.314) rotate(270)" >1 x 4 / 12</text>
<text fill="#000000"  xml:space="preserve" font-size="8.22335" transform="translate(207.211, 524.314) rotate(270)" >M30</text>
<text fill="#000000"  xml:space="preserve" font-size="8.22335" transform="translate(195.351, 547.314) rotate(270)" >pfet_01v8</text>
<text fill="#000000"  xml:space="preserve" font-size="8.22335" transform="translate(183.49, 547.314) rotate(270)" >1 x 4 / 12</text>
<text fill="#000000"  xml:space="preserve" font-size="8.22335" transform="translate(143.955, 524.314) rotate(270)" >M31</text>
<text fill="#000000"  xml:space="preserve" font-size="8.22335" transform="translate(132.094, 547.314) rotate(270)" >pfet_01v8</text>
<text fill="#000000"  xml:space="preserve" font-size="8.22335" transform="translate(120.234, 547.314) rotate(270)" >1 x 4 / 12</text>
<text fill="#000000"  xml:space="preserve" font-size="13.5685" transform="translate(919.732, 534.197) rotate(270)" >VP</text>
<text fill="#000000"  xml:space="preserve" font-size="13.5685" transform="translate(856.476, 534.197) rotate(270)" >VP</text>
<text fill="#000000"  xml:space="preserve" font-size="13.5685" transform="translate(793.219, 534.197) rotate(270)" >VP</text>
<text fill="#000000"  xml:space="preserve" font-size="13.5685" transform="translate(729.962, 534.197) rotate(270)" >VP</text>
<text fill="#000000"  xml:space="preserve" font-size="13.5685" transform="translate(666.706, 534.197) rotate(270)" >VP</text>
<text fill="#000000"  xml:space="preserve" font-size="13.5685" transform="translate(603.449, 534.197) rotate(270)" >VP</text>
<text fill="#000000"  xml:space="preserve" font-size="13.5685" transform="translate(540.193, 534.197) rotate(270)" >VP</text>
<text fill="#000000"  xml:space="preserve" font-size="13.5685" transform="translate(476.936, 534.197) rotate(270)" >VP</text>
<text fill="#000000"  xml:space="preserve" font-size="13.5685" transform="translate(413.68, 534.197) rotate(270)" >VP</text>
<text fill="#000000"  xml:space="preserve" font-size="13.5685" transform="translate(350.423, 534.197) rotate(270)" >VP</text>
<text fill="#000000"  xml:space="preserve" font-size="13.5685" transform="translate(287.166, 534.197) rotate(270)" >VP</text>
<text fill="#000000"  xml:space="preserve" font-size="13.5685" transform="translate(223.91, 534.197) rotate(270)" >VP</text>
<text fill="#000000"  xml:space="preserve" font-size="13.5685" transform="translate(97.3967, 534.197) rotate(270)" >VP</text>
<text fill="#000000"  xml:space="preserve" font-size="13.5685" transform="translate(160.653, 534.197) rotate(270)" >VP</text>
<text fill="#000000"  xml:space="preserve" font-size="13.5685" transform="translate(853.761, 244.404) rotate(270)" >VP</text>
<path class="l1" d="M123.129 368.94L123.129 392.661"/>
<path class="l1" d="M83.5938 384.754L123.129 384.754"/>
<path class="l1" d="M91.5009 345.219L91.5009 416.382"/>
<path class="l1" d="M75.6868 384.754L83.5938 384.754"/>
<path class="l1" d="M91.5009 345.219L99.408 345.219"/>
<path class="l1" d="M91.5009 416.382L99.408 416.382"/>
<path class="l1" d="M123.129 384.754L186.386 384.754"/>
<path class="l1" d="M186.386 368.94L186.386 392.661"/>
<path class="l1" d="M146.85 345.219L154.757 345.219"/>
<path class="l1" d="M154.757 345.219L154.757 376.847"/>
<path class="l1" d="M154.757 376.847L162.665 376.847"/>
<path class="l1" d="M162.665 345.219L162.665 376.847"/>
<path class="l1" d="M162.665 376.847L162.665 416.382"/>
<path class="l1" d="M146.85 416.382L154.757 416.382"/>
<path class="l1" d="M154.757 416.382L154.757 424.289"/>
<path class="l1" d="M186.386 384.754L249.642 384.754"/>
<path class="l1" d="M249.642 368.94L249.642 392.661"/>
<path class="l1" d="M210.107 345.219L218.014 345.219"/>
<path class="l1" d="M218.014 345.219L218.014 376.847"/>
<path class="l1" d="M218.014 376.847L225.921 376.847"/>
<path class="l1" d="M225.921 345.219L225.921 376.847"/>
<path class="l1" d="M225.921 376.847L225.921 416.382"/>
<path class="l1" d="M210.107 416.382L218.014 416.382"/>
<path class="l1" d="M218.014 416.382L218.014 424.289"/>
<path class="l1" d="M249.642 384.754L312.899 384.754"/>
<path class="l1" d="M312.899 368.94L312.899 392.661"/>
<path class="l1" d="M273.364 345.219L281.271 345.219"/>
<path class="l1" d="M281.271 345.219L281.271 376.847"/>
<path class="l1" d="M281.271 376.847L289.178 376.847"/>
<path class="l1" d="M289.178 345.219L289.178 376.847"/>
<path class="l1" d="M289.178 376.847L289.178 416.382"/>
<path class="l1" d="M273.364 416.382L281.271 416.382"/>
<path class="l1" d="M281.271 416.382L281.271 424.289"/>
<path class="l1" d="M312.899 384.754L376.155 384.754"/>
<path class="l1" d="M376.155 368.94L376.155 392.661"/>
<path class="l1" d="M336.62 345.219L344.527 345.219"/>
<path class="l1" d="M344.527 345.219L344.527 376.847"/>
<path class="l1" d="M344.527 376.847L352.434 376.847"/>
<path class="l1" d="M352.434 345.219L352.434 376.847"/>
<path class="l1" d="M352.434 376.847L352.434 416.382"/>
<path class="l1" d="M336.62 416.382L344.527 416.382"/>
<path class="l1" d="M344.527 416.382L344.527 424.289"/>
<path class="l1" d="M376.155 384.754L439.412 384.754"/>
<path class="l1" d="M439.412 368.94L439.412 392.661"/>
<path class="l1" d="M399.877 345.219L407.784 345.219"/>
<path class="l1" d="M407.784 345.219L407.784 376.847"/>
<path class="l1" d="M407.784 376.847L415.691 376.847"/>
<path class="l1" d="M415.691 345.219L415.691 376.847"/>
<path class="l1" d="M415.691 376.847L415.691 416.382"/>
<path class="l1" d="M399.877 416.382L407.784 416.382"/>
<path class="l1" d="M407.784 416.382L407.784 424.289"/>
<path class="l1" d="M439.412 384.754L502.669 384.754"/>
<path class="l1" d="M502.669 368.94L502.669 392.661"/>
<path class="l1" d="M463.133 345.219L471.04 345.219"/>
<path class="l1" d="M471.04 345.219L471.04 376.847"/>
<path class="l1" d="M471.04 376.847L478.947 376.847"/>
<path class="l1" d="M478.947 345.219L478.947 376.847"/>
<path class="l1" d="M478.947 376.847L478.947 416.382"/>
<path class="l1" d="M463.133 416.382L471.04 416.382"/>
<path class="l1" d="M471.04 416.382L471.04 424.289"/>
<path class="l1" d="M502.669 384.754L565.925 384.754"/>
<path class="l1" d="M565.925 368.94L565.925 392.661"/>
<path class="l1" d="M526.39 345.219L534.297 345.219"/>
<path class="l1" d="M534.297 345.219L534.297 376.847"/>
<path class="l1" d="M534.297 376.847L542.204 376.847"/>
<path class="l1" d="M542.204 345.219L542.204 376.847"/>
<path class="l1" d="M542.204 376.847L542.204 416.382"/>
<path class="l1" d="M526.39 416.382L534.297 416.382"/>
<path class="l1" d="M534.297 416.382L534.297 424.289"/>
<path class="l1" d="M565.925 384.754L629.182 384.754"/>
<path class="l1" d="M629.182 368.94L629.182 392.661"/>
<path class="l1" d="M589.646 345.219L597.553 345.219"/>
<path class="l1" d="M597.553 345.219L597.553 376.847"/>
<path class="l1" d="M597.553 376.847L605.461 376.847"/>
<path class="l1" d="M605.461 345.219L605.461 376.847"/>
<path class="l1" d="M605.461 376.847L605.461 416.382"/>
<path class="l1" d="M589.646 416.382L597.553 416.382"/>
<path class="l1" d="M597.553 416.382L597.553 424.289"/>
<path class="l1" d="M629.182 384.754L692.438 384.754"/>
<path class="l1" d="M692.438 368.94L692.438 392.661"/>
<path class="l1" d="M652.903 345.219L660.81 345.219"/>
<path class="l1" d="M660.81 345.219L660.81 376.847"/>
<path class="l1" d="M660.81 376.847L668.717 376.847"/>
<path class="l1" d="M668.717 345.219L668.717 376.847"/>
<path class="l1" d="M668.717 376.847L668.717 416.382"/>
<path class="l1" d="M652.903 416.382L660.81 416.382"/>
<path class="l1" d="M660.81 416.382L660.81 424.289"/>
<path class="l1" d="M692.438 384.754L755.695 384.754"/>
<path class="l1" d="M755.695 368.94L755.695 392.661"/>
<path class="l1" d="M716.16 345.219L724.067 345.219"/>
<path class="l1" d="M724.067 345.219L724.067 376.847"/>
<path class="l1" d="M724.067 376.847L731.974 376.847"/>
<path class="l1" d="M731.974 345.219L731.974 376.847"/>
<path class="l1" d="M731.974 376.847L731.974 416.382"/>
<path class="l1" d="M716.16 416.382L724.067 416.382"/>
<path class="l1" d="M724.067 416.382L724.067 424.289"/>
<path class="l1" d="M755.695 384.754L818.951 384.754"/>
<path class="l1" d="M818.951 368.94L818.951 392.661"/>
<path class="l1" d="M779.416 345.219L787.323 345.219"/>
<path class="l1" d="M787.323 345.219L787.323 376.847"/>
<path class="l1" d="M787.323 376.847L795.23 376.847"/>
<path class="l1" d="M795.23 345.219L795.23 376.847"/>
<path class="l1" d="M795.23 376.847L795.23 416.382"/>
<path class="l1" d="M779.416 416.382L787.323 416.382"/>
<path class="l1" d="M787.323 416.382L787.323 424.289"/>
<path class="l1" d="M818.951 384.754L882.208 384.754"/>
<path class="l1" d="M882.208 368.94L882.208 392.661"/>
<path class="l1" d="M842.673 345.219L850.58 345.219"/>
<path class="l1" d="M850.58 345.219L850.58 376.847"/>
<path class="l1" d="M850.58 376.847L858.487 376.847"/>
<path class="l1" d="M858.487 345.219L858.487 376.847"/>
<path class="l1" d="M858.487 376.847L858.487 416.382"/>
<path class="l1" d="M842.673 416.382L850.58 416.382"/>
<path class="l1" d="M850.58 416.382L850.58 424.289"/>
<path class="l1" d="M905.929 416.382L913.836 416.382"/>
<path class="l1" d="M913.836 416.382L913.836 424.289"/>
<path class="l1" d="M929.65 345.219L929.65 361.033"/>
<path class="l1" d="M929.65 408.475L929.65 416.382"/>
<path class="l1" d="M905.929 345.219L929.65 345.219"/>
<path class="l1" d="M882.208 384.754L905.929 384.754"/>
<path class="l1" d="M123.129 281.962L123.129 368.94"/>
<path class="l1" d="M186.386 281.962L186.386 368.94"/>
<path class="l1" d="M249.642 281.962L249.642 368.94"/>
<path class="l1" d="M312.899 281.962L312.899 368.94"/>
<path class="l1" d="M376.155 281.962L376.155 368.94"/>
<path class="l1" d="M439.412 281.962L439.412 368.94"/>
<path class="l1" d="M502.669 281.962L502.669 368.94"/>
<path class="l1" d="M565.925 281.962L565.925 368.94"/>
<path class="l1" d="M629.182 281.962L629.182 368.94"/>
<path class="l1" d="M692.438 281.962L692.438 368.94"/>
<path class="l1" d="M755.695 281.962L755.695 368.94"/>
<path class="l1" d="M818.951 281.962L818.951 368.94"/>
<path class="l1" d="M882.208 281.962L882.208 368.94"/>
<path class="l1" d="M905.929 258.241L913.836 258.241"/>
<path class="l1" d="M913.836 250.334L913.836 258.241"/>
<path class="l1" d="M842.673 258.241L858.487 258.241"/>
<path class="l1" d="M850.58 250.334L850.58 258.241"/>
<path class="l1" d="M779.416 258.241L795.23 258.241"/>
<path class="l1" d="M787.323 250.334L787.323 258.241"/>
<path class="l1" d="M716.16 258.241L731.974 258.241"/>
<path class="l1" d="M724.067 250.334L724.067 258.241"/>
<path class="l1" d="M652.903 258.241L668.717 258.241"/>
<path class="l1" d="M660.81 250.334L660.81 258.241"/>
<path class="l1" d="M589.646 258.241L605.461 258.241"/>
<path class="l1" d="M597.553 250.334L597.553 258.241"/>
<path class="l1" d="M526.39 258.241L542.204 258.241"/>
<path class="l1" d="M534.297 250.334L534.297 258.241"/>
<path class="l1" d="M463.133 258.241L478.947 258.241"/>
<path class="l1" d="M471.04 250.334L471.04 258.241"/>
<path class="l1" d="M399.877 258.241L415.691 258.241"/>
<path class="l1" d="M407.784 250.334L407.784 258.241"/>
<path class="l1" d="M336.62 258.241L352.434 258.241"/>
<path class="l1" d="M344.527 250.334L344.527 258.241"/>
<path class="l1" d="M273.364 258.241L289.178 258.241"/>
<path class="l1" d="M281.271 250.334L281.271 258.241"/>
<path class="l1" d="M210.107 258.241L225.921 258.241"/>
<path class="l1" d="M218.014 250.334L218.014 258.241"/>
<path class="l1" d="M146.85 258.241L162.665 258.241"/>
<path class="l1" d="M154.757 250.334L154.757 258.241"/>
<path class="l1" d="M882.208 392.661L882.208 479.639"/>
<path class="l1" d="M818.951 392.661L818.951 479.639"/>
<path class="l1" d="M755.695 392.661L755.695 479.639"/>
<path class="l1" d="M692.438 392.661L692.438 479.639"/>
<path class="l1" d="M629.182 392.661L629.182 479.639"/>
<path class="l1" d="M565.925 392.661L565.925 479.639"/>
<path class="l1" d="M502.669 392.661L502.669 479.639"/>
<path class="l1" d="M439.412 392.661L439.412 479.639"/>
<path class="l1" d="M376.155 392.661L376.155 479.639"/>
<path class="l1" d="M312.899 392.661L312.899 479.639"/>
<path class="l1" d="M249.642 392.661L249.642 479.639"/>
<path class="l1" d="M186.386 392.661L186.386 479.639"/>
<path class="l1" d="M123.129 392.661L123.129 479.639"/>
<path class="l1" d="M91.5009 250.334L91.5009 258.241"/>
<path class="l1" d="M91.5009 258.241L99.408 258.241"/>
<path class="l1" d="M91.5009 503.36L99.408 503.36"/>
<path class="l1" d="M91.5009 503.36L91.5009 511.267"/>
<path class="l1" d="M146.85 503.36L162.665 503.36"/>
<path class="l1" d="M154.757 503.36L154.757 511.267"/>
<path class="l1" d="M210.107 503.36L225.921 503.36"/>
<path class="l1" d="M218.014 503.36L218.014 511.267"/>
<path class="l1" d="M273.364 503.36L289.178 503.36"/>
<path class="l1" d="M281.271 503.36L281.271 511.267"/>
<path class="l1" d="M336.62 503.36L352.434 503.36"/>
<path class="l1" d="M344.527 503.36L344.527 511.267"/>
<path class="l1" d="M399.877 503.36L415.691 503.36"/>
<path class="l1" d="M407.784 503.36L407.784 511.267"/>
<path class="l1" d="M463.133 503.36L478.947 503.36"/>
<path class="l1" d="M471.04 503.36L471.04 511.267"/>
<path class="l1" d="M526.39 503.36L542.204 503.36"/>
<path class="l1" d="M534.297 503.36L534.297 511.267"/>
<path class="l1" d="M589.646 503.36L605.461 503.36"/>
<path class="l1" d="M597.553 503.36L597.553 511.267"/>
<path class="l1" d="M652.903 503.36L668.717 503.36"/>
<path class="l1" d="M660.81 503.36L660.81 511.267"/>
<path class="l1" d="M716.16 503.36L731.974 503.36"/>
<path class="l1" d="M724.067 503.36L724.067 511.267"/>
<path class="l1" d="M779.416 503.36L795.23 503.36"/>
<path class="l1" d="M787.323 503.36L787.323 511.267"/>
<path class="l1" d="M842.673 503.36L858.487 503.36"/>
<path class="l1" d="M850.58 503.36L850.58 511.267"/>
<path class="l1" d="M913.836 503.36L913.836 511.267"/>
<path class="l1" d="M905.929 503.36L913.836 503.36"/>
<path class="l1" d="M91.5009 258.241L91.5009 345.219"/>
<circle class="l1" cx="91.5009" cy="258.241" r="2.92562"/>
<circle class="l1" cx="91.5009" cy="345.219" r="2.92562"/>
<circle class="l1" cx="281.271" cy="503.36" r="2.92562"/>
<circle class="l1" cx="218.014" cy="503.36" r="2.92562"/>
<circle class="l1" cx="154.757" cy="503.36" r="2.92562"/>
<circle class="l1" cx="91.5009" cy="258.241" r="2.92562"/>
<circle class="l1" cx="91.5009" cy="258.241" r="2.92562"/>
<circle class="l1" cx="154.757" cy="258.241" r="2.92562"/>
<circle class="l1" cx="218.014" cy="258.241" r="2.92562"/>
<circle class="l1" cx="281.271" cy="258.241" r="2.92562"/>
<circle class="l1" cx="312.899" cy="384.754" r="2.92562"/>
<circle class="l1" cx="376.155" cy="384.754" r="2.92562"/>
<circle class="l1" cx="289.178" cy="376.847" r="2.92562"/>
<circle class="l1" cx="289.178" cy="376.847" r="2.92562"/>
<circle class="l1" cx="289.178" cy="376.847" r="2.92562"/>
<circle class="l1" cx="249.642" cy="384.754" r="2.92562"/>
<circle class="l1" cx="312.899" cy="384.754" r="2.92562"/>
<circle class="l1" cx="225.921" cy="376.847" r="2.92562"/>
<circle class="l1" cx="225.921" cy="376.847" r="2.92562"/>
<circle class="l1" cx="225.921" cy="376.847" r="2.92562"/>
<circle class="l1" cx="186.386" cy="384.754" r="2.92562"/>
<circle class="l1" cx="249.642" cy="384.754" r="2.92562"/>
<circle class="l1" cx="162.665" cy="376.847" r="2.92562"/>
<circle class="l1" cx="162.665" cy="376.847" r="2.92562"/>
<circle class="l1" cx="162.665" cy="376.847" r="2.92562"/>
<circle class="l1" cx="123.129" cy="384.754" r="2.92562"/>
<circle class="l1" cx="186.386" cy="384.754" r="2.92562"/>
<circle class="l1" cx="91.5009" cy="345.219" r="2.92562"/>
<circle class="l1" cx="91.5009" cy="345.219" r="2.92562"/>
<circle class="l1" cx="123.129" cy="384.754" r="2.92562"/>
<circle class="l1" cx="597.553" cy="503.36" r="2.92562"/>
<circle class="l1" cx="534.297" cy="503.36" r="2.92562"/>
<circle class="l1" cx="471.04" cy="503.36" r="2.92562"/>
<circle class="l1" cx="407.784" cy="503.36" r="2.92562"/>
<circle class="l1" cx="344.527" cy="503.36" r="2.92562"/>
<circle class="l1" cx="344.527" cy="258.241" r="2.92562"/>
<circle class="l1" cx="407.784" cy="258.241" r="2.92562"/>
<circle class="l1" cx="471.04" cy="258.241" r="2.92562"/>
<circle class="l1" cx="534.297" cy="258.241" r="2.92562"/>
<circle class="l1" cx="597.553" cy="258.241" r="2.92562"/>
<circle class="l1" cx="629.182" cy="384.754" r="2.92562"/>
<circle class="l1" cx="692.438" cy="384.754" r="2.92562"/>
<circle class="l1" cx="605.461" cy="376.847" r="2.92562"/>
<circle class="l1" cx="605.461" cy="376.847" r="2.92562"/>
<circle class="l1" cx="605.461" cy="376.847" r="2.92562"/>
<circle class="l1" cx="565.925" cy="384.754" r="2.92562"/>
<circle class="l1" cx="629.182" cy="384.754" r="2.92562"/>
<circle class="l1" cx="542.204" cy="376.847" r="2.92562"/>
<circle class="l1" cx="542.204" cy="376.847" r="2.92562"/>
<circle class="l1" cx="542.204" cy="376.847" r="2.92562"/>
<circle class="l1" cx="502.669" cy="384.754" r="2.92562"/>
<circle class="l1" cx="565.925" cy="384.754" r="2.92562"/>
<circle class="l1" cx="478.947" cy="376.847" r="2.92562"/>
<circle class="l1" cx="478.947" cy="376.847" r="2.92562"/>
<circle class="l1" cx="478.947" cy="376.847" r="2.92562"/>
<circle class="l1" cx="439.412" cy="384.754" r="2.92562"/>
<circle class="l1" cx="502.669" cy="384.754" r="2.92562"/>
<circle class="l1" cx="415.691" cy="376.847" r="2.92562"/>
<circle class="l1" cx="415.691" cy="376.847" r="2.92562"/>
<circle class="l1" cx="415.691" cy="376.847" r="2.92562"/>
<circle class="l1" cx="376.155" cy="384.754" r="2.92562"/>
<circle class="l1" cx="439.412" cy="384.754" r="2.92562"/>
<circle class="l1" cx="352.434" cy="376.847" r="2.92562"/>
<circle class="l1" cx="352.434" cy="376.847" r="2.92562"/>
<circle class="l1" cx="352.434" cy="376.847" r="2.92562"/>
<circle class="l1" cx="850.58" cy="503.36" r="2.92562"/>
<circle class="l1" cx="787.323" cy="503.36" r="2.92562"/>
<circle class="l1" cx="724.067" cy="503.36" r="2.92562"/>
<circle class="l1" cx="660.81" cy="503.36" r="2.92562"/>
<circle class="l1" cx="660.81" cy="258.241" r="2.92562"/>
<circle class="l1" cx="724.067" cy="258.241" r="2.92562"/>
<circle class="l1" cx="787.323" cy="258.241" r="2.92562"/>
<circle class="l1" cx="850.58" cy="258.241" r="2.92562"/>
<circle class="l1" cx="882.208" cy="384.754" r="2.92562"/>
<circle class="l1" cx="858.487" cy="376.847" r="2.92562"/>
<circle class="l1" cx="858.487" cy="376.847" r="2.92562"/>
<circle class="l1" cx="858.487" cy="376.847" r="2.92562"/>
<circle class="l1" cx="818.951" cy="384.754" r="2.92562"/>
<circle class="l1" cx="882.208" cy="384.754" r="2.92562"/>
<circle class="l1" cx="795.23" cy="376.847" r="2.92562"/>
<circle class="l1" cx="795.23" cy="376.847" r="2.92562"/>
<circle class="l1" cx="795.23" cy="376.847" r="2.92562"/>
<circle class="l1" cx="755.695" cy="384.754" r="2.92562"/>
<circle class="l1" cx="818.951" cy="384.754" r="2.92562"/>
<circle class="l1" cx="731.974" cy="376.847" r="2.92562"/>
<circle class="l1" cx="731.974" cy="376.847" r="2.92562"/>
<circle class="l1" cx="731.974" cy="376.847" r="2.92562"/>
<circle class="l1" cx="692.438" cy="384.754" r="2.92562"/>
<circle class="l1" cx="755.695" cy="384.754" r="2.92562"/>
<circle class="l1" cx="668.717" cy="376.847" r="2.92562"/>
<circle class="l1" cx="668.717" cy="376.847" r="2.92562"/>
<circle class="l1" cx="668.717" cy="376.847" r="2.92562"/>
</svg>
