<svg xmlns="http://www.w3.org/2000/svg" xmlns:xlink="http://www.w3.org/1999/xlink" width="1000" height="700" version="1.1">
<style type="text/css">
.l0{
  fill: #ffffff;
  stroke: #ffffff;
  stroke-linecap:round;
  stroke-linejoin:round;
  stroke-width: 0.402088;
}
.l1{
  fill: #000000;
  stroke: #000000;
  stroke-linecap:round;
  stroke-linejoin:round;
  stroke-width: 0.402088;
}
.l2{
  fill: #000000; fill-opacity: 0.2;
  stroke: #000000;
  stroke-linecap:round;
  stroke-linejoin:round;
  stroke-width: 0.402088;
}
.l3{
  fill: #000000; fill-opacity: 0.5;
  stroke: #000000;
  stroke-linecap:round;
  stroke-linejoin:round;
  stroke-width: 0.402088;
}
.l4{
  fill: #000000;
  stroke: #000000;
  stroke-linecap:round;
  stroke-linejoin:round;
  stroke-width: 0.402088;
}
.l5{
  fill: #000000;
  stroke: #000000;
  stroke-linecap:round;
  stroke-linejoin:round;
  stroke-width: 0.402088;
}
.l6{
  fill: #000000; fill-opacity: 0.5;
  stroke: #000000;
  stroke-linecap:round;
  stroke-linejoin:round;
  stroke-width: 0.402088;
}
.l7{
  fill: #000000; fill-opacity: 0.5;
  stroke: #000000;
  stroke-linecap:round;
  stroke-linejoin:round;
  stroke-width: 0.402088;
}
.l8{
  fill: #000000; fill-opacity: 0.5;
  stroke: #000000;
  stroke-linecap:round;
  stroke-linejoin:round;
  stroke-width: 0.402088;
}
.l9{
  fill: #000000; fill-opacity: 0.5;
  stroke: #000000;
  stroke-linecap:round;
  stroke-linejoin:round;
  stroke-width: 0.402088;
}
.l10{
  fill: #000000;
  stroke: #000000;
  stroke-linecap:round;
  stroke-linejoin:round;
  stroke-width: 0.402088;
}
.l11{
  fill: #000000; fill-opacity: 0.5;
  stroke: #000000;
  stroke-linecap:round;
  stroke-linejoin:round;
  stroke-width: 0.402088;
}
.l12{
  fill: #000000; fill-opacity: 0.5;
  stroke: #000000;
  stroke-linecap:round;
  stroke-linejoin:round;
  stroke-width: 0.402088;
}
.l13{
  fill: #000000; fill-opacity: 0.5;
  stroke: #000000;
  stroke-linecap:round;
  stroke-linejoin:round;
  stroke-width: 0.402088;
}
.l14{
  fill: #000000; fill-opacity: 0.2;
  stroke: #000000;
  stroke-linecap:round;
  stroke-linejoin:round;
  stroke-width: 0.402088;
}
.l15{
  fill: #000000; fill-opacity: 0.5;
  stroke: #000000;
  stroke-linecap:round;
  stroke-linejoin:round;
  stroke-width: 0.402088;
}
.l16{
  fill: #000000; fill-opacity: 0.5;
  stroke: #000000;
  stroke-linecap:round;
  stroke-linejoin:round;
  stroke-width: 0.402088;
}
.l17{
  fill: #000000; fill-opacity: 0.2;
  stroke: #000000;
  stroke-linecap:round;
  stroke-linejoin:round;
  stroke-width: 0.402088;
}
.l18{
  fill: #000000; fill-opacity: 0.5;
  stroke: #000000;
  stroke-linecap:round;
  stroke-linejoin:round;
  stroke-width: 0.402088;
}
.l19{
  fill: #000000; fill-opacity: 0.2;
  stroke: #000000;
  stroke-linecap:round;
  stroke-linejoin:round;
  stroke-width: 0.402088;
}
.l20{
  fill: #000000; fill-opacity: 0.2;
  stroke: #000000;
  stroke-linecap:round;
  stroke-linejoin:round;
  stroke-width: 0.402088;
}
.l21{
  fill: #000000; fill-opacity: 0.2;
  stroke: #000000;
  stroke-linecap:round;
  stroke-linejoin:round;
  stroke-width: 0.402088;
}
text {font-family: Sans-Serif;}
</style>
<rect class="l0" x="0" y="0" width="1000" height="700"/>
<path class="l4" d="M67.6437 341.646L72.1114 341.646"/>
<path class="l4" d="M72.1114 341.646L72.1114 346.114"/>
<path class="l4" d="M70.436 346.114L82.722 346.114"/>
<path class="l4" d="M81.0467 341.646L81.0467 346.114"/>
<path class="l4" d="M81.0467 341.646L85.5143 341.646"/>
<path class="l4" d="M72.1114 347.231L81.0467 347.231"/>
<path class="l4" d="M76.579 348.906L76.579 350.582"/>
<circle class="l4" cx="76.579" cy="348.069" r="0.837683" style="fill:none;" />
<path class="l4" d="M52.7516 347.603L52.7516 352.071"/>
<path class="l4" d="M48.2839 352.071L52.7516 352.071"/>
<path class="l4" d="M48.2839 350.396L48.2839 362.682"/>
<path class="l4" d="M48.2839 361.006L52.7516 361.006"/>
<path class="l4" d="M52.7516 361.006L52.7516 365.474"/>
<path class="l4" d="M47.167 352.071L47.167 361.006"/>
<path class="l4" d="M43.8163 356.539L45.4917 356.539"/>
<circle class="l4" cx="46.3294" cy="356.539" r="0.837683" style="fill:none;" />
<path class="l4" d="M118.277 341.646L122.745 341.646"/>
<path class="l4" d="M122.745 341.646L122.745 346.114"/>
<path class="l4" d="M121.069 346.114L133.355 346.114"/>
<path class="l4" d="M131.68 341.646L131.68 346.114"/>
<path class="l4" d="M131.68 341.646L136.148 341.646"/>
<path class="l4" d="M122.745 347.231L131.68 347.231"/>
<path class="l4" d="M127.212 348.906L127.212 350.582"/>
<circle class="l4" cx="127.212" cy="348.069" r="0.837683" style="fill:none;" />
<path class="l4" d="M103.385 347.603L103.385 352.071"/>
<path class="l4" d="M98.9172 352.071L103.385 352.071"/>
<path class="l4" d="M98.9172 350.396L98.9172 362.682"/>
<path class="l4" d="M98.9172 361.006L103.385 361.006"/>
<path class="l4" d="M103.385 361.006L103.385 365.474"/>
<path class="l4" d="M97.8003 352.071L97.8003 361.006"/>
<path class="l4" d="M94.4496 356.539L96.125 356.539"/>
<circle class="l4" cx="96.9627" cy="356.539" r="0.837683" style="fill:none;" />
<path class="l4" d="M168.91 341.646L173.378 341.646"/>
<path class="l4" d="M173.378 341.646L173.378 346.114"/>
<path class="l4" d="M171.703 346.114L183.989 346.114"/>
<path class="l4" d="M182.313 341.646L182.313 346.114"/>
<path class="l4" d="M182.313 341.646L186.781 341.646"/>
<path class="l4" d="M173.378 347.231L182.313 347.231"/>
<path class="l4" d="M177.846 348.906L177.846 350.582"/>
<circle class="l4" cx="177.846" cy="348.069" r="0.837683" style="fill:none;" />
<path class="l4" d="M154.018 347.603L154.018 352.071"/>
<path class="l4" d="M149.551 352.071L154.018 352.071"/>
<path class="l4" d="M149.551 350.396L149.551 362.682"/>
<path class="l4" d="M149.551 361.006L154.018 361.006"/>
<path class="l4" d="M154.018 361.006L154.018 365.474"/>
<path class="l4" d="M148.434 352.071L148.434 361.006"/>
<path class="l4" d="M145.083 356.539L146.758 356.539"/>
<circle class="l4" cx="147.596" cy="356.539" r="0.837683" style="fill:none;" />
<path class="l4" d="M219.544 341.646L224.011 341.646"/>
<path class="l4" d="M224.011 341.646L224.011 346.114"/>
<path class="l4" d="M222.336 346.114L234.622 346.114"/>
<path class="l4" d="M232.947 341.646L232.947 346.114"/>
<path class="l4" d="M232.947 341.646L237.414 341.646"/>
<path class="l4" d="M224.011 347.231L232.947 347.231"/>
<path class="l4" d="M228.479 348.906L228.479 350.582"/>
<circle class="l4" cx="228.479" cy="348.069" r="0.837683" style="fill:none;" />
<path class="l4" d="M204.651 347.603L204.651 352.071"/>
<path class="l4" d="M200.184 352.071L204.651 352.071"/>
<path class="l4" d="M200.184 350.396L200.184 362.682"/>
<path class="l4" d="M200.184 361.006L204.651 361.006"/>
<path class="l4" d="M204.651 361.006L204.651 365.474"/>
<path class="l4" d="M199.067 352.071L199.067 361.006"/>
<path class="l4" d="M195.716 356.539L197.392 356.539"/>
<circle class="l4" cx="198.229" cy="356.539" r="0.837683" style="fill:none;" />
<path class="l4" d="M270.177 341.646L274.645 341.646"/>
<path class="l4" d="M274.645 341.646L274.645 346.114"/>
<path class="l4" d="M272.969 346.114L285.255 346.114"/>
<path class="l4" d="M283.58 341.646L283.58 346.114"/>
<path class="l4" d="M283.58 341.646L288.048 341.646"/>
<path class="l4" d="M274.645 347.231L283.58 347.231"/>
<path class="l4" d="M279.112 348.906L279.112 350.582"/>
<circle class="l4" cx="279.112" cy="348.069" r="0.837683" style="fill:none;" />
<path class="l4" d="M255.285 347.603L255.285 352.071"/>
<path class="l4" d="M250.817 352.071L255.285 352.071"/>
<path class="l4" d="M250.817 350.396L250.817 362.682"/>
<path class="l4" d="M250.817 361.006L255.285 361.006"/>
<path class="l4" d="M255.285 361.006L255.285 365.474"/>
<path class="l4" d="M249.7 352.071L249.7 361.006"/>
<path class="l4" d="M246.35 356.539L248.025 356.539"/>
<circle class="l4" cx="248.863" cy="356.539" r="0.837683" style="fill:none;" />
<path class="l4" d="M320.81 341.646L325.278 341.646"/>
<path class="l4" d="M325.278 341.646L325.278 346.114"/>
<path class="l4" d="M323.603 346.114L335.889 346.114"/>
<path class="l4" d="M334.213 341.646L334.213 346.114"/>
<path class="l4" d="M334.213 341.646L338.681 341.646"/>
<path class="l4" d="M325.278 347.231L334.213 347.231"/>
<path class="l4" d="M329.746 348.906L329.746 350.582"/>
<circle class="l4" cx="329.746" cy="348.069" r="0.837683" style="fill:none;" />
<path class="l4" d="M305.918 347.603L305.918 352.071"/>
<path class="l4" d="M301.45 352.071L305.918 352.071"/>
<path class="l4" d="M301.45 350.396L301.45 362.682"/>
<path class="l4" d="M301.45 361.006L305.918 361.006"/>
<path class="l4" d="M305.918 361.006L305.918 365.474"/>
<path class="l4" d="M300.334 352.071L300.334 361.006"/>
<path class="l4" d="M296.983 356.539L298.658 356.539"/>
<circle class="l4" cx="299.496" cy="356.539" r="0.837683" style="fill:none;" />
<path class="l4" d="M371.444 341.646L375.911 341.646"/>
<path class="l4" d="M375.911 341.646L375.911 346.114"/>
<path class="l4" d="M374.236 346.114L386.522 346.114"/>
<path class="l4" d="M384.846 341.646L384.846 346.114"/>
<path class="l4" d="M384.846 341.646L389.314 341.646"/>
<path class="l4" d="M375.911 347.231L384.846 347.231"/>
<path class="l4" d="M380.379 348.906L380.379 350.582"/>
<circle class="l4" cx="380.379" cy="348.069" r="0.837683" style="fill:none;" />
<path class="l4" d="M356.551 347.603L356.551 352.071"/>
<path class="l4" d="M352.084 352.071L356.551 352.071"/>
<path class="l4" d="M352.084 350.396L352.084 362.682"/>
<path class="l4" d="M352.084 361.006L356.551 361.006"/>
<path class="l4" d="M356.551 361.006L356.551 365.474"/>
<path class="l4" d="M350.967 352.071L350.967 361.006"/>
<path class="l4" d="M347.616 356.539L349.291 356.539"/>
<circle class="l4" cx="350.129" cy="356.539" r="0.837683" style="fill:none;" />
<path class="l4" d="M422.077 341.646L426.544 341.646"/>
<path class="l4" d="M426.544 341.646L426.544 346.114"/>
<path class="l4" d="M424.869 346.114L437.155 346.114"/>
<path class="l4" d="M435.48 341.646L435.48 346.114"/>
<path class="l4" d="M435.48 341.646L439.947 341.646"/>
<path class="l4" d="M426.544 347.231L435.48 347.231"/>
<path class="l4" d="M431.012 348.906L431.012 350.582"/>
<circle class="l4" cx="431.012" cy="348.069" r="0.837683" style="fill:none;" />
<path class="l4" d="M407.185 347.603L407.185 352.071"/>
<path class="l4" d="M402.717 352.071L407.185 352.071"/>
<path class="l4" d="M402.717 350.396L402.717 362.682"/>
<path class="l4" d="M402.717 361.006L407.185 361.006"/>
<path class="l4" d="M407.185 361.006L407.185 365.474"/>
<path class="l4" d="M401.6 352.071L401.6 361.006"/>
<path class="l4" d="M398.249 356.539L399.925 356.539"/>
<circle class="l4" cx="400.762" cy="356.539" r="0.837683" style="fill:none;" />
<path class="l4" d="M472.71 341.646L477.178 341.646"/>
<path class="l4" d="M477.178 341.646L477.178 346.114"/>
<path class="l4" d="M475.502 346.114L487.788 346.114"/>
<path class="l4" d="M486.113 341.646L486.113 346.114"/>
<path class="l4" d="M486.113 341.646L490.581 341.646"/>
<path class="l4" d="M477.178 347.231L486.113 347.231"/>
<path class="l4" d="M481.645 348.906L481.645 350.582"/>
<circle class="l4" cx="481.645" cy="348.069" r="0.837683" style="fill:none;" />
<path class="l4" d="M457.818 347.603L457.818 352.071"/>
<path class="l4" d="M453.35 352.071L457.818 352.071"/>
<path class="l4" d="M453.35 350.396L453.35 362.682"/>
<path class="l4" d="M453.35 361.006L457.818 361.006"/>
<path class="l4" d="M457.818 361.006L457.818 365.474"/>
<path class="l4" d="M452.233 352.071L452.233 361.006"/>
<path class="l4" d="M448.883 356.539L450.558 356.539"/>
<circle class="l4" cx="451.396" cy="356.539" r="0.837683" style="fill:none;" />
<path class="l4" d="M523.343 341.646L527.811 341.646"/>
<path class="l4" d="M527.811 341.646L527.811 346.114"/>
<path class="l4" d="M526.136 346.114L538.422 346.114"/>
<path class="l4" d="M536.746 341.646L536.746 346.114"/>
<path class="l4" d="M536.746 341.646L541.214 341.646"/>
<path class="l4" d="M527.811 347.231L536.746 347.231"/>
<path class="l4" d="M532.279 348.906L532.279 350.582"/>
<circle class="l4" cx="532.279" cy="348.069" r="0.837683" style="fill:none;" />
<path class="l4" d="M508.451 347.603L508.451 352.071"/>
<path class="l4" d="M503.984 352.071L508.451 352.071"/>
<path class="l4" d="M503.984 350.396L503.984 362.682"/>
<path class="l4" d="M503.984 361.006L508.451 361.006"/>
<path class="l4" d="M508.451 361.006L508.451 365.474"/>
<path class="l4" d="M502.867 352.071L502.867 361.006"/>
<path class="l4" d="M499.516 356.539L501.191 356.539"/>
<circle class="l4" cx="502.029" cy="356.539" r="0.837683" style="fill:none;" />
<path class="l4" d="M573.977 341.646L578.444 341.646"/>
<path class="l4" d="M578.444 341.646L578.444 346.114"/>
<path class="l4" d="M576.769 346.114L589.055 346.114"/>
<path class="l4" d="M587.38 341.646L587.38 346.114"/>
<path class="l4" d="M587.38 341.646L591.847 341.646"/>
<path class="l4" d="M578.444 347.231L587.38 347.231"/>
<path class="l4" d="M582.912 348.906L582.912 350.582"/>
<circle class="l4" cx="582.912" cy="348.069" r="0.837683" style="fill:none;" />
<path class="l4" d="M559.085 347.603L559.085 352.071"/>
<path class="l4" d="M554.617 352.071L559.085 352.071"/>
<path class="l4" d="M554.617 350.396L554.617 362.682"/>
<path class="l4" d="M554.617 361.006L559.085 361.006"/>
<path class="l4" d="M559.085 361.006L559.085 365.474"/>
<path class="l4" d="M553.5 352.071L553.5 361.006"/>
<path class="l4" d="M550.149 356.539L551.825 356.539"/>
<circle class="l4" cx="552.662" cy="356.539" r="0.837683" style="fill:none;" />
<path class="l4" d="M624.61 341.646L629.078 341.646"/>
<path class="l4" d="M629.078 341.646L629.078 346.114"/>
<path class="l4" d="M627.402 346.114L639.688 346.114"/>
<path class="l4" d="M638.013 341.646L638.013 346.114"/>
<path class="l4" d="M638.013 341.646L642.481 341.646"/>
<path class="l4" d="M629.078 347.231L638.013 347.231"/>
<path class="l4" d="M633.545 348.906L633.545 350.582"/>
<circle class="l4" cx="633.545" cy="348.069" r="0.837683" style="fill:none;" />
<path class="l4" d="M609.718 347.603L609.718 352.071"/>
<path class="l4" d="M605.25 352.071L609.718 352.071"/>
<path class="l4" d="M605.25 350.396L605.25 362.682"/>
<path class="l4" d="M605.25 361.006L609.718 361.006"/>
<path class="l4" d="M609.718 361.006L609.718 365.474"/>
<path class="l4" d="M604.133 352.071L604.133 361.006"/>
<path class="l4" d="M600.783 356.539L602.458 356.539"/>
<circle class="l4" cx="603.296" cy="356.539" r="0.837683" style="fill:none;" />
<path class="l4" d="M675.243 341.646L679.711 341.646"/>
<path class="l4" d="M679.711 341.646L679.711 346.114"/>
<path class="l4" d="M678.036 346.114L690.322 346.114"/>
<path class="l4" d="M688.646 341.646L688.646 346.114"/>
<path class="l4" d="M688.646 341.646L693.114 341.646"/>
<path class="l4" d="M679.711 347.231L688.646 347.231"/>
<path class="l4" d="M684.179 348.906L684.179 350.582"/>
<circle class="l4" cx="684.179" cy="348.069" r="0.837683" style="fill:none;" />
<path class="l4" d="M660.351 347.603L660.351 352.071"/>
<path class="l4" d="M655.884 352.071L660.351 352.071"/>
<path class="l4" d="M655.884 350.396L655.884 362.682"/>
<path class="l4" d="M655.884 361.006L660.351 361.006"/>
<path class="l4" d="M660.351 361.006L660.351 365.474"/>
<path class="l4" d="M654.767 352.071L654.767 361.006"/>
<path class="l4" d="M651.416 356.539L653.091 356.539"/>
<circle class="l4" cx="653.929" cy="356.539" r="0.837683" style="fill:none;" />
<path class="l4" d="M725.877 341.646L730.344 341.646"/>
<path class="l4" d="M730.344 341.646L730.344 346.114"/>
<path class="l4" d="M728.669 346.114L740.955 346.114"/>
<path class="l4" d="M739.28 341.646L739.28 346.114"/>
<path class="l4" d="M739.28 341.646L743.747 341.646"/>
<path class="l4" d="M730.344 347.231L739.28 347.231"/>
<path class="l4" d="M734.812 348.906L734.812 350.582"/>
<circle class="l4" cx="734.812" cy="348.069" r="0.837683" style="fill:none;" />
<path class="l4" d="M710.984 347.603L710.984 352.071"/>
<path class="l4" d="M706.517 352.071L710.984 352.071"/>
<path class="l4" d="M706.517 350.396L706.517 362.682"/>
<path class="l4" d="M706.517 361.006L710.984 361.006"/>
<path class="l4" d="M710.984 361.006L710.984 365.474"/>
<path class="l4" d="M705.4 352.071L705.4 361.006"/>
<path class="l4" d="M702.049 356.539L703.725 356.539"/>
<circle class="l4" cx="704.562" cy="356.539" r="0.837683" style="fill:none;" />
<path class="l4" d="M776.51 341.646L780.978 341.646"/>
<path class="l4" d="M780.978 341.646L780.978 346.114"/>
<path class="l4" d="M779.302 346.114L791.588 346.114"/>
<path class="l4" d="M789.913 341.646L789.913 346.114"/>
<path class="l4" d="M789.913 341.646L794.381 341.646"/>
<path class="l4" d="M780.978 347.231L789.913 347.231"/>
<path class="l4" d="M785.445 348.906L785.445 350.582"/>
<circle class="l4" cx="785.445" cy="348.069" r="0.837683" style="fill:none;" />
<path class="l4" d="M761.618 347.603L761.618 352.071"/>
<path class="l4" d="M757.15 352.071L761.618 352.071"/>
<path class="l4" d="M757.15 350.396L757.15 362.682"/>
<path class="l4" d="M757.15 361.006L761.618 361.006"/>
<path class="l4" d="M761.618 361.006L761.618 365.474"/>
<path class="l4" d="M756.033 352.071L756.033 361.006"/>
<path class="l4" d="M752.683 356.539L754.358 356.539"/>
<circle class="l4" cx="755.196" cy="356.539" r="0.837683" style="fill:none;" />
<path class="l4" d="M812.251 347.603L812.251 352.071"/>
<path class="l4" d="M807.783 352.071L812.251 352.071"/>
<path class="l4" d="M807.783 350.396L807.783 362.682"/>
<path class="l4" d="M807.783 361.006L812.251 361.006"/>
<path class="l4" d="M812.251 361.006L812.251 365.474"/>
<path class="l4" d="M806.667 352.071L806.667 361.006"/>
<path class="l4" d="M803.316 356.539L804.991 356.539"/>
<circle class="l4" cx="805.829" cy="356.539" r="0.837683" style="fill:none;" />
<path class="l4" d="M827.143 341.646L831.611 341.646"/>
<path class="l4" d="M831.611 341.646L831.611 346.114"/>
<path class="l4" d="M829.936 346.114L842.222 346.114"/>
<path class="l4" d="M840.546 341.646L840.546 346.114"/>
<path class="l4" d="M840.546 341.646L845.014 341.646"/>
<path class="l4" d="M831.611 347.231L840.546 347.231"/>
<path class="l4" d="M836.079 348.906L836.079 350.582"/>
<circle class="l4" cx="836.079" cy="348.069" r="0.837683" style="fill:none;" />
<path class="l4" d="M862.884 347.603L862.884 352.071"/>
<path class="l4" d="M858.417 352.071L862.884 352.071"/>
<path class="l4" d="M858.417 350.396L858.417 362.682"/>
<path class="l4" d="M858.417 361.006L862.884 361.006"/>
<path class="l4" d="M862.884 361.006L862.884 365.474"/>
<path class="l4" d="M857.3 352.071L857.3 361.006"/>
<path class="l4" d="M853.949 356.539L855.624 356.539"/>
<circle class="l4" cx="856.462" cy="356.539" r="0.837683" style="fill:none;" />
<path class="l4" d="M877.777 341.646L882.244 341.646"/>
<path class="l4" d="M882.244 341.646L882.244 346.114"/>
<path class="l4" d="M880.569 346.114L892.855 346.114"/>
<path class="l4" d="M891.179 341.646L891.179 346.114"/>
<path class="l4" d="M891.179 341.646L895.647 341.646"/>
<path class="l4" d="M882.244 347.231L891.179 347.231"/>
<path class="l4" d="M886.712 348.906L886.712 350.582"/>
<circle class="l4" cx="886.712" cy="348.069" r="0.837683" style="fill:none;" />
<path class="l4" d="M913.518 347.603L913.518 352.071"/>
<path class="l4" d="M909.05 352.071L913.518 352.071"/>
<path class="l4" d="M909.05 350.396L909.05 362.682"/>
<path class="l4" d="M909.05 361.006L913.518 361.006"/>
<path class="l4" d="M913.518 361.006L913.518 365.474"/>
<path class="l4" d="M907.933 352.071L907.933 361.006"/>
<path class="l4" d="M904.582 356.539L906.258 356.539"/>
<circle class="l4" cx="907.095" cy="356.539" r="0.837683" style="fill:none;" />
<path class="l4" d="M928.41 341.646L932.877 341.646"/>
<path class="l4" d="M932.877 341.646L932.877 346.114"/>
<path class="l4" d="M931.202 346.114L943.488 346.114"/>
<path class="l4" d="M941.813 341.646L941.813 346.114"/>
<path class="l4" d="M941.813 341.646L946.28 341.646"/>
<path class="l4" d="M932.877 347.231L941.813 347.231"/>
<path class="l4" d="M937.345 348.906L937.345 350.582"/>
<circle class="l4" cx="937.345" cy="348.069" r="0.837683" style="fill:none;" />
<path class="l4" d="M964.151 347.603L964.151 352.071"/>
<path class="l4" d="M959.683 352.071L964.151 352.071"/>
<path class="l4" d="M959.683 350.396L959.683 362.682"/>
<path class="l4" d="M959.683 361.006L964.151 361.006"/>
<path class="l4" d="M964.151 361.006L964.151 365.474"/>
<path class="l4" d="M958.566 352.071L958.566 361.006"/>
<path class="l4" d="M955.216 356.539L956.891 356.539"/>
<circle class="l4" cx="957.729" cy="356.539" r="0.837683" style="fill:none;" />
<path class="l5" d="M85.3654 341.498L85.6632 341.498L85.6632 341.795L85.3654 341.795L85.3654 341.498z"/>
<path class="l5" d="M76.4301 350.433L76.7279 350.433L76.7279 350.731L76.4301 350.731L76.4301 350.433z"/>
<path class="l5" d="M67.4948 341.498L67.7927 341.498L67.7927 341.795L67.4948 341.795L67.4948 341.498z"/>
<path class="l5" d="M36.3702 356.539L37.8594 356.539"/>
<path class="l5" d="M36.3702 356.539L35.2533 355.049L32.6472 355.049L33.7641 356.539L32.6472 358.028L35.2533 358.028L36.3702 356.539"/>
<path class="l5" d="M37.4871 356.166L38.2317 356.166L38.2317 356.911L37.4871 356.911L37.4871 356.166z"/>
<path class="l5" d="M52.6027 365.325L52.9005 365.325L52.9005 365.623L52.6027 365.623L52.6027 365.325z"/>
<path class="l5" d="M43.6674 356.39L43.9652 356.39L43.9652 356.688L43.6674 356.688L43.6674 356.39z"/>
<path class="l5" d="M52.6027 347.454L52.9005 347.454L52.9005 347.752L52.6027 347.752L52.6027 347.454z"/>
<path class="l5" d="M135.999 341.498L136.297 341.498L136.297 341.795L135.999 341.795L135.999 341.498z"/>
<path class="l5" d="M127.063 350.433L127.361 350.433L127.361 350.731L127.063 350.731L127.063 350.433z"/>
<path class="l5" d="M118.128 341.498L118.426 341.498L118.426 341.795L118.128 341.795L118.128 341.498z"/>
<path class="l5" d="M103.236 365.325L103.534 365.325L103.534 365.623L103.236 365.623L103.236 365.325z"/>
<path class="l5" d="M94.3007 356.39L94.5985 356.39L94.5985 356.688L94.3007 356.688L94.3007 356.39z"/>
<path class="l5" d="M103.236 347.454L103.534 347.454L103.534 347.752L103.236 347.752L103.236 347.454z"/>
<path class="l5" d="M186.632 341.498L186.93 341.498L186.93 341.795L186.632 341.795L186.632 341.498z"/>
<path class="l5" d="M177.697 350.433L177.995 350.433L177.995 350.731L177.697 350.731L177.697 350.433z"/>
<path class="l5" d="M168.761 341.498L169.059 341.498L169.059 341.795L168.761 341.795L168.761 341.498z"/>
<path class="l5" d="M153.869 365.325L154.167 365.325L154.167 365.623L153.869 365.623L153.869 365.325z"/>
<path class="l5" d="M144.934 356.39L145.232 356.39L145.232 356.688L144.934 356.688L144.934 356.39z"/>
<path class="l5" d="M153.869 347.454L154.167 347.454L154.167 347.752L153.869 347.752L153.869 347.454z"/>
<path class="l5" d="M237.265 341.498L237.563 341.498L237.563 341.795L237.265 341.795L237.265 341.498z"/>
<path class="l5" d="M228.33 350.433L228.628 350.433L228.628 350.731L228.33 350.731L228.33 350.433z"/>
<path class="l5" d="M219.395 341.498L219.693 341.498L219.693 341.795L219.395 341.795L219.395 341.498z"/>
<path class="l5" d="M204.503 365.325L204.8 365.325L204.8 365.623L204.503 365.623L204.503 365.325z"/>
<path class="l5" d="M195.567 356.39L195.865 356.39L195.865 356.688L195.567 356.688L195.567 356.39z"/>
<path class="l5" d="M204.503 347.454L204.8 347.454L204.8 347.752L204.503 347.752L204.503 347.454z"/>
<path class="l5" d="M287.899 341.498L288.196 341.498L288.196 341.795L287.899 341.795L287.899 341.498z"/>
<path class="l5" d="M278.963 350.433L279.261 350.433L279.261 350.731L278.963 350.731L278.963 350.433z"/>
<path class="l5" d="M270.028 341.498L270.326 341.498L270.326 341.795L270.028 341.795L270.028 341.498z"/>
<path class="l5" d="M255.136 365.325L255.434 365.325L255.434 365.623L255.136 365.623L255.136 365.325z"/>
<path class="l5" d="M246.201 356.39L246.498 356.39L246.498 356.688L246.201 356.688L246.201 356.39z"/>
<path class="l5" d="M255.136 347.454L255.434 347.454L255.434 347.752L255.136 347.752L255.136 347.454z"/>
<path class="l5" d="M338.532 341.498L338.83 341.498L338.83 341.795L338.532 341.795L338.532 341.498z"/>
<path class="l5" d="M329.597 350.433L329.894 350.433L329.894 350.731L329.597 350.731L329.597 350.433z"/>
<path class="l5" d="M320.661 341.498L320.959 341.498L320.959 341.795L320.661 341.795L320.661 341.498z"/>
<path class="l5" d="M305.769 365.325L306.067 365.325L306.067 365.623L305.769 365.623L305.769 365.325z"/>
<path class="l5" d="M296.834 356.39L297.132 356.39L297.132 356.688L296.834 356.688L296.834 356.39z"/>
<path class="l5" d="M305.769 347.454L306.067 347.454L306.067 347.752L305.769 347.752L305.769 347.454z"/>
<path class="l5" d="M389.165 341.498L389.463 341.498L389.463 341.795L389.165 341.795L389.165 341.498z"/>
<path class="l5" d="M380.23 350.433L380.528 350.433L380.528 350.731L380.23 350.731L380.23 350.433z"/>
<path class="l5" d="M371.295 341.498L371.592 341.498L371.592 341.795L371.295 341.795L371.295 341.498z"/>
<path class="l5" d="M356.402 365.325L356.7 365.325L356.7 365.623L356.402 365.623L356.402 365.325z"/>
<path class="l5" d="M347.467 356.39L347.765 356.39L347.765 356.688L347.467 356.688L347.467 356.39z"/>
<path class="l5" d="M356.402 347.454L356.7 347.454L356.7 347.752L356.402 347.752L356.402 347.454z"/>
<path class="l5" d="M439.798 341.498L440.096 341.498L440.096 341.795L439.798 341.795L439.798 341.498z"/>
<path class="l5" d="M430.863 350.433L431.161 350.433L431.161 350.731L430.863 350.731L430.863 350.433z"/>
<path class="l5" d="M421.928 341.498L422.226 341.498L422.226 341.795L421.928 341.795L421.928 341.498z"/>
<path class="l5" d="M407.036 365.325L407.334 365.325L407.334 365.623L407.036 365.623L407.036 365.325z"/>
<path class="l5" d="M398.1 356.39L398.398 356.39L398.398 356.688L398.1 356.688L398.1 356.39z"/>
<path class="l5" d="M407.036 347.454L407.334 347.454L407.334 347.752L407.036 347.752L407.036 347.454z"/>
<path class="l5" d="M490.432 341.498L490.73 341.498L490.73 341.795L490.432 341.795L490.432 341.498z"/>
<path class="l5" d="M481.497 350.433L481.794 350.433L481.794 350.731L481.497 350.731L481.497 350.433z"/>
<path class="l5" d="M472.561 341.498L472.859 341.498L472.859 341.795L472.561 341.795L472.561 341.498z"/>
<path class="l5" d="M457.669 365.325L457.967 365.325L457.967 365.623L457.669 365.623L457.669 365.325z"/>
<path class="l5" d="M448.734 356.39L449.032 356.39L449.032 356.688L448.734 356.688L448.734 356.39z"/>
<path class="l5" d="M457.669 347.454L457.967 347.454L457.967 347.752L457.669 347.752L457.669 347.454z"/>
<path class="l5" d="M541.065 341.498L541.363 341.498L541.363 341.795L541.065 341.795L541.065 341.498z"/>
<path class="l5" d="M532.13 350.433L532.428 350.433L532.428 350.731L532.13 350.731L532.13 350.433z"/>
<path class="l5" d="M523.195 341.498L523.492 341.498L523.492 341.795L523.195 341.795L523.195 341.498z"/>
<path class="l5" d="M508.302 365.325L508.6 365.325L508.6 365.623L508.302 365.623L508.302 365.325z"/>
<path class="l5" d="M499.367 356.39L499.665 356.39L499.665 356.688L499.367 356.688L499.367 356.39z"/>
<path class="l5" d="M508.302 347.454L508.6 347.454L508.6 347.752L508.302 347.752L508.302 347.454z"/>
<path class="l5" d="M591.698 341.498L591.996 341.498L591.996 341.795L591.698 341.795L591.698 341.498z"/>
<path class="l5" d="M582.763 350.433L583.061 350.433L583.061 350.731L582.763 350.731L582.763 350.433z"/>
<path class="l5" d="M573.828 341.498L574.126 341.498L574.126 341.795L573.828 341.795L573.828 341.498z"/>
<path class="l5" d="M558.936 365.325L559.234 365.325L559.234 365.623L558.936 365.623L558.936 365.325z"/>
<path class="l5" d="M550 356.39L550.298 356.39L550.298 356.688L550 356.688L550 356.39z"/>
<path class="l5" d="M558.936 347.454L559.234 347.454L559.234 347.752L558.936 347.752L558.936 347.454z"/>
<path class="l5" d="M642.332 341.498L642.63 341.498L642.63 341.795L642.332 341.795L642.332 341.498z"/>
<path class="l5" d="M633.396 350.433L633.694 350.433L633.694 350.731L633.396 350.731L633.396 350.433z"/>
<path class="l5" d="M624.461 341.498L624.759 341.498L624.759 341.795L624.461 341.795L624.461 341.498z"/>
<path class="l5" d="M609.569 365.325L609.867 365.325L609.867 365.623L609.569 365.623L609.569 365.325z"/>
<path class="l5" d="M600.634 356.39L600.932 356.39L600.932 356.688L600.634 356.688L600.634 356.39z"/>
<path class="l5" d="M609.569 347.454L609.867 347.454L609.867 347.752L609.569 347.752L609.569 347.454z"/>
<path class="l5" d="M692.965 341.498L693.263 341.498L693.263 341.795L692.965 341.795L692.965 341.498z"/>
<path class="l5" d="M684.03 350.433L684.328 350.433L684.328 350.731L684.03 350.731L684.03 350.433z"/>
<path class="l5" d="M675.094 341.498L675.392 341.498L675.392 341.795L675.094 341.795L675.094 341.498z"/>
<path class="l5" d="M660.202 365.325L660.5 365.325L660.5 365.623L660.202 365.623L660.202 365.325z"/>
<path class="l5" d="M651.267 356.39L651.565 356.39L651.565 356.688L651.267 356.688L651.267 356.39z"/>
<path class="l5" d="M660.202 347.454L660.5 347.454L660.5 347.752L660.202 347.752L660.202 347.454z"/>
<path class="l5" d="M743.598 341.498L743.896 341.498L743.896 341.795L743.598 341.795L743.598 341.498z"/>
<path class="l5" d="M734.663 350.433L734.961 350.433L734.961 350.731L734.663 350.731L734.663 350.433z"/>
<path class="l5" d="M725.728 341.498L726.026 341.498L726.026 341.795L725.728 341.795L725.728 341.498z"/>
<path class="l5" d="M710.836 365.325L711.133 365.325L711.133 365.623L710.836 365.623L710.836 365.325z"/>
<path class="l5" d="M701.9 356.39L702.198 356.39L702.198 356.688L701.9 356.688L701.9 356.39z"/>
<path class="l5" d="M710.836 347.454L711.133 347.454L711.133 347.752L710.836 347.752L710.836 347.454z"/>
<path class="l5" d="M794.232 341.498L794.529 341.498L794.529 341.795L794.232 341.795L794.232 341.498z"/>
<path class="l5" d="M785.296 350.433L785.594 350.433L785.594 350.731L785.296 350.731L785.296 350.433z"/>
<path class="l5" d="M776.361 341.498L776.659 341.498L776.659 341.795L776.361 341.795L776.361 341.498z"/>
<path class="l5" d="M761.469 365.325L761.767 365.325L761.767 365.623L761.469 365.623L761.469 365.325z"/>
<path class="l5" d="M752.534 356.39L752.831 356.39L752.831 356.688L752.534 356.688L752.534 356.39z"/>
<path class="l5" d="M761.469 347.454L761.767 347.454L761.767 347.752L761.469 347.752L761.469 347.454z"/>
<path class="l5" d="M812.102 365.325L812.4 365.325L812.4 365.623L812.102 365.623L812.102 365.325z"/>
<path class="l5" d="M803.167 356.39L803.465 356.39L803.465 356.688L803.167 356.688L803.167 356.39z"/>
<path class="l5" d="M812.102 347.454L812.4 347.454L812.4 347.752L812.102 347.752L812.102 347.454z"/>
<path class="l5" d="M103.013 365.102L103.757 365.102L103.757 365.846L103.013 365.846L103.013 365.102z"/>
<path class="l5" d="M204.279 365.102L205.024 365.102L205.024 365.846L204.279 365.846L204.279 365.102z"/>
<path class="l5" d="M305.546 365.102L306.29 365.102L306.29 365.846L305.546 365.846L305.546 365.102z"/>
<path class="l5" d="M406.812 365.102L407.557 365.102L407.557 365.846L406.812 365.846L406.812 365.102z"/>
<path class="l5" d="M508.079 365.102L508.824 365.102L508.824 365.846L508.079 365.846L508.079 365.102z"/>
<path class="l5" d="M609.346 365.102L610.09 365.102L610.09 365.846L609.346 365.846L609.346 365.102z"/>
<path class="l5" d="M710.612 365.102L711.357 365.102L711.357 365.846L710.612 365.846L710.612 365.102z"/>
<path class="l5" d="M761.245 365.102L761.99 365.102L761.99 365.846L761.245 365.846L761.245 365.102z"/>
<path class="l5" d="M36.9287 341.646L37.8594 341.646"/>
<path class="l5" d="M33.7641 340.157L32.6472 341.646L33.7641 343.136L35.8118 343.136L36.9287 341.646L35.8118 340.157L33.7641 340.157"/>
<path class="l5" d="M37.4871 341.274L38.2317 341.274L38.2317 342.019L37.4871 342.019L37.4871 341.274z"/>
<path class="l5" d="M39.9071 320.797L40.8379 320.797"/>
<path class="l5" d="M36.7425 319.308L35.6256 320.797L36.7425 322.287L38.7902 322.287L39.9071 320.797L38.7902 319.308L36.7425 319.308"/>
<path class="l5" d="M40.4656 320.425L41.2102 320.425L41.2102 321.17L40.4656 321.17L40.4656 320.425z"/>
<path class="l5" d="M40.4656 320.425L41.2102 320.425L41.2102 321.17L40.4656 321.17L40.4656 320.425z"/>
<path class="l5" d="M52.3793 365.102L53.1239 365.102L53.1239 365.846L52.3793 365.846L52.3793 365.102z"/>
<path class="l5" d="M254.912 365.102L255.657 365.102L255.657 365.846L254.912 365.846L254.912 365.102z"/>
<path class="l5" d="M153.646 365.102L154.39 365.102L154.39 365.846L153.646 365.846L153.646 365.102z"/>
<path class="l5" d="M356.179 365.102L356.924 365.102L356.924 365.846L356.179 365.846L356.179 365.102z"/>
<path class="l5" d="M457.446 365.102L458.19 365.102L458.19 365.846L457.446 365.846L457.446 365.102z"/>
<path class="l5" d="M558.712 365.102L559.457 365.102L559.457 365.846L558.712 365.846L558.712 365.102z"/>
<path class="l5" d="M659.979 365.102L660.723 365.102L660.723 365.846L659.979 365.846L659.979 365.102z"/>
<path class="l5" d="M844.865 341.498L845.163 341.498L845.163 341.795L844.865 341.795L844.865 341.498z"/>
<path class="l5" d="M835.93 350.433L836.227 350.433L836.227 350.731L835.93 350.731L835.93 350.433z"/>
<path class="l5" d="M826.994 341.498L827.292 341.498L827.292 341.795L826.994 341.795L826.994 341.498z"/>
<path class="l5" d="M862.735 365.325L863.033 365.325L863.033 365.623L862.735 365.623L862.735 365.325z"/>
<path class="l5" d="M853.8 356.39L854.098 356.39L854.098 356.688L853.8 356.688L853.8 356.39z"/>
<path class="l5" d="M862.735 347.454L863.033 347.454L863.033 347.752L862.735 347.752L862.735 347.454z"/>
<path class="l5" d="M895.498 341.498L895.796 341.498L895.796 341.795L895.498 341.795L895.498 341.498z"/>
<path class="l5" d="M886.563 350.433L886.861 350.433L886.861 350.731L886.563 350.731L886.563 350.433z"/>
<path class="l5" d="M877.628 341.498L877.925 341.498L877.925 341.795L877.628 341.795L877.628 341.498z"/>
<path class="l5" d="M913.369 365.325L913.667 365.325L913.667 365.623L913.369 365.623L913.369 365.325z"/>
<path class="l5" d="M904.433 356.39L904.731 356.39L904.731 356.688L904.433 356.688L904.433 356.39z"/>
<path class="l5" d="M913.369 347.454L913.667 347.454L913.667 347.752L913.369 347.752L913.369 347.454z"/>
<path class="l5" d="M964.151 365.474L964.151 368.08"/>
<path class="l5" d="M964.151 370.686L965.64 369.569L965.64 366.963L964.151 368.08L962.662 366.963L962.662 369.569L964.151 370.686"/>
<path class="l5" d="M963.779 365.102L964.523 365.102L964.523 365.846L963.779 365.846L963.779 365.102z"/>
<path class="l5" d="M811.879 365.102L812.623 365.102L812.623 365.846L811.879 365.846L811.879 365.102z"/>
<path class="l5" d="M862.512 365.102L863.257 365.102L863.257 365.846L862.512 365.846L862.512 365.102z"/>
<path class="l5" d="M946.131 341.498L946.429 341.498L946.429 341.795L946.131 341.795L946.131 341.498z"/>
<path class="l5" d="M937.196 350.433L937.494 350.433L937.494 350.731L937.196 350.731L937.196 350.433z"/>
<path class="l5" d="M928.261 341.498L928.559 341.498L928.559 341.795L928.261 341.795L928.261 341.498z"/>
<path class="l5" d="M964.002 365.325L964.3 365.325L964.3 365.623L964.002 365.623L964.002 365.325z"/>
<path class="l5" d="M955.067 356.39L955.365 356.39L955.365 356.688L955.067 356.688L955.067 356.39z"/>
<path class="l5" d="M964.002 347.454L964.3 347.454L964.3 347.752L964.002 347.752L964.002 347.454z"/>
<path class="l5" d="M913.145 365.102L913.89 365.102L913.89 365.846L913.145 365.846L913.145 365.102z"/>
<text fill="#000000"  xml:space="preserve" font-size="3.09757" transform="translate(70.6902, 340.157) rotate(270)" >M30</text>
<text fill="#000000"  xml:space="preserve" font-size="3.09757" transform="translate(75.1578, 340.157) rotate(270)" >pfet_01v8</text>
<text fill="#000000"  xml:space="preserve" font-size="3.09757" transform="translate(79.6254, 340.157) rotate(270)" >2 x u_w / u_l</text>
<text fill="#000000"  xml:space="preserve" font-size="5.11098" transform="translate(14.2749, 358.573)" >VGATE</text>
<text fill="#000000"  xml:space="preserve" font-size="3.09757" transform="translate(54.2408, 350.65)" >M4</text>
<text fill="#000000"  xml:space="preserve" font-size="3.09757" transform="translate(54.2408, 355.117)" >pfet_01v8</text>
<text fill="#000000"  xml:space="preserve" font-size="3.09757" transform="translate(54.2408, 359.585)" >1 x u_w / u_l</text>
<text fill="#000000"  xml:space="preserve" font-size="3.09757" transform="translate(121.323, 340.157) rotate(270)" >M5</text>
<text fill="#000000"  xml:space="preserve" font-size="3.09757" transform="translate(125.791, 340.157) rotate(270)" >pfet_01v8</text>
<text fill="#000000"  xml:space="preserve" font-size="3.09757" transform="translate(130.259, 340.157) rotate(270)" >2 x u_w / u_l</text>
<text fill="#000000"  xml:space="preserve" font-size="3.09757" transform="translate(104.874, 350.65)" >M8</text>
<text fill="#000000"  xml:space="preserve" font-size="3.09757" transform="translate(104.874, 355.117)" >pfet_01v8</text>
<text fill="#000000"  xml:space="preserve" font-size="3.09757" transform="translate(104.874, 359.585)" >1 x u_w / u_l</text>
<text fill="#000000"  xml:space="preserve" font-size="3.09757" transform="translate(171.957, 340.157) rotate(270)" >M9</text>
<text fill="#000000"  xml:space="preserve" font-size="3.09757" transform="translate(176.424, 340.157) rotate(270)" >pfet_01v8</text>
<text fill="#000000"  xml:space="preserve" font-size="3.09757" transform="translate(180.892, 340.157) rotate(270)" >2 x u_w / u_l</text>
<text fill="#000000"  xml:space="preserve" font-size="3.09757" transform="translate(155.507, 350.65)" >M10</text>
<text fill="#000000"  xml:space="preserve" font-size="3.09757" transform="translate(155.507, 355.117)" >pfet_01v8</text>
<text fill="#000000"  xml:space="preserve" font-size="3.09757" transform="translate(155.507, 359.585)" >1 x u_w / u_l</text>
<text fill="#000000"  xml:space="preserve" font-size="3.09757" transform="translate(222.59, 340.157) rotate(270)" >M13</text>
<text fill="#000000"  xml:space="preserve" font-size="3.09757" transform="translate(227.058, 340.157) rotate(270)" >pfet_01v8</text>
<text fill="#000000"  xml:space="preserve" font-size="3.09757" transform="translate(231.525, 340.157) rotate(270)" >2 x u_w / u_l</text>
<text fill="#000000"  xml:space="preserve" font-size="3.09757" transform="translate(206.141, 350.65)" >M14</text>
<text fill="#000000"  xml:space="preserve" font-size="3.09757" transform="translate(206.141, 355.117)" >pfet_01v8</text>
<text fill="#000000"  xml:space="preserve" font-size="3.09757" transform="translate(206.141, 359.585)" >1 x u_w / u_l</text>
<text fill="#000000"  xml:space="preserve" font-size="3.09757" transform="translate(273.223, 340.157) rotate(270)" >M16</text>
<text fill="#000000"  xml:space="preserve" font-size="3.09757" transform="translate(277.691, 340.157) rotate(270)" >pfet_01v8</text>
<text fill="#000000"  xml:space="preserve" font-size="3.09757" transform="translate(282.159, 340.157) rotate(270)" >2 x u_w / u_l</text>
<text fill="#000000"  xml:space="preserve" font-size="3.09757" transform="translate(256.774, 350.65)" >M18</text>
<text fill="#000000"  xml:space="preserve" font-size="3.09757" transform="translate(256.774, 355.117)" >pfet_01v8</text>
<text fill="#000000"  xml:space="preserve" font-size="3.09757" transform="translate(256.774, 359.585)" >1 x u_w / u_l</text>
<text fill="#000000"  xml:space="preserve" font-size="3.09757" transform="translate(323.857, 340.157) rotate(270)" >M19</text>
<text fill="#000000"  xml:space="preserve" font-size="3.09757" transform="translate(328.324, 340.157) rotate(270)" >pfet_01v8</text>
<text fill="#000000"  xml:space="preserve" font-size="3.09757" transform="translate(332.792, 340.157) rotate(270)" >2 x u_w / u_l</text>
<text fill="#000000"  xml:space="preserve" font-size="3.09757" transform="translate(307.407, 350.65)" >M22</text>
<text fill="#000000"  xml:space="preserve" font-size="3.09757" transform="translate(307.407, 355.117)" >pfet_01v8</text>
<text fill="#000000"  xml:space="preserve" font-size="3.09757" transform="translate(307.407, 359.585)" >1 x u_w / u_l</text>
<text fill="#000000"  xml:space="preserve" font-size="3.09757" transform="translate(374.49, 340.157) rotate(270)" >M23</text>
<text fill="#000000"  xml:space="preserve" font-size="3.09757" transform="translate(378.958, 340.157) rotate(270)" >pfet_01v8</text>
<text fill="#000000"  xml:space="preserve" font-size="3.09757" transform="translate(383.425, 340.157) rotate(270)" >2 x u_w / u_l</text>
<text fill="#000000"  xml:space="preserve" font-size="3.09757" transform="translate(358.041, 350.65)" >M26</text>
<text fill="#000000"  xml:space="preserve" font-size="3.09757" transform="translate(358.041, 355.117)" >pfet_01v8</text>
<text fill="#000000"  xml:space="preserve" font-size="3.09757" transform="translate(358.041, 359.585)" >1 x u_w / u_l</text>
<text fill="#000000"  xml:space="preserve" font-size="3.09757" transform="translate(425.123, 340.157) rotate(270)" >M27</text>
<text fill="#000000"  xml:space="preserve" font-size="3.09757" transform="translate(429.591, 340.157) rotate(270)" >pfet_01v8</text>
<text fill="#000000"  xml:space="preserve" font-size="3.09757" transform="translate(434.059, 340.157) rotate(270)" >2 x u_w / u_l</text>
<text fill="#000000"  xml:space="preserve" font-size="3.09757" transform="translate(408.674, 350.65)" >M29</text>
<text fill="#000000"  xml:space="preserve" font-size="3.09757" transform="translate(408.674, 355.117)" >pfet_01v8</text>
<text fill="#000000"  xml:space="preserve" font-size="3.09757" transform="translate(408.674, 359.585)" >1 x u_w / u_l</text>
<text fill="#000000"  xml:space="preserve" font-size="3.09757" transform="translate(475.757, 340.157) rotate(270)" >M31</text>
<text fill="#000000"  xml:space="preserve" font-size="3.09757" transform="translate(480.224, 340.157) rotate(270)" >pfet_01v8</text>
<text fill="#000000"  xml:space="preserve" font-size="3.09757" transform="translate(484.692, 340.157) rotate(270)" >2 x u_w / u_l</text>
<text fill="#000000"  xml:space="preserve" font-size="3.09757" transform="translate(459.307, 350.65)" >M32</text>
<text fill="#000000"  xml:space="preserve" font-size="3.09757" transform="translate(459.307, 355.117)" >pfet_01v8</text>
<text fill="#000000"  xml:space="preserve" font-size="3.09757" transform="translate(459.307, 359.585)" >1 x u_w / u_l</text>
<text fill="#000000"  xml:space="preserve" font-size="3.09757" transform="translate(526.39, 340.157) rotate(270)" >M1</text>
<text fill="#000000"  xml:space="preserve" font-size="3.09757" transform="translate(530.857, 340.157) rotate(270)" >pfet_01v8</text>
<text fill="#000000"  xml:space="preserve" font-size="3.09757" transform="translate(535.325, 340.157) rotate(270)" >2 x u_w / u_l</text>
<text fill="#000000"  xml:space="preserve" font-size="3.09757" transform="translate(509.941, 350.65)" >M2</text>
<text fill="#000000"  xml:space="preserve" font-size="3.09757" transform="translate(509.941, 355.117)" >pfet_01v8</text>
<text fill="#000000"  xml:space="preserve" font-size="3.09757" transform="translate(509.941, 359.585)" >1 x u_w / u_l</text>
<text fill="#000000"  xml:space="preserve" font-size="3.09757" transform="translate(577.023, 340.157) rotate(270)" >M3</text>
<text fill="#000000"  xml:space="preserve" font-size="3.09757" transform="translate(581.491, 340.157) rotate(270)" >pfet_01v8</text>
<text fill="#000000"  xml:space="preserve" font-size="3.09757" transform="translate(585.958, 340.157) rotate(270)" >2 x u_w / u_l</text>
<text fill="#000000"  xml:space="preserve" font-size="3.09757" transform="translate(560.574, 350.65)" >M6</text>
<text fill="#000000"  xml:space="preserve" font-size="3.09757" transform="translate(560.574, 355.117)" >pfet_01v8</text>
<text fill="#000000"  xml:space="preserve" font-size="3.09757" transform="translate(560.574, 359.585)" >1 x u_w / u_l</text>
<text fill="#000000"  xml:space="preserve" font-size="3.09757" transform="translate(627.656, 340.157) rotate(270)" >M7</text>
<text fill="#000000"  xml:space="preserve" font-size="3.09757" transform="translate(632.124, 340.157) rotate(270)" >pfet_01v8</text>
<text fill="#000000"  xml:space="preserve" font-size="3.09757" transform="translate(636.592, 340.157) rotate(270)" >2 x u_w / u_l</text>
<text fill="#000000"  xml:space="preserve" font-size="3.09757" transform="translate(611.207, 350.65)" >M11</text>
<text fill="#000000"  xml:space="preserve" font-size="3.09757" transform="translate(611.207, 355.117)" >pfet_01v8</text>
<text fill="#000000"  xml:space="preserve" font-size="3.09757" transform="translate(611.207, 359.585)" >1 x u_w / u_l</text>
<text fill="#000000"  xml:space="preserve" font-size="3.09757" transform="translate(678.29, 340.157) rotate(270)" >M12</text>
<text fill="#000000"  xml:space="preserve" font-size="3.09757" transform="translate(682.757, 340.157) rotate(270)" >pfet_01v8</text>
<text fill="#000000"  xml:space="preserve" font-size="3.09757" transform="translate(687.225, 340.157) rotate(270)" >2 x u_w / u_l</text>
<text fill="#000000"  xml:space="preserve" font-size="3.09757" transform="translate(661.84, 350.65)" >M15</text>
<text fill="#000000"  xml:space="preserve" font-size="3.09757" transform="translate(661.84, 355.117)" >pfet_01v8</text>
<text fill="#000000"  xml:space="preserve" font-size="3.09757" transform="translate(661.84, 359.585)" >1 x u_w / u_l</text>
<text fill="#000000"  xml:space="preserve" font-size="3.09757" transform="translate(728.923, 340.157) rotate(270)" >M17</text>
<text fill="#000000"  xml:space="preserve" font-size="3.09757" transform="translate(733.391, 340.157) rotate(270)" >pfet_01v8</text>
<text fill="#000000"  xml:space="preserve" font-size="3.09757" transform="translate(737.858, 340.157) rotate(270)" >2 x u_w / u_l</text>
<text fill="#000000"  xml:space="preserve" font-size="3.09757" transform="translate(712.474, 350.65)" >M20</text>
<text fill="#000000"  xml:space="preserve" font-size="3.09757" transform="translate(712.474, 355.117)" >pfet_01v8</text>
<text fill="#000000"  xml:space="preserve" font-size="3.09757" transform="translate(712.474, 359.585)" >1 x u_w / u_l</text>
<text fill="#000000"  xml:space="preserve" font-size="3.09757" transform="translate(779.556, 340.157) rotate(270)" >M21</text>
<text fill="#000000"  xml:space="preserve" font-size="3.09757" transform="translate(784.024, 340.157) rotate(270)" >pfet_01v8</text>
<text fill="#000000"  xml:space="preserve" font-size="3.09757" transform="translate(788.492, 340.157) rotate(270)" >2 x u_w / u_l</text>
<text fill="#000000"  xml:space="preserve" font-size="3.09757" transform="translate(763.107, 350.65)" >M24</text>
<text fill="#000000"  xml:space="preserve" font-size="3.09757" transform="translate(763.107, 355.117)" >pfet_01v8</text>
<text fill="#000000"  xml:space="preserve" font-size="3.09757" transform="translate(763.107, 359.585)" >1 x u_w / u_l</text>
<text fill="#000000"  xml:space="preserve" font-size="3.09757" transform="translate(813.74, 350.65)" >M28</text>
<text fill="#000000"  xml:space="preserve" font-size="3.09757" transform="translate(813.74, 355.117)" >pfet_01v8</text>
<text fill="#000000"  xml:space="preserve" font-size="3.09757" transform="translate(813.74, 359.585)" >1 x u_w / u_l</text>
<text fill="#000000"  xml:space="preserve" font-size="5.11098" transform="translate(105.606, 375.708) rotate(270)" >VN</text>
<text fill="#000000"  xml:space="preserve" font-size="5.11098" transform="translate(206.872, 375.708) rotate(270)" >VN</text>
<text fill="#000000"  xml:space="preserve" font-size="5.11098" transform="translate(308.139, 375.708) rotate(270)" >VN</text>
<text fill="#000000"  xml:space="preserve" font-size="5.11098" transform="translate(409.405, 375.708) rotate(270)" >VN</text>
<text fill="#000000"  xml:space="preserve" font-size="5.11098" transform="translate(510.672, 375.708) rotate(270)" >VN</text>
<text fill="#000000"  xml:space="preserve" font-size="5.11098" transform="translate(611.939, 375.708) rotate(270)" >VN</text>
<text fill="#000000"  xml:space="preserve" font-size="5.11098" transform="translate(713.205, 375.708) rotate(270)" >VN</text>
<text fill="#000000"  xml:space="preserve" font-size="5.11098" transform="translate(763.839, 375.708) rotate(270)" >VN</text>
<text fill="#000000"  xml:space="preserve" font-size="5.11098" transform="translate(24.9491, 343.217)" >VP</text>
<text fill="#000000"  xml:space="preserve" font-size="5.11098" transform="translate(26.9275, 322.368)" >VN</text>
<text fill="#000000"  xml:space="preserve" font-size="5.11098" transform="translate(43.0717, 321.996)" >VN</text>
<text fill="#000000"  xml:space="preserve" font-size="5.11098" transform="translate(54.9724, 375.708) rotate(270)" >VN</text>
<text fill="#000000"  xml:space="preserve" font-size="5.11098" transform="translate(257.506, 375.708) rotate(270)" >VN</text>
<text fill="#000000"  xml:space="preserve" font-size="5.11098" transform="translate(156.239, 375.708) rotate(270)" >VN</text>
<text fill="#000000"  xml:space="preserve" font-size="5.11098" transform="translate(358.772, 375.708) rotate(270)" >VN</text>
<text fill="#000000"  xml:space="preserve" font-size="5.11098" transform="translate(460.039, 375.708) rotate(270)" >VN</text>
<text fill="#000000"  xml:space="preserve" font-size="5.11098" transform="translate(561.305, 375.708) rotate(270)" >VN</text>
<text fill="#000000"  xml:space="preserve" font-size="5.11098" transform="translate(662.572, 375.708) rotate(270)" >VN</text>
<text fill="#000000"  xml:space="preserve" font-size="3.09757" transform="translate(830.19, 340.157) rotate(270)" >M25</text>
<text fill="#000000"  xml:space="preserve" font-size="3.09757" transform="translate(834.657, 340.157) rotate(270)" >pfet_01v8</text>
<text fill="#000000"  xml:space="preserve" font-size="3.09757" transform="translate(839.125, 340.157) rotate(270)" >2 x u_w / u_l</text>
<text fill="#000000"  xml:space="preserve" font-size="3.09757" transform="translate(864.374, 350.65)" >M33</text>
<text fill="#000000"  xml:space="preserve" font-size="3.09757" transform="translate(864.374, 355.117)" >pfet_01v8</text>
<text fill="#000000"  xml:space="preserve" font-size="3.09757" transform="translate(864.374, 359.585)" >1 x u_w / u_l</text>
<text fill="#000000"  xml:space="preserve" font-size="3.09757" transform="translate(880.823, 340.157) rotate(270)" >M34</text>
<text fill="#000000"  xml:space="preserve" font-size="3.09757" transform="translate(885.291, 340.157) rotate(270)" >pfet_01v8</text>
<text fill="#000000"  xml:space="preserve" font-size="3.09757" transform="translate(889.758, 340.157) rotate(270)" >2 x u_w / u_l</text>
<text fill="#000000"  xml:space="preserve" font-size="3.09757" transform="translate(915.007, 350.65)" >M35</text>
<text fill="#000000"  xml:space="preserve" font-size="3.09757" transform="translate(915.007, 355.117)" >pfet_01v8</text>
<text fill="#000000"  xml:space="preserve" font-size="3.09757" transform="translate(915.007, 359.585)" >1 x u_w / u_l</text>
<text fill="#000000"  xml:space="preserve" font-size="5.11098" transform="translate(965.536, 385.431) rotate(270)" >IOUT</text>
<text fill="#000000"  xml:space="preserve" font-size="5.11098" transform="translate(814.472, 375.708) rotate(270)" >VN</text>
<text fill="#000000"  xml:space="preserve" font-size="5.11098" transform="translate(865.105, 375.708) rotate(270)" >VN</text>
<text fill="#000000"  xml:space="preserve" font-size="3.09757" transform="translate(931.456, 340.157) rotate(270)" >M36</text>
<text fill="#000000"  xml:space="preserve" font-size="3.09757" transform="translate(935.924, 340.157) rotate(270)" >pfet_01v8</text>
<text fill="#000000"  xml:space="preserve" font-size="3.09757" transform="translate(940.392, 340.157) rotate(270)" >2 x u_w / u_l</text>
<text fill="#000000"  xml:space="preserve" font-size="3.09757" transform="translate(965.64, 350.65)" >M37</text>
<text fill="#000000"  xml:space="preserve" font-size="3.09757" transform="translate(965.64, 355.117)" >pfet_01v8</text>
<text fill="#000000"  xml:space="preserve" font-size="3.09757" transform="translate(965.64, 359.585)" >2 x u_w / u_l</text>
<text fill="#000000"  xml:space="preserve" font-size="5.11098" transform="translate(915.738, 375.708) rotate(270)" >VN</text>
<path class="l1" d="M37.8594 356.539L43.8163 356.539"/>
<path class="l1" d="M52.7516 341.646L52.7516 347.603"/>
<path class="l1" d="M37.8594 341.646L52.7516 341.646"/>
<path class="l1" d="M52.7516 341.646L67.6437 341.646"/>
<path class="l1" d="M76.579 350.582L76.579 356.539"/>
<path class="l1" d="M43.8163 356.539L76.579 356.539"/>
<path class="l1" d="M103.385 341.646L103.385 347.603"/>
<path class="l1" d="M103.385 341.646L118.277 341.646"/>
<path class="l1" d="M85.5143 341.646L103.385 341.646"/>
<path class="l1" d="M76.579 356.539L94.4496 356.539"/>
<path class="l1" d="M94.4496 356.539L127.212 356.539"/>
<path class="l1" d="M127.212 350.582L127.212 356.539"/>
<path class="l1" d="M154.018 341.646L154.018 347.603"/>
<path class="l1" d="M154.018 341.646L168.91 341.646"/>
<path class="l1" d="M136.148 341.646L154.018 341.646"/>
<path class="l1" d="M127.212 356.539L145.083 356.539"/>
<path class="l1" d="M145.083 356.539L177.846 356.539"/>
<path class="l1" d="M177.846 350.582L177.846 356.539"/>
<path class="l1" d="M204.651 341.646L204.651 347.603"/>
<path class="l1" d="M204.651 341.646L219.544 341.646"/>
<path class="l1" d="M186.781 341.646L204.651 341.646"/>
<path class="l1" d="M177.846 356.539L195.716 356.539"/>
<path class="l1" d="M195.716 356.539L228.479 356.539"/>
<path class="l1" d="M228.479 350.582L228.479 356.539"/>
<path class="l1" d="M255.285 341.646L255.285 347.603"/>
<path class="l1" d="M255.285 341.646L270.177 341.646"/>
<path class="l1" d="M237.414 341.646L255.285 341.646"/>
<path class="l1" d="M228.479 356.539L246.35 356.539"/>
<path class="l1" d="M246.35 356.539L279.112 356.539"/>
<path class="l1" d="M279.112 350.582L279.112 356.539"/>
<path class="l1" d="M305.918 341.646L305.918 347.603"/>
<path class="l1" d="M305.918 341.646L320.81 341.646"/>
<path class="l1" d="M288.048 341.646L305.918 341.646"/>
<path class="l1" d="M279.112 356.539L296.983 356.539"/>
<path class="l1" d="M296.983 356.539L329.746 356.539"/>
<path class="l1" d="M329.746 350.582L329.746 356.539"/>
<path class="l1" d="M356.551 341.646L356.551 347.603"/>
<path class="l1" d="M356.551 341.646L371.444 341.646"/>
<path class="l1" d="M338.681 341.646L356.551 341.646"/>
<path class="l1" d="M329.746 356.539L347.616 356.539"/>
<path class="l1" d="M347.616 356.539L380.379 356.539"/>
<path class="l1" d="M380.379 350.582L380.379 356.539"/>
<path class="l1" d="M407.185 341.646L407.185 347.603"/>
<path class="l1" d="M407.185 341.646L422.077 341.646"/>
<path class="l1" d="M389.314 341.646L407.185 341.646"/>
<path class="l1" d="M380.379 356.539L398.249 356.539"/>
<path class="l1" d="M398.249 356.539L431.012 356.539"/>
<path class="l1" d="M431.012 350.582L431.012 356.539"/>
<path class="l1" d="M457.818 341.646L457.818 347.603"/>
<path class="l1" d="M457.818 341.646L472.71 341.646"/>
<path class="l1" d="M439.947 341.646L457.818 341.646"/>
<path class="l1" d="M431.012 356.539L448.883 356.539"/>
<path class="l1" d="M448.883 356.539L481.645 356.539"/>
<path class="l1" d="M481.645 350.582L481.645 356.539"/>
<path class="l1" d="M508.451 341.646L508.451 347.603"/>
<path class="l1" d="M508.451 341.646L523.343 341.646"/>
<path class="l1" d="M490.581 341.646L508.451 341.646"/>
<path class="l1" d="M481.645 356.539L499.516 356.539"/>
<path class="l1" d="M499.516 356.539L532.279 356.539"/>
<path class="l1" d="M532.279 350.582L532.279 356.539"/>
<path class="l1" d="M559.085 341.646L559.085 347.603"/>
<path class="l1" d="M559.085 341.646L573.977 341.646"/>
<path class="l1" d="M541.214 341.646L559.085 341.646"/>
<path class="l1" d="M532.279 356.539L550.149 356.539"/>
<path class="l1" d="M550.149 356.539L582.912 356.539"/>
<path class="l1" d="M582.912 350.582L582.912 356.539"/>
<path class="l1" d="M609.718 341.646L609.718 347.603"/>
<path class="l1" d="M609.718 341.646L624.61 341.646"/>
<path class="l1" d="M591.847 341.646L609.718 341.646"/>
<path class="l1" d="M582.912 356.539L600.783 356.539"/>
<path class="l1" d="M600.783 356.539L633.545 356.539"/>
<path class="l1" d="M633.545 350.582L633.545 356.539"/>
<path class="l1" d="M660.351 341.646L660.351 347.603"/>
<path class="l1" d="M660.351 341.646L675.243 341.646"/>
<path class="l1" d="M642.481 341.646L660.351 341.646"/>
<path class="l1" d="M633.545 356.539L651.416 356.539"/>
<path class="l1" d="M651.416 356.539L684.179 356.539"/>
<path class="l1" d="M684.179 350.582L684.179 356.539"/>
<path class="l1" d="M710.984 341.646L710.984 347.603"/>
<path class="l1" d="M710.984 341.646L725.877 341.646"/>
<path class="l1" d="M693.114 341.646L710.984 341.646"/>
<path class="l1" d="M684.179 356.539L702.049 356.539"/>
<path class="l1" d="M702.049 356.539L734.812 356.539"/>
<path class="l1" d="M734.812 350.582L734.812 356.539"/>
<path class="l1" d="M761.618 341.646L761.618 347.603"/>
<path class="l1" d="M761.618 341.646L776.51 341.646"/>
<path class="l1" d="M743.747 341.646L761.618 341.646"/>
<path class="l1" d="M734.812 356.539L752.683 356.539"/>
<path class="l1" d="M752.683 356.539L785.445 356.539"/>
<path class="l1" d="M785.445 350.582L785.445 356.539"/>
<path class="l1" d="M812.251 341.646L812.251 347.603"/>
<path class="l1" d="M794.381 341.646L812.251 341.646"/>
<path class="l1" d="M785.445 356.539L803.316 356.539"/>
<path class="l1" d="M812.251 341.646L827.143 341.646"/>
<path class="l1" d="M803.316 356.539L836.079 356.539"/>
<path class="l1" d="M836.079 350.582L836.079 356.539"/>
<path class="l1" d="M862.884 341.646L862.884 347.603"/>
<path class="l1" d="M845.014 341.646L862.884 341.646"/>
<path class="l1" d="M836.079 356.539L853.949 356.539"/>
<path class="l1" d="M862.884 341.646L877.777 341.646"/>
<path class="l1" d="M853.949 356.539L886.712 356.539"/>
<path class="l1" d="M886.712 350.582L886.712 356.539"/>
<path class="l1" d="M913.518 341.646L913.518 347.603"/>
<path class="l1" d="M895.647 341.646L913.518 341.646"/>
<path class="l1" d="M886.712 356.539L904.582 356.539"/>
<path class="l1" d="M913.518 341.646L928.41 341.646"/>
<path class="l1" d="M904.582 356.539L937.345 356.539"/>
<path class="l1" d="M937.345 350.582L937.345 356.539"/>
<path class="l1" d="M964.151 341.646L964.151 347.603"/>
<path class="l1" d="M946.28 341.646L964.151 341.646"/>
<path class="l1" d="M937.345 356.539L955.216 356.539"/>
<circle class="l1" cx="127.212" cy="356.539" r="1.10202"/>
<circle class="l1" cx="76.579" cy="356.539" r="1.10202"/>
<circle class="l1" cx="103.385" cy="341.646" r="1.10202"/>
<circle class="l1" cx="103.385" cy="341.646" r="1.10202"/>
<circle class="l1" cx="103.385" cy="341.646" r="1.10202"/>
<circle class="l1" cx="76.579" cy="356.539" r="1.10202"/>
<circle class="l1" cx="76.579" cy="356.539" r="1.10202"/>
<circle class="l1" cx="52.7516" cy="341.646" r="1.10202"/>
<circle class="l1" cx="52.7516" cy="341.646" r="1.10202"/>
<circle class="l1" cx="52.7516" cy="341.646" r="1.10202"/>
<circle class="l1" cx="228.479" cy="356.539" r="1.10202"/>
<circle class="l1" cx="255.285" cy="341.646" r="1.10202"/>
<circle class="l1" cx="228.479" cy="356.539" r="1.10202"/>
<circle class="l1" cx="228.479" cy="356.539" r="1.10202"/>
<circle class="l1" cx="177.846" cy="356.539" r="1.10202"/>
<circle class="l1" cx="204.651" cy="341.646" r="1.10202"/>
<circle class="l1" cx="204.651" cy="341.646" r="1.10202"/>
<circle class="l1" cx="204.651" cy="341.646" r="1.10202"/>
<circle class="l1" cx="177.846" cy="356.539" r="1.10202"/>
<circle class="l1" cx="177.846" cy="356.539" r="1.10202"/>
<circle class="l1" cx="127.212" cy="356.539" r="1.10202"/>
<circle class="l1" cx="154.018" cy="341.646" r="1.10202"/>
<circle class="l1" cx="154.018" cy="341.646" r="1.10202"/>
<circle class="l1" cx="154.018" cy="341.646" r="1.10202"/>
<circle class="l1" cx="127.212" cy="356.539" r="1.10202"/>
<circle class="l1" cx="380.379" cy="356.539" r="1.10202"/>
<circle class="l1" cx="329.746" cy="356.539" r="1.10202"/>
<circle class="l1" cx="356.551" cy="341.646" r="1.10202"/>
<circle class="l1" cx="356.551" cy="341.646" r="1.10202"/>
<circle class="l1" cx="356.551" cy="341.646" r="1.10202"/>
<circle class="l1" cx="329.746" cy="356.539" r="1.10202"/>
<circle class="l1" cx="329.746" cy="356.539" r="1.10202"/>
<circle class="l1" cx="279.112" cy="356.539" r="1.10202"/>
<circle class="l1" cx="305.918" cy="341.646" r="1.10202"/>
<circle class="l1" cx="305.918" cy="341.646" r="1.10202"/>
<circle class="l1" cx="305.918" cy="341.646" r="1.10202"/>
<circle class="l1" cx="279.112" cy="356.539" r="1.10202"/>
<circle class="l1" cx="279.112" cy="356.539" r="1.10202"/>
<circle class="l1" cx="255.285" cy="341.646" r="1.10202"/>
<circle class="l1" cx="255.285" cy="341.646" r="1.10202"/>
<circle class="l1" cx="481.645" cy="356.539" r="1.10202"/>
<circle class="l1" cx="481.645" cy="356.539" r="1.10202"/>
<circle class="l1" cx="481.645" cy="356.539" r="1.10202"/>
<circle class="l1" cx="431.012" cy="356.539" r="1.10202"/>
<circle class="l1" cx="457.818" cy="341.646" r="1.10202"/>
<circle class="l1" cx="457.818" cy="341.646" r="1.10202"/>
<circle class="l1" cx="457.818" cy="341.646" r="1.10202"/>
<circle class="l1" cx="431.012" cy="356.539" r="1.10202"/>
<circle class="l1" cx="431.012" cy="356.539" r="1.10202"/>
<circle class="l1" cx="380.379" cy="356.539" r="1.10202"/>
<circle class="l1" cx="407.185" cy="341.646" r="1.10202"/>
<circle class="l1" cx="407.185" cy="341.646" r="1.10202"/>
<circle class="l1" cx="407.185" cy="341.646" r="1.10202"/>
<circle class="l1" cx="380.379" cy="356.539" r="1.10202"/>
<circle class="l1" cx="633.545" cy="356.539" r="1.10202"/>
<circle class="l1" cx="582.912" cy="356.539" r="1.10202"/>
<circle class="l1" cx="609.718" cy="341.646" r="1.10202"/>
<circle class="l1" cx="582.912" cy="356.539" r="1.10202"/>
<circle class="l1" cx="582.912" cy="356.539" r="1.10202"/>
<circle class="l1" cx="532.279" cy="356.539" r="1.10202"/>
<circle class="l1" cx="559.085" cy="341.646" r="1.10202"/>
<circle class="l1" cx="559.085" cy="341.646" r="1.10202"/>
<circle class="l1" cx="559.085" cy="341.646" r="1.10202"/>
<circle class="l1" cx="532.279" cy="356.539" r="1.10202"/>
<circle class="l1" cx="532.279" cy="356.539" r="1.10202"/>
<circle class="l1" cx="508.451" cy="341.646" r="1.10202"/>
<circle class="l1" cx="508.451" cy="341.646" r="1.10202"/>
<circle class="l1" cx="508.451" cy="341.646" r="1.10202"/>
<circle class="l1" cx="734.812" cy="356.539" r="1.10202"/>
<circle class="l1" cx="684.179" cy="356.539" r="1.10202"/>
<circle class="l1" cx="710.984" cy="341.646" r="1.10202"/>
<circle class="l1" cx="710.984" cy="341.646" r="1.10202"/>
<circle class="l1" cx="710.984" cy="341.646" r="1.10202"/>
<circle class="l1" cx="684.179" cy="356.539" r="1.10202"/>
<circle class="l1" cx="684.179" cy="356.539" r="1.10202"/>
<circle class="l1" cx="633.545" cy="356.539" r="1.10202"/>
<circle class="l1" cx="660.351" cy="341.646" r="1.10202"/>
<circle class="l1" cx="660.351" cy="341.646" r="1.10202"/>
<circle class="l1" cx="660.351" cy="341.646" r="1.10202"/>
<circle class="l1" cx="633.545" cy="356.539" r="1.10202"/>
<circle class="l1" cx="609.718" cy="341.646" r="1.10202"/>
<circle class="l1" cx="609.718" cy="341.646" r="1.10202"/>
<circle class="l1" cx="836.079" cy="356.539" r="1.10202"/>
<circle class="l1" cx="836.079" cy="356.539" r="1.10202"/>
<circle class="l1" cx="836.079" cy="356.539" r="1.10202"/>
<circle class="l1" cx="812.251" cy="341.646" r="1.10202"/>
<circle class="l1" cx="785.445" cy="356.539" r="1.10202"/>
<circle class="l1" cx="812.251" cy="341.646" r="1.10202"/>
<circle class="l1" cx="812.251" cy="341.646" r="1.10202"/>
<circle class="l1" cx="785.445" cy="356.539" r="1.10202"/>
<circle class="l1" cx="785.445" cy="356.539" r="1.10202"/>
<circle class="l1" cx="734.812" cy="356.539" r="1.10202"/>
<circle class="l1" cx="761.618" cy="341.646" r="1.10202"/>
<circle class="l1" cx="761.618" cy="341.646" r="1.10202"/>
<circle class="l1" cx="761.618" cy="341.646" r="1.10202"/>
<circle class="l1" cx="734.812" cy="356.539" r="1.10202"/>
<circle class="l1" cx="937.345" cy="356.539" r="1.10202"/>
<circle class="l1" cx="937.345" cy="356.539" r="1.10202"/>
<circle class="l1" cx="937.345" cy="356.539" r="1.10202"/>
<circle class="l1" cx="913.518" cy="341.646" r="1.10202"/>
<circle class="l1" cx="886.712" cy="356.539" r="1.10202"/>
<circle class="l1" cx="913.518" cy="341.646" r="1.10202"/>
<circle class="l1" cx="913.518" cy="341.646" r="1.10202"/>
<circle class="l1" cx="886.712" cy="356.539" r="1.10202"/>
<circle class="l1" cx="886.712" cy="356.539" r="1.10202"/>
<circle class="l1" cx="862.884" cy="341.646" r="1.10202"/>
<circle class="l1" cx="862.884" cy="341.646" r="1.10202"/>
<circle class="l1" cx="862.884" cy="341.646" r="1.10202"/>
</svg>
