<svg xmlns="http://www.w3.org/2000/svg" xmlns:xlink="http://www.w3.org/1999/xlink" width="1920" height="963" version="1.1">
<style type="text/css">
.l0{
  fill: #ffffff;
  stroke: #ffffff;
  stroke-linecap:round;
  stroke-linejoin:round;
  stroke-width: 2.83048;
  fill-opacity: 0;
  stroke-opacity: 0;
}
.l1{
  fill: #000000;
  stroke: #000000;
  stroke-linecap:round;
  stroke-linejoin:round;
  stroke-width: 2.83048;
}
.l2{
  fill: #000000; fill-opacity: 0.2;
  stroke: #000000;
  stroke-linecap:round;
  stroke-linejoin:round;
  stroke-width: 2.83048;
}
.l3{
  fill: #000000; fill-opacity: 0.5;
  stroke: #000000;
  stroke-linecap:round;
  stroke-linejoin:round;
  stroke-width: 2.83048;
}
.l4{
  fill: #000000;
  stroke: #000000;
  stroke-linecap:round;
  stroke-linejoin:round;
  stroke-width: 2.83048;
}
.l5{
  fill: #000000;
  stroke: #000000;
  stroke-linecap:round;
  stroke-linejoin:round;
  stroke-width: 2.83048;
}
.l6{
  fill: #000000; fill-opacity: 0.5;
  stroke: #000000;
  stroke-linecap:round;
  stroke-linejoin:round;
  stroke-width: 2.83048;
}
.l7{
  fill: #000000; fill-opacity: 0.5;
  stroke: #000000;
  stroke-linecap:round;
  stroke-linejoin:round;
  stroke-width: 2.83048;
}
.l8{
  fill: #000000; fill-opacity: 0.5;
  stroke: #000000;
  stroke-linecap:round;
  stroke-linejoin:round;
  stroke-width: 2.83048;
}
.l9{
  fill: #000000; fill-opacity: 0.5;
  stroke: #000000;
  stroke-linecap:round;
  stroke-linejoin:round;
  stroke-width: 2.83048;
}
.l10{
  fill: #000000;
  stroke: #000000;
  stroke-linecap:round;
  stroke-linejoin:round;
  stroke-width: 2.83048;
}
.l11{
  fill: #000000; fill-opacity: 0.5;
  stroke: #000000;
  stroke-linecap:round;
  stroke-linejoin:round;
  stroke-width: 2.83048;
}
.l12{
  fill: #000000; fill-opacity: 0.5;
  stroke: #000000;
  stroke-linecap:round;
  stroke-linejoin:round;
  stroke-width: 2.83048;
}
.l13{
  fill: #000000; fill-opacity: 0.5;
  stroke: #000000;
  stroke-linecap:round;
  stroke-linejoin:round;
  stroke-width: 2.83048;
}
.l14{
  fill: #000000; fill-opacity: 0.2;
  stroke: #000000;
  stroke-linecap:round;
  stroke-linejoin:round;
  stroke-width: 2.83048;
}
.l15{
  fill: #000000; fill-opacity: 0.5;
  stroke: #000000;
  stroke-linecap:round;
  stroke-linejoin:round;
  stroke-width: 2.83048;
}
.l16{
  fill: #000000; fill-opacity: 0.5;
  stroke: #000000;
  stroke-linecap:round;
  stroke-linejoin:round;
  stroke-width: 2.83048;
}
.l17{
  fill: #000000; fill-opacity: 0.2;
  stroke: #000000;
  stroke-linecap:round;
  stroke-linejoin:round;
  stroke-width: 2.83048;
}
.l18{
  fill: #000000; fill-opacity: 0.5;
  stroke: #000000;
  stroke-linecap:round;
  stroke-linejoin:round;
  stroke-width: 2.83048;
}
.l19{
  fill: #000000; fill-opacity: 0.2;
  stroke: #000000;
  stroke-linecap:round;
  stroke-linejoin:round;
  stroke-width: 2.83048;
}
.l20{
  fill: #000000; fill-opacity: 0.2;
  stroke: #000000;
  stroke-linecap:round;
  stroke-linejoin:round;
  stroke-width: 2.83048;
}
.l21{
  fill: #000000; fill-opacity: 0.2;
  stroke: #000000;
  stroke-linecap:round;
  stroke-linejoin:round;
  stroke-width: 2.83048;
}
text {font-family: Sans-Serif;}
</style>
<rect class="l0" x="0" y="0" width="1920" height="963"/>
<path class="l4" d="M776.221 541.763L776.221 552.246"/>
<path class="l4" d="M756.565 552.246L795.877 552.246"/>
<path class="l4" d="M776.221 579.765L795.877 552.246"/>
<path class="l4" d="M756.565 552.246L776.221 579.765"/>
<path class="l4" d="M776.221 353.064L776.221 374.031"/>
<path class="l4" d="M756.565 353.064L795.877 353.064"/>
<circle class="l4" cx="776.221" cy="353.064" r="7.33829" />
<path class="l4" d="M1069.75 520.796L1216.52 520.796"/>
<path class="l4" d="M1069.75 520.796L1069.75 562.73"/>
<path class="l4" d="M1090.72 269.198L1174.59 269.198"/>
<path class="l4" d="M1090.72 290.164L1132.65 290.164"/>
<path class="l4" d="M1090.72 311.131L1174.59 311.131"/>
<path class="l4" d="M1090.72 332.097L1153.62 332.097"/>
<path class="l4" d="M1090.72 353.064L1153.62 353.064"/>
<path class="l4" d="M1090.72 374.031L1237.48 374.031"/>
<path class="l4" d="M1090.72 394.997L1132.65 394.997"/>
<path class="l4" d="M1090.72 248.231L1195.55 248.231"/>
<path class="l4" d="M1090.72 227.265L1132.65 227.265"/>
<path class="l4" d="M1258.45 227.265L1279.42 227.265"/>
<path class="l4" d="M1279.42 227.265L1279.42 436.93"/>
<path class="l4" d="M1090.72 436.93L1279.42 436.93"/>
<path class="l4" d="M1090.72 415.964L1090.72 436.93"/>
<path class="l4" d="M1258.45 206.298L1258.45 415.964"/>
<path class="l4" d="M1069.75 415.964L1258.45 415.964"/>
<path class="l4" d="M1069.75 206.298L1069.75 415.964"/>
<path class="l4" d="M1069.75 206.298L1258.45 206.298"/>
<path class="l4" d="M524.622 122.432L524.622 153.882"/>
<path class="l4" d="M524.622 216.781L524.622 248.231"/>
<path class="l4" d="M516.76 169.607L532.485 169.607"/>
<path class="l4" d="M524.622 161.744L524.622 177.469"/>
<path class="l4" d="M516.76 201.057L532.485 201.057"/>
<circle class="l4" cx="524.622" cy="185.332" r="31.4498" style="fill:none;" />
<path class="l4" d="M524.622 248.231L524.622 258.715"/>
<path class="l4" d="M504.966 258.715L544.278 258.715"/>
<path class="l4" d="M524.622 286.233L544.278 258.715"/>
<path class="l4" d="M504.966 258.715L524.622 286.233"/>
<path class="l4" d="M524.622 101.465L524.622 122.432"/>
<path class="l4" d="M504.966 101.465L544.278 101.465"/>
<circle class="l4" cx="524.622" cy="101.465" r="7.33829" />
<path class="l4" d="M524.622 394.997L524.622 426.447"/>
<path class="l4" d="M524.622 489.347L524.622 520.796"/>
<path class="l4" d="M516.76 442.172L532.485 442.172"/>
<path class="l4" d="M524.622 434.309L524.622 450.034"/>
<path class="l4" d="M516.76 473.622L532.485 473.622"/>
<circle class="l4" cx="524.622" cy="457.897" r="31.4498" style="fill:none;" />
<path class="l4" d="M524.622 520.796L524.622 531.28"/>
<path class="l4" d="M504.966 531.28L544.278 531.28"/>
<path class="l4" d="M524.622 558.798L544.278 531.28"/>
<path class="l4" d="M504.966 531.28L524.622 558.798"/>
<path class="l4" d="M524.622 667.562L524.622 699.012"/>
<path class="l4" d="M524.622 761.912L524.622 793.362"/>
<path class="l4" d="M516.76 714.737L532.485 714.737"/>
<path class="l4" d="M524.622 706.875L524.622 722.599"/>
<path class="l4" d="M516.76 746.187L532.485 746.187"/>
<circle class="l4" cx="524.622" cy="730.462" r="31.4498" style="fill:none;" />
<path class="l4" d="M524.622 793.362L524.622 803.845"/>
<path class="l4" d="M504.966 803.845L544.278 803.845"/>
<path class="l4" d="M524.622 831.363L544.278 803.845"/>
<path class="l4" d="M504.966 803.845L524.622 831.363"/>
<path class="l4" d="M839.12 457.897L881.053 457.897"/>
<path class="l4" d="M734.288 415.964L797.187 415.964"/>
<path class="l4" d="M734.288 415.964L734.288 499.83"/>
<path class="l4" d="M734.288 499.83L797.187 499.83"/>
<path class="l4" d="M776.221 374.031L776.221 415.964"/>
<path class="l4" d="M776.221 499.83L776.221 541.763"/>
<path class="l4" d="M692.354 436.93L734.288 436.93"/>
<path class="l4" d="M692.354 478.863L734.288 478.863"/>
<path class="l4" style="fill:none;" d="M797.187 499.83 A41.9331 41.9331 0 0 0 797.187 415.964"/>
<path class="l4" d="M922.987 531.28L922.987 583.696"/>
<path class="l4" d="M922.987 457.897L922.987 510.313"/>
<path class="l4" d="M902.02 510.313L943.953 510.313"/>
<path class="l4" d="M902.02 531.28L943.953 531.28"/>
<path class="l4" d="M928.228 473.622L938.711 473.622"/>
<path class="l4" d="M933.47 468.38L933.47 478.863"/>
<path class="l4" d="M922.987 583.696L922.987 594.179"/>
<path class="l4" d="M903.33 594.179L942.643 594.179"/>
<path class="l4" d="M922.987 621.698L942.643 594.179"/>
<path class="l4" d="M903.33 594.179L922.987 621.698"/>
<path class="l5" d="M775.172 540.715L777.269 540.715L777.269 542.811L775.172 542.811L775.172 540.715z"/>
<path class="l5" d="M775.172 372.982L777.269 372.982L777.269 375.079L775.172 375.079L775.172 372.982z"/>
<path class="l5" d="M523.574 121.384L525.67 121.384L525.67 123.48L523.574 123.48L523.574 121.384z"/>
<path class="l5" d="M523.574 247.183L525.67 247.183L525.67 249.28L523.574 249.28L523.574 247.183z"/>
<path class="l5" d="M523.574 247.183L525.67 247.183L525.67 249.28L523.574 249.28L523.574 247.183z"/>
<path class="l5" d="M523.574 121.384L525.67 121.384L525.67 123.48L523.574 123.48L523.574 121.384z"/>
<path class="l5" d="M523.574 393.949L525.67 393.949L525.67 396.045L523.574 396.045L523.574 393.949z"/>
<path class="l5" d="M523.574 519.748L525.67 519.748L525.67 521.845L523.574 521.845L523.574 519.748z"/>
<path class="l5" d="M523.574 519.748L525.67 519.748L525.67 521.845L523.574 521.845L523.574 519.748z"/>
<path class="l5" d="M522.001 392.376L527.243 392.376L527.243 397.618L522.001 397.618L522.001 392.376z"/>
<path class="l5" d="M689.734 434.309L694.975 434.309L694.975 439.551L689.734 439.551L689.734 434.309z"/>
<path class="l5" d="M689.734 476.243L694.975 476.243L694.975 481.484L689.734 481.484L689.734 476.243z"/>
<path class="l5" d="M523.574 666.514L525.67 666.514L525.67 668.611L523.574 668.611L523.574 666.514z"/>
<path class="l5" d="M523.574 792.313L525.67 792.313L525.67 794.41L523.574 794.41L523.574 792.313z"/>
<path class="l5" d="M523.574 792.313L525.67 792.313L525.67 794.41L523.574 794.41L523.574 792.313z"/>
<path class="l5" d="M522.001 664.941L527.243 664.941L527.243 670.183L522.001 670.183L522.001 664.941z"/>
<path class="l5" d="M687.113 431.689L697.596 431.689L697.596 442.172L687.113 442.172L687.113 431.689z"/>
<path class="l5" d="M875.812 452.655L886.295 452.655L886.295 463.138L875.812 463.138L875.812 452.655z"/>
<path class="l5" d="M770.979 368.789L781.462 368.789L781.462 379.272L770.979 379.272L770.979 368.789z"/>
<path class="l5" d="M770.979 536.521L781.462 536.521L781.462 547.005L770.979 547.005L770.979 536.521z"/>
<path class="l5" d="M687.113 473.622L697.596 473.622L697.596 484.105L687.113 484.105L687.113 473.622z"/>
<path class="l5" d="M983.265 455.276L988.507 455.276L988.507 460.518L983.265 460.518L983.265 455.276z"/>
<path class="l5" d="M917.745 452.655L928.228 452.655L928.228 463.138L917.745 463.138L917.745 452.655z"/>
<path class="l5" d="M917.745 578.454L928.228 578.454L928.228 588.938L917.745 588.938L917.745 578.454z"/>
<path class="l5" d="M921.938 582.648L924.035 582.648L924.035 584.744L921.938 584.744L921.938 582.648z"/>
<text fill="#000000"  xml:space="preserve" font-size="21.8052" transform="translate(751.221, 610.047)" >GND</text>
<text fill="#000000"  xml:space="preserve" font-size="21.8052" transform="translate(751.721, 330.93)" >VDD</text>
<text fill="#000000"  xml:space="preserve" font-size="32.7078" transform="translate(1080.24, 508.562)" >SPICE</text>
<text fill="#000000"  xml:space="preserve" font-size="32.7078" style="font-family:Monospace;" transform="translate(1101.2, 560.978)" >.control</text>
<text fill="#000000"  xml:space="preserve" font-size="32.7078" style="font-family:Monospace;" transform="translate(1101.2, 598.494)" >  set wr_vecnames</text>
<text fill="#000000"  xml:space="preserve" font-size="32.7078" style="font-family:Monospace;" transform="translate(1101.2, 636.01)" >  set wr_singlescale</text>
<text fill="#000000"  xml:space="preserve" font-size="32.7078" style="font-family:Monospace;" transform="translate(1101.2, 673.526)" >  tran 0.01n 200n</text>
<text fill="#000000"  xml:space="preserve" font-size="32.7078" style="font-family:Monospace;" transform="translate(1101.2, 711.042)" >  wrdata and_tran.txt v(A) v(B) v(Y)</text>
<text fill="#000000"  xml:space="preserve" font-size="32.7078" style="font-family:Monospace;" transform="translate(1101.2, 748.558)" >.endc</text>
<text fill="#000000"  xml:space="preserve" font-size="32.7078" transform="translate(1059.27, 183.58)" >Corner: tt</text>
<text fill="#000000"  xml:space="preserve" font-size="21.8052" transform="translate(566.555, 176.906)" >Vdd</text>
<text fill="#000000"  xml:space="preserve" font-size="21.8052" transform="translate(566.555, 208.356)" >1.8</text>
<text fill="#000000"  xml:space="preserve" font-size="21.8052" transform="translate(499.622, 316.516)" >GND</text>
<text fill="#000000"  xml:space="preserve" font-size="21.8052" transform="translate(500.122, 79.3314)" >VDD</text>
<text fill="#000000"  xml:space="preserve" font-size="21.8052" transform="translate(454.689, 449.471)" >vA</text>
<text fill="#000000"  xml:space="preserve" font-size="21.8052" transform="translate(92.689, 480.921)" >pulse(0 1.8 0ns 1ns 1ns 19ns 40ns)</text>
<text fill="#000000"  xml:space="preserve" font-size="21.8052" transform="translate(499.622, 589.081)" >GND</text>
<text fill="#000000"  xml:space="preserve" font-size="35.9786" transform="translate(540.347, 403.434)" >A</text>
<text fill="#000000"  xml:space="preserve" font-size="35.9786" transform="translate(651.63, 452.563)" >A</text>
<text fill="#000000"  xml:space="preserve" font-size="35.9786" transform="translate(651.63, 494.497)" >B</text>
<text fill="#000000"  xml:space="preserve" font-size="21.8052" transform="translate(454.689, 722.036)" >vB</text>
<text fill="#000000"  xml:space="preserve" font-size="21.8052" transform="translate(117.689, 753.486)" >pulse(0 1.8 0 1ns 1ns 39ns 80ns)</text>
<text fill="#000000"  xml:space="preserve" font-size="21.8052" transform="translate(499.622, 861.646)" >GND</text>
<text fill="#000000"  xml:space="preserve" font-size="35.9786" transform="translate(540.347, 675.999)" >B</text>
<text fill="#000000"  xml:space="preserve" font-size="21.8052" transform="translate(807.671, 530.112)" >X1</text>
<text fill="#000000"  xml:space="preserve" font-size="35.9786" transform="translate(1001.61, 466.333)" >Y</text>
<text fill="#000000"  xml:space="preserve" font-size="21.8052" transform="translate(898.503, 485.558)" >1</text>
<text fill="#000000"  xml:space="preserve" font-size="21.8052" transform="translate(898.503, 574.666)" >2</text>
<text fill="#000000"  xml:space="preserve" font-size="21.8052" transform="translate(954.436, 501.283)" >C1</text>
<text fill="#000000"  xml:space="preserve" font-size="21.8052" transform="translate(954.436, 527.491)" >200ff</text>
<text fill="#000000"  xml:space="preserve" font-size="21.8052" transform="translate(954.436, 553.7)" >m=1</text>
<text fill="#000000"  xml:space="preserve" font-size="21.8052" transform="translate(897.987, 651.98)" >GND</text>
<path class="l1" d="M881.053 457.897L985.886 457.897"/>
</svg>
