<svg xmlns="http://www.w3.org/2000/svg" xmlns:xlink="http://www.w3.org/1999/xlink" width="819" height="927" version="1.1">
<style type="text/css">
.l0{
  fill: #ffffff;
  stroke: #ffffff;
  stroke-linecap:round;
  stroke-linejoin:round;
  stroke-width: 4.6069;
}
.l1{
  fill: #000000;
  stroke: #000000;
  stroke-linecap:round;
  stroke-linejoin:round;
  stroke-width: 4.6069;
}
.l2{
  fill: #000000; fill-opacity: 0.2;
  stroke: #000000;
  stroke-linecap:round;
  stroke-linejoin:round;
  stroke-width: 4.6069;
}
.l3{
  fill: #000000; fill-opacity: 0.5;
  stroke: #000000;
  stroke-linecap:round;
  stroke-linejoin:round;
  stroke-width: 4.6069;
}
.l4{
  fill: #000000;
  stroke: #000000;
  stroke-linecap:round;
  stroke-linejoin:round;
  stroke-width: 4.6069;
}
.l5{
  fill: #000000;
  stroke: #000000;
  stroke-linecap:round;
  stroke-linejoin:round;
  stroke-width: 4.6069;
}
.l6{
  fill: #000000; fill-opacity: 0.5;
  stroke: #000000;
  stroke-linecap:round;
  stroke-linejoin:round;
  stroke-width: 4.6069;
}
.l7{
  fill: #000000; fill-opacity: 0.5;
  stroke: #000000;
  stroke-linecap:round;
  stroke-linejoin:round;
  stroke-width: 4.6069;
}
.l8{
  fill: #000000; fill-opacity: 0.5;
  stroke: #000000;
  stroke-linecap:round;
  stroke-linejoin:round;
  stroke-width: 4.6069;
}
.l9{
  fill: #000000; fill-opacity: 0.5;
  stroke: #000000;
  stroke-linecap:round;
  stroke-linejoin:round;
  stroke-width: 4.6069;
}
.l10{
  fill: #000000;
  stroke: #000000;
  stroke-linecap:round;
  stroke-linejoin:round;
  stroke-width: 4.6069;
}
.l11{
  fill: #000000; fill-opacity: 0.5;
  stroke: #000000;
  stroke-linecap:round;
  stroke-linejoin:round;
  stroke-width: 4.6069;
}
.l12{
  fill: #000000; fill-opacity: 0.5;
  stroke: #000000;
  stroke-linecap:round;
  stroke-linejoin:round;
  stroke-width: 4.6069;
}
.l13{
  fill: #000000; fill-opacity: 0.5;
  stroke: #000000;
  stroke-linecap:round;
  stroke-linejoin:round;
  stroke-width: 4.6069;
}
.l14{
  fill: #000000; fill-opacity: 0.2;
  stroke: #000000;
  stroke-linecap:round;
  stroke-linejoin:round;
  stroke-width: 4.6069;
}
.l15{
  fill: #000000; fill-opacity: 0.5;
  stroke: #000000;
  stroke-linecap:round;
  stroke-linejoin:round;
  stroke-width: 4.6069;
}
.l16{
  fill: #000000; fill-opacity: 0.5;
  stroke: #000000;
  stroke-linecap:round;
  stroke-linejoin:round;
  stroke-width: 4.6069;
}
.l17{
  fill: #000000; fill-opacity: 0.2;
  stroke: #000000;
  stroke-linecap:round;
  stroke-linejoin:round;
  stroke-width: 4.6069;
}
.l18{
  fill: #000000; fill-opacity: 0.5;
  stroke: #000000;
  stroke-linecap:round;
  stroke-linejoin:round;
  stroke-width: 4.6069;
}
.l19{
  fill: #000000; fill-opacity: 0.2;
  stroke: #000000;
  stroke-linecap:round;
  stroke-linejoin:round;
  stroke-width: 4.6069;
}
.l20{
  fill: #000000; fill-opacity: 0.2;
  stroke: #000000;
  stroke-linecap:round;
  stroke-linejoin:round;
  stroke-width: 4.6069;
}
.l21{
  fill: #000000; fill-opacity: 0.2;
  stroke: #000000;
  stroke-linecap:round;
  stroke-linejoin:round;
  stroke-width: 4.6069;
}
text {font-family: Sans-Serif;}
</style>
<rect class="l0" x="0" y="0" width="819" height="927"/>
<path class="l4" d="M440.702 499.728L440.702 550.915"/>
<path class="l4" d="M389.514 550.915L440.702 550.915"/>
<path class="l4" d="M389.514 531.72L389.514 672.486"/>
<path class="l4" d="M389.514 653.291L440.702 653.291"/>
<path class="l4" d="M440.702 653.291L440.702 704.479"/>
<path class="l4" d="M389.514 602.103L440.702 602.103"/>
<path class="l4" d="M376.717 550.915L376.717 653.291"/>
<path class="l4" d="M338.326 602.103L376.717 602.103"/>
<path class="l4" d="M440.702 226.726L440.702 277.914"/>
<path class="l4" d="M389.514 277.914L440.702 277.914"/>
<path class="l4" d="M389.514 258.719L389.514 399.485"/>
<path class="l4" d="M389.514 380.29L440.702 380.29"/>
<path class="l4" d="M440.702 380.29L440.702 431.477"/>
<path class="l4" d="M389.514 329.102L440.702 329.102"/>
<path class="l4" d="M376.717 277.914L376.717 380.29"/>
<path class="l4" d="M338.326 329.102L357.522 329.102"/>
<circle class="l4" cx="367.12" cy="329.102" r="9.5977" style="fill:none;" />
<path class="l5" d="M438.996 498.021L442.408 498.021L442.408 501.434L438.996 501.434L438.996 498.021z"/>
<path class="l5" d="M336.62 600.397L340.033 600.397L340.033 603.809L336.62 603.809L336.62 600.397z"/>
<path class="l5" d="M438.996 702.772L442.408 702.772L442.408 706.185L438.996 706.185L438.996 702.772z"/>
<path class="l5" d="M438.996 600.397L442.408 600.397L442.408 603.809L438.996 603.809L438.996 600.397z"/>
<path class="l5" d="M438.996 429.771L442.408 429.771L442.408 433.184L438.996 433.184L438.996 429.771z"/>
<path class="l5" d="M336.62 327.396L340.033 327.396L340.033 330.808L336.62 330.808L336.62 327.396z"/>
<path class="l5" d="M438.996 225.02L442.408 225.02L442.408 228.433L438.996 228.433L438.996 225.02z"/>
<path class="l5" d="M438.996 327.396L442.408 327.396L442.408 330.808L438.996 330.808L438.996 327.396z"/>
<path class="l5" d="M440.702 216.062L440.702 226.726"/>
<path class="l5" d="M457.764 179.804L440.702 167.007L423.639 179.804L423.639 203.265L440.702 216.062L457.764 203.265L457.764 179.804"/>
<path class="l5" d="M436.436 222.461L444.968 222.461L444.968 230.992L436.436 230.992L436.436 222.461z"/>
<path class="l5" d="M440.702 704.479L440.702 715.143"/>
<path class="l5" d="M423.639 751.401L440.702 764.198L457.764 751.401L457.764 727.94L440.702 715.143L423.639 727.94L423.639 751.401"/>
<path class="l5" d="M436.436 700.213L444.968 700.213L444.968 708.744L436.436 708.744L436.436 700.213z"/>
<path class="l5" d="M218.888 465.603L235.951 465.603"/>
<path class="l5" d="M218.888 465.603L206.091 448.54L176.232 448.54L189.029 465.603L176.232 482.665L206.091 482.665L218.888 465.603"/>
<path class="l5" d="M231.685 461.337L240.217 461.337L240.217 469.868L231.685 469.868L231.685 461.337z"/>
<path class="l5" d="M508.952 465.603L538.812 465.603"/>
<path class="l5" d="M568.671 465.603L555.874 448.54L526.015 448.54L538.812 465.603L526.015 482.665L555.874 482.665L568.671 465.603"/>
<path class="l5" d="M504.687 461.337L513.218 461.337L513.218 469.868L504.687 469.868L504.687 461.337z"/>
<text fill="#000000"  xml:space="preserve" font-size="35.4902" transform="translate(457.764, 588.234)" >M1</text>
<text fill="#000000"  xml:space="preserve" font-size="35.4902" transform="translate(457.764, 639.422)" >nfet_01v8</text>
<text fill="#000000"  xml:space="preserve" font-size="35.4902" transform="translate(457.764, 690.61)" >1 x 0.5 / 0.15</text>
<text fill="#000000"  xml:space="preserve" font-size="35.4902" transform="translate(457.764, 264.045)" >M2</text>
<text fill="#000000"  xml:space="preserve" font-size="35.4902" transform="translate(457.764, 315.233)" >pfet_01v8</text>
<text fill="#000000"  xml:space="preserve" font-size="35.4902" transform="translate(457.764, 366.421)" >1 x 0.5 / 0.15</text>
<text fill="#000000"  xml:space="preserve" font-size="58.5588" transform="translate(461.881, 159.009) rotate(270)" >VP</text>
<text fill="#000000"  xml:space="preserve" font-size="58.5588" transform="translate(458.699, 856.196) rotate(270)" >VN</text>
<text fill="#000000"  xml:space="preserve" font-size="58.5588" transform="translate(131.966, 488.914)" >A</text>
<text fill="#000000"  xml:space="preserve" font-size="58.5588" transform="translate(577.203, 488.914)" >Y</text>
<path class="l1" d="M440.702 226.726L440.702 329.102"/>
<path class="l1" d="M304.201 329.102L338.326 329.102"/>
<path class="l1" d="M304.201 329.102L304.201 602.103"/>
<path class="l1" d="M304.201 602.103L338.326 602.103"/>
<path class="l1" d="M440.702 431.477L440.702 499.728"/>
<path class="l1" d="M235.951 465.603L304.201 465.603"/>
<path class="l1" d="M440.702 465.603L508.952 465.603"/>
<path class="l1" d="M440.702 602.103L440.702 704.479"/>
<circle class="l1" cx="440.702" cy="465.603" r="12.6263"/>
<circle class="l1" cx="304.201" cy="465.603" r="12.6263"/>
</svg>
