<svg xmlns="http://www.w3.org/2000/svg" xmlns:xlink="http://www.w3.org/1999/xlink" width="889" height="957" version="1.1">
<style type="text/css">
.l0{
  fill: #ffffff;
  stroke: #ffffff;
  stroke-linecap:round;
  stroke-linejoin:round;
  stroke-width: 3.36275;
}
.l1{
  fill: #000000;
  stroke: #000000;
  stroke-linecap:round;
  stroke-linejoin:round;
  stroke-width: 3.36275;
}
.l2{
  fill: #000000; fill-opacity: 0.2;
  stroke: #000000;
  stroke-linecap:round;
  stroke-linejoin:round;
  stroke-width: 3.36275;
}
.l3{
  fill: #000000; fill-opacity: 0.5;
  stroke: #000000;
  stroke-linecap:round;
  stroke-linejoin:round;
  stroke-width: 3.36275;
}
.l4{
  fill: #000000;
  stroke: #000000;
  stroke-linecap:round;
  stroke-linejoin:round;
  stroke-width: 3.36275;
}
.l5{
  fill: #000000;
  stroke: #000000;
  stroke-linecap:round;
  stroke-linejoin:round;
  stroke-width: 3.36275;
}
.l6{
  fill: #000000; fill-opacity: 0.5;
  stroke: #000000;
  stroke-linecap:round;
  stroke-linejoin:round;
  stroke-width: 3.36275;
}
.l7{
  fill: #000000; fill-opacity: 0.5;
  stroke: #000000;
  stroke-linecap:round;
  stroke-linejoin:round;
  stroke-width: 3.36275;
}
.l8{
  fill: #000000; fill-opacity: 0.5;
  stroke: #000000;
  stroke-linecap:round;
  stroke-linejoin:round;
  stroke-width: 3.36275;
}
.l9{
  fill: #000000; fill-opacity: 0.5;
  stroke: #000000;
  stroke-linecap:round;
  stroke-linejoin:round;
  stroke-width: 3.36275;
}
.l10{
  fill: #000000;
  stroke: #000000;
  stroke-linecap:round;
  stroke-linejoin:round;
  stroke-width: 3.36275;
}
.l11{
  fill: #000000; fill-opacity: 0.5;
  stroke: #000000;
  stroke-linecap:round;
  stroke-linejoin:round;
  stroke-width: 3.36275;
}
.l12{
  fill: #000000; fill-opacity: 0.5;
  stroke: #000000;
  stroke-linecap:round;
  stroke-linejoin:round;
  stroke-width: 3.36275;
}
.l13{
  fill: #000000; fill-opacity: 0.5;
  stroke: #000000;
  stroke-linecap:round;
  stroke-linejoin:round;
  stroke-width: 3.36275;
}
.l14{
  fill: #000000; fill-opacity: 0.2;
  stroke: #000000;
  stroke-linecap:round;
  stroke-linejoin:round;
  stroke-width: 3.36275;
}
.l15{
  fill: #000000; fill-opacity: 0.5;
  stroke: #000000;
  stroke-linecap:round;
  stroke-linejoin:round;
  stroke-width: 3.36275;
}
.l16{
  fill: #000000; fill-opacity: 0.5;
  stroke: #000000;
  stroke-linecap:round;
  stroke-linejoin:round;
  stroke-width: 3.36275;
}
.l17{
  fill: #000000; fill-opacity: 0.2;
  stroke: #000000;
  stroke-linecap:round;
  stroke-linejoin:round;
  stroke-width: 3.36275;
}
.l18{
  fill: #000000; fill-opacity: 0.5;
  stroke: #000000;
  stroke-linecap:round;
  stroke-linejoin:round;
  stroke-width: 3.36275;
}
.l19{
  fill: #000000; fill-opacity: 0.2;
  stroke: #000000;
  stroke-linecap:round;
  stroke-linejoin:round;
  stroke-width: 3.36275;
}
.l20{
  fill: #000000; fill-opacity: 0.2;
  stroke: #000000;
  stroke-linecap:round;
  stroke-linejoin:round;
  stroke-width: 3.36275;
}
.l21{
  fill: #000000; fill-opacity: 0.2;
  stroke: #000000;
  stroke-linecap:round;
  stroke-linejoin:round;
  stroke-width: 3.36275;
}
text {font-family: Sans-Serif;}
</style>
<rect class="l0" x="0" y="0" width="889" height="957"/>
<path class="l4" d="M479.276 444.594L479.276 481.958"/>
<path class="l4" d="M441.912 481.958L479.276 481.958"/>
<path class="l4" d="M441.912 467.947L441.912 570.698"/>
<path class="l4" d="M441.912 556.686L479.276 556.686"/>
<path class="l4" d="M479.276 556.686L479.276 594.05"/>
<path class="l4" d="M441.912 519.322L479.276 519.322"/>
<path class="l4" d="M432.571 481.958L432.571 556.686"/>
<path class="l4" d="M404.548 519.322L432.571 519.322"/>
<path class="l4" d="M304.911 220.411L304.911 257.775"/>
<path class="l4" d="M267.547 257.775L304.911 257.775"/>
<path class="l4" d="M267.547 243.763L267.547 346.514"/>
<path class="l4" d="M267.547 332.503L304.911 332.503"/>
<path class="l4" d="M304.911 332.503L304.911 369.866"/>
<path class="l4" d="M267.547 295.139L304.911 295.139"/>
<path class="l4" d="M258.206 257.775L258.206 332.503"/>
<path class="l4" d="M230.183 295.139L244.194 295.139"/>
<circle class="l4" cx="251.2" cy="295.139" r="7.00574" style="fill:none;" />
<path class="l4" d="M653.641 332.503L653.641 369.866"/>
<path class="l4" d="M653.641 332.503L691.005 332.503"/>
<path class="l4" d="M691.005 243.763L691.005 346.514"/>
<path class="l4" d="M653.641 257.775L691.005 257.775"/>
<path class="l4" d="M653.641 220.411L653.641 257.775"/>
<path class="l4" d="M653.641 295.139L691.005 295.139"/>
<path class="l4" d="M700.345 257.775L700.345 332.503"/>
<path class="l4" d="M714.357 295.139L728.368 295.139"/>
<circle class="l4" cx="707.351" cy="295.139" r="7.00574" style="fill:none;" />
<path class="l4" d="M479.276 594.05L479.276 631.414"/>
<path class="l4" d="M441.912 631.414L479.276 631.414"/>
<path class="l4" d="M441.912 617.402L441.912 720.153"/>
<path class="l4" d="M441.912 706.142L479.276 706.142"/>
<path class="l4" d="M479.276 706.142L479.276 743.506"/>
<path class="l4" d="M441.912 668.778L479.276 668.778"/>
<path class="l4" d="M432.571 631.414L432.571 706.142"/>
<path class="l4" d="M404.548 668.778L432.571 668.778"/>
<path class="l5" d="M478.03 443.349L480.521 443.349L480.521 445.84L478.03 445.84L478.03 443.349z"/>
<path class="l5" d="M403.302 518.077L405.793 518.077L405.793 520.568L403.302 520.568L403.302 518.077z"/>
<path class="l5" d="M478.03 592.805L480.521 592.805L480.521 595.296L478.03 595.296L478.03 592.805z"/>
<path class="l5" d="M478.03 518.077L480.521 518.077L480.521 520.568L478.03 520.568L478.03 518.077z"/>
<path class="l5" d="M303.665 368.621L306.156 368.621L306.156 371.112L303.665 371.112L303.665 368.621z"/>
<path class="l5" d="M228.937 293.893L231.428 293.893L231.428 296.384L228.937 296.384L228.937 293.893z"/>
<path class="l5" d="M303.665 219.165L306.156 219.165L306.156 221.656L303.665 221.656L303.665 219.165z"/>
<path class="l5" d="M303.665 293.893L306.156 293.893L306.156 296.384L303.665 296.384L303.665 293.893z"/>
<path class="l5" d="M652.395 219.165L654.886 219.165L654.886 221.656L652.395 221.656L652.395 219.165z"/>
<path class="l5" d="M727.123 293.893L729.614 293.893L729.614 296.384L727.123 296.384L727.123 293.893z"/>
<path class="l5" d="M652.395 368.621L654.886 368.621L654.886 371.112L652.395 371.112L652.395 368.621z"/>
<path class="l5" d="M652.395 293.893L654.886 293.893L654.886 296.384L652.395 296.384L652.395 293.893z"/>
<path class="l5" d="M478.03 592.805L480.521 592.805L480.521 595.296L478.03 595.296L478.03 592.805z"/>
<path class="l5" d="M403.302 667.532L405.793 667.532L405.793 670.023L403.302 670.023L403.302 667.532z"/>
<path class="l5" d="M478.03 742.26L480.521 742.26L480.521 744.751L478.03 744.751L478.03 742.26z"/>
<path class="l5" d="M478.03 667.532L480.521 667.532L480.521 670.023L478.03 670.023L478.03 667.532z"/>
<path class="l5" d="M230.183 643.869L242.637 643.869"/>
<path class="l5" d="M230.183 643.869L220.842 631.414L199.046 631.414L208.387 643.869L199.046 656.323L220.842 656.323L230.183 643.869"/>
<path class="l5" d="M239.524 640.755L245.751 640.755L245.751 646.982L239.524 646.982L239.524 640.755z"/>
<path class="l5" d="M479.276 162.808L479.276 170.592"/>
<path class="l5" d="M491.73 136.342L479.276 127.001L466.821 136.342L466.821 153.467L479.276 162.808L491.73 153.467L491.73 136.342"/>
<path class="l5" d="M476.162 167.479L482.389 167.479L482.389 173.706L476.162 173.706L476.162 167.479z"/>
<path class="l5" d="M479.276 768.415L479.276 776.199"/>
<path class="l5" d="M466.821 802.665L479.276 812.006L491.73 802.665L491.73 785.54L479.276 776.199L466.821 785.54L466.821 802.665"/>
<path class="l5" d="M476.162 765.301L482.389 765.301L482.389 771.529L476.162 771.529L476.162 765.301z"/>
<path class="l5" d="M230.183 581.595L242.637 581.595"/>
<path class="l5" d="M230.183 581.595L220.842 569.141L199.046 569.141L208.387 581.595L199.046 594.05L220.842 594.05L230.183 581.595"/>
<path class="l5" d="M239.524 578.482L245.751 578.482L245.751 584.709L239.524 584.709L239.524 578.482z"/>
<path class="l5" d="M703.459 419.685L725.255 419.685"/>
<path class="l5" d="M747.05 419.685L737.709 407.23L715.914 407.23L725.255 419.685L715.914 432.14L737.709 432.14L747.05 419.685"/>
<path class="l5" d="M700.345 416.571L706.573 416.571L706.573 422.799L700.345 422.799L700.345 416.571z"/>
<path class="l5" d="M227.069 292.025L233.296 292.025L233.296 298.252L227.069 298.252L227.069 292.025z"/>
<path class="l5" d="M725.255 292.025L731.482 292.025L731.482 298.252L725.255 298.252L725.255 292.025z"/>
<path class="l5" d="M401.434 665.664L407.661 665.664L407.661 671.892L401.434 671.892L401.434 665.664z"/>
<path class="l5" d="M401.434 516.209L407.661 516.209L407.661 522.436L401.434 522.436L401.434 516.209z"/>
<path class="l5" d="M239.524 640.755L245.751 640.755L245.751 646.982L239.524 646.982L239.524 640.755z"/>
<path class="l5" d="M239.524 578.482L245.751 578.482L245.751 584.709L239.524 584.709L239.524 578.482z"/>
<text fill="#000000"  xml:space="preserve" font-size="25.9057" transform="translate(491.73, 509.163)" >M1</text>
<text fill="#000000"  xml:space="preserve" font-size="25.9057" transform="translate(491.73, 546.526)" >nfet_01v8</text>
<text fill="#000000"  xml:space="preserve" font-size="25.9057" transform="translate(491.73, 583.89)" >1 x 0.5 / 0.15</text>
<text fill="#000000"  xml:space="preserve" font-size="25.9057" transform="translate(317.365, 247.615)" >M2</text>
<text fill="#000000"  xml:space="preserve" font-size="25.9057" transform="translate(317.365, 284.979)" >pfet_01v8</text>
<text fill="#000000"  xml:space="preserve" font-size="25.9057" transform="translate(317.365, 322.343)" >1 x 0.5 / 0.15</text>
<text fill="#000000"  xml:space="preserve" font-size="25.9057" transform="translate(603.186, 359.993)" >M3</text>
<text fill="#000000"  xml:space="preserve" font-size="25.9057" transform="translate(514.186, 322.629)" >pfet_01v8</text>
<text fill="#000000"  xml:space="preserve" font-size="25.9057" transform="translate(473.186, 285.265)" >1 x 0.5 / 0.15</text>
<text fill="#000000"  xml:space="preserve" font-size="25.9057" transform="translate(491.73, 658.618)" >M5</text>
<text fill="#000000"  xml:space="preserve" font-size="25.9057" transform="translate(491.73, 695.982)" >nfet_01v8</text>
<text fill="#000000"  xml:space="preserve" font-size="25.9057" transform="translate(491.73, 733.346)" >1 x 0.5 / 0.15</text>
<text fill="#000000"  xml:space="preserve" font-size="42.7443" transform="translate(166.932, 660.885)" >B</text>
<text fill="#000000"  xml:space="preserve" font-size="42.7443" transform="translate(494.735, 121.163) rotate(270)" >VP</text>
<text fill="#000000"  xml:space="preserve" font-size="42.7443" transform="translate(492.412, 878.845) rotate(270)" >VN</text>
<text fill="#000000"  xml:space="preserve" font-size="42.7443" transform="translate(166.932, 598.612)" >A</text>
<text fill="#000000"  xml:space="preserve" font-size="42.7443" transform="translate(753.278, 436.701)" >Y</text>
<text fill="#000000"  xml:space="preserve" font-size="42.7443" transform="translate(182.501, 313.712)" >A</text>
<text fill="#000000"  xml:space="preserve" font-size="42.7443" transform="translate(747.05, 305.162)" >B</text>
<text fill="#000000"  xml:space="preserve" font-size="42.7443" transform="translate(356.866, 687.351)" >A</text>
<text fill="#000000"  xml:space="preserve" font-size="42.7443" transform="translate(356.866, 537.895)" >B</text>
<text fill="#000000"  xml:space="preserve" font-size="42.7443" transform="translate(261.319, 653.892)" >B</text>
<text fill="#000000"  xml:space="preserve" font-size="42.7443" transform="translate(261.319, 591.618)" >A</text>
<path class="l1" d="M479.276 419.685L703.459 419.685"/>
<path class="l1" d="M479.276 394.776L479.276 419.685"/>
<path class="l1" d="M304.911 195.501L304.911 295.139"/>
<path class="l1" d="M479.276 195.501L653.641 195.501"/>
<path class="l1" d="M653.641 195.501L653.641 295.139"/>
<path class="l1" d="M479.276 170.592L479.276 195.501"/>
<path class="l1" d="M304.911 195.501L479.276 195.501"/>
<path class="l1" d="M304.911 369.866L304.911 394.776"/>
<path class="l1" d="M479.276 394.776L653.641 394.776"/>
<path class="l1" d="M653.641 369.866L653.641 394.776"/>
<path class="l1" d="M304.911 394.776L479.276 394.776"/>
<path class="l1" d="M479.276 743.506L479.276 768.415"/>
<path class="l1" d="M479.276 419.685L479.276 444.594"/>
<path class="l1" d="M479.276 668.778L479.276 743.506"/>
<path class="l1" d="M479.276 519.322L491.73 519.322"/>
<path class="l1" d="M491.73 519.322L504.185 519.322"/>
<path class="l1" d="M504.185 519.322L504.185 743.506"/>
<path class="l1" d="M479.276 743.506L504.185 743.506"/>
<circle class="l1" cx="479.276" cy="743.506" r="9.21644"/>
<circle class="l1" cx="479.276" cy="743.506" r="9.21644"/>
<circle class="l1" cx="479.276" cy="419.685" r="9.21644"/>
<circle class="l1" cx="479.276" cy="743.506" r="9.21644"/>
<circle class="l1" cx="479.276" cy="394.776" r="9.21644"/>
<circle class="l1" cx="479.276" cy="394.776" r="9.21644"/>
<circle class="l1" cx="479.276" cy="195.501" r="9.21644"/>
<circle class="l1" cx="479.276" cy="195.501" r="9.21644"/>
<circle class="l1" cx="479.276" cy="195.501" r="9.21644"/>
<circle class="l1" cx="479.276" cy="394.776" r="9.21644"/>
<circle class="l1" cx="479.276" cy="419.685" r="9.21644"/>
<circle class="l1" cx="479.276" cy="419.685" r="9.21644"/>
</svg>
